<svg id="Layer_1" data-name="Layer 1" xmlns="http://www.w3.org/2000/svg" viewBox="0 0 2416.6 1441.11"><defs><style>.cls-1{font-size:36.75px;font-family:Myriad Pro;}.cls-1,.cls-14,.cls-2{fill:#231f20;}.cls-2,.cls-4{stroke:#ec008c;}.cls-10,.cls-11,.cls-12,.cls-13,.cls-2,.cls-4,.cls-6,.cls-7,.cls-9{stroke-miterlimit:10;}.cls-3{letter-spacing:-1px;}.cls-10,.cls-11,.cls-12,.cls-13,.cls-4,.cls-6,.cls-7,.cls-9{fill:none;}.cls-5{letter-spacing:-2px;}.cls-11,.cls-12,.cls-6,.cls-7,.cls-9{stroke:#009444;}.cls-7{stroke-dasharray:12.05 12.05;}.cls-8{font-size:32.99px;fill:#009444;}.cls-14,.cls-8{font-family:Monaco;}.cls-9{stroke-dasharray:12.15 12.15;}.cls-10,.cls-13{stroke:#231f20;}.cls-11{stroke-dasharray:12 12;}.cls-12{stroke-dasharray:12.14 12.14;}.cls-13{stroke-width:0.96px;}.cls-14{font-size:35.83px;}</style></defs><title>origami_face_shield_v16_master</title><text class="cls-1" transform="translate(0 749.77)">L<tspan x="16.83" y="0">ens </tspan><tspan x="77.98" y="0">S</tspan><tspan x="96.32" y="0">e</tspan><tspan x="114.73" y="0">c</tspan><tspan x="131.67" y="0">tion</tspan></text><line class="cls-2" x1="206.25" y1="738.54" x2="373.2" y2="806.54"/><text class="cls-1" transform="translate(121.99 251.14)">C<tspan x="21.2" y="0">r</tspan><tspan x="32.85" y="0">o</tspan><tspan x="52.77" y="0">wn </tspan><tspan x="108.01" y="0">S</tspan><tspan x="126.35" y="0">e</tspan><tspan x="144.76" y="0">c</tspan><tspan x="161.7" y="0">tion</tspan></text><line class="cls-2" x1="349.25" y1="246.91" x2="524.92" y2="309.4"/><text class="cls-1" transform="translate(206.1 358.03)">C<tspan x="21.2" y="0">r</tspan><tspan x="32.85" y="0">o</tspan><tspan x="52.77" y="0">wn</tspan><tspan class="cls-3" x="100.22" y="0"> </tspan><tspan class="cls-3" x="106.68" y="0">V</tspan><tspan x="125.98" y="0">e</tspan><tspan x="144.39" y="0">n</tspan><tspan x="164.64" y="0">ts</tspan></text><line class="cls-2" x1="418.11" y1="343.56" x2="563.08" y2="343.54"/><text class="cls-1" transform="translate(15 474.78)">Headband<tspan x="0" y="44.1">A</tspan><tspan x="22.12" y="44.1">ttachme</tspan><tspan x="150.09" y="44.1">n</tspan><tspan x="170.33" y="44.1">t</tspan><tspan x="0" y="88.2">Slots</tspan></text><line class="cls-2" x1="213.25" y1="517.51" x2="374.27" y2="558.51"/><line class="cls-4" x1="213.25" y1="517.51" x2="329.38" y2="575.51"/><line class="cls-4" x1="418.11" y1="343.56" x2="677.92" y2="409.16"/><text class="cls-1" transform="translate(1001.73 242.22)">A<tspan x="22.27" y="0">ssembly Slots</tspan></text><line class="cls-4" x1="895.37" y1="263.73" x2="997.86" y2="242.22"/><line class="cls-4" x1="828.65" y1="398.09" x2="997.86" y2="242.22"/><text class="cls-1" transform="translate(1013.87 350.05)">A<tspan x="22.27" y="0">ssembly</tspan><tspan class="cls-3" x="147.33" y="0"> </tspan><tspan class="cls-5" x="153.61" y="0">T</tspan><tspan x="169.53" y="0">abs</tspan></text><line class="cls-4" x1="884.4" y1="440.58" x2="1009.99" y2="350.05"/><line class="cls-4" x1="1030.92" y1="415.33" x2="1009.99" y2="350.05"/><line class="cls-6" x1="1424.46" y1="170.97" x2="1424.46" y2="100.97"/><line class="cls-6" x1="2292.15" y1="170.97" x2="2292.15" y2="100.97"/><line class="cls-6" x1="1424.46" y1="135.97" x2="1430.46" y2="135.97"/><line class="cls-7" x1="1442.51" y1="135.97" x2="2280.12" y2="135.97"/><line class="cls-6" x1="2286.15" y1="135.97" x2="2292.15" y2="135.97"/><text class="cls-8" transform="translate(1790.43 122.08)">303.0mm</text><line class="cls-6" x1="1331.23" y1="210.76" x2="1401.23" y2="210.76"/><line class="cls-6" x1="1331.23" y1="1158.38" x2="1401.23" y2="1158.38"/><line class="cls-6" x1="1366.23" y1="210.76" x2="1366.23" y2="216.76"/><line class="cls-9" x1="1366.23" y1="228.91" x2="1366.23" y2="1146.31"/><line class="cls-6" x1="1366.23" y1="1152.38" x2="1366.23" y2="1158.38"/><text class="cls-8" transform="translate(1330.23 592.15) rotate(90)">334.3mm</text><path class="cls-10" d="M1063.77,1512.4l-14.24.3v-5c0-.61-2.61,0-3.17.21-3.13,1.29,0,0-15,17.84a6.53,6.53,0,0,0-1.8,4.15v4.34a6.53,6.53,0,0,0,1.8,4.15c15,17.84,11.9,16.55,15,17.84,0.56,0.23,3.17.82,3.17,0.21v-5l14.24,0.3" transform="translate(-120.96 -129.98)"/><path class="cls-10" d="M1649.3,1512.4l14.24,0.3v-5c0-.61,2.61,0,3.17.21,3.13,1.29,10.38,13.52,15,17.84a5.66,5.66,0,0,1,1.8,4.15v4.34a5.66,5.66,0,0,1-1.8,4.15c-4.65,4.32-11.9,16.55-15,17.84-0.56.23-3.17,0.82-3.17,0.21v-5l-14.24.3" transform="translate(-120.96 -129.98)"/><path class="cls-10" d="M430.26,1538.41a4.81,4.81,0,0,1,4.81-4.81h4.2a8.41,8.41,0,0,1,8.41,8.41v20.18c0,4.64-3.76,6.41-8.41,6.41H422.73c-4.64,0-8.41-1.76-8.41-6.41" transform="translate(-120.96 -129.98)"/><path class="cls-10" d="M463.63,1538.41a4.81,4.81,0,0,1,4.81-4.81h4.2A8.41,8.41,0,0,1,481,1542v20.18c0,4.64-3.76,6.41-8.41,6.41H456.09c-4.64,0-8.41-1.76-8.41-6.41" transform="translate(-120.96 -129.98)"/><path class="cls-10" d="M497,1538.41a4.81,4.81,0,0,1,4.81-4.81H506a8.41,8.41,0,0,1,8.41,8.41v20.18c0,4.64-3.76,6.41-8.41,6.41H489.46c-4.64,0-8.41-1.76-8.41-6.41" transform="translate(-120.96 -129.98)"/><path class="cls-10" d="M530.35,1538.41a4.81,4.81,0,0,1,4.81-4.81h4.2a8.41,8.41,0,0,1,8.41,8.41v20.18c0,4.64-3.76,6.41-8.41,6.41H522.82c-4.64,0-8.41-1.76-8.41-6.41" transform="translate(-120.96 -129.98)"/><path class="cls-10" d="M563.71,1538.41a4.81,4.81,0,0,1,4.81-4.81h4.2a8.41,8.41,0,0,1,8.41,8.41v20.18c0,4.64-3.76,6.41-8.41,6.41H556.18c-4.64,0-8.41-1.76-8.41-6.41" transform="translate(-120.96 -129.98)"/><path class="cls-10" d="M597.08,1538.41a4.81,4.81,0,0,1,4.81-4.81h4.2a8.41,8.41,0,0,1,8.41,8.41v20.18c0,4.64-3.76,6.41-8.41,6.41H589.54c-4.64,0-8.41-1.76-8.41-6.41" transform="translate(-120.96 -129.98)"/><path class="cls-10" d="M630.44,1538.41a4.81,4.81,0,0,1,4.81-4.81h4.2a8.41,8.41,0,0,1,8.41,8.41v20.18c0,4.64-3.76,6.41-8.41,6.41H622.9c-4.64,0-8.41-1.76-8.41-6.41" transform="translate(-120.96 -129.98)"/><path class="cls-10" d="M663.8,1538.41a4.81,4.81,0,0,1,4.81-4.81h4.2a8.41,8.41,0,0,1,8.41,8.41v18.18a8.41,8.41,0,0,1-8.41,8.41H656.27c-4.64,0-8.41-1.76-8.41-6.41" transform="translate(-120.96 -129.98)"/><path class="cls-10" d="M689.52,1570.56h0.11a8.41,8.41,0,0,1-8.41-8.41" transform="translate(-120.96 -129.98)"/><path class="cls-10" d="M2282.19,1528.06a4.81,4.81,0,0,1-4.81,4.81h-4.2a8.41,8.41,0,0,1-8.41-8.41v-18.18a8.41,8.41,0,0,1,8.41-8.41h16.55a8.41,8.41,0,0,1,8.41,8.41" transform="translate(-120.96 -129.98)"/><path class="cls-10" d="M2248.82,1528.06a4.81,4.81,0,0,1-4.81,4.81h-4.2a8.41,8.41,0,0,1-8.41-8.41v-18.18a8.41,8.41,0,0,1,8.41-8.41h16.55a8.41,8.41,0,0,1,8.41,8.41" transform="translate(-120.96 -129.98)"/><path class="cls-10" d="M2215.46,1528.06a4.81,4.81,0,0,1-4.81,4.81h-4.2a8.41,8.41,0,0,1-8.41-8.41v-18.18a8.41,8.41,0,0,1,8.41-8.41H2223a8.41,8.41,0,0,1,8.41,8.41" transform="translate(-120.96 -129.98)"/><path class="cls-10" d="M2182.1,1528.06a4.81,4.81,0,0,1-4.81,4.81h-4.2a8.41,8.41,0,0,1-8.41-8.41v-18.18a8.41,8.41,0,0,1,8.41-8.41h16.55a8.41,8.41,0,0,1,8.41,8.41" transform="translate(-120.96 -129.98)"/><path class="cls-10" d="M2148.74,1528.06a4.81,4.81,0,0,1-4.81,4.81h-4.2a8.41,8.41,0,0,1-8.41-8.41v-18.18a8.41,8.41,0,0,1,8.41-8.41h16.55a8.41,8.41,0,0,1,8.41,8.41" transform="translate(-120.96 -129.98)"/><path class="cls-10" d="M2115.38,1528.06a4.81,4.81,0,0,1-4.81,4.81h-4.2a8.41,8.41,0,0,1-8.41-8.41v-18.18a8.41,8.41,0,0,1,8.41-8.41h16.55a8.41,8.41,0,0,1,8.41,8.41" transform="translate(-120.96 -129.98)"/><path class="cls-10" d="M2082,1528.06a4.81,4.81,0,0,1-4.81,4.81H2073a8.41,8.41,0,0,1-8.41-8.41v-18.18a8.41,8.41,0,0,1,8.41-8.41h16.55a8.41,8.41,0,0,1,8.41,8.41" transform="translate(-120.96 -129.98)"/><path class="cls-10" d="M2048.65,1528.06a4.81,4.81,0,0,1-4.81,4.81h-4.2a8.41,8.41,0,0,1-8.41-8.41v-18.18a8.41,8.41,0,0,1,8.41-8.41h16.55a8.41,8.41,0,0,1,8.41,8.41" transform="translate(-120.96 -129.98)"/><path class="cls-10" d="M396.9,1538.41a4.81,4.81,0,0,1,4.81-4.81h4.2a8.41,8.41,0,0,1,8.41,8.41v20.18c0,4.64-3.76,6.41-8.41,6.41H389.37l-0.11,0h0.11c-9.31,0-16.86-8.06-16.86-18V1513.9a18.51,18.51,0,0,1,5.31-13.09l0.62-.59a16.86,16.86,0,0,1,10.94-4.32l1633.45,0a8.41,8.41,0,0,1,8.41,8.41" transform="translate(-120.96 -129.98)"/><path class="cls-10" d="M2315.55,1528.06a4.81,4.81,0,0,1-4.81,4.81h-4.2a8.41,8.41,0,0,1-8.41-8.41v-18.18a8.41,8.41,0,0,1,8.41-8.41h16.55l0.11,0h-0.11c9.31,0,16.86,8.06,16.86,18v36.66a18.51,18.51,0,0,1-5.31,13.09l-0.81.79a16.16,16.16,0,0,1-10.74,4.12H689.52" transform="translate(-120.96 -129.98)"/><line class="cls-6" x1="251.55" y1="1328.14" x2="251.55" y2="1258.14"/><line class="cls-6" x1="2218.98" y1="1328.14" x2="2218.98" y2="1258.14"/><line class="cls-6" x1="251.55" y1="1293.14" x2="257.55" y2="1293.14"/><line class="cls-11" x1="269.54" y1="1293.14" x2="2206.99" y2="1293.14"/><line class="cls-6" x1="2212.98" y1="1293.14" x2="2218.98" y2="1293.14"/><text class="cls-8" transform="translate(1185.78 1279.25)">694mm</text><line class="cls-6" x1="2237.26" y1="1365.92" x2="2307.26" y2="1365.92"/><line class="cls-6" x1="2237.26" y1="1440.61" x2="2307.26" y2="1440.61"/><line class="cls-6" x1="2272.26" y1="1367.91" x2="2272.26" y2="1373.91"/><line class="cls-12" x1="2272.26" y1="1386.05" x2="2272.26" y2="1428.54"/><line class="cls-6" x1="2272.26" y1="1434.61" x2="2272.26" y2="1440.61"/><text class="cls-8" transform="translate(2297.82 1415.81)">25.6mm</text><line class="cls-10" x1="563.25" y1="414.33" x2="526.65" y2="381.85"/><line class="cls-10" x1="484.79" y1="287.91" x2="477.4" y2="239.54"/><line class="cls-10" x1="809.22" y1="415.33" x2="845.82" y2="382.85"/><line class="cls-10" x1="891.68" y1="287.91" x2="899.07" y2="239.54"/><line class="cls-10" x1="1040.41" y1="551.16" x2="1042.84" y2="592.25"/><line class="cls-10" x1="995.64" y1="537.64" x2="1000.4" y2="613.38"/><path class="cls-10" d="M806.93,496.27l21.34,0.11a8.5,8.5,0,0,1,7.41,4.4l26.75,48.59A8.5,8.5,0,0,1,854.93,562l-34.52-.18" transform="translate(-120.96 -129.98)"/><path class="cls-10" d="M792.06,561.66l-34.52-.18a8.5,8.5,0,0,1-7.36-12.68l27.25-48.31a8.5,8.5,0,0,1,7.45-4.33l21,0.11" transform="translate(-120.96 -129.98)"/><path class="cls-13" d="M905.91,444.61l20.75-5a8.64,8.64,0,0,1,8.17,2.19l36.72,37.3c4.3,4.36,1.82,11.6-4.49,13.11l-33.57,8.06" transform="translate(-120.96 -129.98)"/><path class="cls-13" d="M905.92,506.91L872.35,515c-6.31,1.51-11.8-3.81-10-9.64l15.79-49.9a8.64,8.64,0,0,1,6.28-5.66l20.46-4.91" transform="translate(-120.96 -129.98)"/><path class="cls-10" d="M807.48,449.41c95.63-.25,177.21-70.78,205.63-106.53,3.36-4.23,15.17-1.79,15.1,3.61h0c0,228.63-185.52,242-185.62,242h0c0.11,0,52.86-1.16,125-7.37v0l1.13-16.26c0.14-2.81,2.31-4.28,5.13-5.35l11.63-2.68a8.5,8.5,0,0,1,6,.82l19.48,10.64a5.67,5.67,0,0,1,2.93,4.44l0.38,4" transform="translate(-120.96 -129.98)"/><path class="cls-10" d="M807.27,1288.36H909.72c189.35,0,325.29-163.12,325.29-361.94l0.43-373.09a14.17,14.17,0,0,0-18-13.65c-25.33,7.13-48.2,13.22-75.84,18.44" transform="translate(-120.96 -129.98)"/><path class="cls-10" d="M991.44,578.92c39.87-3.85,84.13-9.22,127.92-16.67l0,0.18v0L1119,546.16c-0.12-2.81,1.9-4.48,4.6-5.81l11.33-3.76a8.5,8.5,0,0,1,6,.26l20.39,8.76a5.67,5.67,0,0,1,3.33,4.15l0.75,3.92" transform="translate(-120.96 -129.98)"/><line class="cls-10" x1="721.67" y1="464.78" x2="721.67" y2="458.54"/><line class="cls-10" x1="331.07" y1="551.16" x2="328.64" y2="592.25"/><line class="cls-10" x1="375.84" y1="537.64" x2="371.08" y2="613.38"/><path class="cls-10" d="M805.92,449.41c-95.63-.25-177.21-70.78-205.63-106.53-3.36-4.23-15.17-1.79-15.1,3.61h0c0,228.63,185.52,242,185.62,242h0c-0.11,0-52.86-1.16-125-7.37v0l-1.13-16.26c-0.14-2.81-2.31-4.28-5.13-5.35l-11.63-2.68a8.5,8.5,0,0,0-6,.82l-19.48,10.64a5.67,5.67,0,0,0-2.93,4.44l-0.38,4" transform="translate(-120.96 -129.98)"/><path class="cls-10" d="M806.13,1288.36H702.83c-189.35,0-325.29-163.12-325.29-361.94l-0.43-373.09a14.17,14.17,0,0,1,18-13.65c25.33,7.13,48.2,13.22,75.84,18.44" transform="translate(-120.96 -129.98)"/><path class="cls-10" d="M622,578.92c-39.87-3.85-84.13-9.22-127.92-16.67l0,0.18v0l0.41-16.29c0.12-2.81-1.9-4.48-4.6-5.81l-11.33-3.76a8.5,8.5,0,0,0-6,.26L452,545.6a5.67,5.67,0,0,0-3.33,4.15L448,553.67" transform="translate(-120.96 -129.98)"/><line class="cls-10" x1="649.81" y1="464.78" x2="649.81" y2="458.54"/><path class="cls-13" d="M707.95,444.61l-20.75-5a8.64,8.64,0,0,0-8.17,2.19l-36.72,37.3c-4.3,4.36-1.82,11.6,4.49,13.11l33.57,8.06" transform="translate(-120.96 -129.98)"/><path class="cls-13" d="M707.93,506.91L741.5,515c6.31,1.51,11.8-3.81,10-9.64l-15.79-49.9a8.64,8.64,0,0,0-6.28-5.66l-20.46-4.91" transform="translate(-120.96 -129.98)"/><line class="cls-10" x1="1735.03" y1="414.33" x2="1698.43" y2="381.85"/><line class="cls-10" x1="1656.58" y1="287.91" x2="1649.19" y2="239.54"/><line class="cls-10" x1="1981.01" y1="415.33" x2="2017.61" y2="382.85"/><line class="cls-10" x1="2063.46" y1="287.91" x2="2070.85" y2="239.54"/><line class="cls-10" x1="2212.19" y1="551.16" x2="2214.63" y2="592.25"/><line class="cls-10" x1="2167.42" y1="537.64" x2="2172.19" y2="613.38"/><path class="cls-10" d="M1978.71,496.27l21.34,0.11a8.5,8.5,0,0,1,7.41,4.4l26.75,48.59a8.5,8.5,0,0,1-7.49,12.61l-34.52-.18" transform="translate(-120.96 -129.98)"/><path class="cls-10" d="M1963.85,561.66l-34.52-.18A8.5,8.5,0,0,1,1922,548.8l27.25-48.31a8.5,8.5,0,0,1,7.45-4.33l21,0.11" transform="translate(-120.96 -129.98)"/><path class="cls-13" d="M2077.69,444.61l20.75-5a8.64,8.64,0,0,1,8.17,2.19l36.72,37.3c4.3,4.36,1.82,11.6-4.49,13.11l-33.57,8.06" transform="translate(-120.96 -129.98)"/><path class="cls-13" d="M2077.7,506.91L2044.14,515c-6.31,1.51-11.8-3.81-10-9.64l15.79-49.9a8.64,8.64,0,0,1,6.28-5.66l20.46-4.91" transform="translate(-120.96 -129.98)"/><path class="cls-10" d="M1979.26,449.41c95.63-.25,177.21-70.78,205.63-106.53,3.36-4.23,15.17-1.79,15.1,3.61h0c0,228.63-185.52,242-185.62,242h0c0.11,0,52.86-1.16,125-7.37v0l1.13-16.26c0.14-2.81,2.31-4.28,5.13-5.35l11.63-2.68a8.5,8.5,0,0,1,6,.82l19.48,10.64a5.67,5.67,0,0,1,2.93,4.44l0.38,4" transform="translate(-120.96 -129.98)"/><path class="cls-10" d="M1979,1288.36H2081.5c189.35,0,325.29-163.12,325.29-361.94l0.43-373.09a14.17,14.17,0,0,0-18-13.65c-25.33,7.13-48.2,13.22-75.84,18.44" transform="translate(-120.96 -129.98)"/><path class="cls-10" d="M2163.23,578.92c39.87-3.85,84.13-9.22,127.92-16.67l0,0.18v0l-0.41-16.29c-0.12-2.81,1.9-4.48,4.6-5.81l11.33-3.76a8.5,8.5,0,0,1,6,.26l20.39,8.76a5.67,5.67,0,0,1,3.33,4.15l0.75,3.92" transform="translate(-120.96 -129.98)"/><line class="cls-10" x1="1893.46" y1="464.78" x2="1893.46" y2="458.54"/><line class="cls-10" x1="1502.86" y1="551.16" x2="1500.42" y2="592.25"/><line class="cls-10" x1="1547.63" y1="537.64" x2="1542.86" y2="613.38"/><path class="cls-10" d="M1977.7,449.41c-95.63-.25-177.21-70.78-205.63-106.53-3.36-4.23-15.17-1.79-15.1,3.61h0c0,228.63,185.52,242,185.62,242h0c-0.11,0-52.86-1.16-125-7.37v0l-1.13-16.26c-0.14-2.81-2.31-4.28-5.13-5.35l-11.63-2.68a8.5,8.5,0,0,0-6,.82l-19.48,10.64a5.67,5.67,0,0,0-2.93,4.44l-0.38,4" transform="translate(-120.96 -129.98)"/><path class="cls-10" d="M1977.92,1288.36H1874.61c-189.35,0-325.29-163.12-325.29-361.94l-0.43-373.09a14.17,14.17,0,0,1,18-13.65c25.33,7.13,48.2,13.22,75.84,18.44" transform="translate(-120.96 -129.98)"/><path class="cls-10" d="M1793.74,578.92c-39.87-3.85-84.13-9.22-127.92-16.67l0,0.18v0l0.41-16.29c0.12-2.81-1.9-4.48-4.6-5.81l-11.33-3.76a8.5,8.5,0,0,0-6,.26l-20.39,8.76a5.67,5.67,0,0,0-3.33,4.15l-0.75,3.92" transform="translate(-120.96 -129.98)"/><line class="cls-10" x1="1821.59" y1="464.78" x2="1821.59" y2="458.54"/><path class="cls-13" d="M1879.73,444.61l-20.75-5a8.64,8.64,0,0,0-8.17,2.19l-36.72,37.3c-4.3,4.36-1.82,11.6,4.49,13.11l33.57,8.06" transform="translate(-120.96 -129.98)"/><path class="cls-13" d="M1879.72,506.91l33.57,8.06c6.31,1.51,11.8-3.81,10-9.64l-15.79-49.9a8.64,8.64,0,0,0-6.28-5.66l-20.46-4.91" transform="translate(-120.96 -129.98)"/><text class="cls-14" transform="translate(254.95 31.49)">Use .005”-0.01” PET (mylar/duralar) film</text></svg>