<?xml version="1.0" encoding="utf-8"?>
<!-- Generator: Adobe Illustrator 19.2.0, SVG Export Plug-In . SVG Version: 6.00 Build 0)  -->
<svg version="1.1"
	 id="svg845" inkscape:version="0.92.2 (5c3e80d, 2017-08-06)" sodipodi:docname="Origami_V19_5mil_Headband_kerf_version.svg" xmlns:cc="http://creativecommons.org/ns#" xmlns:dc="http://purl.org/dc/elements/1.1/" xmlns:inkscape="http://www.inkscape.org/namespaces/inkscape" xmlns:rdf="http://www.w3.org/1999/02/22-rdf-syntax-ns#" xmlns:sodipodi="http://sodipodi.sourceforge.net/DTD/sodipodi-0.dtd" xmlns:svg="http://www.w3.org/2000/svg"
	 xmlns="http://www.w3.org/2000/svg" xmlns:xlink="http://www.w3.org/1999/xlink" x="0px" y="0px" viewBox="0 0 1970 73.6"
	 style="enable-background:new 0 0 1970 73.6;" xml:space="preserve">
<style type="text/css">
	.st0{fill:none;stroke:#000000;stroke-width:0.1;}
</style>
<sodipodi:namedview  bordercolor="#666666" borderopacity="1.0" fit-margin-bottom="0" fit-margin-left="0" fit-margin-right="0" fit-margin-top="0" id="base" inkscape:current-layer="layer1" inkscape:cx="502.50579" inkscape:cy="-220.11208" inkscape:document-units="mm" inkscape:pageopacity="0.0" inkscape:pageshadow="2" inkscape:window-height="1057" inkscape:window-maximized="1" inkscape:window-width="1920" inkscape:window-x="1912" inkscape:window-y="-8" inkscape:zoom="1" pagecolor="#ffffff" showgrid="false">
	</sodipodi:namedview>
<g id="layer1" transform="translate(865.76405,-106.10289)" inkscape:groupmode="layer" inkscape:label="Layer 1">
	
		<path id="path1418-5" inkscape:connector-curvature="0" sodipodi:nodetypes="ccscssscccscssscccscssscccscssscccscssscccscssscccscssscccscsssccsscsccscsssc" class="st0" d="
		M1084.3,138.1c0,2.6-2.1,4.7-4.7,4.7h-5c-4.6,0-8.4-3.8-8.4-8.4v-16.8c0-4.6-3.7-8.3-8.3-8.3h-17.4c-4.6,0-8.3,3.7-8.3,8.3
		 M1050.3,138.1c0,2.6-2.1,4.7-4.7,4.7h-5c-4.6,0-8.4-3.8-8.4-8.4v-16.8c0-4.6-3.7-8.3-8.3-8.3h-17.4c-4.6,0-8.3,3.7-8.3,8.3
		 M1016.3,138.1c0,2.6-2.1,4.7-4.7,4.7h-5c-4.6,0-8.4-3.8-8.4-8.4v-16.8c0-4.6-3.7-8.3-8.3-8.3h-17.4c-4.6,0-8.3,3.7-8.3,8.3
		 M982.3,138.1c0,2.6-2.1,4.7-4.7,4.7h-5c-4.6,0-8.4-3.8-8.4-8.4v-16.8c0-4.6-3.7-8.3-8.3-8.3h-17.4c-4.6,0-8.3,3.7-8.3,8.3
		 M948.3,138.1c0,2.6-2.1,4.7-4.7,4.7h-5c-4.6,0-8.4-3.8-8.4-8.4v-16.8c0-4.6-3.7-8.3-8.3-8.3h-17.4c-4.6,0-8.3,3.7-8.3,8.3
		 M914.3,138.1c0,2.6-2.1,4.7-4.7,4.7h-5c-4.6,0-8.4-3.8-8.4-8.4v-16.8c0-4.6-3.7-8.3-8.3-8.3h-17.4c-4.6,0-8.3,3.7-8.3,8.3
		 M880.2,138.1c0,2.6-2.1,4.7-4.7,4.7h-5c-4.6,0-8.4-3.8-8.4-8.4v-16.8c0-4.6-5.5-8.3-10.1-8.3h-15.6c-4.6,0-8.3,3.7-8.3,8.3
		 M846.2,138.1c0,2.6-2.1,4.7-4.7,4.7h-5c-4.6,0-8.4-3.8-8.4-8.4v-16.8c0-4.6-3.7-8.3-8.3-8.3h-17.4c-4.6,0-8.3,3.7-8.3,8.3
		 M812.2,138.1c0,2.6-2.1,4.7-4.7,4.7h-5c-4.6,0-8.4-3.8-8.4-8.4v-16.8c0-4.6-3.7-11.3-8.3-11.3l-374.4,0h-1262
		c-8.3,0-15.1,6.7-15.1,15.1v43.2c0,8.3,6.7,12.1,15.1,12.1h14.5c4.6,0,8.3-3.7,8.3-8.3"/>
	<path id="path1973" inkscape:connector-curvature="0" sodipodi:nodetypes="cssccccccccccccsscccssccccccccccccssc" class="st0" d="
		M376.3,157h74.4c0.4,0,0.7,0.3,0.7,0.7v1.1c0,0.2,0.1,0.4,0.2,0.6c0.2,0.1,0.4,0.2,0.6,0.2l4.2-0.3l40.9-9.4
		c1.9-0.4,3.3-2.2,3.3-4.2v-5.7c0-2-1.4-3.7-3.3-4.2l-40.9-9.4l-4.2-0.3c-0.2,0-0.4,0.1-0.6,0.2c-0.2,0.1-0.2,0.3-0.2,0.6v1.1
		c0,0.4-0.3,0.7-0.7,0.7h-74.4 M-137.8,128.9L-137.8,128.9l-74.4-0.1c-0.4,0-0.7-0.3-0.7-0.7V127c0-0.2-0.1-0.4-0.2-0.6
		c-0.2-0.1-0.4-0.2-0.6-0.2l-4.2,0.3l-40.9,9.4c-1.9,0.4-3.3,2.2-3.3,4.2v5.7c0,2,1.4,3.7,3.3,4.2l40.9,9.4l4.2,0.3
		c0.2,0,0.4-0.1,0.6-0.2c0.2-0.1,0.2-0.3,0.2-0.6v-1.1c0-0.4,0.3-0.7,0.7-0.7h74.4"/>
	<g id="global-translation-frame" transform="matrix(1,0,0,-1,-518.27805,-51.572111)">
		
			<path id="path1418" inkscape:connector-curvature="0" sodipodi:nodetypes="ccscssscccscssscccscssscccscssscccscssscccscssscccscssscccscsssccsscsssscssc" class="st0" d="
			M-327.6-199.3c0,2.6,2.1,4.7,4.7,4.7h5c4.6,0,8.4-3.8,8.4-8.4v-16.8c0-4.6,3.7-8.3,8.3-8.3h17.4c4.6,0,8.3,3.7,8.3,8.3
			 M-293.6-199.3c0,2.6,2.1,4.7,4.7,4.7h5c4.6,0,8.4-3.8,8.4-8.4v-16.8c0-4.6,3.7-8.3,8.3-8.3h17.4c4.6,0,8.3,3.7,8.3,8.3
			 M-259.6-199.3c0,2.6,2.1,4.7,4.7,4.7h5c4.6,0,8.4-3.8,8.4-8.4v-16.8c0-4.6,3.7-8.3,8.3-8.3h17.4c4.6,0,8.3,3.7,8.3,8.3
			 M-225.5-199.3c0,2.6,2.1,4.7,4.7,4.7h5c4.6,0,8.4-3.8,8.4-8.4v-16.8c0-4.6,3.7-8.3,8.3-8.3h17.4c4.6,0,8.3,3.7,8.3,8.3
			 M-191.5-199.3c0,2.6,2.1,4.7,4.7,4.7h5c4.6,0,8.4-3.8,8.4-8.4v-16.8c0-4.6,3.7-8.3,8.3-8.3h17.4c4.6,0,8.3,3.7,8.3,8.3
			 M-157.5-199.3c0,2.6,2.1,4.7,4.7,4.7h5c4.6,0,8.4-3.8,8.4-8.4v-16.8c0-4.6,3.7-8.3,8.3-8.3h17.4c4.6,0,8.3,3.7,8.3,8.3
			 M-123.5-199.3c0,2.6,2.1,4.7,4.7,4.7h5c4.6,0,8.4-3.8,8.4-8.4v-16.8c0-4.6,5.5-8.3,10.1-8.3h15.6c4.6,0,8.3,3.7,8.3,8.3
			 M-89.5-199.3c0,2.6,2.1,4.7,4.7,4.7h5c4.6,0,8.4-3.8,8.4-8.4v-16.8c0-4.6,3.7-8.3,8.3-8.3h17.4c4.6,0,8.3,3.7,8.3,8.3
			 M-55.5-199.3c0,2.6,2.1,4.7,4.7,4.7h5c4.6,0,8.4-3.8,8.4-8.4v-16.8c0-4.6,3.7-11.3,8.3-11.3h1636.4c8.3,0,15.1,6.7,15.1,15.1
			v43.2c0,8.3-6.7,12.1-15.1,12.1h-14.5c-4.6,0-8.3-3.7-8.3-8.3"/>
	</g>
</g>
</svg>
