  0
SECTION
  2
HEADER
  9
$ACADVER
  1
AC1024
  9
$ACADMAINTVER
 70
     6
  9
$DWGCODEPAGE
  3
UNDEFINED
  9
$INSBASE
 10
0.0
 20
0.0
 30
0.0
  9
$EXTMIN
 10
1.000000000000000E+20
 20
1.000000000000000E+20
 30
1.000000000000000E+20
  9
$EXTMAX
 10
-1.000000000000000E+20
 20
-1.000000000000000E+20
 30
-1.000000000000000E+20
  9
$LIMMIN
 10
0.0
 20
0.0
  9
$LIMMAX
 10
12.0
 20
9.0
  9
$ORTHOMODE
 70
     0
  9
$REGENMODE
 70
     1
  9
$FILLMODE
 70
     1
  9
$QTEXTMODE
 70
     0
  9
$MIRRTEXT
 70
     1
  9
$LTSCALE
 40
1.0
  9
$ATTMODE
 70
     1
  9
$TEXTSIZE
 40
0.2
  9
$TRACEWID
 40
0.05
  9
$TEXTSTYLE
  7
Standard
  9
$CLAYER
  8
0
  9
$CELTYPE
  6
ByLayer
  9
$CECOLOR
 62
   256
  9
$CELTSCALE
 40
1.0
  9
$DISPSILH
 70
     0
  9
$DIMSCALE
 40
1.0
  9
$DIMASZ
 40
0.18
  9
$DIMEXO
 40
0.0625
  9
$DIMDLI
 40
0.38
  9
$DIMRND
 40
0.0
  9
$DIMDLE
 40
0.0
  9
$DIMEXE
 40
0.18
  9
$DIMTP
 40
0.0
  9
$DIMTM
 40
0.0
  9
$DIMTXT
 40
0.18
  9
$DIMCEN
 40
0.09
  9
$DIMTSZ
 40
0.0
  9
$DIMTOL
 70
     0
  9
$DIMLIM
 70
     0
  9
$DIMTIH
 70
     1
  9
$DIMTOH
 70
     1
  9
$DIMSE1
 70
     0
  9
$DIMSE2
 70
     0
  9
$DIMTAD
 70
     0
  9
$DIMZIN
 70
     0
  9
$DIMBLK
  1

  9
$DIMASO
 70
     1
  9
$DIMSHO
 70
     1
  9
$DIMPOST
  1

  9
$DIMAPOST
  1

  9
$DIMALT
 70
     0
  9
$DIMALTD
 70
     2
  9
$DIMALTF
 40
25.4
  9
$DIMLFAC
 40
1.0
  9
$DIMTOFL
 70
     0
  9
$DIMTVP
 40
0.0
  9
$DIMTIX
 70
     0
  9
$DIMSOXD
 70
     0
  9
$DIMSAH
 70
     0
  9
$DIMBLK1
  1

  9
$DIMBLK2
  1

  9
$DIMSTYLE
  2
Standard
  9
$DIMCLRD
 70
     0
  9
$DIMCLRE
 70
     0
  9
$DIMCLRT
 70
     0
  9
$DIMTFAC
 40
1.0
  9
$DIMGAP
 40
0.09
  9
$DIMJUST
 70
     0
  9
$DIMSD1
 70
     0
  9
$DIMSD2
 70
     0
  9
$DIMTOLJ
 70
     1
  9
$DIMTZIN
 70
     0
  9
$DIMALTZ
 70
     0
  9
$DIMALTTZ
 70
     0
  9
$DIMUPT
 70
     0
  9
$DIMDEC
 70
     4
  9
$DIMTDEC
 70
     4
  9
$DIMALTU
 70
     2
  9
$DIMALTTD
 70
     2
  9
$DIMTXSTY
  7
Standard
  9
$DIMAUNIT
 70
     0
  9
$DIMADEC
 70
     0
  9
$DIMALTRND
 40
0.0
  9
$DIMAZIN
 70
     0
  9
$DIMDSEP
 70
    46
  9
$DIMATFIT
 70
     3
  9
$DIMFRAC
 70
     0
  9
$DIMLDRBLK
  1

  9
$DIMLUNIT
 70
     2
  9
$DIMLWD
 70
    -2
  9
$DIMLWE
 70
    -2
  9
$DIMTMOVE
 70
     0
  9
$DIMFXL
 40
1.0
  9
$DIMFXLON
 70
     0
  9
$DIMJOGANG
 40
0.7853981633974483
  9
$DIMTFILL
 70
     0
  9
$DIMTFILLCLR
 70
     0
  9
$DIMARCSYM
 70
     0
  9
$DIMLTYPE
  6

  9
$DIMLTEX1
  6

  9
$DIMLTEX2
  6

  9
$DIMTXTDIRECTION
 70
     0
  9
$LUNITS
 70
     2
  9
$LUPREC
 70
     4
  9
$SKETCHINC
 40
0.1
  9
$FILLETRAD
 40
0.5
  9
$AUNITS
 70
     0
  9
$AUPREC
 70
     0
  9
$MENU
  1
.
  9
$ELEVATION
 40
0.0
  9
$PELEVATION
 40
0.0
  9
$THICKNESS
 40
0.0
  9
$LIMCHECK
 70
     0
  9
$CHAMFERA
 40
0.5
  9
$CHAMFERB
 40
0.5
  9
$CHAMFERC
 40
1.0
  9
$CHAMFERD
 40
0.0
  9
$SKPOLY
 70
     0
  9
$TDCREATE
 40
2458939.513009248
  9
$TDUCREATE
 40
2458939.846342593
  9
$TDUPDATE
 40
2458939.513009248
  9
$TDUUPDATE
 40
2458939.846342593
  9
$TDINDWG
 40
0.0000000116
  9
$TDUSRTIMER
 40
0.0000000116
  9
$USRTIMER
 70
     1
  9
$ANGBASE
 50
0.0
  9
$ANGDIR
 70
     0
  9
$PDMODE
 70
     0
  9
$PDSIZE
 40
0.0
  9
$PLINEWID
 40
0.0
  9
$SPLFRAME
 70
     0
  9
$SPLINETYPE
 70
     6
  9
$SPLINESEGS
 70
     8
  9
$HANDSEED
  5
63
  9
$SURFTAB1
 70
     6
  9
$SURFTAB2
 70
     6
  9
$SURFTYPE
 70
     6
  9
$SURFU
 70
     6
  9
$SURFV
 70
     6
  9
$UCSBASE
  2

  9
$UCSNAME
  2

  9
$UCSORG
 10
0.0
 20
0.0
 30
0.0
  9
$UCSXDIR
 10
1.0
 20
0.0
 30
0.0
  9
$UCSYDIR
 10
0.0
 20
1.0
 30
0.0
  9
$UCSORTHOREF
  2

  9
$UCSORTHOVIEW
 70
     0
  9
$UCSORGTOP
 10
0.0
 20
0.0
 30
0.0
  9
$UCSORGBOTTOM
 10
0.0
 20
0.0
 30
0.0
  9
$UCSORGLEFT
 10
0.0
 20
0.0
 30
0.0
  9
$UCSORGRIGHT
 10
0.0
 20
0.0
 30
0.0
  9
$UCSORGFRONT
 10
0.0
 20
0.0
 30
0.0
  9
$UCSORGBACK
 10
0.0
 20
0.0
 30
0.0
  9
$PUCSBASE
  2

  9
$PUCSNAME
  2

  9
$PUCSORG
 10
0.0
 20
0.0
 30
0.0
  9
$PUCSXDIR
 10
1.0
 20
0.0
 30
0.0
  9
$PUCSYDIR
 10
0.0
 20
1.0
 30
0.0
  9
$PUCSORTHOREF
  2

  9
$PUCSORTHOVIEW
 70
     0
  9
$PUCSORGTOP
 10
0.0
 20
0.0
 30
0.0
  9
$PUCSORGBOTTOM
 10
0.0
 20
0.0
 30
0.0
  9
$PUCSORGLEFT
 10
0.0
 20
0.0
 30
0.0
  9
$PUCSORGRIGHT
 10
0.0
 20
0.0
 30
0.0
  9
$PUCSORGFRONT
 10
0.0
 20
0.0
 30
0.0
  9
$PUCSORGBACK
 10
0.0
 20
0.0
 30
0.0
  9
$USERI1
 70
     0
  9
$USERI2
 70
     0
  9
$USERI3
 70
     0
  9
$USERI4
 70
     0
  9
$USERI5
 70
     0
  9
$USERR1
 40
0.0
  9
$USERR2
 40
0.0
  9
$USERR3
 40
0.0
  9
$USERR4
 40
0.0
  9
$USERR5
 40
0.0
  9
$WORLDVIEW
 70
     1
  9
$SHADEDGE
 70
     3
  9
$SHADEDIF
 70
    70
  9
$TILEMODE
 70
     1
  9
$MAXACTVP
 70
    64
  9
$PINSBASE
 10
0.0
 20
0.0
 30
0.0
  9
$PLIMCHECK
 70
     0
  9
$PEXTMIN
 10
1.000000000000000E+20
 20
1.000000000000000E+20
 30
1.000000000000000E+20
  9
$PEXTMAX
 10
-1.000000000000000E+20
 20
-1.000000000000000E+20
 30
-1.000000000000000E+20
  9
$PLIMMIN
 10
0.0
 20
0.0
  9
$PLIMMAX
 10
12.0
 20
9.0
  9
$UNITMODE
 70
     0
  9
$VISRETAIN
 70
     1
  9
$PLINEGEN
 70
     0
  9
$PSLTSCALE
 70
     1
  9
$TREEDEPTH
 70
  3020
  9
$CMLSTYLE
  2
Standard
  9
$CMLJUST
 70
     0
  9
$CMLSCALE
 40
1.0
  9
$PROXYGRAPHICS
 70
     1
  9
$MEASUREMENT
 70
     0
  9
$CELWEIGHT
370
    -1
  9
$ENDCAPS
280
     0
  9
$JOINSTYLE
280
     0
  9
$LWDISPLAY
290
     1
  9
$INSUNITS
 70
     1
  9
$HYPERLINKBASE
  1

  9
$STYLESHEET
  1

  9
$XEDIT
290
     1
  9
$CEPSNTYPE
380
     0
  9
$PSTYLEMODE
290
     1
  9
$FINGERPRINTGUID
  2
{453BB52E-DC69-BF65-F932-AAD65B5A4BB0}
  9
$VERSIONGUID
  2
{FAEB1C32-E019-11D5-929B-00C0DF256EC4}
  9
$EXTNAMES
290
     1
  9
$PSVPSCALE
 40
0.0
  9
$OLESTARTUP
290
     0
  9
$SORTENTS
280
   127
  9
$INDEXCTL
280
     0
  9
$HIDETEXT
280
     1
  9
$XCLIPFRAME
280
     2
  9
$HALOGAP
280
     0
  9
$OBSCOLOR
 70
   257
  9
$OBSLTYPE
280
     0
  9
$INTERSECTIONDISPLAY
280
     0
  9
$INTERSECTIONCOLOR
 70
   257
  9
$DIMASSOC
280
     2
  9
$PROJECTNAME
  1

  9
$CAMERADISPLAY
290
     0
  9
$LENSLENGTH
 40
50.0
  9
$CAMERAHEIGHT
 40
0.0
  9
$STEPSPERSEC
 40
2.0
  9
$STEPSIZE
 40
6.0
  9
$3DDWFPREC
 40
2.0
  9
$PSOLWIDTH
 40
0.25
  9
$PSOLHEIGHT
 40
4.0
  9
$LOFTANG1
 40
1.570796326794897
  9
$LOFTANG2
 40
1.570796326794897
  9
$LOFTMAG1
 40
0.0
  9
$LOFTMAG2
 40
0.0
  9
$LOFTPARAM
 70
     7
  9
$LOFTNORMALS
280
     1
  9
$LATITUDE
 40
37.795
  9
$LONGITUDE
 40
-122.394
  9
$NORTHDIRECTION
 40
0.0
  9
$TIMEZONE
 70
 -8000
  9
$LIGHTGLYPHDISPLAY
280
     1
  9
$TILEMODELIGHTSYNCH
280
     1
  9
$CMATERIAL
347
3C
  9
$SOLIDHIST
280
     1
  9
$SHOWHIST
280
     1
  9
$DWFFRAME
280
     2
  9
$DGNFRAME
280
     2
  9
$REALWORLDSCALE
290
     1
  9
$INTERFERECOLOR
 62
   256
  9
$CSHADOW
280
     0
  9
$SHADOWPLANELOCATION
 40
0.0
  0
ENDSEC
  0
SECTION
  2
CLASSES
  0
CLASS
  1
ACDBDICTIONARYWDFLT
  2
AcDbDictionaryWithDefault
  3
ObjectDBX Classes
 90
        0
 91
        4
280
     0
281
     0
  0
CLASS
  1
VISUALSTYLE
  2
AcDbVisualStyle
  3
ObjectDBX Classes
 90
     4095
 91
        4
280
     0
281
     0
  0
CLASS
  1
MATERIAL
  2
AcDbMaterial
  3
ObjectDBX Classes
 90
     1153
 91
        4
280
     0
281
     0
  0
CLASS
  1
SUN
  2
AcDbSun
  3
SCENEOE
 90
     1024
 91
        4
280
     0
281
     0
  0
ENDSEC
  0
SECTION
  2
TABLES
  0
TABLE
  2
VPORT
  5
8
330
0
100
AcDbSymbolTable
 70
     1
  0
VPORT
  5
29
330
8
100
AcDbSymbolTableRecord
100
AcDbViewportTableRecord
  2
*Active
 70
     0
 10
0.0
 20
0.0
 11
1.0
 21
1.0
 12
0.0
 22
0.0
 13
0.0
 23
0.0
 14
0.5
 24
0.5
 15
0.5
 25
0.5
 16
0.0
 26
0.0
 36
1.0
 17
347.4860033650057
 27
12.98649871289582
 37
0.0
 40
25.97299742579164
 41
26.75748183149212
 42
50.0
 43
0.0
 44
0.0
 50
0.0
 51
0.0
 71
     0
 72
   100
 73
     1
 74
     3
 75
     0
 76
     0
 77
     0
 78
     0
281
     0
 65
     1
110
0.0
120
0.0
130
0.0
111
1.0
121
0.0
131
0.0
112
0.0
122
1.0
132
0.0
 79
     0
146
0.0
 60
     3
 61
     5
292
     1
282
     1
141
0.0
142
0.0
 63
   250
361
3F
  0
ENDTAB
  0
TABLE
  2
LTYPE
  5
5
330
0
100
AcDbSymbolTable
 70
     1
  0
LTYPE
  5
14
330
5
100
AcDbSymbolTableRecord
100
AcDbLinetypeTableRecord
  2
ByBlock
 70
     0
  3

 72
    65
 73
     0
 40
0.0
  0
LTYPE
  5
15
330
5
100
AcDbSymbolTableRecord
100
AcDbLinetypeTableRecord
  2
ByLayer
 70
     0
  3

 72
    65
 73
     0
 40
0.0
  0
LTYPE
  5
16
330
5
100
AcDbSymbolTableRecord
100
AcDbLinetypeTableRecord
  2
Continuous
 70
     0
  3
Solid line
 72
    65
 73
     0
 40
0.0
  0
ENDTAB
  0
TABLE
  2
LAYER
  5
2
330
0
100
AcDbSymbolTable
 70
     2
  0
LAYER
  5
10
330
2
100
AcDbSymbolTableRecord
100
AcDbLayerTableRecord
  2
0
 70
     0
 62
     7
  6
Continuous
370
    -3
390
F
347
3E
  0
LAYER
  5
40
330
2
100
AcDbSymbolTableRecord
100
AcDbLayerTableRecord
  2
svg845
 70
     0
 62
     7
  6
Continuous
370
    -3
390
F
347
3E
  0
ENDTAB
  0
TABLE
  2
STYLE
  5
3
330
0
100
AcDbSymbolTable
 70
     1
  0
STYLE
  5
11
330
3
100
AcDbSymbolTableRecord
100
AcDbTextStyleTableRecord
  2
Standard
 70
     0
 40
0.0
 41
1.0
 50
0.0
 71
     0
 42
0.2
  3
txt
  4

  0
ENDTAB
  0
TABLE
  2
VIEW
  5
6
330
0
100
AcDbSymbolTable
 70
     0
  0
ENDTAB
  0
TABLE
  2
UCS
  5
7
330
0
100
AcDbSymbolTable
 70
     0
  0
ENDTAB
  0
TABLE
  2
APPID
  5
9
330
0
100
AcDbSymbolTable
 70
     1
  0
APPID
  5
12
330
9
100
AcDbSymbolTableRecord
100
AcDbRegAppTableRecord
  2
ACAD
 70
     0
  0
ENDTAB
  0
TABLE
  2
DIMSTYLE
  5
A
330
0
100
AcDbSymbolTable
 70
     1
100
AcDbDimStyleTable
  0
DIMSTYLE
105
27
330
A
100
AcDbSymbolTableRecord
100
AcDbDimStyleTableRecord
  2
Standard
 70
     0
178
     0
340
11
  0
ENDTAB
  0
TABLE
  2
BLOCK_RECORD
  5
1
330
0
100
AcDbSymbolTable
 70
     4
  0
BLOCK_RECORD
  5
1F
330
1
100
AcDbSymbolTableRecord
100
AcDbBlockTableRecord
  2
*Model_Space
340
22
 70
     0
280
     1
281
     0
  0
BLOCK_RECORD
  5
1B
330
1
100
AcDbSymbolTableRecord
100
AcDbBlockTableRecord
  2
*Paper_Space
340
1E
 70
     0
280
     1
281
     0
  0
BLOCK_RECORD
  5
23
330
1
100
AcDbSymbolTableRecord
100
AcDbBlockTableRecord
  2
*Paper_Space0
340
26
 70
     0
280
     1
281
     0
  0
BLOCK_RECORD
  5
41
330
1
100
AcDbSymbolTableRecord
100
AcDbBlockTableRecord
  2
block 2
340
0
102
{BLKREFS
331
42
102
}
 70
     0
280
     1
281
     0
  0
BLOCK_RECORD
  5
45
330
1
100
AcDbSymbolTableRecord
100
AcDbBlockTableRecord
  2
block 3
340
0
102
{BLKREFS
331
46
102
}
 70
     0
280
     1
281
     0
  0
BLOCK_RECORD
  5
54
330
1
100
AcDbSymbolTableRecord
100
AcDbBlockTableRecord
  2
block 4
340
0
102
{BLKREFS
331
55
102
}
 70
     0
280
     1
281
     0
  0
ENDTAB
  0
ENDSEC
  0
SECTION
  2
BLOCKS
  0
BLOCK
  5
20
330
1F
100
AcDbEntity
  8
0
100
AcDbBlockBegin
  2
*Model_Space
 70
     0
 10
0.0
 20
0.0
 30
0.0
  3
*Model_Space
  1

  0
ENDBLK
  5
21
330
1F
100
AcDbEntity
  8
0
100
AcDbBlockEnd
  0
BLOCK
  5
1C
330
1B
100
AcDbEntity
 67
     1
  8
0
100
AcDbBlockBegin
  2
*Paper_Space
 70
     0
 10
0.0
 20
0.0
 30
0.0
  3
*Paper_Space
  1

  0
ENDBLK
  5
1D
330
1B
100
AcDbEntity
 67
     1
  8
0
100
AcDbBlockEnd
  0
BLOCK
  5
24
330
23
100
AcDbEntity
  8
0
100
AcDbBlockBegin
  2
*Paper_Space0
 70
     0
 10
0.0
 20
0.0
 30
0.0
  3
*Paper_Space0
  1

  0
ENDBLK
  5
25
330
23
100
AcDbEntity
  8
0
100
AcDbBlockEnd
  0
BLOCK
  5
43
330
41
100
AcDbEntity
  8
0
100
AcDbBlockBegin
  2
block 2
 70
     0
 10
0.0
 20
0.0
 30
0.0
  3
block 2
  1

  0
ENDBLK
  5
44
330
41
100
AcDbEntity
  8
0
100
AcDbBlockEnd
  0
BLOCK
  5
47
330
45
100
AcDbEntity
  8
0
100
AcDbBlockBegin
  2
block 3
 70
     0
 10
0.0
 20
0.0
 30
0.0
  3
block 3
  1

  0
SPLINE
  5
49
330
45
100
AcDbEntity
  8
svg845
 62
     7
420
 16777215
370
     5
100
AcDbSpline
210
0.0
220
0.0
230
1.0
 70
     8
 71
     3
 72
    26
 73
    22
 74
     0
 42
0.0000000001
 43
0.0000000001
 12
1.0
 22
0.0
 32
0.0
 13
1.0
 23
0.0
 33
0.0
 40
0.0
 40
0.0
 40
0.0
 40
0.0
 40
1.0
 40
1.0
 40
1.0
 40
2.0
 40
2.0
 40
2.0
 40
3.0
 40
3.0
 40
3.0
 40
4.0
 40
4.0
 40
4.0
 40
5.0
 40
5.0
 40
5.0
 40
6.0
 40
6.0
 40
6.0
 40
7.0
 40
7.0
 40
7.0
 40
7.0
 10
687.9509408847993
 20
14.6859572348674
 30
0.0
 10
687.9509408847993
 20
13.76711878584497
 30
0.0
 10
687.2057932218543
 20
13.02241362775773
 30
0.0
 10
686.2869395140436
 20
13.02296294413292
 30
0.0
 10
686.2869395140436
 20
13.02296294413292
 30
0.0
 10
684.5369396129944
 20
13.02296294413292
 30
0.0
 10
684.5369396129944
 20
13.02296294413292
 30
0.0
 10
682.9003735434218
 20
13.02296294413292
 30
0.0
 10
681.5734998391507
 20
14.34937888475801
 30
0.0
 10
681.5729505227755
 20
15.98596021311878
 30
0.0
 10
681.5729505227755
 20
15.98596021311878
 30
0.0
 10
681.5729505227755
 20
21.9276264842471
 30
0.0
 10
681.5729505227755
 20
21.9276264842471
 30
0.0
 10
681.5729505227755
 20
23.54913212986654
 30
0.0
 10
680.2584669545226
 20
24.86363095690766
 30
0.0
 10
678.636946050115
 20
24.86363095690766
 30
0.0
 10
678.636946050115
 20
24.86363095690766
 30
0.0
 10
672.5089556739554
 20
24.86363095690766
 30
0.0
 10
672.5089556739554
 20
24.86363095690766
 30
0.0
 10
670.8874347695478
 20
24.86363095690766
 30
0.0
 10
669.5729512012948
 20
23.54914738865474
 30
0.0
 10
669.5729512012948
 20
21.9276264842471
 30
0.0
  0
SPLINE
  5
4A
330
45
100
AcDbEntity
  8
svg845
 62
     7
420
 16777215
370
     5
100
AcDbSpline
210
0.0
220
0.0
230
1.0
 70
     8
 71
     3
 72
    26
 73
    22
 74
     0
 42
0.0000000001
 43
0.0000000001
 12
1.0
 22
0.0
 32
0.0
 13
1.0
 23
0.0
 33
0.0
 40
0.0
 40
0.0
 40
0.0
 40
0.0
 40
1.0
 40
1.0
 40
1.0
 40
2.0
 40
2.0
 40
2.0
 40
3.0
 40
3.0
 40
3.0
 40
4.0
 40
4.0
 40
4.0
 40
5.0
 40
5.0
 40
5.0
 40
6.0
 40
6.0
 40
6.0
 40
7.0
 40
7.0
 40
7.0
 40
7.0
 10
675.9509415633186
 20
14.6859572348674
 30
0.0
 10
675.9509415633186
 20
13.76711878584497
 30
0.0
 10
675.2057939003736
 20
13.02241362775773
 30
0.0
 10
674.286940192563
 20
13.02296294413292
 30
0.0
 10
674.286940192563
 20
13.02296294413292
 30
0.0
 10
672.5369402915137
 20
13.02296294413292
 30
0.0
 10
672.5369402915137
 20
13.02296294413292
 30
0.0
 10
670.9003742219411
 20
13.02296294413292
 30
0.0
 10
669.57350051767
 20
14.34937888475801
 30
0.0
 10
669.5729512012948
 20
15.98596021311878
 30
0.0
 10
669.5729512012948
 20
15.98596021311878
 30
0.0
 10
669.5729512012948
 20
21.9276264842471
 30
0.0
 10
669.5729512012948
 20
21.9276264842471
 30
0.0
 10
669.5729512012948
 20
23.54913212986654
 30
0.0
 10
668.258467633042
 20
24.86363095690766
 30
0.0
 10
666.6369467286343
 20
24.86363095690766
 30
0.0
 10
666.6369467286343
 20
24.86363095690766
 30
0.0
 10
660.5089563524747
 20
24.86363095690766
 30
0.0
 10
660.5089563524747
 20
24.86363095690766
 30
0.0
 10
658.8874354480671
 20
24.86363095690766
 30
0.0
 10
657.5729518798141
 20
23.54914738865474
 30
0.0
 10
657.5729518798141
 20
21.9276264842471
 30
0.0
  0
SPLINE
  5
4B
330
45
100
AcDbEntity
  8
svg845
 62
     7
420
 16777215
370
     5
100
AcDbSpline
210
0.0
220
0.0
230
1.0
 70
     8
 71
     3
 72
    26
 73
    22
 74
     0
 42
0.0000000001
 43
0.0000000001
 12
1.0
 22
0.0
 32
0.0
 13
1.0
 23
0.0
 33
0.0
 40
0.0
 40
0.0
 40
0.0
 40
0.0
 40
1.0
 40
1.0
 40
1.0
 40
2.0
 40
2.0
 40
2.0
 40
3.0
 40
3.0
 40
3.0
 40
4.0
 40
4.0
 40
4.0
 40
5.0
 40
5.0
 40
5.0
 40
6.0
 40
6.0
 40
6.0
 40
7.0
 40
7.0
 40
7.0
 40
7.0
 10
663.9509422418379
 20
14.6859572348674
 30
0.0
 10
663.9509422418379
 20
13.76711878584497
 30
0.0
 10
663.2057945788929
 20
13.02241362775773
 30
0.0
 10
662.2869408710823
 20
13.02296294413292
 30
0.0
 10
662.2869408710823
 20
13.02296294413292
 30
0.0
 10
660.536940970033
 20
13.02296294413292
 30
0.0
 10
660.536940970033
 20
13.02296294413292
 30
0.0
 10
658.9003749004604
 20
13.02296294413292
 30
0.0
 10
657.5735011961893
 20
14.34937888475801
 30
0.0
 10
657.5729518798141
 20
15.98596021311878
 30
0.0
 10
657.5729518798141
 20
15.98596021311878
 30
0.0
 10
657.5729518798141
 20
21.9276264842471
 30
0.0
 10
657.5729518798141
 20
21.9276264842471
 30
0.0
 10
657.5729518798141
 20
23.54913212986654
 30
0.0
 10
656.2584683115613
 20
24.86363095690766
 30
0.0
 10
654.6369474071536
 20
24.86363095690766
 30
0.0
 10
654.6369474071536
 20
24.86363095690766
 30
0.0
 10
648.508957030994
 20
24.86363095690766
 30
0.0
 10
648.508957030994
 20
24.86363095690766
 30
0.0
 10
646.8874361265864
 20
24.86363095690766
 30
0.0
 10
645.5729525583334
 20
23.54914738865474
 30
0.0
 10
645.5729525583334
 20
21.9276264842471
 30
0.0
  0
SPLINE
  5
4C
330
45
100
AcDbEntity
  8
svg845
 62
     7
420
 16777215
370
     5
100
AcDbSpline
210
0.0
220
0.0
230
1.0
 70
     8
 71
     3
 72
    26
 73
    22
 74
     0
 42
0.0000000001
 43
0.0000000001
 12
1.0
 22
0.0
 32
0.0
 13
1.0
 23
0.0
 33
0.0
 40
0.0
 40
0.0
 40
0.0
 40
0.0
 40
1.0
 40
1.0
 40
1.0
 40
2.0
 40
2.0
 40
2.0
 40
3.0
 40
3.0
 40
3.0
 40
4.0
 40
4.0
 40
4.0
 40
5.0
 40
5.0
 40
5.0
 40
6.0
 40
6.0
 40
6.0
 40
7.0
 40
7.0
 40
7.0
 40
7.0
 10
651.9509429203572
 20
14.6859572348674
 30
0.0
 10
651.9509429203572
 20
13.76711878584497
 30
0.0
 10
651.2057952574122
 20
13.02241362775773
 30
0.0
 10
650.2869415496016
 20
13.02296294413292
 30
0.0
 10
650.2869415496016
 20
13.02296294413292
 30
0.0
 10
648.5369416485523
 20
13.02296294413292
 30
0.0
 10
648.5369416485523
 20
13.02296294413292
 30
0.0
 10
646.9003755789797
 20
13.02296294413292
 30
0.0
 10
645.5735018747087
 20
14.34937888475801
 30
0.0
 10
645.5729525583334
 20
15.98596021311878
 30
0.0
 10
645.5729525583334
 20
15.98596021311878
 30
0.0
 10
645.5729525583334
 20
21.9276264842471
 30
0.0
 10
645.5729525583334
 20
21.9276264842471
 30
0.0
 10
645.5729525583334
 20
23.54913212986654
 30
0.0
 10
644.2584689900806
 20
24.86363095690766
 30
0.0
 10
642.6369480856729
 20
24.86363095690766
 30
0.0
 10
642.6369480856729
 20
24.86363095690766
 30
0.0
 10
636.5089577095133
 20
24.86363095690766
 30
0.0
 10
636.5089577095133
 20
24.86363095690766
 30
0.0
 10
634.8874368051057
 20
24.86363095690766
 30
0.0
 10
633.5729532368528
 20
23.54914738865474
 30
0.0
 10
633.5729532368528
 20
21.9276264842471
 30
0.0
  0
SPLINE
  5
4D
330
45
100
AcDbEntity
  8
svg845
 62
     7
420
 16777215
370
     5
100
AcDbSpline
210
0.0
220
0.0
230
1.0
 70
     8
 71
     3
 72
    26
 73
    22
 74
     0
 42
0.0000000001
 43
0.0000000001
 12
1.0
 22
0.0
 32
0.0
 13
1.0
 23
0.0
 33
0.0
 40
0.0
 40
0.0
 40
0.0
 40
0.0
 40
1.0
 40
1.0
 40
1.0
 40
2.0
 40
2.0
 40
2.0
 40
3.0
 40
3.0
 40
3.0
 40
4.0
 40
4.0
 40
4.0
 40
5.0
 40
5.0
 40
5.0
 40
6.0
 40
6.0
 40
6.0
 40
7.0
 40
7.0
 40
7.0
 40
7.0
 10
639.9509435988765
 20
14.6859572348674
 30
0.0
 10
639.9509435988765
 20
13.76711878584497
 30
0.0
 10
639.2057959359315
 20
13.02241362775773
 30
0.0
 10
638.2869422281209
 20
13.02296294413292
 30
0.0
 10
638.2869422281209
 20
13.02296294413292
 30
0.0
 10
636.5369423270716
 20
13.02296294413292
 30
0.0
 10
636.5369423270716
 20
13.02296294413292
 30
0.0
 10
634.900376257499
 20
13.02296294413292
 30
0.0
 10
633.573502553228
 20
14.34937888475801
 30
0.0
 10
633.5729532368528
 20
15.98596021311878
 30
0.0
 10
633.5729532368528
 20
15.98596021311878
 30
0.0
 10
633.5729532368528
 20
21.9276264842471
 30
0.0
 10
633.5729532368528
 20
21.9276264842471
 30
0.0
 10
633.5729532368528
 20
23.54913212986654
 30
0.0
 10
632.2584696685999
 20
24.86363095690766
 30
0.0
 10
630.6369487641922
 20
24.86363095690766
 30
0.0
 10
630.6369487641922
 20
24.86363095690766
 30
0.0
 10
624.5089583880326
 20
24.86363095690766
 30
0.0
 10
624.5089583880326
 20
24.86363095690766
 30
0.0
 10
622.887437483625
 20
24.86363095690766
 30
0.0
 10
621.5729539153721
 20
23.54914738865474
 30
0.0
 10
621.5729539153721
 20
21.9276264842471
 30
0.0
  0
SPLINE
  5
4E
330
45
100
AcDbEntity
  8
svg845
 62
     7
420
 16777215
370
     5
100
AcDbSpline
210
0.0
220
0.0
230
1.0
 70
     8
 71
     3
 72
    26
 73
    22
 74
     0
 42
0.0000000001
 43
0.0000000001
 12
1.0
 22
0.0
 32
0.0
 13
1.0
 23
0.0
 33
0.0
 40
0.0
 40
0.0
 40
0.0
 40
0.0
 40
1.0
 40
1.0
 40
1.0
 40
2.0
 40
2.0
 40
2.0
 40
3.0
 40
3.0
 40
3.0
 40
4.0
 40
4.0
 40
4.0
 40
5.0
 40
5.0
 40
5.0
 40
6.0
 40
6.0
 40
6.0
 40
7.0
 40
7.0
 40
7.0
 40
7.0
 10
627.9509442773958
 20
14.6859572348674
 30
0.0
 10
627.9509442773958
 20
13.76711878584497
 30
0.0
 10
627.2057966144508
 20
13.02241362775773
 30
0.0
 10
626.2869429066402
 20
13.02296294413292
 30
0.0
 10
626.2869429066402
 20
13.02296294413292
 30
0.0
 10
624.536943005591
 20
13.02296294413292
 30
0.0
 10
624.536943005591
 20
13.02296294413292
 30
0.0
 10
622.9003769360183
 20
13.02296294413292
 30
0.0
 10
621.5735032317473
 20
14.34937888475801
 30
0.0
 10
621.5729539153721
 20
15.98596021311878
 30
0.0
 10
621.5729539153721
 20
15.98596021311878
 30
0.0
 10
621.5729539153721
 20
21.9276264842471
 30
0.0
 10
621.5729539153721
 20
21.9276264842471
 30
0.0
 10
621.5729539153721
 20
23.54913212986654
 30
0.0
 10
620.2584703471192
 20
24.86363095690766
 30
0.0
 10
618.6369494427115
 20
24.86363095690766
 30
0.0
 10
618.6369494427115
 20
24.86363095690766
 30
0.0
 10
612.5089590665519
 20
24.86363095690766
 30
0.0
 10
612.5089590665519
 20
24.86363095690766
 30
0.0
 10
610.8874381621443
 20
24.86363095690766
 30
0.0
 10
609.5729545938914
 20
23.54914738865474
 30
0.0
 10
609.5729545938914
 20
21.9276264842471
 30
0.0
  0
SPLINE
  5
4F
330
45
100
AcDbEntity
  8
svg845
 62
     7
420
 16777215
370
     5
100
AcDbSpline
210
0.0
220
0.0
230
1.0
 70
     8
 71
     3
 72
    26
 73
    22
 74
     0
 42
0.0000000001
 43
0.0000000001
 12
1.0
 22
0.0
 32
0.0
 13
1.0
 23
0.0
 33
0.0
 40
0.0
 40
0.0
 40
0.0
 40
0.0
 40
1.0
 40
1.0
 40
1.0
 40
2.0
 40
2.0
 40
2.0
 40
3.0
 40
3.0
 40
3.0
 40
4.0
 40
4.0
 40
4.0
 40
5.0
 40
5.0
 40
5.0
 40
6.0
 40
6.0
 40
6.0
 40
7.0
 40
7.0
 40
7.0
 40
7.0
 10
615.9509449559151
 20
14.6859572348674
 30
0.0
 10
615.9509449559151
 20
13.76711878584497
 30
0.0
 10
615.2057972929701
 20
13.02241362775773
 30
0.0
 10
614.2869435851595
 20
13.02296294413292
 30
0.0
 10
614.2869435851595
 20
13.02296294413292
 30
0.0
 10
612.5369436841103
 20
13.02296294413292
 30
0.0
 10
612.5369436841103
 20
13.02296294413292
 30
0.0
 10
610.9003776145377
 20
13.02296294413292
 30
0.0
 10
609.5735039102666
 20
14.34937888475801
 30
0.0
 10
609.5729545938914
 20
15.98596021311878
 30
0.0
 10
609.5729545938914
 20
15.98596021311878
 30
0.0
 10
609.5729545938914
 20
21.9276264842471
 30
0.0
 10
609.5729545938914
 20
21.9276264842471
 30
0.0
 10
609.5729545938914
 20
23.54913212986654
 30
0.0
 10
607.6314569009356
 20
24.86363095690766
 30
0.0
 10
606.0099665141045
 20
24.86363095690766
 30
0.0
 10
606.0099665141045
 20
24.86363095690766
 30
0.0
 10
600.5099668250924
 20
24.86363095690766
 30
0.0
 10
600.5099668250924
 20
24.86363095690766
 30
0.0
 10
598.8882933328027
 20
24.86363095690766
 30
0.0
 10
597.5735198475741
 20
23.54929997653674
 30
0.0
 10
597.5729705311988
 20
21.9276264842471
 30
0.0
  0
SPLINE
  5
50
330
45
100
AcDbEntity
  8
svg845
 62
     7
420
 16777215
370
     5
100
AcDbSpline
210
0.0
220
0.0
230
1.0
 70
     8
 71
     3
 72
    26
 73
    22
 74
     0
 42
0.0000000001
 43
0.0000000001
 12
1.0
 22
0.0
 32
0.0
 13
1.0
 23
0.0
 33
0.0
 40
0.0
 40
0.0
 40
0.0
 40
0.0
 40
1.0
 40
1.0
 40
1.0
 40
2.0
 40
2.0
 40
2.0
 40
3.0
 40
3.0
 40
3.0
 40
4.0
 40
4.0
 40
4.0
 40
5.0
 40
5.0
 40
5.0
 40
6.0
 40
6.0
 40
6.0
 40
7.0
 40
7.0
 40
7.0
 40
7.0
 10
603.9509761520109
 20
14.6859572348674
 30
0.0
 10
603.9509761520109
 20
13.76711878584497
 30
0.0
 10
603.2058132302776
 20
13.02241362775773
 30
0.0
 10
602.2869747812551
 20
13.02296294413292
 30
0.0
 10
602.2869747812551
 20
13.02296294413292
 30
0.0
 10
600.5369748802059
 20
13.02296294413292
 30
0.0
 10
600.5369748802059
 20
13.02296294413292
 30
0.0
 10
598.9003935518451
 20
13.02296294413292
 30
0.0
 10
597.5735198475741
 20
14.34937888475801
 30
0.0
 10
597.5729705311988
 20
15.98596021311878
 30
0.0
 10
597.5729705311988
 20
15.98596021311878
 30
0.0
 10
597.5729705311988
 20
21.9276264842471
 30
0.0
 10
597.5729705311988
 20
21.9276264842471
 30
0.0
 10
597.5729705311988
 20
23.54913212986654
 30
0.0
 10
596.258486962946
 20
24.86363095690766
 30
0.0
 10
594.6369660585383
 20
24.86363095690766
 30
0.0
 10
594.6369660585383
 20
24.86363095690766
 30
0.0
 10
588.5099675036117
 20
24.86363095690766
 30
0.0
 10
588.5099675036117
 20
24.86363095690766
 30
0.0
 10
586.888294011322
 20
24.86363095690766
 30
0.0
 10
585.5735205260934
 20
23.54929997653674
 30
0.0
 10
585.5729712097182
 20
21.9276264842471
 30
0.0
  0
SPLINE
  5
51
330
45
100
AcDbEntity
  8
svg845
 62
     7
420
 16777215
370
     5
100
AcDbSpline
210
0.0
220
0.0
230
1.0
 70
     8
 71
     3
 72
    41
 73
    37
 74
     0
 42
0.0000000001
 43
0.0000000001
 12
1.0
 22
0.0
 32
0.0
 13
1.0
 23
0.0
 33
0.0
 40
0.0
 40
0.0
 40
0.0
 40
0.0
 40
1.0
 40
1.0
 40
1.0
 40
2.0
 40
2.0
 40
2.0
 40
3.0
 40
3.0
 40
3.0
 40
4.0
 40
4.0
 40
4.0
 40
5.0
 40
5.0
 40
5.0
 40
6.0
 40
6.0
 40
6.0
 40
7.0
 40
7.0
 40
7.0
 40
8.0
 40
8.0
 40
8.0
 40
9.0
 40
9.0
 40
9.0
 40
10.0
 40
10.0
 40
10.0
 40
11.0
 40
11.0
 40
11.0
 40
12.0
 40
12.0
 40
12.0
 40
12.0
 10
591.949969750509
 20
14.6859572348674
 30
0.0
 10
591.949969750509
 20
13.76750025554997
 30
0.0
 10
591.2054171803037
 20
13.02296294413292
 30
0.0
 10
590.2869754597745
 20
13.02296294413292
 30
0.0
 10
590.2869754597745
 20
13.02296294413292
 30
0.0
 10
588.5369755587252
 20
13.02296294413292
 30
0.0
 10
588.5369755587252
 20
13.02296294413292
 30
0.0
 10
586.9003942303644
 20
13.02296294413292
 30
0.0
 10
585.5735205260934
 20
14.34937888475801
 30
0.0
 10
585.5729712097182
 20
15.98596021311878
 30
0.0
 10
585.5729712097182
 20
15.98596021311878
 30
0.0
 10
585.5729712097182
 20
21.9276264842471
 30
0.0
 10
585.5729712097182
 20
21.9276264842471
 30
0.0
 10
585.5729712097182
 20
23.54913212986654
 30
0.0
 10
584.2584876414653
 20
25.9219642899764
 30
0.0
 10
582.6369667370576
 20
25.9224525711988
 30
0.0
 10
582.6369667370576
 20
25.9224525711988
 30
0.0
 10
450.5629690780014
 20
25.92295611120939
 30
0.0
 10
450.5629690780014
 20
25.92295611120939
 30
0.0
 10
450.5629690780014
 20
25.92295611120939
 30
0.0
 10
5.360983142782936
 20
25.92295611120939
 30
0.0
 10
5.360983142782936
 20
25.92295611120939
 30
0.0
 10
2.427420076234335
 20
25.92295611120939
 30
0.0
 10
0.04942948803747
 20
23.54452301815473
 30
0.0
 10
0.0499788044126598
 20
20.61095995160613
 30
0.0
 10
0.0499788044126598
 20
20.61095995160613
 30
0.0
 10
0.0499788044126598
 20
5.360960813891402
 30
0.0
 10
0.0499788044126598
 20
5.360960813891402
 30
0.0
 10
0.0499788044126598
 20
2.427779217047794
 30
0.0
 10
2.427786287151128
 20
1.108289808589876
 30
0.0
 10
5.360983142782936
 20
1.108289808589876
 30
0.0
 10
5.360983142782936
 20
1.108289808589876
 30
0.0
 10
10.46297260039347
 20
1.108289808589876
 30
0.0
 10
10.46297260039347
 20
1.108289808589876
 30
0.0
 10
12.08449350480111
 20
1.108289808589876
 30
0.0
 10
13.39897707305403
 20
2.42277337684279
 30
0.0
 10
13.39897707305403
 20
4.044294281250432
 30
0.0
  0
SPLINE
  5
52
330
45
100
AcDbEntity
  8
svg845
 62
     7
420
 16777215
370
     5
100
AcDbSpline
210
0.0
220
0.0
230
1.0
 70
     8
 71
     3
 72
    56
 73
    52
 74
     0
 42
0.0000000001
 43
0.0000000001
 12
1.0
 22
0.0
 32
0.0
 13
1.0
 23
0.0
 33
0.0
 40
0.0
 40
0.0
 40
0.0
 40
0.0
 40
1.0
 40
1.0
 40
1.0
 40
2.0
 40
2.0
 40
2.0
 40
3.0
 40
3.0
 40
3.0
 40
4.0
 40
4.0
 40
4.0
 40
5.0
 40
5.0
 40
5.0
 40
6.0
 40
6.0
 40
6.0
 40
7.0
 40
7.0
 40
7.0
 40
8.0
 40
8.0
 40
8.0
 40
9.0
 40
9.0
 40
9.0
 40
10.0
 40
10.0
 40
10.0
 40
11.0
 40
11.0
 40
11.0
 40
12.0
 40
12.0
 40
12.0
 40
13.0
 40
13.0
 40
13.0
 40
14.0
 40
14.0
 40
14.0
 40
15.0
 40
15.0
 40
15.0
 40
16.0
 40
16.0
 40
16.0
 40
17.0
 40
17.0
 40
17.0
 40
17.0
 10
438.1569486613144
 20
8.002485933085598
 30
0.0
 10
438.1569486613144
 20
8.002485933085598
 30
0.0
 10
464.3939543189014
 20
8.002485933085598
 30
0.0
 10
464.3939543189014
 20
8.002485933085598
 30
0.0
 10
464.5391874649862
 20
8.002485933085598
 30
0.0
 10
464.6569547923117
 20
7.884733864548374
 30
0.0
 10
464.6569547923117
 20
7.739485459675257
 30
0.0
 10
464.6569547923117
 20
7.739485459675257
 30
0.0
 10
464.6569547923117
 20
7.366484382133149
 30
0.0
 10
464.6569547923117
 20
7.366484382133149
 30
0.0
 10
464.6569853098881
 20
7.291884166624727
 30
0.0
 10
464.6877546562928
 20
7.220671402096642
 30
0.0
 10
464.7419538719782
 20
7.169478167686589
 30
0.0
 10
464.7965574455509
 20
7.118773214498925
 30
0.0
 10
464.8695936352689
 20
7.092680686677407
 30
0.0
 10
464.9439649689543
 20
7.097471946172119
 30
0.0
 10
464.9439649689543
 20
7.097471946172119
 30
0.0
 10
466.4389752603981
 20
7.190474260249401
 30
0.0
 10
466.4389752603981
 20
7.190474260249401
 30
0.0
 10
466.4389752603981
 20
7.190474260249401
 30
0.0
 10
480.8669682190061
 20
10.52047590301488
 30
0.0
 10
480.8669682190061
 20
10.52047590301488
 30
0.0
 10
481.5503635661069
 20
10.67835858451736
 30
0.0
 10
482.0342807750727
 20
11.28709268095691
 30
0.0
 10
482.0339755993087
 20
11.98847813934515
 30
0.0
 10
482.0339755993087
 20
11.98847813934515
 30
0.0
 10
482.0339755993087
 20
13.98448022374996
 30
0.0
 10
482.0339755993087
 20
13.98448022374996
 30
0.0
 10
482.0339755993087
 20
14.6858656821382
 30
0.0
 10
481.5503635661069
 20
15.29459977857775
 30
0.0
 10
480.8669682190061
 20
15.45248246008024
 30
0.0
 10
480.8669682190061
 20
15.45248246008024
 30
0.0
 10
466.4389752603981
 20
18.78248410284571
 30
0.0
 10
466.4389752603981
 20
18.78248410284571
 30
0.0
 10
466.4389752603981
 20
18.78248410284571
 30
0.0
 10
464.9439649689543
 20
18.87548641692299
 30
0.0
 10
464.9439649689543
 20
18.87548641692299
 30
0.0
 10
464.8695631176925
 20
18.8804912994525
 30
0.0
 10
464.7965421867627
 20
18.85429196011358
 30
0.0
 10
464.7419538719782
 20
18.80348019540852
 30
0.0
 10
464.6877546562928
 20
18.75228696099847
 30
0.0
 10
464.657053974435
 20
18.68104367889399
 30
0.0
 10
464.6569547923117
 20
18.60647398096196
 30
0.0
 10
464.6569547923117
 20
18.60647398096196
 30
0.0
 10
464.6569547923117
 20
18.23347290341986
 30
0.0
 10
464.6569547923117
 20
18.23347290341986
 30
0.0
 10
464.6569547923117
 20
18.08822449854674
 30
0.0
 10
464.5391874649862
 20
17.97047243000951
 30
0.0
 10
464.3939543189014
 20
17.97047243000951
 30
0.0
 10
464.3939543189014
 20
17.97047243000951
 30
0.0
 10
438.1569486613144
 20
17.97047243000951
 30
0.0
 10
438.1569486613144
 20
17.97047243000951
 30
0.0
  0
SPLINE
  5
53
330
45
100
AcDbEntity
  8
svg845
 62
     7
420
 16777215
370
     5
100
AcDbSpline
210
0.0
220
0.0
230
1.0
 70
     8
 71
     3
 72
    59
 73
    55
 74
     0
 42
0.0000000001
 43
0.0000000001
 12
1.0
 22
0.0
 32
0.0
 13
1.0
 23
0.0
 33
0.0
 40
0.0
 40
0.0
 40
0.0
 40
0.0
 40
1.0
 40
1.0
 40
1.0
 40
2.0
 40
2.0
 40
2.0
 40
3.0
 40
3.0
 40
3.0
 40
4.0
 40
4.0
 40
4.0
 40
5.0
 40
5.0
 40
5.0
 40
6.0
 40
6.0
 40
6.0
 40
7.0
 40
7.0
 40
7.0
 40
8.0
 40
8.0
 40
8.0
 40
9.0
 40
9.0
 40
9.0
 40
10.0
 40
10.0
 40
10.0
 40
11.0
 40
11.0
 40
11.0
 40
12.0
 40
12.0
 40
12.0
 40
13.0
 40
13.0
 40
13.0
 40
14.0
 40
14.0
 40
14.0
 40
15.0
 40
15.0
 40
15.0
 40
16.0
 40
16.0
 40
16.0
 40
17.0
 40
17.0
 40
17.0
 40
18.0
 40
18.0
 40
18.0
 40
18.0
 10
256.814963675727
 20
17.94347963368421
 30
0.0
 10
256.814963675727
 20
17.94347963368421
 30
0.0
 10
256.814963675727
 20
17.97047243000951
 30
0.0
 10
256.814963675727
 20
17.97047243000951
 30
0.0
 10
256.814963675727
 20
17.97047243000951
 30
0.0
 10
230.5779656475341
 20
17.97047243000951
 30
0.0
 10
230.5779656475341
 20
17.97047243000951
 30
0.0
 10
230.432717242661
 20
17.97047243000951
 30
0.0
 10
230.3149651741238
 20
18.08822449854674
 30
0.0
 10
230.3149651741238
 20
18.23347290341986
 30
0.0
 10
230.3149651741238
 20
18.23347290341986
 30
0.0
 10
230.3149651741238
 20
18.60647398096196
 30
0.0
 10
230.3149651741238
 20
18.60647398096196
 30
0.0
 10
230.3149346565474
 20
18.68107419647038
 30
0.0
 10
230.2841653101426
 20
18.75228696099847
 30
0.0
 10
230.2299660944573
 20
18.80348019540852
 30
0.0
 10
230.1753625208846
 20
18.85427670132539
 30
0.0
 10
230.1023339605607
 20
18.88027767641771
 30
0.0
 10
230.0279626268753
 20
18.87548641692299
 30
0.0
 10
230.0279626268753
 20
18.87548641692299
 30
0.0
 10
228.5329599648256
 20
18.78248410284571
 30
0.0
 10
228.5329599648256
 20
18.78248410284571
 30
0.0
 10
228.5329599648256
 20
18.78248410284571
 30
0.0
 10
214.1049593768235
 20
15.45248246008024
 30
0.0
 10
214.1049593768235
 20
15.45248246008024
 30
0.0
 10
213.4215792885109
 20
15.29459977857775
 30
0.0
 10
212.937662079545
 20
14.6858656821382
 30
0.0
 10
212.9379519965208
 20
13.98448022374996
 30
0.0
 10
212.9379519965208
 20
13.98448022374996
 30
0.0
 10
212.9379519965208
 20
11.98847813934515
 30
0.0
 10
212.9379519965208
 20
11.98847813934515
 30
0.0
 10
212.9376925971214
 20
11.28709268095691
 30
0.0
 10
213.4215792885109
 20
10.67835858451736
 30
0.0
 10
214.1049593768235
 20
10.52047590301488
 30
0.0
 10
214.1049593768235
 20
10.52047590301488
 30
0.0
 10
228.5329599648256
 20
7.190474260249401
 30
0.0
 10
228.5329599648256
 20
7.190474260249401
 30
0.0
 10
228.5329599648256
 20
7.190474260249401
 30
0.0
 10
230.0279626268753
 20
7.097471946172119
 30
0.0
 10
230.0279626268753
 20
7.097471946172119
 30
0.0
 10
230.1023644781371
 20
7.092467063642611
 30
0.0
 10
230.175393038461
 20
7.118773214498925
 30
0.0
 10
230.2299660944573
 20
7.169478167686589
 30
0.0
 10
230.2841653101426
 20
7.220671402096642
 30
0.0
 10
230.3149651741238
 20
7.291914684201126
 30
0.0
 10
230.3149651741238
 20
7.366484382133149
 30
0.0
 10
230.3149651741238
 20
7.366484382133149
 30
0.0
 10
230.3149651741238
 20
7.739485459675257
 30
0.0
 10
230.3149651741238
 20
7.739485459675257
 30
0.0
 10
230.3149651741238
 20
7.884733864548374
 30
0.0
 10
230.432717242661
 20
8.002485933085598
 30
0.0
 10
230.5779656475341
 20
8.002485933085598
 30
0.0
 10
230.5779656475341
 20
8.002485933085598
 30
0.0
 10
256.814963675727
 20
8.002485933085598
 30
0.0
 10
256.814963675727
 20
8.002485933085598
 30
0.0
  0
INSERT
  5
55
330
45
100
AcDbEntity
  8
svg845
100
AcDbBlockReference
  2
block 4
 10
0.0
 20
0.0
 30
0.0
  0
ENDBLK
  5
48
330
45
100
AcDbEntity
  8
0
100
AcDbBlockEnd
  0
BLOCK
  5
56
330
54
100
AcDbEntity
  8
0
100
AcDbBlockBegin
  2
block 4
 70
     0
 10
0.0
 20
0.0
 30
0.0
  3
block 4
  1

  0
SPLINE
  5
58
330
54
100
AcDbEntity
  8
svg845
 62
     7
420
 16777215
370
     5
100
AcDbSpline
210
0.0
220
0.0
230
1.0
 70
     8
 71
     3
 72
    26
 73
    22
 74
     0
 42
0.0000000001
 43
0.0000000001
 12
1.0
 22
0.0
 32
0.0
 13
1.0
 23
0.0
 33
0.0
 40
0.0
 40
0.0
 40
0.0
 40
0.0
 40
1.0
 40
1.0
 40
1.0
 40
2.0
 40
2.0
 40
2.0
 40
3.0
 40
3.0
 40
3.0
 40
4.0
 40
4.0
 40
4.0
 40
5.0
 40
5.0
 40
5.0
 40
6.0
 40
6.0
 40
6.0
 40
7.0
 40
7.0
 40
7.0
 40
7.0
 10
7.020986711030266
 20
11.28596353063013
 30
0.0
 10
7.020986711030266
 20
12.20480197965256
 30
0.0
 10
7.7661343739753
 20
12.94950713773948
 30
0.0
 10
8.684988081785923
 20
12.94895782136429
 30
0.0
 10
8.684988081785923
 20
12.94895782136429
 30
0.0
 10
10.43498798283519
 20
12.94895782136429
 30
0.0
 10
10.43498798283519
 20
12.94895782136429
 30
0.0
 10
12.07155405240775
 20
12.94895782136429
 30
0.0
 10
13.39842775667884
 20
11.62254188073952
 30
0.0
 10
13.39897707305403
 20
9.985960552378753
 30
0.0
 10
13.39897707305403
 20
9.985960552378753
 30
0.0
 10
13.39897707305403
 20
4.044294281250432
 30
0.0
 10
13.39897707305403
 20
4.044294281250432
 30
0.0
 10
13.39897707305403
 20
2.42278863563099
 30
0.0
 10
14.71346064130694
 20
1.108289808589876
 30
0.0
 10
16.33498154571458
 20
1.108289808589876
 30
0.0
 10
16.33498154571458
 20
1.108289808589876
 30
0.0
 10
22.46297192187417
 20
1.108289808589876
 30
0.0
 10
22.46297192187417
 20
1.108289808589876
 30
0.0
 10
24.08449282628181
 20
1.108289808589876
 30
0.0
 10
25.39897639453472
 20
2.42277337684279
 30
0.0
 10
25.39897639453472
 20
4.044294281250432
 30
0.0
  0
SPLINE
  5
59
330
54
100
AcDbEntity
  8
svg845
 62
     7
420
 16777215
370
     5
100
AcDbSpline
210
0.0
220
0.0
230
1.0
 70
     8
 71
     3
 72
    26
 73
    22
 74
     0
 42
0.0000000001
 43
0.0000000001
 12
1.0
 22
0.0
 32
0.0
 13
1.0
 23
0.0
 33
0.0
 40
0.0
 40
0.0
 40
0.0
 40
0.0
 40
1.0
 40
1.0
 40
1.0
 40
2.0
 40
2.0
 40
2.0
 40
3.0
 40
3.0
 40
3.0
 40
4.0
 40
4.0
 40
4.0
 40
5.0
 40
5.0
 40
5.0
 40
6.0
 40
6.0
 40
6.0
 40
7.0
 40
7.0
 40
7.0
 40
7.0
 10
19.02098603251096
 20
11.28596353063013
 30
0.0
 10
19.02098603251096
 20
12.20480197965256
 30
0.0
 10
19.76613369545599
 20
12.94950713773948
 30
0.0
 10
20.68498740326662
 20
12.94895782136429
 30
0.0
 10
20.68498740326662
 20
12.94895782136429
 30
0.0
 10
22.43498730431589
 20
12.94895782136429
 30
0.0
 10
22.43498730431589
 20
12.94895782136429
 30
0.0
 10
24.07155337388845
 20
12.94895782136429
 30
0.0
 10
25.39842707815953
 20
11.62254188073952
 30
0.0
 10
25.39897639453472
 20
9.985960552378753
 30
0.0
 10
25.39897639453472
 20
9.985960552378753
 30
0.0
 10
25.39897639453472
 20
4.044294281250432
 30
0.0
 10
25.39897639453472
 20
4.044294281250432
 30
0.0
 10
25.39897639453472
 20
2.42278863563099
 30
0.0
 10
26.71345996278764
 20
1.108289808589876
 30
0.0
 10
28.33498086719528
 20
1.108289808589876
 30
0.0
 10
28.33498086719528
 20
1.108289808589876
 30
0.0
 10
34.46297124335486
 20
1.108289808589876
 30
0.0
 10
34.46297124335486
 20
1.108289808589876
 30
0.0
 10
36.0844921477625
 20
1.108289808589876
 30
0.0
 10
37.39897571601541
 20
2.42277337684279
 30
0.0
 10
37.39897571601541
 20
4.044294281250432
 30
0.0
  0
SPLINE
  5
5A
330
54
100
AcDbEntity
  8
svg845
 62
     7
420
 16777215
370
     5
100
AcDbSpline
210
0.0
220
0.0
230
1.0
 70
     8
 71
     3
 72
    26
 73
    22
 74
     0
 42
0.0000000001
 43
0.0000000001
 12
1.0
 22
0.0
 32
0.0
 13
1.0
 23
0.0
 33
0.0
 40
0.0
 40
0.0
 40
0.0
 40
0.0
 40
1.0
 40
1.0
 40
1.0
 40
2.0
 40
2.0
 40
2.0
 40
3.0
 40
3.0
 40
3.0
 40
4.0
 40
4.0
 40
4.0
 40
5.0
 40
5.0
 40
5.0
 40
6.0
 40
6.0
 40
6.0
 40
7.0
 40
7.0
 40
7.0
 40
7.0
 10
31.02098535399165
 20
11.28596353063013
 30
0.0
 10
31.02098535399165
 20
12.20480197965256
 30
0.0
 10
31.76613301693668
 20
12.94950713773948
 30
0.0
 10
32.68498672474731
 20
12.94895782136429
 30
0.0
 10
32.68498672474731
 20
12.94895782136429
 30
0.0
 10
34.43498662579658
 20
12.94895782136429
 30
0.0
 10
34.43498662579658
 20
12.94895782136429
 30
0.0
 10
36.07155269536914
 20
12.94895782136429
 30
0.0
 10
37.39842639964023
 20
11.62254188073952
 30
0.0
 10
37.39897571601541
 20
9.985960552378753
 30
0.0
 10
37.39897571601541
 20
9.985960552378753
 30
0.0
 10
37.39897571601541
 20
4.044294281250432
 30
0.0
 10
37.39897571601541
 20
4.044294281250432
 30
0.0
 10
37.39897571601541
 20
2.42278863563099
 30
0.0
 10
38.71345928426833
 20
1.108289808589876
 30
0.0
 10
40.33498018867597
 20
1.108289808589876
 30
0.0
 10
40.33498018867597
 20
1.108289808589876
 30
0.0
 10
46.46297056483555
 20
1.108289808589876
 30
0.0
 10
46.46297056483555
 20
1.108289808589876
 30
0.0
 10
48.0844914692432
 20
1.108289808589876
 30
0.0
 10
49.39897503749611
 20
2.42277337684279
 30
0.0
 10
49.39897503749611
 20
4.044294281250432
 30
0.0
  0
SPLINE
  5
5B
330
54
100
AcDbEntity
  8
svg845
 62
     7
420
 16777215
370
     5
100
AcDbSpline
210
0.0
220
0.0
230
1.0
 70
     8
 71
     3
 72
    26
 73
    22
 74
     0
 42
0.0000000001
 43
0.0000000001
 12
1.0
 22
0.0
 32
0.0
 13
1.0
 23
0.0
 33
0.0
 40
0.0
 40
0.0
 40
0.0
 40
0.0
 40
1.0
 40
1.0
 40
1.0
 40
2.0
 40
2.0
 40
2.0
 40
3.0
 40
3.0
 40
3.0
 40
4.0
 40
4.0
 40
4.0
 40
5.0
 40
5.0
 40
5.0
 40
6.0
 40
6.0
 40
6.0
 40
7.0
 40
7.0
 40
7.0
 40
7.0
 10
43.02098467547235
 20
11.28596353063013
 30
0.0
 10
43.02098467547235
 20
12.20480197965256
 30
0.0
 10
43.76613233841738
 20
12.94950713773948
 30
0.0
 10
44.684986046228
 20
12.94895782136429
 30
0.0
 10
44.684986046228
 20
12.94895782136429
 30
0.0
 10
46.43498594727727
 20
12.94895782136429
 30
0.0
 10
46.43498594727727
 20
12.94895782136429
 30
0.0
 10
48.07155201684984
 20
12.94895782136429
 30
0.0
 10
49.39842572112092
 20
11.62254188073952
 30
0.0
 10
49.39897503749611
 20
9.985960552378753
 30
0.0
 10
49.39897503749611
 20
9.985960552378753
 30
0.0
 10
49.39897503749611
 20
4.044294281250432
 30
0.0
 10
49.39897503749611
 20
4.044294281250432
 30
0.0
 10
49.39897503749611
 20
2.42278863563099
 30
0.0
 10
50.71345860574903
 20
1.108289808589876
 30
0.0
 10
52.33497951015666
 20
1.108289808589876
 30
0.0
 10
52.33497951015666
 20
1.108289808589876
 30
0.0
 10
58.46296988631624
 20
1.108289808589876
 30
0.0
 10
58.46296988631624
 20
1.108289808589876
 30
0.0
 10
60.08449079072389
 20
1.108289808589876
 30
0.0
 10
61.3989743589768
 20
2.42277337684279
 30
0.0
 10
61.3989743589768
 20
4.044294281250432
 30
0.0
  0
SPLINE
  5
5C
330
54
100
AcDbEntity
  8
svg845
 62
     7
420
 16777215
370
     5
100
AcDbSpline
210
0.0
220
0.0
230
1.0
 70
     8
 71
     3
 72
    26
 73
    22
 74
     0
 42
0.0000000001
 43
0.0000000001
 12
1.0
 22
0.0
 32
0.0
 13
1.0
 23
0.0
 33
0.0
 40
0.0
 40
0.0
 40
0.0
 40
0.0
 40
1.0
 40
1.0
 40
1.0
 40
2.0
 40
2.0
 40
2.0
 40
3.0
 40
3.0
 40
3.0
 40
4.0
 40
4.0
 40
4.0
 40
5.0
 40
5.0
 40
5.0
 40
6.0
 40
6.0
 40
6.0
 40
7.0
 40
7.0
 40
7.0
 40
7.0
 10
55.02098399695304
 20
11.28596353063013
 30
0.0
 10
55.02098399695304
 20
12.20480197965256
 30
0.0
 10
55.76613165989807
 20
12.94950713773948
 30
0.0
 10
56.6849853677087
 20
12.94895782136429
 30
0.0
 10
56.6849853677087
 20
12.94895782136429
 30
0.0
 10
58.43498526875796
 20
12.94895782136429
 30
0.0
 10
58.43498526875796
 20
12.94895782136429
 30
0.0
 10
60.07155133833053
 20
12.94895782136429
 30
0.0
 10
61.39842504260162
 20
11.62254188073952
 30
0.0
 10
61.3989743589768
 20
9.985960552378753
 30
0.0
 10
61.3989743589768
 20
9.985960552378753
 30
0.0
 10
61.3989743589768
 20
4.044294281250432
 30
0.0
 10
61.3989743589768
 20
4.044294281250432
 30
0.0
 10
61.3989743589768
 20
2.42278863563099
 30
0.0
 10
62.71345792722972
 20
1.108289808589876
 30
0.0
 10
64.33497883163736
 20
1.108289808589876
 30
0.0
 10
64.33497883163736
 20
1.108289808589876
 30
0.0
 10
70.46296920779695
 20
1.108289808589876
 30
0.0
 10
70.46296920779695
 20
1.108289808589876
 30
0.0
 10
72.08449011220458
 20
1.108289808589876
 30
0.0
 10
73.3989736804575
 20
2.42277337684279
 30
0.0
 10
73.3989736804575
 20
4.044294281250432
 30
0.0
  0
SPLINE
  5
5D
330
54
100
AcDbEntity
  8
svg845
 62
     7
420
 16777215
370
     5
100
AcDbSpline
210
0.0
220
0.0
230
1.0
 70
     8
 71
     3
 72
    26
 73
    22
 74
     0
 42
0.0000000001
 43
0.0000000001
 12
1.0
 22
0.0
 32
0.0
 13
1.0
 23
0.0
 33
0.0
 40
0.0
 40
0.0
 40
0.0
 40
0.0
 40
1.0
 40
1.0
 40
1.0
 40
2.0
 40
2.0
 40
2.0
 40
3.0
 40
3.0
 40
3.0
 40
4.0
 40
4.0
 40
4.0
 40
5.0
 40
5.0
 40
5.0
 40
6.0
 40
6.0
 40
6.0
 40
7.0
 40
7.0
 40
7.0
 40
7.0
 10
67.02098331843374
 20
11.28596353063013
 30
0.0
 10
67.02098331843374
 20
12.20480197965256
 30
0.0
 10
67.76613098137877
 20
12.94950713773948
 30
0.0
 10
68.68498468918939
 20
12.94895782136429
 30
0.0
 10
68.68498468918939
 20
12.94895782136429
 30
0.0
 10
70.43498459023866
 20
12.94895782136429
 30
0.0
 10
70.43498459023866
 20
12.94895782136429
 30
0.0
 10
72.07155065981122
 20
12.94895782136429
 30
0.0
 10
73.3984243640823
 20
11.62254188073952
 30
0.0
 10
73.3989736804575
 20
9.985960552378753
 30
0.0
 10
73.3989736804575
 20
9.985960552378753
 30
0.0
 10
73.3989736804575
 20
4.044294281250432
 30
0.0
 10
73.3989736804575
 20
4.044294281250432
 30
0.0
 10
73.3989736804575
 20
2.42278863563099
 30
0.0
 10
74.71345724871041
 20
1.108289808589876
 30
0.0
 10
76.33497815311806
 20
1.108289808589876
 30
0.0
 10
76.33497815311806
 20
1.108289808589876
 30
0.0
 10
82.46296852927763
 20
1.108289808589876
 30
0.0
 10
82.46296852927763
 20
1.108289808589876
 30
0.0
 10
84.08448943368528
 20
1.108289808589876
 30
0.0
 10
85.39897300193819
 20
2.42277337684279
 30
0.0
 10
85.39897300193819
 20
4.044294281250432
 30
0.0
  0
SPLINE
  5
5E
330
54
100
AcDbEntity
  8
svg845
 62
     7
420
 16777215
370
     5
100
AcDbSpline
210
0.0
220
0.0
230
1.0
 70
     8
 71
     3
 72
    26
 73
    22
 74
     0
 42
0.0000000001
 43
0.0000000001
 12
1.0
 22
0.0
 32
0.0
 13
1.0
 23
0.0
 33
0.0
 40
0.0
 40
0.0
 40
0.0
 40
0.0
 40
1.0
 40
1.0
 40
1.0
 40
2.0
 40
2.0
 40
2.0
 40
3.0
 40
3.0
 40
3.0
 40
4.0
 40
4.0
 40
4.0
 40
5.0
 40
5.0
 40
5.0
 40
6.0
 40
6.0
 40
6.0
 40
7.0
 40
7.0
 40
7.0
 40
7.0
 10
79.02098263991442
 20
11.28596353063013
 30
0.0
 10
79.02098263991442
 20
12.20480197965256
 30
0.0
 10
79.76613030285947
 20
12.94950713773948
 30
0.0
 10
80.68498401067008
 20
12.94895782136429
 30
0.0
 10
80.68498401067008
 20
12.94895782136429
 30
0.0
 10
82.43498391171936
 20
12.94895782136429
 30
0.0
 10
82.43498391171936
 20
12.94895782136429
 30
0.0
 10
84.07154998129191
 20
12.94895782136429
 30
0.0
 10
85.398423685563
 20
11.62254188073952
 30
0.0
 10
85.39897300193819
 20
9.985960552378753
 30
0.0
 10
85.39897300193819
 20
9.985960552378753
 30
0.0
 10
85.39897300193819
 20
4.044294281250432
 30
0.0
 10
85.39897300193819
 20
4.044294281250432
 30
0.0
 10
85.39897300193819
 20
2.42278863563099
 30
0.0
 10
87.34047069489392
 20
1.108289808589876
 30
0.0
 10
88.96196108172516
 20
1.108289808589876
 30
0.0
 10
88.96196108172516
 20
1.108289808589876
 30
0.0
 10
94.46196077073715
 20
1.108289808589876
 30
0.0
 10
94.46196077073715
 20
1.108289808589876
 30
0.0
 10
96.08363426302678
 20
1.108289808589876
 30
0.0
 10
97.3984077482555
 20
2.422620788960792
 30
0.0
 10
97.39895706463068
 20
4.044294281250432
 30
0.0
  0
SPLINE
  5
5F
330
54
100
AcDbEntity
  8
svg845
 62
     7
420
 16777215
370
     5
100
AcDbSpline
210
0.0
220
0.0
230
1.0
 70
     8
 71
     3
 72
    26
 73
    22
 74
     0
 42
0.0000000001
 43
0.0000000001
 12
1.0
 22
0.0
 32
0.0
 13
1.0
 23
0.0
 33
0.0
 40
0.0
 40
0.0
 40
0.0
 40
0.0
 40
1.0
 40
1.0
 40
1.0
 40
2.0
 40
2.0
 40
2.0
 40
3.0
 40
3.0
 40
3.0
 40
4.0
 40
4.0
 40
4.0
 40
5.0
 40
5.0
 40
5.0
 40
6.0
 40
6.0
 40
6.0
 40
7.0
 40
7.0
 40
7.0
 40
7.0
 10
91.02095144381872
 20
11.28596353063013
 30
0.0
 10
91.02095144381872
 20
12.20480197965256
 30
0.0
 10
91.76611436555196
 20
12.94950713773948
 30
0.0
 10
92.68495281457437
 20
12.94895782136429
 30
0.0
 10
92.68495281457437
 20
12.94895782136429
 30
0.0
 10
94.43495271562364
 20
12.94895782136429
 30
0.0
 10
94.43495271562364
 20
12.94895782136429
 30
0.0
 10
96.07153404398441
 20
12.94895782136429
 30
0.0
 10
97.3984077482555
 20
11.62254188073952
 30
0.0
 10
97.39895706463068
 20
9.985960552378753
 30
0.0
 10
97.39895706463068
 20
9.985960552378753
 30
0.0
 10
97.39895706463068
 20
4.044294281250432
 30
0.0
 10
97.39895706463068
 20
4.044294281250432
 30
0.0
 10
97.39895706463068
 20
2.42278863563099
 30
0.0
 10
98.7134406328836
 20
1.108289808589876
 30
0.0
 10
100.3349615372912
 20
1.108289808589876
 30
0.0
 10
100.3349615372912
 20
1.108289808589876
 30
0.0
 10
106.4619600922178
 20
1.108289808589876
 30
0.0
 10
106.4619600922178
 20
1.108289808589876
 30
0.0
 10
108.0836335845075
 20
1.108289808589876
 30
0.0
 10
109.3984070697362
 20
2.422620788960792
 30
0.0
 10
109.3989563861114
 20
4.044294281250432
 30
0.0
  0
SPLINE
  5
60
330
54
100
AcDbEntity
  8
svg845
 62
     7
420
 16777215
370
     5
100
AcDbSpline
210
0.0
220
0.0
230
1.0
 70
     8
 71
     3
 72
    38
 73
    34
 74
     0
 42
0.0000000001
 43
0.0000000001
 12
1.0
 22
0.0
 32
0.0
 13
1.0
 23
0.0
 33
0.0
 40
0.0
 40
0.0
 40
0.0
 40
0.0
 40
1.0
 40
1.0
 40
1.0
 40
2.0
 40
2.0
 40
2.0
 40
3.0
 40
3.0
 40
3.0
 40
4.0
 40
4.0
 40
4.0
 40
5.0
 40
5.0
 40
5.0
 40
6.0
 40
6.0
 40
6.0
 40
7.0
 40
7.0
 40
7.0
 40
8.0
 40
8.0
 40
8.0
 40
9.0
 40
9.0
 40
9.0
 40
10.0
 40
10.0
 40
10.0
 40
11.0
 40
11.0
 40
11.0
 40
11.0
 10
103.0219578453206
 20
11.28596353063013
 30
0.0
 10
103.0219578453206
 20
12.20442050994757
 30
0.0
 10
103.7665104155258
 20
12.94895782136429
 30
0.0
 10
104.6849521360551
 20
12.94895782136429
 30
0.0
 10
104.6849521360551
 20
12.94895782136429
 30
0.0
 10
106.4349520371043
 20
12.94895782136429
 30
0.0
 10
106.4349520371043
 20
12.94895782136429
 30
0.0
 10
108.0715333654651
 20
12.94895782136429
 30
0.0
 10
109.3984070697362
 20
11.62254188073952
 30
0.0
 10
109.3989563861114
 20
9.985960552378753
 30
0.0
 10
109.3989563861114
 20
9.985960552378753
 30
0.0
 10
109.3989563861114
 20
4.044294281250432
 30
0.0
 10
109.3989563861114
 20
4.044294281250432
 30
0.0
 10
109.3989563861114
 20
2.42278863563099
 30
0.0
 10
110.7134399543643
 20
0.0499564755211256
 30
0.0
 10
112.3349608587719
 20
0.0499564755211256
 30
0.0
 10
112.3349608587719
 20
0.0499564755211256
 30
0.0
 10
689.6109444530466
 20
0.0499564755211256
 30
0.0
 10
689.6109444530466
 20
0.0499564755211256
 30
0.0
 10
692.5441107911021
 20
0.0499564755211256
 30
0.0
 10
694.9219487914169
 20
2.427779217047794
 30
0.0
 10
694.9219487914169
 20
5.360960813891402
 30
0.0
 10
694.9219487914169
 20
5.360960813891402
 30
0.0
 10
694.9219487914169
 20
20.61095995160613
 30
0.0
 10
694.9219487914169
 20
20.61095995160613
 30
0.0
 10
694.9219487914169
 20
23.54414154844974
 30
0.0
 10
692.5441413086785
 20
24.86363095690766
 30
0.0
 10
689.6109444530466
 20
24.86363095690766
 30
0.0
 10
689.6109444530466
 20
24.86363095690766
 30
0.0
 10
684.508954995436
 20
24.86363095690766
 30
0.0
 10
684.508954995436
 20
24.86363095690766
 30
0.0
 10
682.8874340910285
 20
24.86363095690766
 30
0.0
 10
681.5729505227755
 20
23.54914738865474
 30
0.0
 10
681.5729505227755
 20
21.9276264842471
 30
0.0
  0
ENDBLK
  5
57
330
54
100
AcDbEntity
  8
0
100
AcDbBlockEnd
  0
ENDSEC
  0
SECTION
  2
ENTITIES
  0
INSERT
  5
42
330
1F
100
AcDbEntity
  8
svg845
100
AcDbBlockReference
  2
block 2
 10
0.0
 20
0.0
 30
0.0
  0
INSERT
  5
46
330
1F
100
AcDbEntity
  8
svg845
100
AcDbBlockReference
  2
block 3
 10
0.0
 20
0.0
 30
0.0
  0
ENDSEC
  0
SECTION
  2
OBJECTS
  0
DICTIONARY
  5
C
330
0
100
AcDbDictionary
281
     1
  3
ACAD_GROUP
350
D
  3
ACAD_LAYOUT
350
1A
  3
ACAD_MATERIAL
350
3B
  3
ACAD_MLEADERSTYLE
350
62
  3
ACAD_MLINESTYLE
350
17
  3
ACAD_PLOTSETTINGS
350
19
  3
ACAD_PLOTSTYLENAME
350
E
  3
ACAD_TABLESTYLE
350
61
  3
ACAD_VISUALSTYLE
350
2A
  0
SUN
  5
3F
330
29
100
AcDbSun
 90
        1
290
     0
 63
     7
421
 16777215
 40
1.0
291
     1
 91
  2455826
 92
 54000000
292
     0
 70
     2
 71
   256
280
     1
  0
DICTIONARY
  5
D
102
{ACAD_REACTORS
330
C
102
}
330
C
100
AcDbDictionary
281
     1
  0
DICTIONARY
  5
1A
102
{ACAD_REACTORS
330
C
102
}
330
C
100
AcDbDictionary
281
     1
  3
Layout1
350
1E
  3
Layout2
350
26
  3
Model
350
22
  0
DICTIONARY
  5
3B
102
{ACAD_REACTORS
330
C
102
}
330
C
100
AcDbDictionary
281
     1
  3
ByBlock
350
3D
  3
ByLayer
350
3C
  3
Global
350
3E
  0
DICTIONARY
  5
62
102
{ACAD_REACTORS
330
C
102
}
330
C
100
AcDbDictionary
281
     1
  0
DICTIONARY
  5
17
102
{ACAD_REACTORS
330
C
102
}
330
C
100
AcDbDictionary
281
     1
  3
Standard
350
18
  0
DICTIONARY
  5
19
102
{ACAD_REACTORS
330
C
102
}
330
C
100
AcDbDictionary
281
     1
  0
ACDBDICTIONARYWDFLT
  5
E
102
{ACAD_REACTORS
330
C
102
}
330
C
100
AcDbDictionary
281
     1
  3
Normal
350
F
100
AcDbDictionaryWithDefault
340
F
  0
DICTIONARY
  5
61
102
{ACAD_REACTORS
330
C
102
}
330
C
100
AcDbDictionary
281
     1
  0
DICTIONARY
  5
2A
102
{ACAD_REACTORS
330
C
102
}
330
C
100
AcDbDictionary
281
     1
  3
2dWireframe
350
2F
  3
3D Hidden
350
31
  3
3dWireframe
350
30
  3
Basic
350
32
  3
Brighten
350
36
  3
ColorChange
350
3A
  3
Conceptual
350
34
  3
Dim
350
35
  3
Facepattern
350
39
  3
Flat
350
2B
  3
FlatWithEdges
350
2C
  3
Gouraud
350
2D
  3
GouraudWithEdges
350
2E
  3
Linepattern
350
38
  3
Realistic
350
33
  3
Thicken
350
37
  0
LAYOUT
  5
1E
102
{ACAD_REACTORS
330
1A
102
}
330
1A
100
AcDbPlotSettings
  1

  2
none_device
  4

  6

 40
0.0
 41
0.0
 42
0.0
 43
0.0
 44
0.0
 45
0.0
 46
0.0
 47
0.0
 48
0.0
 49
0.0
140
0.0
141
0.0
142
1.0
143
1.0
 70
   688
 72
     0
 73
     0
 74
     5
  7

 75
    16
 76
     0
 77
     2
 78
   300
147
1.0
148
0.0
149
0.0
100
AcDbLayout
  1
Layout1
 70
     1
 71
     1
 10
0.0
 20
0.0
 11
12.0
 21
9.0
 12
0.0
 22
0.0
 32
0.0
 14
1.000000000000000E+20
 24
1.000000000000000E+20
 34
1.000000000000000E+20
 15
-1.000000000000000E+20
 25
-1.000000000000000E+20
 35
-1.000000000000000E+20
146
0.0
 13
0.0
 23
0.0
 33
0.0
 16
1.0
 26
0.0
 36
0.0
 17
0.0
 27
1.0
 37
0.0
 76
     0
330
1B
  0
LAYOUT
  5
26
102
{ACAD_REACTORS
330
1A
102
}
330
1A
100
AcDbPlotSettings
  1

  2
none_device
  4

  6

 40
0.0
 41
0.0
 42
0.0
 43
0.0
 44
0.0
 45
0.0
 46
0.0
 47
0.0
 48
0.0
 49
0.0
140
0.0
141
0.0
142
1.0
143
1.0
 70
   688
 72
     0
 73
     0
 74
     5
  7

 75
    16
 76
     0
 77
     2
 78
   300
147
1.0
148
0.0
149
0.0
100
AcDbLayout
  1
Layout2
 70
     1
 71
     2
 10
0.0
 20
0.0
 11
0.0
 21
0.0
 12
0.0
 22
0.0
 32
0.0
 14
0.0
 24
0.0
 34
0.0
 15
0.0
 25
0.0
 35
0.0
146
0.0
 13
0.0
 23
0.0
 33
0.0
 16
1.0
 26
0.0
 36
0.0
 17
0.0
 27
1.0
 37
0.0
 76
     0
330
23
  0
LAYOUT
  5
22
102
{ACAD_REACTORS
330
1A
102
}
330
1A
100
AcDbPlotSettings
  1

  2
none_device
  4

  6

 40
0.0
 41
0.0
 42
0.0
 43
0.0
 44
0.0
 45
0.0
 46
0.0
 47
0.0
 48
0.0
 49
0.0
140
0.0
141
0.0
142
1.0
143
1.0
 70
  1712
 72
     0
 73
     0
 74
     0
  7

 75
     0
 76
     0
 77
     2
 78
   300
147
1.0
148
0.0
149
0.0
100
AcDbLayout
  1
Model
 70
     1
 71
     0
 10
0.0
 20
0.0
 11
12.0
 21
9.0
 12
0.0
 22
0.0
 32
0.0
 14
1.000000000000000E+20
 24
1.000000000000000E+20
 34
1.000000000000000E+20
 15
-1.000000000000000E+20
 25
-1.000000000000000E+20
 35
-1.000000000000000E+20
146
0.0
 13
0.0
 23
0.0
 33
0.0
 16
1.0
 26
0.0
 36
0.0
 17
0.0
 27
1.0
 37
0.0
 76
     0
330
1F
331
29
  0
MATERIAL
  5
3D
102
{ACAD_REACTORS
330
3B
102
}
330
3B
100
AcDbMaterial
  1
ByBlock
 72
     1
 94
      127
  0
MATERIAL
  5
3C
102
{ACAD_REACTORS
330
3B
102
}
330
3B
100
AcDbMaterial
  1
ByLayer
 72
     1
 94
      127
  0
MATERIAL
  5
3E
102
{ACAD_REACTORS
330
3B
102
}
330
3B
100
AcDbMaterial
  1
Global
 72
     1
 94
      127
  0
MLINESTYLE
  5
18
102
{ACAD_REACTORS
330
17
102
}
330
17
100
AcDbMlineStyle
  2
Standard
 70
     0
  3

 62
   256
 51
90.0
 52
90.0
 71
     2
 49
0.5
 62
   256
  6
BYLAYER
 49
-0.5
 62
   256
  6
BYLAYER
  0
ACDBPLACEHOLDER
  5
F
102
{ACAD_REACTORS
330
E
102
}
330
E
  0
VISUALSTYLE
  5
2F
102
{ACAD_REACTORS
330
2A
102
}
330
2A
100
AcDbVisualStyle
  2
2dWireframe
 70
     4
177
     2
291
     0
 71
     0
176
     1
 72
     2
176
     1
 73
     0
176
     1
 90
        0
176
     1
 40
-0.6
176
     1
 41
-30.0
176
     1
 62
     5
 63
     7
421
 16777215
176
     1
 74
     1
176
     1
 91
        4
176
     1
 64
     7
176
     1
 65
   257
176
     1
 75
     1
176
     1
175
     1
176
     1
 42
1.0
176
     1
 92
        0
176
     1
 66
   257
176
     1
 43
1.0
176
     1
 76
     1
176
     1
 77
     6
176
     1
 78
     2
176
     1
 67
     7
176
     1
 79
     5
176
     1
170
     0
176
     1
171
     0
176
     1
290
     0
176
     1
 93
        1
176
     1
 44
0.0
176
     1
173
     0
176
     1
  0
VISUALSTYLE
  5
31
102
{ACAD_REACTORS
330
2A
102
}
330
2A
100
AcDbVisualStyle
  2
3D Hidden
 70
     6
177
     2
291
     0
 71
     1
176
     1
 72
     2
176
     1
 73
     2
176
     1
 90
        0
176
     1
 40
-0.6
176
     1
 41
-30.0
176
     1
 62
     5
 63
     7
421
 16777215
176
     1
 74
     2
176
     1
 91
        2
176
     1
 64
     7
176
     1
 65
   257
176
     1
 75
     2
176
     1
175
     1
176
     1
 42
40.0
176
     1
 92
        0
176
     1
 66
   257
176
     1
 43
1.0
176
     1
 76
     1
176
     1
 77
     6
176
     1
 78
     2
176
     1
 67
     7
176
     1
 79
     3
176
     1
170
     0
176
     1
171
     0
176
     1
290
     0
176
     1
 93
        1
176
     1
 44
0.0
176
     1
173
     0
176
     1
  0
VISUALSTYLE
  5
30
102
{ACAD_REACTORS
330
2A
102
}
330
2A
100
AcDbVisualStyle
  2
3dWireframe
 70
     5
177
     2
291
     0
 71
     0
176
     1
 72
     2
176
     1
 73
     0
176
     1
 90
        0
176
     1
 40
-0.6
176
     1
 41
-30.0
176
     1
 62
     5
 63
     7
421
 16777215
176
     1
 74
     1
176
     1
 91
        4
176
     1
 64
     7
176
     1
 65
   257
176
     1
 75
     1
176
     1
175
     1
176
     1
 42
1.0
176
     1
 92
        0
176
     1
 66
   257
176
     1
 43
1.0
176
     1
 76
     1
176
     1
 77
     6
176
     1
 78
     2
176
     1
 67
     7
176
     1
 79
     5
176
     1
170
     0
176
     1
171
     0
176
     1
290
     0
176
     1
 93
        1
176
     1
 44
0.0
176
     1
173
     0
176
     1
  0
VISUALSTYLE
  5
32
102
{ACAD_REACTORS
330
2A
102
}
330
2A
100
AcDbVisualStyle
  2
Basic
 70
     7
177
     2
291
     1
 71
     1
176
     1
 72
     0
176
     1
 73
     1
176
     1
 90
        0
176
     1
 40
-0.6
176
     1
 41
-30.0
176
     1
 62
     5
 63
     7
421
 16777215
176
     1
 74
     0
176
     1
 91
        4
176
     1
 64
     7
176
     1
 65
   257
176
     1
 75
     1
176
     1
175
     1
176
     1
 42
1.0
176
     1
 92
        8
176
     1
 66
     7
176
     1
 43
1.0
176
     1
 76
     1
176
     1
 77
     6
176
     1
 78
     2
176
     1
 67
     7
176
     1
 79
     5
176
     1
170
     0
176
     1
171
     0
176
     1
290
     0
176
     1
 93
        1
176
     1
 44
0.0
176
     1
173
     0
176
     1
  0
VISUALSTYLE
  5
36
102
{ACAD_REACTORS
330
2A
102
}
330
2A
100
AcDbVisualStyle
  2
Brighten
 70
    12
177
     2
291
     1
 71
     2
176
     1
 72
     2
176
     1
 73
     0
176
     1
 90
        0
176
     1
 40
-0.6
176
     1
 41
-30.0
176
     1
 62
     5
 63
     7
421
 16777215
176
     1
 74
     1
176
     1
 91
        4
176
     1
 64
     7
176
     1
 65
   257
176
     1
 75
     1
176
     1
175
     1
176
     1
 42
1.0
176
     1
 92
        8
176
     1
 66
     7
176
     1
 43
1.0
176
     1
 76
     1
176
     1
 77
     6
176
     1
 78
     2
176
     1
 67
     7
176
     1
 79
     5
176
     1
170
     0
176
     1
171
     0
176
     1
290
     0
176
     1
 93
        1
176
     1
 44
50.0
176
     1
173
     0
176
     1
  0
VISUALSTYLE
  5
3A
102
{ACAD_REACTORS
330
2A
102
}
330
2A
100
AcDbVisualStyle
  2
ColorChange
 70
    16
177
     2
291
     1
 71
     2
176
     1
 72
     2
176
     1
 73
     3
176
     1
 90
        0
176
     1
 40
-0.6
176
     1
 41
-30.0
176
     1
 62
     5
 63
     8
421
  8421504
176
     1
 74
     1
176
     1
 91
        4
176
     1
 64
     7
176
     1
 65
   257
176
     1
 75
     1
176
     1
175
     1
176
     1
 42
1.0
176
     1
 92
        8
176
     1
 66
     8
424
  8421504
176
     1
 43
1.0
176
     1
 76
     1
176
     1
 77
     6
176
     1
 78
     2
176
     1
 67
     7
176
     1
 79
     5
176
     1
170
     0
176
     1
171
     0
176
     1
290
     0
176
     1
 93
        1
176
     1
 44
0.0
176
     1
173
     0
176
     1
  0
VISUALSTYLE
  5
34
102
{ACAD_REACTORS
330
2A
102
}
330
2A
100
AcDbVisualStyle
  2
Conceptual
 70
     9
177
     2
291
     0
 71
     3
176
     1
 72
     2
176
     1
 73
     0
176
     1
 90
        0
176
     1
 40
-0.6
176
     1
 41
-30.0
176
     1
 62
     5
 63
     7
421
 16777215
176
     1
 74
     2
176
     1
 91
        2
176
     1
 64
     7
176
     1
 65
   257
176
     1
 75
     1
176
     1
175
     1
176
     1
 42
40.0
176
     1
 92
        8
176
     1
 66
     7
176
     1
 43
1.0
176
     1
 76
     1
176
     1
 77
     6
176
     1
 78
     2
176
     1
 67
     7
176
     1
 79
     3
176
     1
170
     0
176
     1
171
     0
176
     1
290
     0
176
     1
 93
        1
176
     1
 44
0.0
176
     1
173
     0
176
     1
  0
VISUALSTYLE
  5
35
102
{ACAD_REACTORS
330
2A
102
}
330
2A
100
AcDbVisualStyle
  2
Dim
 70
    11
177
     2
291
     1
 71
     2
176
     1
 72
     2
176
     1
 73
     0
176
     1
 90
        0
176
     1
 40
-0.6
176
     1
 41
-30.0
176
     1
 62
     5
 63
     7
421
 16777215
176
     1
 74
     1
176
     1
 91
        4
176
     1
 64
     7
176
     1
 65
   257
176
     1
 75
     1
176
     1
175
     1
176
     1
 42
1.0
176
     1
 92
        8
176
     1
 66
     7
176
     1
 43
1.0
176
     1
 76
     1
176
     1
 77
     6
176
     1
 78
     2
176
     1
 67
     7
176
     1
 79
     5
176
     1
170
     0
176
     1
171
     0
176
     1
290
     0
176
     1
 93
        1
176
     1
 44
-50.0
176
     1
173
     0
176
     1
  0
VISUALSTYLE
  5
39
102
{ACAD_REACTORS
330
2A
102
}
330
2A
100
AcDbVisualStyle
  2
Facepattern
 70
    15
177
     2
291
     1
 71
     2
176
     1
 72
     2
176
     1
 73
     0
176
     1
 90
        0
176
     1
 40
-0.6
176
     1
 41
-30.0
176
     1
 62
     5
 63
     7
421
 16777215
176
     1
 74
     1
176
     1
 91
        4
176
     1
 64
     7
176
     1
 65
   257
176
     1
 75
     1
176
     1
175
     1
176
     1
 42
1.0
176
     1
 92
        8
176
     1
 66
     7
176
     1
 43
1.0
176
     1
 76
     1
176
     1
 77
     6
176
     1
 78
     2
176
     1
 67
     7
176
     1
 79
     5
176
     1
170
     0
176
     1
171
     0
176
     1
290
     0
176
     1
 93
        1
176
     1
 44
0.0
176
     1
173
     0
176
     1
  0
VISUALSTYLE
  5
2B
102
{ACAD_REACTORS
330
2A
102
}
330
2A
100
AcDbVisualStyle
  2
Flat
 70
     0
177
     2
291
     1
 71
     2
176
     1
 72
     1
176
     1
 73
     1
176
     1
 90
        2
176
     1
 40
-0.6
176
     1
 41
30.0
176
     1
 62
     5
 63
     7
421
 16777215
176
     1
 74
     0
176
     1
 91
        4
176
     1
 64
     7
176
     1
 65
   257
176
     1
 75
     1
176
     1
175
     1
176
     1
 42
1.0
176
     1
 92
        8
176
     1
 66
     7
176
     1
 43
1.0
176
     1
 76
     1
176
     1
 77
     6
176
     1
 78
     2
176
     1
 67
     7
176
     1
 79
     5
176
     1
170
     0
176
     1
171
     0
176
     1
290
     0
176
     1
 93
       13
176
     1
 44
0.0
176
     1
173
     0
176
     1
  0
VISUALSTYLE
  5
2C
102
{ACAD_REACTORS
330
2A
102
}
330
2A
100
AcDbVisualStyle
  2
FlatWithEdges
 70
     1
177
     2
291
     1
 71
     2
176
     1
 72
     1
176
     1
 73
     1
176
     1
 90
        2
176
     1
 40
-0.6
176
     1
 41
30.0
176
     1
 62
     5
 63
     7
421
 16777215
176
     1
 74
     1
176
     1
 91
        4
176
     1
 64
     7
176
     1
 65
   257
176
     1
 75
     1
176
     1
175
     1
176
     1
 42
1.0
176
     1
 92
        0
176
     1
 66
   257
176
     1
 43
1.0
176
     1
 76
     1
176
     1
 77
     6
176
     1
 78
     2
176
     1
 67
     7
176
     1
 79
     5
176
     1
170
     0
176
     1
171
     0
176
     1
290
     0
176
     1
 93
       13
176
     1
 44
0.0
176
     1
173
     0
176
     1
  0
VISUALSTYLE
  5
2D
102
{ACAD_REACTORS
330
2A
102
}
330
2A
100
AcDbVisualStyle
  2
Gouraud
 70
     2
177
     2
291
     1
 71
     2
176
     1
 72
     2
176
     1
 73
     1
176
     1
 90
        2
176
     1
 40
-0.6
176
     1
 41
30.0
176
     1
 62
     5
 63
     7
421
 16777215
176
     1
 74
     0
176
     1
 91
        4
176
     1
 64
     7
176
     1
 65
   257
176
     1
 75
     1
176
     1
175
     1
176
     1
 42
1.0
176
     1
 92
        0
176
     1
 66
     7
176
     1
 43
1.0
176
     1
 76
     1
176
     1
 77
     6
176
     1
 78
     2
176
     1
 67
     7
176
     1
 79
     5
176
     1
170
     0
176
     1
171
     0
176
     1
290
     0
176
     1
 93
       13
176
     1
 44
0.0
176
     1
173
     0
176
     1
  0
VISUALSTYLE
  5
2E
102
{ACAD_REACTORS
330
2A
102
}
330
2A
100
AcDbVisualStyle
  2
GouraudWithEdges
 70
     3
177
     2
291
     1
 71
     2
176
     1
 72
     2
176
     1
 73
     1
176
     1
 90
        2
176
     1
 40
-0.6
176
     1
 41
30.0
176
     1
 62
     5
 63
     7
421
 16777215
176
     1
 74
     1
176
     1
 91
        4
176
     1
 64
     7
176
     1
 65
   257
176
     1
 75
     1
176
     1
175
     1
176
     1
 42
1.0
176
     1
 92
        0
176
     1
 66
   257
176
     1
 43
1.0
176
     1
 76
     1
176
     1
 77
     6
176
     1
 78
     2
176
     1
 67
     7
176
     1
 79
     5
176
     1
170
     0
176
     1
171
     0
176
     1
290
     0
176
     1
 93
       13
176
     1
 44
0.0
176
     1
173
     0
176
     1
  0
VISUALSTYLE
  5
38
102
{ACAD_REACTORS
330
2A
102
}
330
2A
100
AcDbVisualStyle
  2
Linepattern
 70
    14
177
     2
291
     1
 71
     2
176
     1
 72
     2
176
     1
 73
     0
176
     1
 90
        0
176
     1
 40
-0.6
176
     1
 41
-30.0
176
     1
 62
     5
 63
     7
421
 16777215
176
     1
 74
     1
176
     1
 91
        4
176
     1
 64
     7
176
     1
 65
   257
176
     1
 75
     7
176
     1
175
     7
176
     1
 42
1.0
176
     1
 92
        8
176
     1
 66
     7
176
     1
 43
1.0
176
     1
 76
     1
176
     1
 77
     6
176
     1
 78
     2
176
     1
 67
     7
176
     1
 79
     5
176
     1
170
     0
176
     1
171
     0
176
     1
290
     0
176
     1
 93
        1
176
     1
 44
0.0
176
     1
173
     0
176
     1
  0
VISUALSTYLE
  5
33
102
{ACAD_REACTORS
330
2A
102
}
330
2A
100
AcDbVisualStyle
  2
Realistic
 70
     8
177
     2
291
     0
 71
     2
176
     1
 72
     2
176
     1
 73
     0
176
     1
 90
        0
176
     1
 40
-0.6
176
     1
 41
-30.0
176
     1
 62
     5
 63
     7
421
 16777215
176
     1
 74
     1
176
     1
 91
        0
176
     1
 64
     7
176
     1
 65
   257
176
     1
 75
     1
176
     1
175
     1
176
     1
 42
1.0
176
     1
 92
        8
176
     1
 66
     8
424
  7895160
176
     1
 43
1.0
176
     1
 76
     1
176
     1
 77
     6
176
     1
 78
     2
176
     1
 67
     7
176
     1
 79
     5
176
     1
170
     0
176
     1
171
     0
176
     1
290
     0
176
     1
 93
       13
176
     1
 44
0.0
176
     1
173
     0
176
     1
  0
VISUALSTYLE
  5
37
102
{ACAD_REACTORS
330
2A
102
}
330
2A
100
AcDbVisualStyle
  2
Thicken
 70
    13
177
     2
291
     1
 71
     2
176
     1
 72
     2
176
     1
 73
     0
176
     1
 90
        0
176
     1
 40
-0.6
176
     1
 41
-30.0
176
     1
 62
     5
 63
     7
421
 16777215
176
     1
 74
     1
176
     1
 91
        4
176
     1
 64
     7
176
     1
 65
   257
176
     1
 75
     1
176
     1
175
     1
176
     1
 42
1.0
176
     1
 92
       12
176
     1
 66
     7
176
     1
 43
1.0
176
     1
 76
     1
176
     1
 77
     6
176
     1
 78
     2
176
     1
 67
     7
176
     1
 79
     5
176
     1
170
     0
176
     1
171
     0
176
     1
290
     0
176
     1
 93
        1
176
     1
 44
0.0
176
     1
173
     0
176
     1
  0
ENDSEC
  0
EOF
