<svg id="Layer_1" data-name="Layer 1" xmlns="http://www.w3.org/2000/svg" viewBox="0 0 2970.3 2192.8"><defs><style>.cls-1,.cls-2,.cls-4{fill:none;stroke-miterlimit:10;}.cls-1,.cls-2{stroke:#231f20;}.cls-2{stroke-width:0.96px;}.cls-3{font-size:36px;fill:#231f20;font-family:Myriad Pro;}.cls-4{stroke:#ed1c24;}</style></defs><title>origami_face_shield_v16_40x30</title><line class="cls-1" x1="380.84" y1="281.72" x2="344.24" y2="249.25"/><line class="cls-1" x1="302.38" y1="155.31" x2="294.99" y2="106.94"/><line class="cls-1" x1="626.81" y1="282.72" x2="663.41" y2="250.25"/><line class="cls-1" x1="709.26" y1="155.31" x2="716.66" y2="106.94"/><line class="cls-1" x1="858" y1="418.56" x2="860.43" y2="459.64"/><line class="cls-1" x1="813.23" y1="405.04" x2="817.99" y2="480.78"/><path class="cls-1" d="M525.38,263.24l21.34,0.11a8.5,8.5,0,0,1,7.41,4.4l26.75,48.59A8.5,8.5,0,0,1,573.39,329l-34.52-.18" transform="translate(-21.83 -29.56)"/><path class="cls-1" d="M510.52,328.63L476,328.45a8.5,8.5,0,0,1-7.36-12.68l27.25-48.31a8.5,8.5,0,0,1,7.45-4.33l21,0.11" transform="translate(-21.83 -29.56)"/><path class="cls-2" d="M624.36,211.58l20.75-5a8.64,8.64,0,0,1,8.17,2.19L690,246.09c4.3,4.36,1.82,11.6-4.49,13.11l-33.57,8.06" transform="translate(-21.83 -29.56)"/><path class="cls-2" d="M624.37,273.88l-33.57,8.06c-6.31,1.51-11.8-3.81-10-9.64l15.79-49.9a8.64,8.64,0,0,1,6.28-5.66l20.46-4.91" transform="translate(-21.83 -29.56)"/><path class="cls-1" d="M525.93,216.39c95.63-.25,177.21-70.78,205.63-106.53,3.36-4.23,15.17-1.79,15.1,3.61h0c0,228.63-185.52,242-185.62,242h0c0.11,0,52.86-1.16,125-7.37v0l1.13-16.26c0.14-2.81,2.31-4.28,5.13-5.35l11.63-2.68a8.5,8.5,0,0,1,6,.82l19.48,10.64a5.67,5.67,0,0,1,2.93,4.44l0.38,4" transform="translate(-21.83 -29.56)"/><path class="cls-1" d="M525.72,1055.33H628.18c189.35,0,325.29-163.12,325.29-361.94L953.9,320.3a14.17,14.17,0,0,0-18-13.65c-25.33,7.13-48.2,13.22-75.84,18.44" transform="translate(-21.83 -29.56)"/><path class="cls-1" d="M709.9,345.89c39.87-3.85,84.13-9.22,127.92-16.67l0,0.18v0l-0.41-16.29c-0.12-2.81,1.9-4.48,4.6-5.81l11.33-3.76a8.5,8.5,0,0,1,6,.26l20.39,8.76a5.67,5.67,0,0,1,3.33,4.15l0.75,3.92" transform="translate(-21.83 -29.56)"/><line class="cls-1" x1="539.26" y1="332.17" x2="539.26" y2="325.94"/><line class="cls-1" x1="148.66" y1="418.56" x2="146.23" y2="459.64"/><line class="cls-1" x1="193.43" y1="405.04" x2="188.67" y2="480.78"/><path class="cls-1" d="M524.38,216.39c-95.63-.25-177.21-70.78-205.63-106.53-3.36-4.23-15.17-1.79-15.1,3.61h0c0,228.63,185.52,242,185.62,242h0c-0.11,0-52.86-1.16-125-7.37v0l-1.13-16.26c-0.14-2.81-2.31-4.28-5.13-5.35l-11.63-2.68a8.5,8.5,0,0,0-6,.82l-19.48,10.64a5.67,5.67,0,0,0-2.93,4.44l-0.38,4" transform="translate(-21.83 -29.56)"/><path class="cls-1" d="M524.59,1055.33H421.28C231.93,1055.33,96,892.21,96,693.39L95.56,320.3a14.17,14.17,0,0,1,18-13.65c25.33,7.13,48.2,13.22,75.84,18.44" transform="translate(-21.83 -29.56)"/><path class="cls-1" d="M340.41,345.89c-39.87-3.85-84.13-9.22-127.92-16.67l0,0.18v0l0.41-16.29c0.12-2.81-1.9-4.48-4.6-5.81l-11.33-3.76a8.5,8.5,0,0,0-6,.26l-20.39,8.76a5.67,5.67,0,0,0-3.33,4.15l-0.75,3.92" transform="translate(-21.83 -29.56)"/><line class="cls-1" x1="467.4" y1="332.17" x2="467.4" y2="325.94"/><path class="cls-2" d="M426.4,211.58l-20.75-5a8.64,8.64,0,0,0-8.17,2.19l-36.72,37.3c-4.3,4.36-1.82,11.6,4.49,13.11l33.57,8.06" transform="translate(-21.83 -29.56)"/><path class="cls-2" d="M426.39,273.88L460,281.94c6.31,1.51,11.8-3.81,10-9.64l-15.79-49.9a8.64,8.64,0,0,0-6.28-5.66l-20.46-4.91" transform="translate(-21.83 -29.56)"/><line class="cls-1" x1="1239.17" y1="281.72" x2="1202.57" y2="249.25"/><line class="cls-1" x1="1160.72" y1="155.31" x2="1153.33" y2="106.94"/><line class="cls-1" x1="1485.15" y1="282.72" x2="1521.75" y2="250.25"/><line class="cls-1" x1="1567.6" y1="155.31" x2="1574.99" y2="106.94"/><line class="cls-1" x1="1716.33" y1="418.56" x2="1718.77" y2="459.64"/><line class="cls-1" x1="1671.56" y1="405.04" x2="1676.33" y2="480.78"/><path class="cls-1" d="M1383.72,263.24l21.34,0.11a8.5,8.5,0,0,1,7.41,4.4l26.75,48.59a8.5,8.5,0,0,1-7.49,12.61l-34.52-.18" transform="translate(-21.83 -29.56)"/><path class="cls-1" d="M1368.86,328.63l-34.52-.18a8.5,8.5,0,0,1-7.36-12.68l27.25-48.31a8.5,8.5,0,0,1,7.45-4.33l21,0.11" transform="translate(-21.83 -29.56)"/><path class="cls-2" d="M1482.7,211.58l20.75-5a8.64,8.64,0,0,1,8.17,2.19l36.72,37.3c4.3,4.36,1.82,11.6-4.49,13.11l-33.57,8.06" transform="translate(-21.83 -29.56)"/><path class="cls-2" d="M1482.71,273.88l-33.57,8.06c-6.31,1.51-11.8-3.81-10-9.64l15.79-49.9a8.64,8.64,0,0,1,6.28-5.66l20.46-4.91" transform="translate(-21.83 -29.56)"/><path class="cls-1" d="M1384.27,216.39c95.63-.25,177.21-70.78,205.63-106.53,3.36-4.23,15.17-1.79,15.1,3.61h0c0,228.63-185.52,242-185.62,242h0c0.11,0,52.86-1.16,125-7.37v0l1.13-16.26c0.14-2.81,2.31-4.28,5.13-5.35l11.63-2.68a8.5,8.5,0,0,1,6,.82l19.48,10.64a5.67,5.67,0,0,1,2.93,4.44l0.38,4" transform="translate(-21.83 -29.56)"/><path class="cls-1" d="M1384.06,1055.33h102.45c189.35,0,325.29-163.12,325.29-361.94l0.43-373.09a14.17,14.17,0,0,0-18-13.65c-25.33,7.13-48.2,13.22-75.84,18.44" transform="translate(-21.83 -29.56)"/><path class="cls-1" d="M1568.24,345.89c39.87-3.85,84.13-9.22,127.92-16.67l0,0.18v0l-0.41-16.29c-0.12-2.81,1.9-4.48,4.6-5.81l11.33-3.76a8.5,8.5,0,0,1,6,.26l20.39,8.76a5.67,5.67,0,0,1,3.33,4.15l0.75,3.92" transform="translate(-21.83 -29.56)"/><line class="cls-1" x1="1397.6" y1="332.17" x2="1397.6" y2="325.94"/><line class="cls-1" x1="1007" y1="418.56" x2="1004.56" y2="459.64"/><line class="cls-1" x1="1051.77" y1="405.04" x2="1047" y2="480.78"/><path class="cls-1" d="M1382.71,216.39c-95.63-.25-177.21-70.78-205.63-106.53-3.36-4.23-15.17-1.79-15.1,3.61h0c0,228.63,185.52,242,185.62,242h0c-0.11,0-52.86-1.16-125-7.37v0l-1.13-16.26c-0.14-2.81-2.31-4.28-5.13-5.35l-11.63-2.68a8.5,8.5,0,0,0-6,.82l-19.48,10.64a5.67,5.67,0,0,0-2.93,4.44l-0.38,4" transform="translate(-21.83 -29.56)"/><path class="cls-1" d="M953.9,320.3a14.17,14.17,0,0,1,18-13.65c25.33,7.13,48.2,13.22,75.84,18.44" transform="translate(-21.83 -29.56)"/><path class="cls-1" d="M1382.93,1055.33H1279.62c-189.35,0-326.16-163.12-326.16-361.94" transform="translate(-21.83 -29.56)"/><path class="cls-1" d="M1198.75,345.89c-39.87-3.85-84.13-9.22-127.92-16.67l0,0.18v0l0.41-16.29c0.12-2.81-1.9-4.48-4.6-5.81l-11.33-3.76a8.5,8.5,0,0,0-6,.26l-20.39,8.76a5.67,5.67,0,0,0-3.33,4.15l-0.75,3.92" transform="translate(-21.83 -29.56)"/><line class="cls-1" x1="1325.73" y1="332.17" x2="1325.73" y2="325.94"/><path class="cls-2" d="M1284.74,211.58l-20.75-5a8.64,8.64,0,0,0-8.17,2.19l-36.72,37.3c-4.3,4.36-1.82,11.6,4.49,13.11l33.57,8.06" transform="translate(-21.83 -29.56)"/><path class="cls-2" d="M1284.73,273.88l33.57,8.06c6.31,1.51,11.8-3.81,10-9.64l-15.79-49.9a8.64,8.64,0,0,0-6.28-5.66l-20.46-4.91" transform="translate(-21.83 -29.56)"/><line class="cls-1" x1="2097.94" y1="281.72" x2="2061.34" y2="249.25"/><line class="cls-1" x1="2019.49" y1="155.31" x2="2012.1" y2="106.94"/><line class="cls-1" x1="2343.92" y1="282.72" x2="2380.52" y2="250.25"/><line class="cls-1" x1="2426.37" y1="155.31" x2="2433.76" y2="106.94"/><line class="cls-1" x1="2575.1" y1="418.56" x2="2577.54" y2="459.64"/><line class="cls-1" x1="2530.33" y1="405.04" x2="2535.1" y2="480.78"/><path class="cls-1" d="M2242.49,1196.87l21.34,0.11a8.5,8.5,0,0,1,7.41,4.4L2298,1250a8.5,8.5,0,0,1-7.49,12.61l-34.52-.18" transform="translate(-21.83 -29.56)"/><path class="cls-1" d="M2227.63,328.63l-34.52-.18a8.5,8.5,0,0,1-7.36-12.68L2213,267.46a8.5,8.5,0,0,1,7.45-4.33l21,0.11" transform="translate(-21.83 -29.56)"/><path class="cls-2" d="M2341.47,211.58l20.75-5a8.64,8.64,0,0,1,8.17,2.19l36.72,37.3c4.3,4.36,1.82,11.6-4.49,13.11L2369,267.26" transform="translate(-21.83 -29.56)"/><path class="cls-2" d="M2341.48,273.88l-33.57,8.06c-6.31,1.51-11.8-3.81-10-9.64l15.79-49.9a8.64,8.64,0,0,1,6.28-5.66l20.46-4.91" transform="translate(-21.83 -29.56)"/><path class="cls-1" d="M2243,1150c95.63-.25,177.21-70.78,205.63-106.53,3.36-4.23,15.17-1.79,15.1,3.61h0c0,228.63-185.52,242-185.62,242h0c0.11,0,52.86-1.16,125-7.37v0l1.13-16.26c0.14-2.81,2.31-4.28,5.13-5.35l11.63-2.68a8.5,8.5,0,0,1,6,.82l19.48,10.64a5.67,5.67,0,0,1,2.93,4.44l0.38,4" transform="translate(-21.83 -29.56)"/><path class="cls-1" d="M2242.83,1055.33h102.45c189.35,0,325.29-163.12,325.29-361.94L2671,320.3a14.17,14.17,0,0,0-18-13.65c-25.33,7.13-48.2,13.22-75.84,18.44" transform="translate(-21.83 -29.56)"/><path class="cls-1" d="M2427,345.89c39.87-3.85,84.13-9.22,127.92-16.67l0,0.18v0l-0.41-16.29c-0.12-2.81,1.9-4.48,4.6-5.81l11.33-3.76a8.5,8.5,0,0,1,6,.26l20.39,8.76a5.67,5.67,0,0,1,3.33,4.15l0.75,3.92" transform="translate(-21.83 -29.56)"/><line class="cls-1" x1="2256.37" y1="332.17" x2="2256.37" y2="325.94"/><line class="cls-1" x1="1865.77" y1="418.56" x2="1863.33" y2="459.64"/><line class="cls-1" x1="1910.54" y1="405.04" x2="1905.77" y2="480.78"/><path class="cls-1" d="M2241.48,216.39c-95.63-.25-177.21-70.78-205.63-106.53-3.36-4.23-15.17-1.79-15.1,3.61h0c0,228.63,185.52,242,185.62,242h0c-0.11,0-52.86-1.16-125-7.37v0l-1.13-16.26c-0.14-2.81-2.31-4.28-5.13-5.35l-11.63-2.68a8.5,8.5,0,0,0-6,.82L2038,335.33a5.67,5.67,0,0,0-2.93,4.44l-0.38,4" transform="translate(-21.83 -29.56)"/><path class="cls-1" d="M1812.67,320.3a14.17,14.17,0,0,1,18-13.65c25.33,7.13,48.2,13.22,75.84,18.44" transform="translate(-21.83 -29.56)"/><path class="cls-1" d="M2241.7,1055.33H2138.39c-189.35,0-326.16-163.12-326.16-361.94" transform="translate(-21.83 -29.56)"/><path class="cls-1" d="M2057.52,345.89c-39.87-3.85-84.13-9.22-127.92-16.67l0,0.18v0l0.41-16.29c0.12-2.81-1.9-4.48-4.6-5.81L1914,303.56a8.5,8.5,0,0,0-6,.26l-20.39,8.76a5.67,5.67,0,0,0-3.33,4.15l-0.75,3.92" transform="translate(-21.83 -29.56)"/><line class="cls-1" x1="2184.5" y1="332.17" x2="2184.5" y2="325.94"/><path class="cls-2" d="M2143.51,211.58l-20.75-5a8.64,8.64,0,0,0-8.17,2.19l-36.72,37.3c-4.3,4.36-1.82,11.6,4.49,13.11l33.57,8.06" transform="translate(-21.83 -29.56)"/><path class="cls-2" d="M2143.5,273.88l33.57,8.06c6.31,1.51,11.8-3.81,10-9.64l-15.79-49.9a8.64,8.64,0,0,0-6.28-5.66l-20.46-4.91" transform="translate(-21.83 -29.56)"/><line class="cls-1" x1="380.84" y1="1215.35" x2="344.24" y2="1182.87"/><line class="cls-1" x1="302.38" y1="1088.93" x2="294.99" y2="1040.56"/><line class="cls-1" x1="626.81" y1="1216.35" x2="663.41" y2="1183.87"/><line class="cls-1" x1="709.26" y1="1088.93" x2="716.66" y2="1040.56"/><line class="cls-1" x1="858" y1="1352.19" x2="860.43" y2="1393.27"/><line class="cls-1" x1="813.23" y1="1338.66" x2="817.99" y2="1414.4"/><path class="cls-1" d="M525.38,1196.87l21.34,0.11a8.5,8.5,0,0,1,7.41,4.4L580.88,1250a8.5,8.5,0,0,1-7.49,12.61l-34.52-.18" transform="translate(-21.83 -29.56)"/><path class="cls-1" d="M510.52,1262.26l-34.52-.18a8.5,8.5,0,0,1-7.36-12.68l27.25-48.31a8.5,8.5,0,0,1,7.45-4.33l21,0.11" transform="translate(-21.83 -29.56)"/><path class="cls-2" d="M624.36,1145.21l20.75-5a8.64,8.64,0,0,1,8.17,2.19l36.72,37.3c4.3,4.36,1.82,11.6-4.49,13.11l-33.57,8.06" transform="translate(-21.83 -29.56)"/><path class="cls-2" d="M624.37,1207.51l-33.57,8.06c-6.31,1.51-11.8-3.81-10-9.64l15.79-49.9a8.64,8.64,0,0,1,6.28-5.66l20.46-4.91" transform="translate(-21.83 -29.56)"/><path class="cls-1" d="M525.93,1150c95.63-.25,177.21-70.78,205.63-106.53,3.36-4.23,15.17-1.79,15.1,3.61h0c0,228.63-185.52,242-185.62,242h0c0.11,0,52.86-1.16,125-7.37v0l1.13-16.26c0.14-2.81,2.31-4.28,5.13-5.35l11.63-2.68a8.5,8.5,0,0,1,6,.82L729.4,1269a5.67,5.67,0,0,1,2.93,4.44l0.38,4" transform="translate(-21.83 -29.56)"/><path class="cls-1" d="M525.72,1989H628.18c189.35,0,325.29-163.12,325.29-361.94l0.43-373.09a14.17,14.17,0,0,0-18-13.65c-25.33,7.13-48.2,13.22-75.84,18.44" transform="translate(-21.83 -29.56)"/><path class="cls-1" d="M709.9,1279.52c39.87-3.85,84.13-9.22,127.92-16.67l0,0.18v0l-0.41-16.29c-0.12-2.81,1.9-4.48,4.6-5.81l11.33-3.76a8.5,8.5,0,0,1,6,.26l20.39,8.76a5.67,5.67,0,0,1,3.33,4.15l0.75,3.92" transform="translate(-21.83 -29.56)"/><line class="cls-1" x1="539.26" y1="1265.8" x2="539.26" y2="1259.56"/><line class="cls-1" x1="148.66" y1="1352.19" x2="146.23" y2="1393.27"/><line class="cls-1" x1="193.43" y1="1338.66" x2="188.67" y2="1414.4"/><path class="cls-1" d="M524.38,1150c-95.63-.25-177.21-70.78-205.63-106.53-3.36-4.23-15.17-1.79-15.1,3.61h0c0,228.63,185.52,242,185.62,242h0c-0.11,0-52.86-1.16-125-7.37v0l-1.13-16.26c-0.14-2.81-2.31-4.28-5.13-5.35l-11.63-2.68a8.5,8.5,0,0,0-6,.82L320.91,1269a5.67,5.67,0,0,0-2.93,4.44l-0.38,4" transform="translate(-21.83 -29.56)"/><path class="cls-1" d="M524.59,1989H421.28C231.93,1989,96,1825.84,96,1627l-0.43-373.09a14.17,14.17,0,0,1,18-13.65c25.33,7.13,48.2,13.22,75.84,18.44" transform="translate(-21.83 -29.56)"/><path class="cls-1" d="M340.41,1279.52c-39.87-3.85-84.13-9.22-127.92-16.67l0,0.18v0l0.41-16.29c0.12-2.81-1.9-4.48-4.6-5.81l-11.33-3.76a8.5,8.5,0,0,0-6,.26l-20.39,8.76a5.67,5.67,0,0,0-3.33,4.15l-0.75,3.92" transform="translate(-21.83 -29.56)"/><line class="cls-1" x1="467.4" y1="1265.8" x2="467.4" y2="1259.56"/><path class="cls-2" d="M426.4,1145.21l-20.75-5a8.64,8.64,0,0,0-8.17,2.19l-36.72,37.3c-4.3,4.36-1.82,11.6,4.49,13.11l33.57,8.06" transform="translate(-21.83 -29.56)"/><path class="cls-2" d="M426.39,1207.51l33.57,8.06c6.31,1.51,11.8-3.81,10-9.64L454.12,1156a8.64,8.64,0,0,0-6.28-5.66l-20.46-4.91" transform="translate(-21.83 -29.56)"/><line class="cls-1" x1="1239.17" y1="1215.35" x2="1202.57" y2="1182.87"/><line class="cls-1" x1="1160.72" y1="1088.93" x2="1153.33" y2="1040.56"/><line class="cls-1" x1="1485.15" y1="1216.35" x2="1521.75" y2="1183.87"/><line class="cls-1" x1="1567.6" y1="1088.93" x2="1574.99" y2="1040.56"/><line class="cls-1" x1="1716.33" y1="1352.19" x2="1718.77" y2="1393.27"/><line class="cls-1" x1="1671.56" y1="1338.66" x2="1676.33" y2="1414.4"/><path class="cls-1" d="M1383.72,1196.87l21.34,0.11a8.5,8.5,0,0,1,7.41,4.4l26.75,48.59a8.5,8.5,0,0,1-7.49,12.61l-34.52-.18" transform="translate(-21.83 -29.56)"/><path class="cls-1" d="M1368.86,1262.26l-34.52-.18a8.5,8.5,0,0,1-7.36-12.68l27.25-48.31a8.5,8.5,0,0,1,7.45-4.33l21,0.11" transform="translate(-21.83 -29.56)"/><path class="cls-2" d="M1482.7,1145.21l20.75-5a8.64,8.64,0,0,1,8.17,2.19l36.72,37.3c4.3,4.36,1.82,11.6-4.49,13.11l-33.57,8.06" transform="translate(-21.83 -29.56)"/><path class="cls-2" d="M1482.71,1207.51l-33.57,8.06c-6.31,1.51-11.8-3.81-10-9.64L1455,1156a8.64,8.64,0,0,1,6.28-5.66l20.46-4.91" transform="translate(-21.83 -29.56)"/><path class="cls-1" d="M1384.27,1150c95.63-.25,177.21-70.78,205.63-106.53,3.36-4.23,15.17-1.79,15.1,3.61h0c0,228.63-185.52,242-185.62,242h0c0.11,0,52.86-1.16,125-7.37v0l1.13-16.26c0.14-2.81,2.31-4.28,5.13-5.35l11.63-2.68a8.5,8.5,0,0,1,6,.82l19.48,10.64a5.67,5.67,0,0,1,2.93,4.44l0.38,4" transform="translate(-21.83 -29.56)"/><path class="cls-1" d="M1384.06,1989h102.45c189.35,0,325.29-163.12,325.29-361.94l0.43-373.09a14.17,14.17,0,0,0-18-13.65c-25.33,7.13-48.2,13.22-75.84,18.44" transform="translate(-21.83 -29.56)"/><path class="cls-1" d="M1568.24,1279.52c39.87-3.85,84.13-9.22,127.92-16.67l0,0.18v0l-0.41-16.29c-0.12-2.81,1.9-4.48,4.6-5.81l11.33-3.76a8.5,8.5,0,0,1,6,.26l20.39,8.76a5.67,5.67,0,0,1,3.33,4.15l0.75,3.92" transform="translate(-21.83 -29.56)"/><line class="cls-1" x1="1397.6" y1="1265.8" x2="1397.6" y2="1259.56"/><line class="cls-1" x1="1007" y1="1352.19" x2="1004.56" y2="1393.27"/><line class="cls-1" x1="1051.77" y1="1338.66" x2="1047" y2="1414.4"/><path class="cls-1" d="M1382.71,1150c-95.63-.25-177.21-70.78-205.63-106.53-3.36-4.23-15.17-1.79-15.1,3.61h0c0,228.63,185.52,242,185.62,242h0c-0.11,0-52.86-1.16-125-7.37v0l-1.13-16.26c-0.14-2.81-2.31-4.28-5.13-5.35l-11.63-2.68a8.5,8.5,0,0,0-6,.82L1179.24,1269a5.67,5.67,0,0,0-2.93,4.44l-0.38,4" transform="translate(-21.83 -29.56)"/><path class="cls-1" d="M953.9,1253.93a14.17,14.17,0,0,1,18-13.65c25.33,7.13,48.2,13.22,75.84,18.44" transform="translate(-21.83 -29.56)"/><path class="cls-1" d="M1382.93,1989H1279.62c-189.35,0-326.16-163.12-326.16-361.94" transform="translate(-21.83 -29.56)"/><path class="cls-1" d="M1198.75,1279.52c-39.87-3.85-84.13-9.22-127.92-16.67l0,0.18v0l0.41-16.29c0.12-2.81-1.9-4.48-4.6-5.81l-11.33-3.76a8.5,8.5,0,0,0-6,.26l-20.39,8.76a5.67,5.67,0,0,0-3.33,4.15l-0.75,3.92" transform="translate(-21.83 -29.56)"/><line class="cls-1" x1="1325.73" y1="1265.8" x2="1325.73" y2="1259.56"/><path class="cls-2" d="M1284.74,1145.21l-20.75-5a8.64,8.64,0,0,0-8.17,2.19l-36.72,37.3c-4.3,4.36-1.82,11.6,4.49,13.11l33.57,8.06" transform="translate(-21.83 -29.56)"/><path class="cls-2" d="M1284.73,1207.51l33.57,8.06c6.31,1.51,11.8-3.81,10-9.64l-15.79-49.9a8.64,8.64,0,0,0-6.28-5.66l-20.46-4.91" transform="translate(-21.83 -29.56)"/><line class="cls-1" x1="2097.94" y1="1215.35" x2="2061.34" y2="1182.87"/><line class="cls-1" x1="2019.49" y1="1088.93" x2="2012.1" y2="1040.56"/><line class="cls-1" x1="2343.92" y1="1216.35" x2="2380.52" y2="1183.87"/><line class="cls-1" x1="2426.37" y1="1088.93" x2="2433.76" y2="1040.56"/><line class="cls-1" x1="2575.1" y1="1352.19" x2="2577.54" y2="1393.27"/><line class="cls-1" x1="2530.33" y1="1338.66" x2="2535.1" y2="1414.4"/><path class="cls-1" d="M2242.49,263.24l21.34,0.11a8.5,8.5,0,0,1,7.41,4.4L2298,316.35a8.5,8.5,0,0,1-7.49,12.61l-34.52-.18" transform="translate(-21.83 -29.56)"/><path class="cls-1" d="M2227.63,1262.26l-34.52-.18a8.5,8.5,0,0,1-7.36-12.68l27.25-48.31a8.5,8.5,0,0,1,7.45-4.33l21,0.11" transform="translate(-21.83 -29.56)"/><path class="cls-2" d="M2341.47,1145.21l20.75-5a8.64,8.64,0,0,1,8.17,2.19l36.72,37.3c4.3,4.36,1.82,11.6-4.49,13.11l-33.57,8.06" transform="translate(-21.83 -29.56)"/><path class="cls-2" d="M2341.48,1207.51l-33.57,8.06c-6.31,1.51-11.8-3.81-10-9.64l15.79-49.9a8.64,8.64,0,0,1,6.28-5.66l20.46-4.91" transform="translate(-21.83 -29.56)"/><path class="cls-1" d="M2243,216.39c95.63-.25,177.21-70.78,205.63-106.53,3.36-4.23,15.17-1.79,15.1,3.61h0c0,228.63-185.52,242-185.62,242h0c0.11,0,52.86-1.16,125-7.37v0l1.13-16.26c0.14-2.81,2.31-4.28,5.13-5.35l11.63-2.68a8.5,8.5,0,0,1,6,.82l19.48,10.64a5.67,5.67,0,0,1,2.93,4.44l0.38,4" transform="translate(-21.83 -29.56)"/><path class="cls-1" d="M2242.83,1989h102.45c189.35,0,325.29-163.12,325.29-361.94l0.43-373.09a14.17,14.17,0,0,0-18-13.65c-25.33,7.13-48.2,13.22-75.84,18.44" transform="translate(-21.83 -29.56)"/><path class="cls-1" d="M2427,1279.52c39.87-3.85,84.13-9.22,127.92-16.67l0,0.18v0l-0.41-16.29c-0.12-2.81,1.9-4.48,4.6-5.81l11.33-3.76a8.5,8.5,0,0,1,6,.26l20.39,8.76a5.67,5.67,0,0,1,3.33,4.15l0.75,3.92" transform="translate(-21.83 -29.56)"/><line class="cls-1" x1="2256.37" y1="1265.8" x2="2256.37" y2="1259.56"/><line class="cls-1" x1="1865.77" y1="1352.19" x2="1863.33" y2="1393.27"/><line class="cls-1" x1="1910.54" y1="1338.66" x2="1905.77" y2="1414.4"/><path class="cls-1" d="M2241.48,1150c-95.63-.25-177.21-70.78-205.63-106.53-3.36-4.23-15.17-1.79-15.1,3.61h0c0,228.63,185.52,242,185.62,242h0c-0.11,0-52.86-1.16-125-7.37v0l-1.13-16.26c-0.14-2.81-2.31-4.28-5.13-5.35l-11.63-2.68a8.5,8.5,0,0,0-6,.82L2038,1269a5.67,5.67,0,0,0-2.93,4.44l-0.38,4" transform="translate(-21.83 -29.56)"/><path class="cls-1" d="M1812.67,1253.93a14.17,14.17,0,0,1,18-13.65c25.33,7.13,48.2,13.22,75.84,18.44" transform="translate(-21.83 -29.56)"/><path class="cls-1" d="M2241.7,1989H2138.39c-189.35,0-326.16-163.12-326.16-361.94" transform="translate(-21.83 -29.56)"/><path class="cls-1" d="M2057.52,1279.52c-39.87-3.85-84.13-9.22-127.92-16.67l0,0.18v0l0.41-16.29c0.12-2.81-1.9-4.48-4.6-5.81l-11.33-3.76a8.5,8.5,0,0,0-6,.26l-20.39,8.76a5.67,5.67,0,0,0-3.33,4.15l-0.75,3.92" transform="translate(-21.83 -29.56)"/><line class="cls-1" x1="2184.5" y1="1265.8" x2="2184.5" y2="1259.56"/><path class="cls-2" d="M2143.51,1145.21l-20.75-5a8.64,8.64,0,0,0-8.17,2.19l-36.72,37.3c-4.3,4.36-1.82,11.6,4.49,13.11l33.57,8.06" transform="translate(-21.83 -29.56)"/><path class="cls-2" d="M2143.5,1207.51l33.57,8.06c6.31,1.51,11.8-3.81,10-9.64l-15.79-49.9a8.64,8.64,0,0,0-6.28-5.66l-20.46-4.91" transform="translate(-21.83 -29.56)"/><path class="cls-1" d="M1077.78,2014.3l-14.24.3v-5c0-.61-2.61,0-3.17.21-3.13,1.29,0,0-15,17.84a6.53,6.53,0,0,0-1.8,4.15v4.34a6.53,6.53,0,0,0,1.8,4.15c15,17.84,11.9,16.55,15,17.84,0.56,0.23,3.17.82,3.17,0.21v-5l14.24,0.3" transform="translate(-21.83 -29.56)"/><path class="cls-1" d="M1663.31,2014.3l14.24,0.3v-5c0-.61,2.61,0,3.17.21,3.13,1.29,10.38,13.52,15,17.84a5.66,5.66,0,0,1,1.8,4.15v4.34a5.66,5.66,0,0,1-1.8,4.15c-4.65,4.32-11.9,16.55-15,17.84-0.56.23-3.17,0.82-3.17,0.21v-5l-14.24.3" transform="translate(-21.83 -29.56)"/><path class="cls-1" d="M444.27,2040.31a4.81,4.81,0,0,1,4.81-4.81h4.2a8.41,8.41,0,0,1,8.41,8.41v20.18c0,4.64-3.76,6.41-8.41,6.41H436.74c-4.64,0-8.41-1.76-8.41-6.41" transform="translate(-21.83 -29.56)"/><path class="cls-1" d="M477.63,2040.31a4.81,4.81,0,0,1,4.81-4.81h4.2a8.41,8.41,0,0,1,8.41,8.41v20.18c0,4.64-3.76,6.41-8.41,6.41H470.1c-4.64,0-8.41-1.76-8.41-6.41" transform="translate(-21.83 -29.56)"/><path class="cls-1" d="M511,2040.31a4.81,4.81,0,0,1,4.81-4.81H520a8.41,8.41,0,0,1,8.41,8.41v20.18c0,4.64-3.76,6.41-8.41,6.41H503.46c-4.64,0-8.41-1.76-8.41-6.41" transform="translate(-21.83 -29.56)"/><path class="cls-1" d="M544.36,2040.31a4.81,4.81,0,0,1,4.81-4.81h4.2a8.41,8.41,0,0,1,8.41,8.41v20.18c0,4.64-3.76,6.41-8.41,6.41H536.83c-4.64,0-8.41-1.76-8.41-6.41" transform="translate(-21.83 -29.56)"/><path class="cls-1" d="M577.72,2040.31a4.81,4.81,0,0,1,4.81-4.81h4.2a8.41,8.41,0,0,1,8.41,8.41v20.18c0,4.64-3.76,6.41-8.41,6.41H570.19c-4.64,0-8.41-1.76-8.41-6.41" transform="translate(-21.83 -29.56)"/><path class="cls-1" d="M611.08,2040.31a4.81,4.81,0,0,1,4.81-4.81h4.2a8.41,8.41,0,0,1,8.41,8.41v20.18c0,4.64-3.76,6.41-8.41,6.41H603.55c-4.64,0-8.41-1.76-8.41-6.41" transform="translate(-21.83 -29.56)"/><path class="cls-1" d="M644.45,2040.31a4.81,4.81,0,0,1,4.81-4.81h4.2a8.41,8.41,0,0,1,8.41,8.41v20.18c0,4.64-3.76,6.41-8.41,6.41H636.91c-4.64,0-8.41-1.76-8.41-6.41" transform="translate(-21.83 -29.56)"/><path class="cls-1" d="M677.81,2040.31a4.81,4.81,0,0,1,4.81-4.81h4.2a8.41,8.41,0,0,1,8.41,8.41v18.18a8.41,8.41,0,0,1-8.41,8.41H670.27c-4.64,0-8.41-1.76-8.41-6.41" transform="translate(-21.83 -29.56)"/><path class="cls-1" d="M703.53,2072.46h0.11a8.41,8.41,0,0,1-8.41-8.41" transform="translate(-21.83 -29.56)"/><path class="cls-1" d="M2296.19,2030a4.81,4.81,0,0,1-4.81,4.81h-4.2a8.41,8.41,0,0,1-8.41-8.41v-18.18a8.41,8.41,0,0,1,8.41-8.41h16.55a8.41,8.41,0,0,1,8.41,8.41" transform="translate(-21.83 -29.56)"/><path class="cls-1" d="M2262.83,2030a4.81,4.81,0,0,1-4.81,4.81h-4.2a8.41,8.41,0,0,1-8.41-8.41v-18.18a8.41,8.41,0,0,1,8.41-8.41h16.55a8.41,8.41,0,0,1,8.41,8.41" transform="translate(-21.83 -29.56)"/><path class="cls-1" d="M2229.47,2030a4.81,4.81,0,0,1-4.81,4.81h-4.2a8.41,8.41,0,0,1-8.41-8.41v-18.18a8.41,8.41,0,0,1,8.41-8.41H2237a8.41,8.41,0,0,1,8.41,8.41" transform="translate(-21.83 -29.56)"/><path class="cls-1" d="M2196.11,2030a4.81,4.81,0,0,1-4.81,4.81h-4.2a8.41,8.41,0,0,1-8.41-8.41v-18.18a8.41,8.41,0,0,1,8.41-8.41h16.55a8.41,8.41,0,0,1,8.41,8.41" transform="translate(-21.83 -29.56)"/><path class="cls-1" d="M2162.75,2030a4.81,4.81,0,0,1-4.81,4.81h-4.2a8.41,8.41,0,0,1-8.41-8.41v-18.18a8.41,8.41,0,0,1,8.41-8.41h16.55a8.41,8.41,0,0,1,8.41,8.41" transform="translate(-21.83 -29.56)"/><path class="cls-1" d="M2129.38,2030a4.81,4.81,0,0,1-4.81,4.81h-4.2a8.41,8.41,0,0,1-8.41-8.41v-18.18a8.41,8.41,0,0,1,8.41-8.41h16.55a8.41,8.41,0,0,1,8.41,8.41" transform="translate(-21.83 -29.56)"/><path class="cls-1" d="M2096,2030a4.81,4.81,0,0,1-4.81,4.81H2087a8.41,8.41,0,0,1-8.41-8.41v-18.18a8.41,8.41,0,0,1,8.41-8.41h16.55a8.41,8.41,0,0,1,8.41,8.41" transform="translate(-21.83 -29.56)"/><path class="cls-1" d="M2062.66,2030a4.81,4.81,0,0,1-4.81,4.81h-4.2a8.41,8.41,0,0,1-8.41-8.41v-18.18a8.41,8.41,0,0,1,8.41-8.41h16.55a8.41,8.41,0,0,1,8.41,8.41" transform="translate(-21.83 -29.56)"/><path class="cls-1" d="M2045.24,2006.22a8.41,8.41,0,0,0-8.41-8.41l-1633.45,0a16.86,16.86,0,0,0-10.94,4.32" transform="translate(-21.83 -29.56)"/><path class="cls-1" d="M410.91,2040.31a4.81,4.81,0,0,1,4.81-4.81h4.2a8.41,8.41,0,0,1,8.41,8.41v20.18c0,4.64-3.76,6.41-8.41,6.41H403.38l-0.11,0h0.11c-9.31,0-16.86-8.06-16.86-18V2015.8a18.51,18.51,0,0,1,5.31-13.09" transform="translate(-21.83 -29.56)"/><path class="cls-1" d="M703.53,2072.49H2337.09a16.86,16.86,0,0,0,10.94-4.32" transform="translate(-21.83 -29.56)"/><path class="cls-1" d="M2329.56,2030a4.81,4.81,0,0,1-4.81,4.81h-4.2a8.41,8.41,0,0,1-8.41-8.41v-18.18a8.41,8.41,0,0,1,8.41-8.41h16.55l0.11,0h-0.11c9.31,0,16.86,8.06,16.86,18v36.66a18.51,18.51,0,0,1-5.31,13.09" transform="translate(-21.83 -29.56)"/><path class="cls-1" d="M1077.78,2089l-14.24.3v-5c0-.61-2.61,0-3.17.21-3.13,1.29,0,0-15,17.84a6.53,6.53,0,0,0-1.8,4.15v4.34a6.53,6.53,0,0,0,1.8,4.15c15,17.84,11.9,16.55,15,17.84,0.56,0.23,3.17.82,3.17,0.21v-5l14.24,0.3" transform="translate(-21.83 -29.56)"/><path class="cls-1" d="M1663.31,2089l14.24,0.3v-5c0-.61,2.61,0,3.17.21,3.13,1.29,10.38,13.52,15,17.84a5.66,5.66,0,0,1,1.8,4.15v4.34a5.66,5.66,0,0,1-1.8,4.15c-4.65,4.32-11.9,16.55-15,17.84-0.56.23-3.17,0.82-3.17,0.21v-5l-14.24.3" transform="translate(-21.83 -29.56)"/><path class="cls-1" d="M444.27,2115a4.81,4.81,0,0,1,4.81-4.81h4.2a8.41,8.41,0,0,1,8.41,8.41v20.18c0,4.64-3.76,6.41-8.41,6.41H436.74c-4.64,0-8.41-1.76-8.41-6.41" transform="translate(-21.83 -29.56)"/><path class="cls-1" d="M477.63,2115a4.81,4.81,0,0,1,4.81-4.81h4.2a8.41,8.41,0,0,1,8.41,8.41v20.18c0,4.64-3.76,6.41-8.41,6.41H470.1c-4.64,0-8.41-1.76-8.41-6.41" transform="translate(-21.83 -29.56)"/><path class="cls-1" d="M511,2115a4.81,4.81,0,0,1,4.81-4.81H520a8.41,8.41,0,0,1,8.41,8.41v20.18c0,4.64-3.76,6.41-8.41,6.41H503.46c-4.64,0-8.41-1.76-8.41-6.41" transform="translate(-21.83 -29.56)"/><path class="cls-1" d="M544.36,2115a4.81,4.81,0,0,1,4.81-4.81h4.2a8.41,8.41,0,0,1,8.41,8.41v20.18c0,4.64-3.76,6.41-8.41,6.41H536.83c-4.64,0-8.41-1.76-8.41-6.41" transform="translate(-21.83 -29.56)"/><path class="cls-1" d="M577.72,2115a4.81,4.81,0,0,1,4.81-4.81h4.2a8.41,8.41,0,0,1,8.41,8.41v20.18c0,4.64-3.76,6.41-8.41,6.41H570.19c-4.64,0-8.41-1.76-8.41-6.41" transform="translate(-21.83 -29.56)"/><path class="cls-1" d="M611.08,2115a4.81,4.81,0,0,1,4.81-4.81h4.2a8.41,8.41,0,0,1,8.41,8.41v20.18c0,4.64-3.76,6.41-8.41,6.41H603.55c-4.64,0-8.41-1.76-8.41-6.41" transform="translate(-21.83 -29.56)"/><path class="cls-1" d="M644.45,2115a4.81,4.81,0,0,1,4.81-4.81h4.2a8.41,8.41,0,0,1,8.41,8.41v20.18c0,4.64-3.76,6.41-8.41,6.41H636.91c-4.64,0-8.41-1.76-8.41-6.41" transform="translate(-21.83 -29.56)"/><path class="cls-1" d="M677.81,2115a4.81,4.81,0,0,1,4.81-4.81h4.2a8.41,8.41,0,0,1,8.41,8.41v18.18a8.41,8.41,0,0,1-8.41,8.41H670.27c-4.64,0-8.41-1.76-8.41-6.41" transform="translate(-21.83 -29.56)"/><path class="cls-1" d="M703.53,2147.15h0.11a8.41,8.41,0,0,1-8.41-8.41" transform="translate(-21.83 -29.56)"/><path class="cls-1" d="M2296.19,2104.65a4.81,4.81,0,0,1-4.81,4.81h-4.2a8.41,8.41,0,0,1-8.41-8.41v-18.18a8.41,8.41,0,0,1,8.41-8.41h16.55a8.41,8.41,0,0,1,8.41,8.41" transform="translate(-21.83 -29.56)"/><path class="cls-1" d="M2262.83,2104.65a4.81,4.81,0,0,1-4.81,4.81h-4.2a8.41,8.41,0,0,1-8.41-8.41v-18.18a8.41,8.41,0,0,1,8.41-8.41h16.55a8.41,8.41,0,0,1,8.41,8.41" transform="translate(-21.83 -29.56)"/><path class="cls-1" d="M2229.47,2104.65a4.81,4.81,0,0,1-4.81,4.81h-4.2a8.41,8.41,0,0,1-8.41-8.41v-18.18a8.41,8.41,0,0,1,8.41-8.41H2237a8.41,8.41,0,0,1,8.41,8.41" transform="translate(-21.83 -29.56)"/><path class="cls-1" d="M2196.11,2104.65a4.81,4.81,0,0,1-4.81,4.81h-4.2a8.41,8.41,0,0,1-8.41-8.41v-18.18a8.41,8.41,0,0,1,8.41-8.41h16.55a8.41,8.41,0,0,1,8.41,8.41" transform="translate(-21.83 -29.56)"/><path class="cls-1" d="M2162.75,2104.65a4.81,4.81,0,0,1-4.81,4.81h-4.2a8.41,8.41,0,0,1-8.41-8.41v-18.18a8.41,8.41,0,0,1,8.41-8.41h16.55a8.41,8.41,0,0,1,8.41,8.41" transform="translate(-21.83 -29.56)"/><path class="cls-1" d="M2129.38,2104.65a4.81,4.81,0,0,1-4.81,4.81h-4.2a8.41,8.41,0,0,1-8.41-8.41v-18.18a8.41,8.41,0,0,1,8.41-8.41h16.55a8.41,8.41,0,0,1,8.41,8.41" transform="translate(-21.83 -29.56)"/><path class="cls-1" d="M2096,2104.65a4.81,4.81,0,0,1-4.81,4.81H2087a8.41,8.41,0,0,1-8.41-8.41v-18.18a8.41,8.41,0,0,1,8.41-8.41h16.55a8.41,8.41,0,0,1,8.41,8.41" transform="translate(-21.83 -29.56)"/><path class="cls-1" d="M2062.66,2104.65a4.81,4.81,0,0,1-4.81,4.81h-4.2a8.41,8.41,0,0,1-8.41-8.41v-18.18a8.41,8.41,0,0,1,8.41-8.41h16.55a8.41,8.41,0,0,1,8.41,8.41" transform="translate(-21.83 -29.56)"/><path class="cls-1" d="M403.38,2072.49a16.86,16.86,0,0,0-10.94,4.32" transform="translate(-21.83 -29.56)"/><path class="cls-1" d="M2045.24,2080.91a8.41,8.41,0,0,0-8.41-8.41" transform="translate(-21.83 -29.56)"/><path class="cls-1" d="M410.91,2115a4.81,4.81,0,0,1,4.81-4.81h4.2a8.41,8.41,0,0,1,8.41,8.41v20.18c0,4.64-3.76,6.41-8.41,6.41H403.38l-0.11,0h0.11c-9.31,0-16.86-8.06-16.86-18v-36.66a18.51,18.51,0,0,1,5.31-13.09" transform="translate(-21.83 -29.56)"/><path class="cls-1" d="M703.53,2147.17H2337.09a16.86,16.86,0,0,0,10.94-4.32" transform="translate(-21.83 -29.56)"/><path class="cls-1" d="M2329.56,2104.65a4.81,4.81,0,0,1-4.81,4.81h-4.2a8.41,8.41,0,0,1-8.41-8.41v-18.18a8.41,8.41,0,0,1,8.41-8.41h16.55l0.11,0h-0.11c9.31,0,16.86,8.06,16.86,18v36.66a18.51,18.51,0,0,1-5.31,13.09" transform="translate(-21.83 -29.56)"/><path class="cls-1" d="M1077.78,2163.67l-14.24.3v-5c0-.61-2.61,0-3.17.21-3.13,1.29,0,0-15,17.84a6.53,6.53,0,0,0-1.8,4.15v4.34a6.53,6.53,0,0,0,1.8,4.15c15,17.84,11.9,16.55,15,17.84,0.56,0.23,3.17.82,3.17,0.21v-5l14.24,0.3" transform="translate(-21.83 -29.56)"/><path class="cls-1" d="M1663.31,2163.67l14.24,0.3v-5c0-.61,2.61,0,3.17.21,3.13,1.29,10.38,13.52,15,17.84a5.66,5.66,0,0,1,1.8,4.15v4.34a5.66,5.66,0,0,1-1.8,4.15c-4.65,4.32-11.9,16.55-15,17.84-0.56.23-3.17,0.82-3.17,0.21v-5l-14.24.3" transform="translate(-21.83 -29.56)"/><path class="cls-1" d="M444.27,2189.68a4.81,4.81,0,0,1,4.81-4.81h4.2a8.41,8.41,0,0,1,8.41,8.41v20.18c0,4.64-3.76,6.41-8.41,6.41H436.74c-4.64,0-8.41-1.76-8.41-6.41" transform="translate(-21.83 -29.56)"/><path class="cls-1" d="M477.63,2189.68a4.81,4.81,0,0,1,4.81-4.81h4.2a8.41,8.41,0,0,1,8.41,8.41v20.18c0,4.64-3.76,6.41-8.41,6.41H470.1c-4.64,0-8.41-1.76-8.41-6.41" transform="translate(-21.83 -29.56)"/><path class="cls-1" d="M511,2189.68a4.81,4.81,0,0,1,4.81-4.81H520a8.41,8.41,0,0,1,8.41,8.41v20.18c0,4.64-3.76,6.41-8.41,6.41H503.46c-4.64,0-8.41-1.76-8.41-6.41" transform="translate(-21.83 -29.56)"/><path class="cls-1" d="M544.36,2189.68a4.81,4.81,0,0,1,4.81-4.81h4.2a8.41,8.41,0,0,1,8.41,8.41v20.18c0,4.64-3.76,6.41-8.41,6.41H536.83c-4.64,0-8.41-1.76-8.41-6.41" transform="translate(-21.83 -29.56)"/><path class="cls-1" d="M577.72,2189.68a4.81,4.81,0,0,1,4.81-4.81h4.2a8.41,8.41,0,0,1,8.41,8.41v20.18c0,4.64-3.76,6.41-8.41,6.41H570.19c-4.64,0-8.41-1.76-8.41-6.41" transform="translate(-21.83 -29.56)"/><path class="cls-1" d="M611.08,2189.68a4.81,4.81,0,0,1,4.81-4.81h4.2a8.41,8.41,0,0,1,8.41,8.41v20.18c0,4.64-3.76,6.41-8.41,6.41H603.55c-4.64,0-8.41-1.76-8.41-6.41" transform="translate(-21.83 -29.56)"/><path class="cls-1" d="M644.45,2189.68a4.81,4.81,0,0,1,4.81-4.81h4.2a8.41,8.41,0,0,1,8.41,8.41v20.18c0,4.64-3.76,6.41-8.41,6.41H636.91c-4.64,0-8.41-1.76-8.41-6.41" transform="translate(-21.83 -29.56)"/><path class="cls-1" d="M677.81,2189.68a4.81,4.81,0,0,1,4.81-4.81h4.2a8.41,8.41,0,0,1,8.41,8.41v18.18a8.41,8.41,0,0,1-8.41,8.41H670.27c-4.64,0-8.41-1.76-8.41-6.41" transform="translate(-21.83 -29.56)"/><path class="cls-1" d="M703.53,2221.83h0.11a8.41,8.41,0,0,1-8.41-8.41" transform="translate(-21.83 -29.56)"/><path class="cls-1" d="M2296.19,2179.34a4.81,4.81,0,0,1-4.81,4.81h-4.2a8.41,8.41,0,0,1-8.41-8.41v-18.18a8.41,8.41,0,0,1,8.41-8.41h16.55a8.41,8.41,0,0,1,8.41,8.41" transform="translate(-21.83 -29.56)"/><path class="cls-1" d="M2262.83,2179.34a4.81,4.81,0,0,1-4.81,4.81h-4.2a8.41,8.41,0,0,1-8.41-8.41v-18.18a8.41,8.41,0,0,1,8.41-8.41h16.55a8.41,8.41,0,0,1,8.41,8.41" transform="translate(-21.83 -29.56)"/><path class="cls-1" d="M2229.47,2179.34a4.81,4.81,0,0,1-4.81,4.81h-4.2a8.41,8.41,0,0,1-8.41-8.41v-18.18a8.41,8.41,0,0,1,8.41-8.41H2237a8.41,8.41,0,0,1,8.41,8.41" transform="translate(-21.83 -29.56)"/><path class="cls-1" d="M2196.11,2179.34a4.81,4.81,0,0,1-4.81,4.81h-4.2a8.41,8.41,0,0,1-8.41-8.41v-18.18a8.41,8.41,0,0,1,8.41-8.41h16.55a8.41,8.41,0,0,1,8.41,8.41" transform="translate(-21.83 -29.56)"/><path class="cls-1" d="M2162.75,2179.34a4.81,4.81,0,0,1-4.81,4.81h-4.2a8.41,8.41,0,0,1-8.41-8.41v-18.18a8.41,8.41,0,0,1,8.41-8.41h16.55a8.41,8.41,0,0,1,8.41,8.41" transform="translate(-21.83 -29.56)"/><path class="cls-1" d="M2129.38,2179.34a4.81,4.81,0,0,1-4.81,4.81h-4.2a8.41,8.41,0,0,1-8.41-8.41v-18.18a8.41,8.41,0,0,1,8.41-8.41h16.55a8.41,8.41,0,0,1,8.41,8.41" transform="translate(-21.83 -29.56)"/><path class="cls-1" d="M2096,2179.34a4.81,4.81,0,0,1-4.81,4.81H2087a8.41,8.41,0,0,1-8.41-8.41v-18.18a8.41,8.41,0,0,1,8.41-8.41h16.55a8.41,8.41,0,0,1,8.41,8.41" transform="translate(-21.83 -29.56)"/><path class="cls-1" d="M2062.66,2179.34a4.81,4.81,0,0,1-4.81,4.81h-4.2a8.41,8.41,0,0,1-8.41-8.41v-18.18a8.41,8.41,0,0,1,8.41-8.41h16.55a8.41,8.41,0,0,1,8.41,8.41" transform="translate(-21.83 -29.56)"/><path class="cls-1" d="M403.38,2147.17a16.86,16.86,0,0,0-10.94,4.32" transform="translate(-21.83 -29.56)"/><path class="cls-1" d="M2045.24,2155.6a8.41,8.41,0,0,0-8.41-8.41" transform="translate(-21.83 -29.56)"/><path class="cls-1" d="M410.91,2189.68a4.81,4.81,0,0,1,4.81-4.81h4.2a8.41,8.41,0,0,1,8.41,8.41v20.18c0,4.64-3.76,6.41-8.41,6.41H403.38l-0.11,0h0.11c-9.31,0-16.86-8.06-16.86-18v-36.66a18.51,18.51,0,0,1,5.31-13.09" transform="translate(-21.83 -29.56)"/><path class="cls-1" d="M703.53,2221.86H2337.09a16.86,16.86,0,0,0,10.94-4.32" transform="translate(-21.83 -29.56)"/><path class="cls-1" d="M2329.56,2179.34a4.81,4.81,0,0,1-4.81,4.81h-4.2a8.41,8.41,0,0,1-8.41-8.41v-18.18a8.41,8.41,0,0,1,8.41-8.41h16.55l0.11,0h-0.11c9.31,0,16.86,8.06,16.86,18v36.66a18.51,18.51,0,0,1-5.31,13.09" transform="translate(-21.83 -29.56)"/><line class="cls-1" x1="681.7" y1="2042.9" x2="381.55" y2="2042.9"/><line class="cls-1" x1="681.7" y1="2117.62" x2="381.55" y2="2117.62"/><path class="cls-1" d="M2696.39,1393l0.3,14.24h-5c-0.61,0,0,2.61.21,3.17,1.29,3.13,0,0,17.84,15a6.53,6.53,0,0,0,4.15,1.8h4.34a6.53,6.53,0,0,0,4.15-1.8c17.84-15,16.55-11.9,17.84-15,0.23-.56.82-3.17,0.21-3.17h-5l0.3-14.24" transform="translate(-21.83 -29.56)"/><path class="cls-1" d="M2696.39,807.43l0.3-14.24h-5c-0.61,0,0-2.61.21-3.17,1.29-3.13,13.52-10.38,17.84-15a5.66,5.66,0,0,1,4.15-1.8h4.34a5.66,5.66,0,0,1,4.15,1.8c4.32,4.65,16.55,11.9,17.84,15,0.23,0.56.82,3.17,0.21,3.17h-5l0.3,14.24" transform="translate(-21.83 -29.56)"/><path class="cls-1" d="M2722.4,2026.47a4.81,4.81,0,0,1-4.81-4.81v-4.2A8.41,8.41,0,0,1,2726,2009h20.18c4.64,0,6.41,3.76,6.41,8.41V2034c0,4.64-1.76,8.41-6.41,8.41" transform="translate(-21.83 -29.56)"/><path class="cls-1" d="M2722.4,1993.11a4.81,4.81,0,0,1-4.81-4.81v-4.2a8.41,8.41,0,0,1,8.41-8.41h20.18c4.64,0,6.41,3.76,6.41,8.41v16.55c0,4.64-1.76,8.41-6.41,8.41" transform="translate(-21.83 -29.56)"/><path class="cls-1" d="M2722.4,1959.74a4.81,4.81,0,0,1-4.81-4.81v-4.2a8.41,8.41,0,0,1,8.41-8.41h20.18c4.64,0,6.41,3.76,6.41,8.41v16.55c0,4.64-1.76,8.41-6.41,8.41" transform="translate(-21.83 -29.56)"/><path class="cls-1" d="M2722.4,1926.38a4.81,4.81,0,0,1-4.81-4.81v-4.2A8.41,8.41,0,0,1,2726,1909h20.18c4.64,0,6.41,3.76,6.41,8.41v16.55c0,4.64-1.76,8.41-6.41,8.41" transform="translate(-21.83 -29.56)"/><path class="cls-1" d="M2722.4,1893a4.81,4.81,0,0,1-4.81-4.81V1884a8.41,8.41,0,0,1,8.41-8.41h20.18c4.64,0,6.41,3.76,6.41,8.41v16.55c0,4.64-1.76,8.41-6.41,8.41" transform="translate(-21.83 -29.56)"/><path class="cls-1" d="M2722.4,1859.66a4.81,4.81,0,0,1-4.81-4.81v-4.2a8.41,8.41,0,0,1,8.41-8.41h20.18c4.64,0,6.41,3.76,6.41,8.41v16.55c0,4.64-1.76,8.41-6.41,8.41" transform="translate(-21.83 -29.56)"/><path class="cls-1" d="M2722.4,1826.29a4.81,4.81,0,0,1-4.81-4.81v-4.2a8.41,8.41,0,0,1,8.41-8.41h20.18c4.64,0,6.41,3.76,6.41,8.41v16.55c0,4.64-1.76,8.41-6.41,8.41" transform="translate(-21.83 -29.56)"/><path class="cls-1" d="M2722.4,1792.93a4.81,4.81,0,0,1-4.81-4.81v-4.2a8.41,8.41,0,0,1,8.41-8.41h18.18a8.41,8.41,0,0,1,8.41,8.41v16.55c0,4.64-1.76,8.41-6.41,8.41" transform="translate(-21.83 -29.56)"/><path class="cls-1" d="M2754.55,1767.21v-0.11a8.41,8.41,0,0,1-8.41,8.41" transform="translate(-21.83 -29.56)"/><path class="cls-1" d="M2712.06,174.55a4.81,4.81,0,0,1,4.81,4.81v4.2a8.41,8.41,0,0,1-8.41,8.41h-18.18a8.41,8.41,0,0,1-8.41-8.41V167a8.41,8.41,0,0,1,8.41-8.41" transform="translate(-21.83 -29.56)"/><path class="cls-1" d="M2712.06,207.91a4.81,4.81,0,0,1,4.81,4.81v4.2a8.41,8.41,0,0,1-8.41,8.41h-18.18a8.41,8.41,0,0,1-8.41-8.41V200.37a8.41,8.41,0,0,1,8.41-8.41" transform="translate(-21.83 -29.56)"/><path class="cls-1" d="M2712.06,241.27a4.81,4.81,0,0,1,4.81,4.81v4.2a8.41,8.41,0,0,1-8.41,8.41h-18.18a8.41,8.41,0,0,1-8.41-8.41V233.74a8.41,8.41,0,0,1,8.41-8.41" transform="translate(-21.83 -29.56)"/><path class="cls-1" d="M2712.06,274.63a4.81,4.81,0,0,1,4.81,4.81v4.2a8.41,8.41,0,0,1-8.41,8.41h-18.18a8.41,8.41,0,0,1-8.41-8.41V267.1a8.41,8.41,0,0,1,8.41-8.41" transform="translate(-21.83 -29.56)"/><path class="cls-1" d="M2712.06,308a4.81,4.81,0,0,1,4.81,4.81V317a8.41,8.41,0,0,1-8.41,8.41h-18.18a8.41,8.41,0,0,1-8.41-8.41V300.46a8.41,8.41,0,0,1,8.41-8.41" transform="translate(-21.83 -29.56)"/><path class="cls-1" d="M2712.06,341.36a4.81,4.81,0,0,1,4.81,4.81v4.2a8.41,8.41,0,0,1-8.41,8.41h-18.18a8.41,8.41,0,0,1-8.41-8.41V333.82a8.41,8.41,0,0,1,8.41-8.41" transform="translate(-21.83 -29.56)"/><path class="cls-1" d="M2712.06,374.72a4.81,4.81,0,0,1,4.81,4.81v4.2a8.41,8.41,0,0,1-8.41,8.41h-18.18a8.41,8.41,0,0,1-8.41-8.41V367.19a8.41,8.41,0,0,1,8.41-8.41" transform="translate(-21.83 -29.56)"/><path class="cls-1" d="M2712.06,408.08a4.81,4.81,0,0,1,4.81,4.81v4.2a8.41,8.41,0,0,1-8.41,8.41h-18.18a8.41,8.41,0,0,1-8.41-8.41V400.55a8.41,8.41,0,0,1,8.41-8.41" transform="translate(-21.83 -29.56)"/><path class="cls-1" d="M2688.31,425.5a8.41,8.41,0,0,0-8.41,8.41l0,1633.45a16.86,16.86,0,0,0,4.32,10.94" transform="translate(-21.83 -29.56)"/><path class="cls-1" d="M2722.4,2059.83a4.81,4.81,0,0,1-4.81-4.81v-4.2a8.41,8.41,0,0,1,8.41-8.41h20.18c4.64,0,6.41,3.76,6.41,8.41v16.55l0,0.11v-0.11c0,9.31-8.06,16.86-18,16.86h-36.66a18.51,18.51,0,0,1-13.09-5.31" transform="translate(-21.83 -29.56)"/><path class="cls-1" d="M2754.58,1767.21V133.65a16.86,16.86,0,0,0-4.32-10.94" transform="translate(-21.83 -29.56)"/><path class="cls-1" d="M2712.06,141.18a4.81,4.81,0,0,1,4.81,4.81v4.2a8.41,8.41,0,0,1-8.41,8.41h-18.18a8.41,8.41,0,0,1-8.41-8.41V133.65l0-.11v0.11c0-9.31,8.06-16.86,18-16.86h36.66a18.51,18.51,0,0,1,13.09,5.31" transform="translate(-21.83 -29.56)"/><path class="cls-1" d="M2771.08,1393l0.3,14.24h-5c-0.61,0,0,2.61.21,3.17,1.29,3.13,0,0,17.84,15a6.53,6.53,0,0,0,4.15,1.8h4.34a6.53,6.53,0,0,0,4.15-1.8c17.84-15,16.55-11.9,17.84-15,0.23-.56.82-3.17,0.21-3.17h-5l0.3-14.24" transform="translate(-21.83 -29.56)"/><path class="cls-1" d="M2771.08,807.43l0.3-14.24h-5c-0.61,0,0-2.61.21-3.17,1.29-3.13,13.52-10.38,17.84-15a5.66,5.66,0,0,1,4.15-1.8h4.34a5.66,5.66,0,0,1,4.15,1.8c4.32,4.65,16.55,11.9,17.84,15,0.23,0.56.82,3.17,0.21,3.17h-5l0.3,14.24" transform="translate(-21.83 -29.56)"/><path class="cls-1" d="M2797.09,2026.47a4.81,4.81,0,0,1-4.81-4.81v-4.2a8.41,8.41,0,0,1,8.41-8.41h20.18c4.64,0,6.41,3.76,6.41,8.41V2034c0,4.64-1.76,8.41-6.41,8.41" transform="translate(-21.83 -29.56)"/><path class="cls-1" d="M2797.09,1993.11a4.81,4.81,0,0,1-4.81-4.81v-4.2a8.41,8.41,0,0,1,8.41-8.41h20.18c4.64,0,6.41,3.76,6.41,8.41v16.55c0,4.64-1.76,8.41-6.41,8.41" transform="translate(-21.83 -29.56)"/><path class="cls-1" d="M2797.09,1959.74a4.81,4.81,0,0,1-4.81-4.81v-4.2a8.41,8.41,0,0,1,8.41-8.41h20.18c4.64,0,6.41,3.76,6.41,8.41v16.55c0,4.64-1.76,8.41-6.41,8.41" transform="translate(-21.83 -29.56)"/><path class="cls-1" d="M2797.09,1926.38a4.81,4.81,0,0,1-4.81-4.81v-4.2a8.41,8.41,0,0,1,8.41-8.41h20.18c4.64,0,6.41,3.76,6.41,8.41v16.55c0,4.64-1.76,8.41-6.41,8.41" transform="translate(-21.83 -29.56)"/><path class="cls-1" d="M2797.09,1893a4.81,4.81,0,0,1-4.81-4.81V1884a8.41,8.41,0,0,1,8.41-8.41h20.18c4.64,0,6.41,3.76,6.41,8.41v16.55c0,4.64-1.76,8.41-6.41,8.41" transform="translate(-21.83 -29.56)"/><path class="cls-1" d="M2797.09,1859.66a4.81,4.81,0,0,1-4.81-4.81v-4.2a8.41,8.41,0,0,1,8.41-8.41h20.18c4.64,0,6.41,3.76,6.41,8.41v16.55c0,4.64-1.76,8.41-6.41,8.41" transform="translate(-21.83 -29.56)"/><path class="cls-1" d="M2797.09,1826.29a4.81,4.81,0,0,1-4.81-4.81v-4.2a8.41,8.41,0,0,1,8.41-8.41h20.18c4.64,0,6.41,3.76,6.41,8.41v16.55c0,4.64-1.76,8.41-6.41,8.41" transform="translate(-21.83 -29.56)"/><path class="cls-1" d="M2797.09,1792.93a4.81,4.81,0,0,1-4.81-4.81v-4.2a8.41,8.41,0,0,1,8.41-8.41h18.18a8.41,8.41,0,0,1,8.41,8.41v16.55c0,4.64-1.76,8.41-6.41,8.41" transform="translate(-21.83 -29.56)"/><path class="cls-1" d="M2829.24,1767.21v-0.11a8.41,8.41,0,0,1-8.41,8.41" transform="translate(-21.83 -29.56)"/><path class="cls-1" d="M2786.75,174.55a4.81,4.81,0,0,1,4.81,4.81v4.2a8.41,8.41,0,0,1-8.41,8.41H2765a8.41,8.41,0,0,1-8.41-8.41V167a8.41,8.41,0,0,1,8.41-8.41" transform="translate(-21.83 -29.56)"/><path class="cls-1" d="M2786.75,207.91a4.81,4.81,0,0,1,4.81,4.81v4.2a8.41,8.41,0,0,1-8.41,8.41H2765a8.41,8.41,0,0,1-8.41-8.41V200.37A8.41,8.41,0,0,1,2765,192" transform="translate(-21.83 -29.56)"/><path class="cls-1" d="M2786.75,241.27a4.81,4.81,0,0,1,4.81,4.81v4.2a8.41,8.41,0,0,1-8.41,8.41H2765a8.41,8.41,0,0,1-8.41-8.41V233.74a8.41,8.41,0,0,1,8.41-8.41" transform="translate(-21.83 -29.56)"/><path class="cls-1" d="M2786.75,274.63a4.81,4.81,0,0,1,4.81,4.81v4.2a8.41,8.41,0,0,1-8.41,8.41H2765a8.41,8.41,0,0,1-8.41-8.41V267.1a8.41,8.41,0,0,1,8.41-8.41" transform="translate(-21.83 -29.56)"/><path class="cls-1" d="M2786.75,308a4.81,4.81,0,0,1,4.81,4.81V317a8.41,8.41,0,0,1-8.41,8.41H2765a8.41,8.41,0,0,1-8.41-8.41V300.46a8.41,8.41,0,0,1,8.41-8.41" transform="translate(-21.83 -29.56)"/><path class="cls-1" d="M2786.75,341.36a4.81,4.81,0,0,1,4.81,4.81v4.2a8.41,8.41,0,0,1-8.41,8.41H2765a8.41,8.41,0,0,1-8.41-8.41V333.82a8.41,8.41,0,0,1,8.41-8.41" transform="translate(-21.83 -29.56)"/><path class="cls-1" d="M2786.75,374.72a4.81,4.81,0,0,1,4.81,4.81v4.2a8.41,8.41,0,0,1-8.41,8.41H2765a8.41,8.41,0,0,1-8.41-8.41V367.19a8.41,8.41,0,0,1,8.41-8.41" transform="translate(-21.83 -29.56)"/><path class="cls-1" d="M2786.75,408.08a4.81,4.81,0,0,1,4.81,4.81v4.2a8.41,8.41,0,0,1-8.41,8.41H2765a8.41,8.41,0,0,1-8.41-8.41V400.55a8.41,8.41,0,0,1,8.41-8.41" transform="translate(-21.83 -29.56)"/><path class="cls-1" d="M2754.58,2067.36a16.86,16.86,0,0,0,4.32,10.94" transform="translate(-21.83 -29.56)"/><path class="cls-1" d="M2763,425.5a8.41,8.41,0,0,0-8.41,8.41" transform="translate(-21.83 -29.56)"/><path class="cls-1" d="M2797.09,2059.83a4.81,4.81,0,0,1-4.81-4.81v-4.2a8.41,8.41,0,0,1,8.41-8.41h20.18c4.64,0,6.41,3.76,6.41,8.41v16.55l0,0.11v-0.11c0,9.31-8.06,16.86-18,16.86h-36.66a18.51,18.51,0,0,1-13.09-5.31" transform="translate(-21.83 -29.56)"/><path class="cls-1" d="M2829.27,1767.21V133.65a16.86,16.86,0,0,0-4.32-10.94" transform="translate(-21.83 -29.56)"/><path class="cls-1" d="M2786.75,141.18a4.81,4.81,0,0,1,4.81,4.81v4.2a8.41,8.41,0,0,1-8.41,8.41H2765a8.41,8.41,0,0,1-8.41-8.41V133.65l0-.11v0.11c0-9.31,8.06-16.86,18-16.86h36.66a18.51,18.51,0,0,1,13.09,5.31" transform="translate(-21.83 -29.56)"/><path class="cls-1" d="M2845.77,1393l0.3,14.24h-5c-0.61,0,0,2.61.21,3.17,1.29,3.13,0,0,17.84,15a6.53,6.53,0,0,0,4.15,1.8h4.34a6.53,6.53,0,0,0,4.15-1.8c17.84-15,16.55-11.9,17.84-15,0.23-.56.82-3.17,0.21-3.17h-5l0.3-14.24" transform="translate(-21.83 -29.56)"/><path class="cls-1" d="M2845.77,807.43l0.3-14.24h-5c-0.61,0,0-2.61.21-3.17,1.29-3.13,13.52-10.38,17.84-15a5.66,5.66,0,0,1,4.15-1.8h4.34a5.66,5.66,0,0,1,4.15,1.8c4.32,4.65,16.55,11.9,17.84,15,0.23,0.56.82,3.17,0.21,3.17h-5l0.3,14.24" transform="translate(-21.83 -29.56)"/><path class="cls-1" d="M2871.77,2026.47a4.81,4.81,0,0,1-4.81-4.81v-4.2a8.41,8.41,0,0,1,8.41-8.41h20.18c4.64,0,6.41,3.76,6.41,8.41V2034c0,4.64-1.76,8.41-6.41,8.41" transform="translate(-21.83 -29.56)"/><path class="cls-1" d="M2871.77,1993.11a4.81,4.81,0,0,1-4.81-4.81v-4.2a8.41,8.41,0,0,1,8.41-8.41h20.18c4.64,0,6.41,3.76,6.41,8.41v16.55c0,4.64-1.76,8.41-6.41,8.41" transform="translate(-21.83 -29.56)"/><path class="cls-1" d="M2871.77,1959.74a4.81,4.81,0,0,1-4.81-4.81v-4.2a8.41,8.41,0,0,1,8.41-8.41h20.18c4.64,0,6.41,3.76,6.41,8.41v16.55c0,4.64-1.76,8.41-6.41,8.41" transform="translate(-21.83 -29.56)"/><path class="cls-1" d="M2871.77,1926.38a4.81,4.81,0,0,1-4.81-4.81v-4.2a8.41,8.41,0,0,1,8.41-8.41h20.18c4.64,0,6.41,3.76,6.41,8.41v16.55c0,4.64-1.76,8.41-6.41,8.41" transform="translate(-21.83 -29.56)"/><path class="cls-1" d="M2871.77,1893a4.81,4.81,0,0,1-4.81-4.81V1884a8.41,8.41,0,0,1,8.41-8.41h20.18c4.64,0,6.41,3.76,6.41,8.41v16.55c0,4.64-1.76,8.41-6.41,8.41" transform="translate(-21.83 -29.56)"/><path class="cls-1" d="M2871.77,1859.66a4.81,4.81,0,0,1-4.81-4.81v-4.2a8.41,8.41,0,0,1,8.41-8.41h20.18c4.64,0,6.41,3.76,6.41,8.41v16.55c0,4.64-1.76,8.41-6.41,8.41" transform="translate(-21.83 -29.56)"/><path class="cls-1" d="M2871.77,1826.29a4.81,4.81,0,0,1-4.81-4.81v-4.2a8.41,8.41,0,0,1,8.41-8.41h20.18c4.64,0,6.41,3.76,6.41,8.41v16.55c0,4.64-1.76,8.41-6.41,8.41" transform="translate(-21.83 -29.56)"/><path class="cls-1" d="M2871.77,1792.93a4.81,4.81,0,0,1-4.81-4.81v-4.2a8.41,8.41,0,0,1,8.41-8.41h18.18a8.41,8.41,0,0,1,8.41,8.41v16.55c0,4.64-1.76,8.41-6.41,8.41" transform="translate(-21.83 -29.56)"/><path class="cls-1" d="M2903.93,1767.21v-0.11a8.41,8.41,0,0,1-8.41,8.41" transform="translate(-21.83 -29.56)"/><path class="cls-1" d="M2861.43,174.55a4.81,4.81,0,0,1,4.81,4.81v4.2a8.41,8.41,0,0,1-8.41,8.41h-18.18a8.41,8.41,0,0,1-8.41-8.41V167a8.41,8.41,0,0,1,8.41-8.41" transform="translate(-21.83 -29.56)"/><path class="cls-1" d="M2861.43,207.91a4.81,4.81,0,0,1,4.81,4.81v4.2a8.41,8.41,0,0,1-8.41,8.41h-18.18a8.41,8.41,0,0,1-8.41-8.41V200.37a8.41,8.41,0,0,1,8.41-8.41" transform="translate(-21.83 -29.56)"/><path class="cls-1" d="M2861.43,241.27a4.81,4.81,0,0,1,4.81,4.81v4.2a8.41,8.41,0,0,1-8.41,8.41h-18.18a8.41,8.41,0,0,1-8.41-8.41V233.74a8.41,8.41,0,0,1,8.41-8.41" transform="translate(-21.83 -29.56)"/><path class="cls-1" d="M2861.43,274.63a4.81,4.81,0,0,1,4.81,4.81v4.2a8.41,8.41,0,0,1-8.41,8.41h-18.18a8.41,8.41,0,0,1-8.41-8.41V267.1a8.41,8.41,0,0,1,8.41-8.41" transform="translate(-21.83 -29.56)"/><path class="cls-1" d="M2861.43,308a4.81,4.81,0,0,1,4.81,4.81V317a8.41,8.41,0,0,1-8.41,8.41h-18.18a8.41,8.41,0,0,1-8.41-8.41V300.46a8.41,8.41,0,0,1,8.41-8.41" transform="translate(-21.83 -29.56)"/><path class="cls-1" d="M2861.43,341.36a4.81,4.81,0,0,1,4.81,4.81v4.2a8.41,8.41,0,0,1-8.41,8.41h-18.18a8.41,8.41,0,0,1-8.41-8.41V333.82a8.41,8.41,0,0,1,8.41-8.41" transform="translate(-21.83 -29.56)"/><path class="cls-1" d="M2861.43,374.72a4.81,4.81,0,0,1,4.81,4.81v4.2a8.41,8.41,0,0,1-8.41,8.41h-18.18a8.41,8.41,0,0,1-8.41-8.41V367.19a8.41,8.41,0,0,1,8.41-8.41" transform="translate(-21.83 -29.56)"/><path class="cls-1" d="M2861.43,408.08a4.81,4.81,0,0,1,4.81,4.81v4.2a8.41,8.41,0,0,1-8.41,8.41h-18.18a8.41,8.41,0,0,1-8.41-8.41V400.55a8.41,8.41,0,0,1,8.41-8.41" transform="translate(-21.83 -29.56)"/><path class="cls-1" d="M2829.27,2067.36a16.86,16.86,0,0,0,4.32,10.94" transform="translate(-21.83 -29.56)"/><path class="cls-1" d="M2837.69,425.5a8.41,8.41,0,0,0-8.41,8.41" transform="translate(-21.83 -29.56)"/><path class="cls-1" d="M2871.77,2059.83A4.81,4.81,0,0,1,2867,2055v-4.2a8.41,8.41,0,0,1,8.41-8.41h20.18c4.64,0,6.41,3.76,6.41,8.41v16.55l0,0.11v-0.11c0,9.31-8.06,16.86-18,16.86h-36.66a18.51,18.51,0,0,1-13.09-5.31" transform="translate(-21.83 -29.56)"/><path class="cls-1" d="M2904,1767.21V133.65a16.86,16.86,0,0,0-4.32-10.94" transform="translate(-21.83 -29.56)"/><path class="cls-1" d="M2861.43,141.18a4.81,4.81,0,0,1,4.81,4.81v4.2a8.41,8.41,0,0,1-8.41,8.41h-18.18a8.41,8.41,0,0,1-8.41-8.41V133.65l0-.11v0.11c0-9.31,8.06-16.86,18-16.86h36.66A18.51,18.51,0,0,1,2899,122.1" transform="translate(-21.83 -29.56)"/><line class="cls-1" x1="2732.73" y1="1737.66" x2="2732.73" y2="2037.81"/><line class="cls-1" x1="2807.44" y1="1737.66" x2="2807.44" y2="2037.81"/><text class="cls-3" transform="translate(1052.27 30.13)">S<tspan x="17.96" y="0">epa</tspan><tspan x="73.83" y="0">r</tspan><tspan x="85.43" y="0">a</tspan><tspan x="102.63" y="0">ting line </tspan><tspan x="233.28" y="0">f</tspan><tspan x="243.32" y="0">or </tspan><tspan x="282.49" y="0">r</tspan><tspan x="293.9" y="0">oll sepa</tspan><tspan x="408.41" y="0">r</tspan><tspan x="420.01" y="0">a</tspan><tspan x="437.21" y="0">tion (optional)</tspan><tspan x="315.73" y="43.2">V</tspan></text><line class="cls-4" y1="70.37" x2="2970.3" y2="70.37"/></svg>