<svg id="Layer_1" data-name="Layer 1" xmlns="http://www.w3.org/2000/svg" viewBox="0 0 2888.03 2116.84"><defs><style>.cls-1,.cls-2,.cls-3{fill:none;}.cls-1,.cls-2{stroke:#010101;}.cls-2{stroke-miterlimit:10;}.cls-3{stroke:#ed1c24;}</style></defs><title>Origami_V20_40x30_array</title><g id="layer1"><path id="path819" class="cls-1" d="M140.53,463.24l4.74-75.38m149.6-155.29,36.07,32M294.6,232.34l0.27,0.24M245.07,89.77l7.34,48M576.9,264.58l36.33-32.24m42.24-94.92,7.28-47.66m-7.34,48,0.05-.36M762.57,387.87l4.74,75.38m116.23-61.39L883.26,646.4l0,5.14h0l0,5.14h0l-0.1,5.13h0L883,666.94h0l-0.23,5.11h0l-0.29,5.1h0l-0.36,5.09h0l-0.42,5.09-0.49,5.08-0.55,5.07h0L880,702.54h0l-0.68,5h0l-0.75,5h0l-0.81,5h0l-0.88,5h0l-0.95,5-1,5h0l-1.08,5h0l-1.15,5h0l-1.22,5h0l-1.28,5-1.35,4.94h0l-1.42,4.92h0l-1.49,4.91h0l-1.55,4.9h0l-1.62,4.88h0L861.08,782l-1.76,4.85h0l-1.83,4.83h0l-1.9,4.81-2,4.8h0l-2,4.78-2.1,4.75h0l-2.17,4.73h0l-2.24,4.71h0l-2.31,4.68-2.38,4.66h0L838,834.24h0l-2.51,4.6h0l-2.58,4.57h0L830.21,848h0l-2.71,4.5h0l-2.78,4.47h0l-2.84,4.43h0l-2.9,4.39h0l-3,4.35h0l-3,4.31h0l-3.09,4.27h0l-3.15,4.22h0l-3.22,4.18-3.27,4.13h0l-3.34,4.08h0l-3.39,4h0l-3.45,4h0l-3.51,3.91h0L783,911.08h0l-3.62,3.79h0l-3.68,3.74-3.73,3.67h0l-3.78,3.61h0l-3.84,3.54h0l-3.89,3.48h0l-3.94,3.4h0l-4,3.33h0l-4,3.26h0l-4.09,3.19h0l-4.14,3.12h0l-4.19,3h0l-4.23,3h0l-4.28,2.89h0l-4.33,2.81h0l-4.37,2.73h0l-4.42,2.65h0l-4.46,2.57h0l-4.5,2.49h0l-4.55,2.41h0l-4.59,2.33h0l-4.63,2.25h0l-4.67,2.17h0l-4.71,2.09h0l-4.75,2h0l-4.79,1.92h0l-4.83,1.84h0L663,990.16h0l-4.91,1.68h0l-4.95,1.6h0l-5,1.52h0l-5,1.43h0L638,997.74h0l-5.1,1.28h0l-5.13,1.19h0l-5.17,1.11h0l-5.21,1h0l-5.24,1h0l-5.28.88h0l-5.31.8h0l-5.35.72h0l-5.38.64h0l-5.42.56h0l-5.45.48h0l-5.49.4h0l-5.52.33h0l-5.56.25h0l-5.6.17H350l-5.6-.17h0l-5.56-.25h0l-5.52-.33h0l-5.49-.4h0l-5.45-.48h0l-5.42-.56h0l-5.38-.64h0l-5.35-.72h0l-5.31-.8h0l-5.28-.88h0l-5.24-1h0l-5.21-1h0l-5.17-1.11h0L274.89,999h0l-5.1-1.28h0l-5.06-1.35h0l-5-1.43h0l-5-1.52h0l-4.95-1.6h0l-4.91-1.68h0L240,988.4h0l-4.83-1.84h0l-4.79-1.92h0l-4.75-2h0l-4.71-2.09h0l-4.67-2.17h0l-4.63-2.25h0L207,973.79h0l-4.55-2.41h0l-4.5-2.49h0l-4.46-2.57h0L189,963.66h0l-4.37-2.73h0l-4.33-2.81h0l-4.28-2.89h0l-4.23-3h0l-4.19-3h0l-4.14-3.12h0l-4.09-3.19h0l-4-3.26h0l-4-3.33h0l-3.94-3.4h0l-3.89-3.48h0l-3.84-3.54h0l-3.78-3.61h0l-3.73-3.67-3.68-3.74h0l-3.62-3.79h0l-3.57-3.86h0l-3.51-3.91h0l-3.45-4h0l-3.39-4h0l-3.34-4.08h0l-3.27-4.13-3.22-4.18h0l-3.15-4.22h0l-3.09-4.27h0l-3-4.31h0l-3-4.35h0l-2.9-4.39h0l-2.84-4.43h0l-2.78-4.47h0L77.62,848h0L75,843.41h0l-2.58-4.57h0l-2.51-4.6h0l-2.44-4.63h0l-2.38-4.66-2.31-4.68h0l-2.24-4.71h0l-2.17-4.73h0l-2.1-4.75-2-4.78h0l-2-4.8-1.9-4.81h0l-1.83-4.83h0L46.75,782l-1.69-4.87h0l-1.62-4.88h0l-1.55-4.9h0l-1.49-4.91h0L39,757.51h0l-1.35-4.94-1.28-5h0l-1.22-5h0l-1.15-5h0l-1.08-5h0l-1-5-0.95-5h0l-0.88-5h0l-0.81-5h0l-0.75-5h0l-0.68-5h0l-0.62-5.06h0l-0.55-5.07-0.49-5.08-0.42-5.09h0l-0.36-5.09h0l-0.29-5.1h0l-0.23-5.11h0l-0.17-5.12h0l-0.1-5.13h0l0-5.14h0l0-5.14L24.14,273.32a14.35,14.35,0,0,1,18.34-13.8q37.37,10.8,75.57,18.37M95.14,273l0.6-3.31a5.85,5.85,0,0,1,3.44-4.28l20.39-8.76a8.69,8.69,0,0,1,6.17-.26l11.33,3.76h0l0.16,0.06h0l0.16,0.06h0l0.16,0.07h0l0.15,0.07h0l0.15,0.07h0l0.15,0.08h0l0.14,0.08h0l0.14,0.09h0l0.14,0.09h0l0.14,0.09h0l0.14,0.09h0l0.13,0.1h0l0.13,0.1h0l0.13,0.1,0.13,0.1h0l0.12,0.1,0.12,0.1h0l0.12,0.1h0l0.12,0.11h0l0.12,0.1,0.12,0.11h0l0.11,0.11h0l0.11,0.11,0.11,0.11h0l0.1,0.11h0l0.1,0.11h0l0.1,0.11h0l0.1,0.12h0l0.18,0.23h0l0.08,0.12,0.08,0.12h0l0.07,0.12h0l0.07,0.12h0l0.07,0.13h0l0.06,0.13h0l0.05,0.13h0l0.05,0.13h0l0,0.13h0l0,0.13h0l0,0.14h0l0,0.13h0l0,0.14h0l0,0.14h0l0,0.14h0l0,0.14h0v0.14h0v0.14h0v0.28h0V266h0v0.14l-0.4,15.93Q204.9,292.56,269,298.71m-22.51-2.3a0.18,0.18,0,0,1-.16-0.2l0.22-3.44a5.85,5.85,0,0,1,3-4.58l19.47-10.64a8.69,8.69,0,0,1,6.11-.84l11.64,2.68h0l0.12,0,0.13,0h0l0.13,0.05h0l0.13,0.05,0.13,0.05h0l0.13,0.06,0.13,0.05h0l0.14,0.06h0l0.14,0.06h0l0.14,0.07h0l0.14,0.07,0.14,0.07h0l0.14,0.07h0l0.14,0.08h0l0.14,0.08L289,280.4h0l0.14,0.09h0l0.14,0.09h0l0.14,0.1,0.14,0.1h0l0.14,0.1h0l0.14,0.11L290,281.1h0l0.13,0.11h0l0.13,0.11h0l0.13,0.12h0l0.12,0.12h0l0.12,0.12h0l0.12,0.12h0l0.11,0.12h0l0.1,0.13h0l0.1,0.13h0l0.09,0.13h0l0.09,0.13h0l0.08,0.13h0l0.07,0.13h0l0.07,0.13h0l0.06,0.13h0l0.06,0.13h0l0.05,0.13h0l0,0.13h0l0,0.13h0l0,0.13h0l0,0.13h0l0,0.13h0l0,0.12h0l0,0.12h0l0,0.12h0v0.12h0v0.12h0v0.12h0v0.12h0L293.19,301q59,5.15,118.2,7.14m227.43-9.41q64.07-6.14,127.61-16.63L766,266.15V266h0v-0.14h0v-0.28h0v-0.14h0v-0.14h0l0-.14h0l0-.14h0l0-.14h0l0-.14h0l0-.13h0l0-.14h0l0-.13h0l0-.13h0l0.05-.13h0l0.05-.13h0l0.06-.13h0l0.07-.13h0l0.07-.12h0l0.07-.12h0l0.08-.12,0.08-.12h0l0.18-.23h0l0.1-.12h0l0.1-.11h0l0.1-.11h0l0.1-.11h0l0.22-.22h0l0.11-.11h0l0.12-.11,0.12-.1h0l0.12-.11h0l0.12-.1h0l0.12-.1,0.12-.1h0l0.13-.1,0.13-.1h0l0.13-.1h0l0.13-.1h0l0.14-.09h0l0.14-.09h0l0.14-.09h0l0.14-.09h0l0.14-.08h0l0.15-.08h0l0.15-.07h0l0.15-.07h0l0.16-.07h0l0.16-.06h0l0.16-.06h0l11.33-3.76a8.69,8.69,0,0,1,6.17.26l20.39,8.76a5.85,5.85,0,0,1,3.44,4.28l0.6,3.31m-22.9,4.88q38.16-7.56,75.57-18.37a14.36,14.36,0,0,1,18.34,13.8l-0.15,128.54M661.61,296.36l-0.34-3.6a5.85,5.85,0,0,0-3-4.58l-19.47-10.64a8.69,8.69,0,0,0-6.11-.84L621,279.37h0l-0.12,0-0.13,0h0l-0.13.05h0l-0.13.05-0.13.05h0l-0.13.06-0.13.05h0l-0.14.06h0l-0.14.06h0l-0.14.07h0l-0.14.07-0.14.07h0l-0.14.07h0l-0.14.08h0l-0.14.08-0.14.08h0l-0.14.09h0l-0.14.09h0l-0.14.1-0.14.1h0l-0.14.1h0l-0.14.11-0.14.11h0l-0.13.11h0l-0.13.11h0l-0.13.12h0l-0.12.12h0l-0.12.12h0l-0.12.12h0l-0.11.12h0l-0.1.13h0l-0.1.13h0l-0.09.13h0l-0.09.13h0l-0.08.13h0l-0.07.13h0l-0.07.13h0l-0.06.13h0l-0.06.13h0l-0.05.13h0l0,0.13h0l0,0.13h0l0,0.13h0l0,0.13h0l0,0.13h0l0,0.12h0l0,0.12h0l0,0.12h0v0.12h0v0.12h0v0.12h0v0.12h0L614.64,301q-59,5.15-118.19,7.14m-82.54,6.32V308.2l-0.17,0-2.38-.33h0l-2.22-.34h0l-2.23-.37h0l-2.25-.41h0l-2.26-.44h0l-2.27-.47-2.28-.5-2.3-.54h0l-2.31-.57-2.32-.6-2.33-.63h0l-2.34-.67h0l-2.36-.7h0l-2.37-.73h0l-2.38-.77-2.39-.81h0l-2.4-.84h0l-2.41-.87h0l-2.42-.91h0l-2.43-.95h0l-2.44-1-2.45-1h0l-2.46-1.06-2.47-1.1-2.47-1.14h0l-2.47-1.18h0L349.82,288l-2.49-1.27h0l-2.49-1.31h0l-2.49-1.35h0l-2.49-1.4h0l-2.49-1.45h0l-2.49-1.49h0l-2.49-1.54h0l-2.48-1.59h0L327.42,275h0l-2.47-1.68-2.46-1.73h0L320,269.77h0L317.6,268h0l-2.42-1.87h0l-2.4-1.92h0l-2.38-2h0l-2.37-2h0l-2.34-2.06h0L303.34,256h0l-2.3-2.14h0l-2.27-2.19h0l-2.24-2.23h0l-2.21-2.27h0l-2.18-2.31h0L290,242.54h0l-2.11-2.39h0l-2.08-2.43h0l-2-2.46-2-2.5h0l-2-2.53h0l-1.92-2.56h0l-1.88-2.6h0l-1.84-2.62-1.79-2.65h0l-1.75-2.68h0l-1.71-2.7h0l-1.66-2.73h0l-1.62-2.75h0l-1.57-2.77h0l-1.52-2.79h0l-1.48-2.8h0l-1.43-2.81h0l-1.39-2.83h0l-1.35-2.84h0l-1.3-2.85-1.26-2.86h0l-1.21-2.86h0l-1.17-2.87h0l-1.13-2.87h0l-1.08-2.87-1-2.87h0l-1-2.87h0l-1-2.86h0l-0.92-2.85-0.88-2.85h0l-0.84-2.84h0l-0.8-2.83-0.77-2.81h0l-0.73-2.8h0l-0.69-2.79h0l-0.66-2.77h0l-1.22-5.49h0l-1.09-5.41h0l-1-5.31h0l-0.86-5.21h0l-0.75-5.1h0l-0.66-5h0l-0.57-4.86h0l-0.48-4.73L233.42,98h0l-0.34-4.46h0l-0.27-4.31h0l-0.22-4.17-0.16-4h0l-0.12-3.87h0l-0.07-3.71,0-3.56h0V66.46a5.57,5.57,0,0,1,3.33-4.54,18.32,18.32,0,0,1,5.31-1.4,8.69,8.69,0,0,1,6.77,2.21l0,0A311.63,311.63,0,0,0,381,156.24h0a206.75,206.75,0,0,0,72.1,13h1.56a206.75,206.75,0,0,0,72.1-13h0A311.63,311.63,0,0,0,660.18,62.75l0,0A8.69,8.69,0,0,1,667,60.53a18.32,18.32,0,0,1,5.31,1.4,5.57,5.57,0,0,1,3.33,4.54v3.42h0l0,3.56-0.07,3.71h0L675.4,81h0l-0.16,4L675,89.22h0l-0.27,4.31h0L674.41,98h0L674,102.59l-0.48,4.73h0L673,112.19h0l-0.66,5h0l-0.75,5.1h0l-0.86,5.21h0l-1,5.31h0l-1.09,5.41h0l-1.22,5.49h0l-0.66,2.77h0L666,149.27h0l-0.73,2.8h0l-0.77,2.81-0.8,2.83h0l-0.84,2.84h0L662,163.41l-0.92,2.85h0l-1,2.86h0l-1,2.87h0l-1,2.87L657,177.74h0l-1.13,2.87h0l-1.17,2.87h0l-1.21,2.86h0l-1.26,2.86-1.3,2.85h0l-1.35,2.84h0l-1.39,2.83h0l-1.43,2.81h0l-1.48,2.8h0l-1.52,2.79h0l-1.57,2.77h0l-1.62,2.75h0l-1.66,2.73h0l-1.71,2.7h0l-1.75,2.68h0l-1.79,2.65-1.84,2.62h0l-1.88,2.6h0L628,230.22h0l-2,2.53h0l-2,2.5-2,2.46h0L620,240.15h0l-2.11,2.39h0l-2.15,2.35h0l-2.18,2.31h0l-2.21,2.27h0l-2.24,2.23h0l-2.27,2.19h0l-2.3,2.14h0l-2.32,2.09h0l-2.34,2.06h0l-2.37,2h0l-2.38,2h0l-2.4,1.92h0l-2.42,1.87h0l-2.43,1.82h0l-2.45,1.77h0l-2.46,1.73L580.42,275h0l-2.47,1.63h0l-2.48,1.59h0L573,279.71h0l-2.49,1.49h0L568,282.65h0l-2.49,1.4h0L563,285.41h0l-2.49,1.31h0L558,288l-2.48,1.22h0l-2.47,1.18h0l-2.47,1.14-2.47,1.1-2.46,1.06h0l-2.45,1-2.44,1h0l-2.43.95h0l-2.42.91h0l-2.41.87h0l-2.4.84h0l-2.39.81-2.38.77h0l-2.37.73h0l-2.36.7h0l-2.34.67h0l-2.33.63-2.32.6-2.31.57h0l-2.3.54-2.28.5-2.27.47h0l-2.26.44h0l-2.25.41h0l-2.23.37h0l-2.22.34h0l-2.21.31h0l-0.33,0v6.24" transform="translate(0 -53.98)"/><path id="path1319" class="cls-1" d="M355.61,226.79l33.57,8.06a8.16,8.16,0,0,0,9.69-10.4L383.34,175.3a8.34,8.34,0,0,0-6.28-5.66l-42.47-10.19a8.34,8.34,0,0,0-8.17,2.19l-36.14,36.75a8.16,8.16,0,0,0,3.91,13.66l33.57,8.06" transform="translate(0 -53.98)"/><path id="path1349" class="cls-1" d="M615,301v0" transform="translate(0 -53.98)"/><path id="path1361" class="cls-1" d="M675.59,66.32h0" transform="translate(0 -53.98)"/><path id="path1373" class="cls-1" d="M232.57,66.32h0" transform="translate(0 -53.98)"/><path id="path1385" class="cls-1" d="M293.19,301v0" transform="translate(0 -53.98)"/><path id="path1483" class="cls-1" d="M766.74,282.07h0" transform="translate(0 -53.98)"/><path id="path1523" class="cls-1" d="M580.41,220.11L614,212.05a8.16,8.16,0,0,0,3.91-13.66l-36.14-36.75a8.34,8.34,0,0,0-8.17-2.19l-42.47,10.19a8.34,8.34,0,0,0-6.28,5.66L509.3,224.45a8.16,8.16,0,0,0,9.69,10.4l33.57-8.06" transform="translate(0 -53.98)"/><path id="path1529" class="cls-1" d="M439.45,281.47l-34.52-.18a8.5,8.5,0,0,1-7.36-12.68l27.25-48.31a8.5,8.5,0,0,1,7.45-4.33H475.9a8.5,8.5,0,0,1,7.45,4.33l27.25,48.31a8.5,8.5,0,0,1-7.36,12.68l-34.52.18" transform="translate(0 -53.98)"/></g><line class="cls-2" x1="74.25" y1="351.23" x2="72.43" y2="380.09"/><line class="cls-2" x1="833.92" y1="351.23" x2="835.73" y2="380.09"/><g id="layer1-2" data-name="layer1"><path id="path819-2" data-name="path819" class="cls-1" d="M1000.08,463.24l4.74-75.38m149.6-155.29,36.07,32m-36.33-32.24,0.27,0.24M1104.62,89.77l7.34,48m324.49,126.79,36.33-32.24M1515,137.42l7.28-47.66m-7.34,48,0.05-.36m107.09,250.44,4.74,75.38M883.69,273.32A14.35,14.35,0,0,1,902,259.52q37.37,10.8,75.57,18.37m765.5,124-0.28,244.55,0,5.14h0l0,5.14h0l-0.1,5.13h0l-0.17,5.12h0l-0.23,5.11h0l-0.29,5.1h0l-0.36,5.09h0l-0.42,5.09-0.49,5.08-0.55,5.07h0l-0.62,5.06h0l-0.68,5h0l-0.75,5h0l-0.81,5h0l-0.88,5h0l-0.95,5-1,5h0l-1.08,5h0l-1.15,5h0l-1.22,5h0l-1.28,5-1.35,4.94h0l-1.42,4.92h0l-1.49,4.91h0l-1.55,4.9h0l-1.62,4.88h0l-1.69,4.87-1.76,4.85h0l-1.83,4.83h0l-1.9,4.81-2,4.8h0l-2,4.78-2.1,4.75h0l-2.17,4.73h0l-2.24,4.71h0l-2.31,4.68-2.38,4.66h0l-2.44,4.63h0l-2.51,4.6h0l-2.58,4.57h0l-2.64,4.54h0l-2.71,4.5h0l-2.78,4.47h0l-2.84,4.43h0l-2.9,4.39h0l-3,4.35h0l-3,4.31h0l-3.09,4.27h0l-3.15,4.22h0l-3.22,4.18-3.27,4.13h0l-3.34,4.08h0l-3.39,4h0l-3.45,4h0l-3.51,3.91h0l-3.57,3.86h0l-3.62,3.79h0l-3.68,3.74-3.73,3.67h0l-3.78,3.61h0l-3.84,3.54h0l-3.89,3.48h0l-3.94,3.4h0l-4,3.33h0l-4,3.26h0l-4.09,3.19h0l-4.14,3.12h0l-4.19,3h0l-4.23,3h0l-4.28,2.89h0l-4.33,2.81h0l-4.37,2.73h0l-4.42,2.65h0l-4.46,2.57h0l-4.5,2.49h0l-4.55,2.41h0l-4.59,2.33h0l-4.63,2.25h0l-4.67,2.17h0l-4.71,2.09h0l-4.75,2h0l-4.79,1.92h0l-4.83,1.84h0l-4.87,1.76h0l-4.91,1.68h0l-4.95,1.6h0l-5,1.52h0l-5,1.43h0l-5.06,1.35h0l-5.1,1.28h0l-5.13,1.19h0l-5.17,1.11h0l-5.21,1h0l-5.24,1h0l-5.28.88h0l-5.31.8h0l-5.35.72h0l-5.38.64h0l-5.42.56h0l-5.45.48h0l-5.49.4h0l-5.52.33h0l-5.56.25h0l-5.6.17H1209.59l-5.6-.17h0l-5.56-.25h0l-5.52-.33h0l-5.49-.4h0l-5.45-.48h0l-5.42-.56h0l-5.38-.64h0l-5.35-.72h0l-5.31-.8h0l-5.28-.88h0l-5.24-1h0l-5.21-1h0l-5.17-1.11h0l-5.13-1.19h0l-5.1-1.28h0l-5.06-1.35h0l-5-1.43h0l-5-1.52h0l-4.95-1.6h0l-4.91-1.68h0l-4.87-1.76h0l-4.83-1.84h0l-4.79-1.92h0l-4.75-2h0l-4.71-2.09h0l-4.67-2.17h0l-4.63-2.25h0l-4.59-2.33h0l-4.55-2.41h0l-4.5-2.49h0l-4.46-2.57h0l-4.42-2.65h0l-4.37-2.73h0l-4.33-2.81h0l-4.28-2.89h0l-4.23-3h0l-4.19-3h0l-4.14-3.12h0l-4.09-3.19h0l-4-3.26h0l-4-3.33h0l-3.94-3.4h0l-3.89-3.48h0l-3.84-3.54h0l-3.78-3.61h0l-3.73-3.67L988,914.87h0l-3.62-3.79h0l-3.57-3.86h0l-3.51-3.91h0l-3.45-4h0l-3.39-4h0l-3.34-4.08h0l-3.27-4.13-3.22-4.18h0l-3.15-4.22h0l-3.09-4.27h0l-3-4.31h0l-3-4.35h0l-2.9-4.39h0l-2.84-4.43h0l-2.78-4.47h0l-2.71-4.5h0l-2.64-4.54h0l-2.58-4.57h0l-2.51-4.6h0L927,829.61h0l-2.38-4.66-2.31-4.68h0l-2.24-4.71h0l-2.17-4.73h0l-2.1-4.75-2-4.78h0l-2-4.8-1.9-4.81h0l-1.83-4.83h0L906.3,782l-1.69-4.87h0L903,772.25h0l-1.55-4.9h0L900,762.44h0l-1.42-4.92h0l-1.35-4.94-1.28-5h0l-1.22-5h0l-1.15-5h0l-1.08-5h0l-1-5-0.95-5h0l-0.88-5h0l-0.81-5h0l-0.75-5h0l-0.68-5h0l-0.62-5.06h0l-0.55-5.07-0.49-5.08-0.42-5.09h0l-0.36-5.09h0l-0.29-5.1h0l-0.23-5.11h0L884,661.82h0l-0.3-5.13h0l-0.26-5.14h0l-0.2-5.14M954.69,273l0.6-3.31a5.85,5.85,0,0,1,3.44-4.28l20.39-8.76a8.69,8.69,0,0,1,6.17-.26l11.33,3.76h0l0.16,0.06h0l0.16,0.06h0l0.16,0.07h0l0.15,0.07h0l0.15,0.07h0l0.15,0.08h0l0.14,0.08h0l0.14,0.09h0l0.14,0.09h0l0.14,0.09h0L998.3,261h0l0.13,0.1h0l0.13,0.1h0l0.13,0.1,0.13,0.1h0l0.12,0.1,0.12,0.1h0l0.12,0.1h0l0.12,0.11h0l0.12,0.1,0.12,0.11h0l0.11,0.11h0l0.11,0.11,0.11,0.11h0l0.1,0.11h0l0.1,0.11h0l0.1,0.11h0l0.1,0.12h0l0.18,0.23h0l0.08,0.12,0.08,0.12h0l0.07,0.12h0l0.07,0.12h0l0.07,0.13h0l0.06,0.13h0L1001,264h0l0.05,0.13h0l0,0.13h0l0,0.13h0l0,0.14h0l0,0.13h0l0,0.14h0l0,0.14h0l0,0.14h0l0,0.14h0v0.14h0v0.14h0v0.28h0V266h0v0.14l-0.4,15.93q63.51,10.48,127.61,16.63M1106,296.4a0.18,0.18,0,0,1-.16-0.2l0.22-3.44a5.85,5.85,0,0,1,3-4.58l19.47-10.64a8.69,8.69,0,0,1,6.11-.84l11.64,2.68h0l0.12,0,0.13,0h0l0.13,0.05h0l0.13,0.05,0.13,0.05h0l0.13,0.06,0.13,0.05h0l0.14,0.06h0l0.14,0.06h0l0.14,0.07h0l0.14,0.07,0.14,0.07h0l0.14,0.07h0l0.14,0.08h0l0.14,0.08,0.14,0.08h0l0.14,0.09h0l0.14,0.09h0l0.14,0.1,0.14,0.1h0l0.14,0.1h0l0.14,0.11,0.14,0.11h0l0.13,0.11h0l0.13,0.11h0l0.13,0.12h0l0.12,0.12h0l0.12,0.12h0l0.12,0.12h0l0.11,0.12h0l0.1,0.13h0l0.1,0.13h0l0.09,0.13h0l0.09,0.13h0l0.08,0.13h0l0.07,0.13h0l0.07,0.13h0l0.06,0.13h0l0.06,0.13h0l0.05,0.13h0l0,0.13h0l0,0.13h0l0,0.13h0l0,0.13h0l0,0.13h0l0,0.12h0l0,0.12h0l0,0.12h0v0.12h0v0.12h0v0.12h0v0.12h0l1.11,16.08q59,5.15,118.2,7.14m227.43-9.41q64.07-6.14,127.61-16.63l-0.4-15.93V266h0v-0.14h0v-0.28h0v-0.14h0v-0.14h0l0-.14h0l0-.14h0l0-.14h0l0-.14h0l0-.13h0l0-.14h0l0-.13h0l0-.13h0l0.05-.13h0l0.05-.13h0l0.06-.13h0l0.07-.13h0l0.07-.12h0l0.07-.12h0l0.08-.12,0.08-.12h0l0.18-.23h0l0.1-.12h0l0.1-.11h0l0.1-.11h0l0.1-.11h0l0.22-.22h0l0.11-.11h0l0.12-.11,0.12-.1h0l0.12-.11h0l0.12-.1h0l0.12-.1,0.12-.1h0l0.13-.1,0.13-.1h0l0.13-.1h0l0.13-.1h0l0.14-.09h0l0.14-.09h0l0.14-.09h0l0.14-.09h0l0.14-.08h0l0.15-.08h0l0.15-.07h0l0.15-.07h0l0.16-.07h0l0.16-.06h0l0.16-.06h0l11.33-3.76a8.69,8.69,0,0,1,6.17.26l20.39,8.76a5.85,5.85,0,0,1,3.44,4.28l0.6,3.31m-22.9,4.88q38.16-7.56,75.57-18.37a14.36,14.36,0,0,1,18.34,13.8l-0.15,128.54M1521.16,296.36l-0.34-3.6a5.85,5.85,0,0,0-3-4.58l-19.47-10.64a8.69,8.69,0,0,0-6.11-.84l-11.64,2.68h0l-0.12,0-0.13,0h0l-0.13.05h0l-0.13.05-0.13.05h0l-0.13.06-0.13.05h0l-0.14.06h0l-0.14.06h0l-0.14.07h0l-0.14.07-0.14.07h0l-0.14.07h0l-0.14.08h0l-0.14.08-0.14.08h0l-0.14.09h0l-0.14.09h0l-0.14.1-0.14.1h0l-0.14.1h0l-0.14.11-0.14.11h0l-0.13.11h0l-0.13.11h0l-0.13.12h0l-0.12.12h0l-0.12.12h0l-0.12.12h0l-0.11.12h0l-0.1.13h0l-0.1.13h0l-0.09.13h0l-0.09.13h0l-0.08.13h0l-0.07.13h0l-0.07.13h0l-0.06.13h0l-0.06.13h0l-0.05.13h0l0,0.13h0l0,0.13h0l0,0.13h0l0,0.13h0l0,0.13h0l0,0.12h0l0,0.12h0l0,0.12h0v0.12h0v0.12h0v0.12h0v0.12h0L1474.19,301q-59,5.15-118.19,7.14m-82.54,6.32V308.2l-0.17,0-2.38-.33h0l-2.22-.34h0l-2.23-.37h0l-2.25-.41h0l-2.26-.44h0l-2.27-.47-2.28-.5-2.3-.54h0l-2.31-.57-2.32-.6-2.33-.63h0l-2.34-.67h0l-2.36-.7h0l-2.37-.73h0l-2.38-.77-2.39-.81h0l-2.4-.84h0l-2.41-.87h0l-2.42-.91h0l-2.43-.95h0l-2.44-1-2.45-1h0l-2.46-1.06-2.47-1.1-2.47-1.14h0l-2.47-1.18h0l-2.48-1.22-2.49-1.27h0l-2.49-1.31h0l-2.49-1.35h0l-2.49-1.4h0l-2.49-1.45h0l-2.49-1.49h0l-2.49-1.54h0l-2.48-1.59h0L1187,275h0l-2.47-1.68-2.46-1.73h0l-2.45-1.77h0l-2.43-1.82h0l-2.42-1.87h0l-2.4-1.92h0l-2.38-2h0l-2.37-2h0l-2.34-2.06h0L1162.9,256h0l-2.3-2.14h0l-2.27-2.19h0l-2.24-2.23h0l-2.21-2.27h0l-2.18-2.31h0l-2.15-2.35h0l-2.11-2.39h0l-2.08-2.43h0l-2-2.46-2-2.5h0l-2-2.53h0l-1.92-2.56h0l-1.88-2.6h0l-1.84-2.62-1.79-2.65h0l-1.75-2.68h0l-1.71-2.7h0l-1.66-2.73h0l-1.62-2.75h0l-1.57-2.77h0l-1.52-2.79h0l-1.48-2.8h0l-1.43-2.81h0l-1.39-2.83h0l-1.35-2.84h0l-1.3-2.85-1.26-2.86h0l-1.21-2.86h0l-1.17-2.87h0l-1.13-2.87h0l-1.08-2.87-1-2.87h0l-1-2.87h0l-1-2.86h0l-0.92-2.85-0.88-2.85h0l-0.84-2.84h0l-0.8-2.83-0.77-2.81h0l-0.73-2.8h0l-0.69-2.79h0l-0.66-2.77h0l-1.22-5.49h0l-1.09-5.41h0l-1-5.31h0l-0.86-5.21h0l-0.75-5.1h0l-0.66-5h0l-0.57-4.86h0l-0.48-4.73L1093,98h0l-0.34-4.46h0l-0.27-4.31h0l-0.22-4.17L1092,81h0l-0.12-3.87h0l-0.07-3.71,0-3.56h0V66.46a5.57,5.57,0,0,1,3.33-4.54,18.32,18.32,0,0,1,5.31-1.4,8.69,8.69,0,0,1,6.77,2.21l0,0a311.63,311.63,0,0,0,133.38,93.49h0a206.75,206.75,0,0,0,72.1,13h1.56a206.75,206.75,0,0,0,72.1-13h0a311.63,311.63,0,0,0,133.38-93.49l0,0a8.69,8.69,0,0,1,6.77-2.21,18.32,18.32,0,0,1,5.31,1.4,5.57,5.57,0,0,1,3.33,4.54v3.42h0l0,3.56-0.07,3.71h0L1535,81h0l-0.16,4-0.22,4.17h0l-0.27,4.31h0L1534,98h0l-0.41,4.59-0.48,4.73h0l-0.57,4.86h0l-0.66,5h0l-0.75,5.1h0l-0.86,5.21h0l-1,5.31h0l-1.09,5.41h0l-1.22,5.49h0l-0.66,2.77h0l-0.69,2.79h0l-0.73,2.8h0l-0.77,2.81-0.8,2.83h0l-0.84,2.84h0l-0.88,2.85-0.92,2.85h0l-1,2.86h0l-1,2.87h0l-1,2.87-1.08,2.87h0l-1.13,2.87h0l-1.17,2.87h0l-1.21,2.86h0l-1.26,2.86-1.3,2.85h0l-1.35,2.84h0l-1.39,2.83h0l-1.43,2.81h0l-1.48,2.8h0l-1.52,2.79h0l-1.57,2.77h0l-1.62,2.75h0l-1.66,2.73h0l-1.71,2.7h0l-1.75,2.68h0l-1.79,2.65-1.84,2.62h0l-1.88,2.6h0l-1.92,2.56h0l-2,2.53h0l-2,2.5-2,2.46h0l-2.08,2.43h0l-2.11,2.39h0l-2.15,2.35h0l-2.18,2.31h0l-2.21,2.27h0l-2.24,2.23h0l-2.27,2.19h0L1464,256h0l-2.32,2.09h0l-2.34,2.06h0l-2.37,2h0l-2.38,2h0l-2.4,1.92h0l-2.42,1.87h0l-2.43,1.82h0l-2.45,1.77h0l-2.46,1.73L1440,275h0l-2.47,1.63h0l-2.48,1.59h0l-2.49,1.54h0l-2.49,1.49h0l-2.49,1.45h0l-2.49,1.4h0l-2.49,1.35h0l-2.49,1.31h0l-2.49,1.27-2.48,1.22h0l-2.47,1.18h0l-2.47,1.14-2.47,1.1-2.46,1.06h0l-2.45,1-2.44,1h0l-2.43.95h0l-2.42.91h0l-2.41.87h0l-2.4.84h0l-2.39.81-2.38.77h0l-2.37.73h0l-2.36.7h0l-2.34.67h0l-2.33.63-2.32.6-2.31.57h0l-2.3.54-2.28.5-2.27.47h0l-2.26.44h0l-2.25.41h0l-2.23.37h0l-2.22.34h0l-2.21.31h0l-0.33,0v6.24" transform="translate(0 -53.98)"/><path id="path1319-2" data-name="path1319" class="cls-1" d="M1215.16,226.79l33.57,8.06a8.16,8.16,0,0,0,9.69-10.4l-15.53-49.15a8.34,8.34,0,0,0-6.28-5.66l-42.47-10.19a8.34,8.34,0,0,0-8.17,2.19l-36.14,36.75a8.16,8.16,0,0,0,3.91,13.66l33.57,8.06" transform="translate(0 -53.98)"/><path id="path1349-2" data-name="path1349" class="cls-1" d="M1474.53,301v0" transform="translate(0 -53.98)"/><path id="path1361-2" data-name="path1361" class="cls-1" d="M1535.14,66.32h0" transform="translate(0 -53.98)"/><path id="path1373-2" data-name="path1373" class="cls-1" d="M1092.12,66.32h0" transform="translate(0 -53.98)"/><path id="path1385-2" data-name="path1385" class="cls-1" d="M1152.74,301v0" transform="translate(0 -53.98)"/><path id="path1483-2" data-name="path1483" class="cls-1" d="M1626.29,282.07h0" transform="translate(0 -53.98)"/><path id="path1523-2" data-name="path1523" class="cls-1" d="M1440,220.11l33.57-8.06a8.16,8.16,0,0,0,3.91-13.66l-36.14-36.75a8.34,8.34,0,0,0-8.17-2.19l-42.47,10.19a8.34,8.34,0,0,0-6.28,5.66l-15.53,49.15a8.16,8.16,0,0,0,9.69,10.4l33.57-8.06" transform="translate(0 -53.98)"/><path id="path1529-2" data-name="path1529" class="cls-1" d="M1299,281.47l-34.52-.18a8.5,8.5,0,0,1-7.36-12.68l27.25-48.31a8.5,8.5,0,0,1,7.45-4.33h43.64a8.5,8.5,0,0,1,7.45,4.33l27.25,48.31a8.5,8.5,0,0,1-7.36,12.68l-34.52.18" transform="translate(0 -53.98)"/></g><line class="cls-2" x1="933.8" y1="351.23" x2="931.98" y2="380.09"/><line class="cls-2" x1="1693.47" y1="351.23" x2="1695.28" y2="380.09"/><g id="layer1-3" data-name="layer1"><path id="path819-3" data-name="path819" class="cls-1" d="M1860.06,463.24l4.74-75.38m149.6-155.29,36.07,32m-36.33-32.24,0.27,0.24M1964.61,89.77l7.34,48m324.49,126.79,36.33-32.24M2375,137.42l7.28-47.66m-7.34,48,0.05-.36M2482.1,387.87l4.74,75.38M1743.67,273.32a14.35,14.35,0,0,1,18.34-13.8q37.37,10.8,75.57,18.37m765.5,124-0.28,244.55,0,5.14h0l0,5.14h0l-0.1,5.13h0l-0.17,5.12h0l-0.23,5.11h0l-0.29,5.1h0l-0.36,5.09h0l-0.42,5.09-0.49,5.08-0.55,5.07h0l-0.62,5.06h0l-0.68,5h0l-0.75,5h0l-0.81,5h0l-0.88,5h0l-0.95,5-1,5h0l-1.08,5h0l-1.15,5h0l-1.22,5h0l-1.28,5-1.35,4.94h0l-1.42,4.92h0l-1.49,4.91h0l-1.55,4.9h0l-1.62,4.88h0l-1.69,4.87-1.76,4.85h0l-1.83,4.83h0l-1.9,4.81-2,4.8h0l-2,4.78-2.1,4.75h0l-2.17,4.73h0l-2.24,4.71h0l-2.31,4.68-2.38,4.66h0l-2.44,4.63h0l-2.51,4.6h0l-2.58,4.57h0l-2.64,4.54h0l-2.71,4.5h0l-2.78,4.47h0l-2.84,4.43h0l-2.9,4.39h0l-3,4.35h0l-3,4.31h0l-3.09,4.27h0l-3.15,4.22h0L2523,887.1l-3.27,4.13h0l-3.34,4.08h0l-3.39,4h0l-3.45,4h0l-3.51,3.91h0l-3.57,3.86h0l-3.62,3.79h0l-3.68,3.74-3.73,3.67h0l-3.78,3.61h0l-3.84,3.54h0l-3.89,3.48h0l-3.94,3.4h0l-4,3.33h0l-4,3.26h0l-4.09,3.19h0l-4.14,3.12h0l-4.19,3h0l-4.23,3h0l-4.28,2.89h0l-4.33,2.81h0l-4.37,2.73h0l-4.42,2.65h0l-4.46,2.57h0l-4.5,2.49h0l-4.55,2.41h0l-4.59,2.33h0l-4.63,2.25h0l-4.67,2.17h0l-4.71,2.09h0l-4.75,2h0l-4.79,1.92h0l-4.83,1.84h0l-4.87,1.76h0l-4.91,1.68h0l-4.95,1.6h0l-5,1.52h0l-5,1.43h0l-5.06,1.35h0l-5.1,1.28h0l-5.13,1.19h0l-5.17,1.11h0l-5.21,1h0l-5.24,1h0l-5.28.88h0l-5.31.8h0l-5.35.72h0l-5.38.64h0l-5.42.56h0l-5.45.48h0l-5.49.4h0l-5.52.33h0l-5.56.25h0l-5.6.17H2069.58l-5.6-.17h0l-5.56-.25h0l-5.52-.33h0l-5.49-.4h0l-5.45-.48h0l-5.42-.56h0l-5.38-.64h0l-5.35-.72h0l-5.31-.8h0l-5.28-.88h0l-5.24-1h0l-5.21-1h0l-5.17-1.11h0l-5.13-1.19h0l-5.1-1.28h0l-5.06-1.35h0l-5-1.43h0l-5-1.52h0l-4.95-1.6h0l-4.91-1.68h0l-4.87-1.76h0l-4.83-1.84h0l-4.79-1.92h0l-4.75-2h0l-4.71-2.09h0l-4.67-2.17h0l-4.63-2.25h0l-4.59-2.33h0l-4.55-2.41h0l-4.5-2.49h0l-4.46-2.57h0l-4.42-2.65h0l-4.37-2.73h0l-4.33-2.81h0l-4.28-2.89h0l-4.23-3h0l-4.19-3h0l-4.14-3.12h0l-4.09-3.19h0l-4-3.26h0l-4-3.33h0l-3.94-3.4h0l-3.89-3.48h0l-3.84-3.54h0l-3.78-3.61h0l-3.73-3.67-3.68-3.74h0l-3.62-3.79h0l-3.57-3.86h0l-3.51-3.91h0l-3.45-4h0l-3.39-4h0l-3.34-4.08h0l-3.27-4.13-3.22-4.18h0l-3.15-4.22h0l-3.09-4.27h0l-3-4.31h0l-3-4.35h0l-2.9-4.39h0l-2.84-4.43h0l-2.78-4.47h0l-2.71-4.5h0l-2.64-4.54h0l-2.58-4.57h0l-2.51-4.6h0l-2.44-4.63h0l-2.38-4.66-2.31-4.68h0l-2.24-4.71h0l-2.17-4.73h0l-2.1-4.75-2-4.78h0l-2-4.8-1.9-4.81h0l-1.83-4.83h0l-1.76-4.85-1.69-4.87h0l-1.62-4.88h0l-1.55-4.9h0l-1.49-4.91h0l-1.42-4.92h0l-1.35-4.94-1.28-5h0l-1.22-5h0l-1.15-5h0l-1.08-5h0l-1-5-0.95-5h0l-0.88-5h0l-0.81-5h0l-0.75-5h0l-0.68-5h0l-0.62-5.06h0l-0.55-5.07-0.49-5.08-0.42-5.09h0l-0.36-5.09h0l-0.29-5.1h0l-0.23-5.11h0l-0.39-5.12h0l-0.3-5.13h0l-0.26-5.14h0l-0.2-5.14M1814.68,273l0.6-3.31a5.85,5.85,0,0,1,3.44-4.28l20.39-8.76a8.69,8.69,0,0,1,6.17-.26l11.33,3.76h0l0.16,0.06h0l0.16,0.06h0l0.16,0.07h0l0.15,0.07h0l0.15,0.07h0l0.15,0.08h0l0.14,0.08h0l0.14,0.09h0l0.14,0.09h0l0.14,0.09h0l0.14,0.09h0l0.13,0.1h0l0.13,0.1h0l0.13,0.1,0.13,0.1h0l0.12,0.1,0.12,0.1h0l0.12,0.1h0l0.12,0.11h0l0.12,0.1,0.12,0.11h0l0.11,0.11h0l0.11,0.11,0.11,0.11h0l0.1,0.11h0l0.1,0.11h0l0.1,0.11h0l0.1,0.12h0l0.18,0.23h0l0.08,0.12,0.08,0.12h0l0.07,0.12h0l0.07,0.12h0l0.07,0.13h0l0.06,0.13h0L1861,264h0l0.05,0.13h0l0,0.13h0l0,0.13h0l0,0.14h0l0,0.13h0l0,0.14h0l0,0.14h0l0,0.14h0l0,0.14h0v0.14h0v0.14h0v0.28h0V266h0v0.14l-0.4,15.93q63.51,10.48,127.61,16.63M1966,296.4a0.18,0.18,0,0,1-.16-0.2l0.22-3.44a5.85,5.85,0,0,1,3-4.58l19.47-10.64a8.69,8.69,0,0,1,6.11-.84l11.64,2.68h0l0.12,0,0.13,0h0l0.13,0.05h0l0.13,0.05,0.13,0.05h0l0.13,0.06,0.13,0.05h0l0.14,0.06h0l0.14,0.06h0l0.14,0.07h0l0.14,0.07,0.14,0.07h0l0.14,0.07h0l0.14,0.08h0l0.14,0.08,0.14,0.08h0l0.14,0.09h0l0.14,0.09h0l0.14,0.1,0.14,0.1h0l0.14,0.1h0l0.14,0.11,0.14,0.11h0l0.13,0.11h0l0.13,0.11h0l0.13,0.12h0l0.12,0.12h0l0.12,0.12h0l0.12,0.12h0l0.11,0.12h0l0.1,0.13h0l0.1,0.13h0l0.09,0.13h0l0.09,0.13h0l0.08,0.13h0l0.07,0.13h0l0.07,0.13h0l0.06,0.13h0l0.06,0.13h0l0.05,0.13h0l0,0.13h0l0,0.13h0l0,0.13h0l0,0.13h0l0,0.13h0l0,0.12h0l0,0.12h0l0,0.12h0v0.12h0v0.12h0v0.12h0v0.12h0l1.11,16.08q59,5.15,118.2,7.14m227.43-9.41q64.07-6.14,127.61-16.63l-0.4-15.93V266h0v-0.14h0v-0.28h0v-0.14h0v-0.14h0l0-.14h0l0-.14h0l0-.14h0l0-.14h0l0-.13h0l0-.14h0l0-.13h0l0-.13h0l0.05-.13h0l0.05-.13h0l0.06-.13h0l0.07-.13h0l0.07-.12h0l0.07-.12h0l0.08-.12,0.08-.12h0l0.18-.23h0l0.1-.12h0l0.1-.11h0l0.1-.11h0l0.1-.11h0l0.22-.22h0l0.11-.11h0l0.12-.11,0.12-.1h0l0.12-.11h0l0.12-.1h0l0.12-.1,0.12-.1h0l0.13-.1,0.13-.1h0l0.13-.1h0l0.13-.1h0l0.14-.09h0l0.14-.09h0l0.14-.09h0l0.14-.09h0l0.14-.08h0l0.15-.08h0l0.15-.07h0l0.15-.07h0l0.16-.07h0l0.16-.06h0l0.16-.06h0l11.33-3.76a8.69,8.69,0,0,1,6.17.26l20.39,8.76a5.85,5.85,0,0,1,3.44,4.28l0.6,3.31m-22.9,4.88q38.16-7.56,75.57-18.37a14.36,14.36,0,0,1,18.34,13.8l-0.15,128.54M2381.14,296.36l-0.34-3.6a5.85,5.85,0,0,0-3-4.58l-19.47-10.64a8.69,8.69,0,0,0-6.11-.84l-11.64,2.68h0l-0.12,0-0.13,0h0l-0.13.05h0l-0.13.05-0.13.05h0l-0.13.06-0.13.05h0l-0.14.06h0l-0.14.06h0l-0.14.07h0l-0.14.07-0.14.07h0l-0.14.07h0l-0.14.08h0l-0.14.08-0.14.08h0l-0.14.09h0l-0.14.09h0l-0.14.1-0.14.1h0l-0.14.1h0l-0.14.11-0.14.11h0l-0.13.11h0l-0.13.11h0l-0.13.12h0l-0.12.12h0l-0.12.12h0l-0.12.12h0l-0.11.12h0l-0.1.13h0l-0.1.13h0l-0.09.13h0l-0.09.13h0l-0.08.13h0l-0.07.13h0l-0.07.13h0l-0.06.13h0l-0.06.13h0l-0.05.13h0l0,0.13h0l0,0.13h0l0,0.13h0l0,0.13h0l0,0.13h0l0,0.12h0l0,0.12h0l0,0.12h0v0.12h0v0.12h0v0.12h0v0.12h0L2334.18,301q-59,5.15-118.19,7.14m-82.54,6.32V308.2l-0.17,0-2.38-.33h0l-2.22-.34h0l-2.23-.37h0l-2.25-.41h0l-2.26-.44h0l-2.27-.47-2.28-.5-2.3-.54h0l-2.31-.57-2.32-.6-2.33-.63h0l-2.34-.67h0l-2.36-.7h0l-2.37-.73h0l-2.38-.77-2.39-.81h0l-2.4-.84h0l-2.41-.87h0l-2.42-.91h0l-2.43-.95h0l-2.44-1-2.45-1h0l-2.46-1.06-2.47-1.1-2.47-1.14h0l-2.47-1.18h0l-2.48-1.22-2.49-1.27h0l-2.49-1.31h0l-2.49-1.35h0l-2.49-1.4h0l-2.49-1.45h0l-2.49-1.49h0l-2.49-1.54h0l-2.48-1.59h0L2047,275h0l-2.47-1.68-2.46-1.73h0l-2.45-1.77h0l-2.43-1.82h0l-2.42-1.87h0l-2.4-1.92h0l-2.38-2h0l-2.37-2h0l-2.34-2.06h0l-2.32-2.09h0l-2.3-2.14h0l-2.27-2.19h0l-2.24-2.23h0l-2.21-2.27h0l-2.18-2.31h0l-2.15-2.35h0l-2.11-2.39h0l-2.08-2.43h0l-2-2.46-2-2.5h0l-2-2.53h0l-1.92-2.56h0l-1.88-2.6h0l-1.84-2.62-1.79-2.65h0l-1.75-2.68h0l-1.71-2.7h0l-1.66-2.73h0l-1.62-2.75h0l-1.57-2.77h0l-1.52-2.79h0l-1.48-2.8h0l-1.43-2.81h0l-1.39-2.83h0l-1.35-2.84h0l-1.3-2.85-1.26-2.86h0l-1.21-2.86h0l-1.17-2.87h0l-1.13-2.87h0l-1.08-2.87-1-2.87h0l-1-2.87h0l-1-2.86h0l-0.92-2.85-0.88-2.85h0l-0.84-2.84h0l-0.8-2.83-0.77-2.81h0l-0.73-2.8h0l-0.69-2.79h0l-0.66-2.77h0l-1.22-5.49h0l-1.09-5.41h0l-1-5.31h0l-0.86-5.21h0l-0.75-5.1h0l-0.66-5h0l-0.57-4.86h0l-0.48-4.73L1953,98h0l-0.34-4.46h0l-0.27-4.31h0l-0.22-4.17L1952,81h0l-0.12-3.87h0l-0.07-3.71,0-3.56h0V66.46a5.57,5.57,0,0,1,3.33-4.54,18.32,18.32,0,0,1,5.31-1.4,8.69,8.69,0,0,1,6.77,2.21l0,0a311.63,311.63,0,0,0,133.38,93.49h0a206.75,206.75,0,0,0,72.1,13h1.56a206.75,206.75,0,0,0,72.1-13h0a311.63,311.63,0,0,0,133.38-93.49l0,0a8.69,8.69,0,0,1,6.77-2.21,18.32,18.32,0,0,1,5.31,1.4,5.57,5.57,0,0,1,3.33,4.54v3.42h0l0,3.56-0.07,3.71h0L2394.94,81h0l-0.16,4-0.22,4.17h0l-0.27,4.31h0L2393.94,98h0l-0.41,4.59-0.48,4.73h0l-0.57,4.86h0l-0.66,5h0l-0.75,5.1h0l-0.86,5.21h0l-1,5.31h0l-1.09,5.41h0l-1.22,5.49h0l-0.66,2.77h0l-0.69,2.79h0l-0.73,2.8h0l-0.77,2.81-0.8,2.83h0l-0.84,2.84h0l-0.88,2.85-0.92,2.85h0l-1,2.86h0l-1,2.87h0l-1,2.87-1.08,2.87h0l-1.13,2.87h0l-1.17,2.87h0l-1.21,2.86h0l-1.26,2.86-1.3,2.85h0l-1.35,2.84h0l-1.39,2.83h0l-1.43,2.81h0l-1.48,2.8h0l-1.52,2.79h0l-1.57,2.77h0l-1.62,2.75h0l-1.66,2.73h0l-1.71,2.7h0l-1.75,2.68h0l-1.79,2.65-1.84,2.62h0l-1.88,2.6h0l-1.92,2.56h0l-2,2.53h0l-2,2.5-2,2.46h0l-2.08,2.43h0l-2.11,2.39h0l-2.15,2.35h0l-2.18,2.31h0l-2.21,2.27h0l-2.24,2.23h0l-2.27,2.19h0L2324,256h0l-2.32,2.09h0l-2.34,2.06h0l-2.37,2h0l-2.38,2h0l-2.4,1.92h0l-2.42,1.87h0l-2.43,1.82h0l-2.45,1.77h0l-2.46,1.73L2300,275h0l-2.47,1.63h0l-2.48,1.59h0l-2.49,1.54h0l-2.49,1.49h0l-2.49,1.45h0l-2.49,1.4h0l-2.49,1.35h0l-2.49,1.31h0l-2.49,1.27-2.48,1.22h0l-2.47,1.18h0l-2.47,1.14-2.47,1.1-2.46,1.06h0l-2.45,1-2.44,1h0l-2.43.95h0l-2.42.91h0l-2.41.87h0l-2.4.84h0l-2.39.81-2.38.77h0l-2.37.73h0l-2.36.7h0l-2.34.67h0l-2.33.63-2.32.6-2.31.57h0l-2.3.54-2.28.5-2.27.47h0l-2.26.44h0l-2.25.41h0l-2.23.37h0l-2.22.34h0l-2.21.31h0l-0.33,0v6.24" transform="translate(0 -53.98)"/><path id="path1319-3" data-name="path1319" class="cls-1" d="M2075.14,226.79l33.57,8.06a8.16,8.16,0,0,0,9.69-10.4l-15.53-49.15a8.34,8.34,0,0,0-6.28-5.66l-42.47-10.19a8.34,8.34,0,0,0-8.17,2.19l-36.14,36.75a8.16,8.16,0,0,0,3.91,13.66l33.57,8.06" transform="translate(0 -53.98)"/><path id="path1349-3" data-name="path1349" class="cls-1" d="M2334.51,301v0" transform="translate(0 -53.98)"/><path id="path1361-3" data-name="path1361" class="cls-1" d="M2395.13,66.32h0" transform="translate(0 -53.98)"/><path id="path1373-3" data-name="path1373" class="cls-1" d="M1952.11,66.32h0" transform="translate(0 -53.98)"/><path id="path1385-3" data-name="path1385" class="cls-1" d="M2012.72,301v0" transform="translate(0 -53.98)"/><path id="path1483-3" data-name="path1483" class="cls-1" d="M2486.28,282.07h0" transform="translate(0 -53.98)"/><path id="path1523-3" data-name="path1523" class="cls-1" d="M2299.95,220.11l33.57-8.06a8.16,8.16,0,0,0,3.91-13.66l-36.14-36.75a8.34,8.34,0,0,0-8.17-2.19l-42.47,10.19a8.34,8.34,0,0,0-6.28,5.66l-15.53,49.15a8.16,8.16,0,0,0,9.69,10.4l33.57-8.06" transform="translate(0 -53.98)"/><path id="path1529-3" data-name="path1529" class="cls-1" d="M2159,281.47l-34.52-.18a8.5,8.5,0,0,1-7.36-12.68l27.25-48.31a8.5,8.5,0,0,1,7.45-4.33h43.64a8.5,8.5,0,0,1,7.45,4.33l27.25,48.31a8.5,8.5,0,0,1-7.36,12.68l-34.52.18" transform="translate(0 -53.98)"/></g><line class="cls-2" x1="1793.78" y1="351.23" x2="1791.97" y2="380.09"/><line class="cls-2" x1="2553.45" y1="351.23" x2="2555.27" y2="380.09"/><g id="layer1-4" data-name="layer1"><path id="path819-4" data-name="path819" class="cls-1" d="M140.53,1396.29l4.74-75.38m149.6-155.29,36.07,32m-36.33-32.24,0.27,0.24m-49.79-142.81,7.34,48M576.9,1197.62l36.33-32.24m42.24-94.92,7.28-47.66m-7.34,48,0.05-.36m107.09,250.44,4.74,75.38m116.23-61.39-0.28,244.55,0,5.14h0l0,5.14h0l-0.1,5.13h0L883,1600h0l-0.23,5.11h0l-0.29,5.1h0l-0.36,5.09h0l-0.42,5.09-0.49,5.08-0.55,5.07h0l-0.62,5.06h0l-0.68,5h0l-0.75,5h0l-0.81,5h0l-0.88,5h0l-0.95,5-1,5h0l-1.08,5h0l-1.15,5h0l-1.22,5h0l-1.28,5-1.35,4.94h0l-1.42,4.92h0l-1.49,4.91h0l-1.55,4.9h0l-1.62,4.88h0l-1.69,4.87-1.76,4.85h0l-1.83,4.83h0l-1.9,4.81-2,4.8h0l-2,4.78-2.1,4.75h0l-2.17,4.73h0l-2.24,4.71h0l-2.31,4.68-2.38,4.66h0l-2.44,4.63h0l-2.51,4.6h0l-2.58,4.57h0l-2.64,4.54h0l-2.71,4.5h0l-2.78,4.47h0l-2.84,4.43h0l-2.9,4.39h0l-3,4.35h0l-3,4.31h0l-3.09,4.27h0l-3.15,4.22h0l-3.22,4.18-3.27,4.13h0l-3.34,4.08h0l-3.39,4h0l-3.45,4h0l-3.51,3.91h0l-3.57,3.86h0l-3.62,3.79h0l-3.68,3.74-3.73,3.67h0l-3.78,3.61h0l-3.84,3.54h0l-3.89,3.48h0l-3.94,3.4h0l-4,3.33h0l-4,3.26h0l-4.09,3.19h0l-4.14,3.12h0l-4.19,3h0l-4.23,3h0l-4.28,2.89h0l-4.33,2.81h0l-4.37,2.73h0l-4.42,2.65h0l-4.46,2.57h0l-4.5,2.49h0l-4.55,2.41h0l-4.59,2.33h0l-4.63,2.25h0l-4.67,2.17h0l-4.71,2.09h0l-4.75,2h0l-4.79,1.92h0l-4.83,1.84h0l-4.87,1.76h0l-4.91,1.68h0l-4.95,1.6h0l-5,1.52h0l-5,1.43h0l-5.06,1.35h0l-5.1,1.28h0l-5.13,1.19h0l-5.17,1.11h0l-5.21,1h0l-5.24,1h0l-5.28.88h0l-5.31.8h0l-5.35.72h0l-5.38.64h0l-5.42.56h0l-5.45.48h0l-5.49.4h0l-5.52.33h0l-5.56.25h0l-5.6.17H350l-5.6-.17h0l-5.56-.25h0l-5.52-.33h0l-5.49-.4h0l-5.45-.48h0l-5.42-.56h0l-5.38-.64h0l-5.35-.72h0l-5.31-.8h0l-5.28-.88h0l-5.24-1h0l-5.21-1h0l-5.17-1.11h0l-5.13-1.19h0l-5.1-1.28h0l-5.06-1.35h0l-5-1.43h0l-5-1.52h0l-4.95-1.6h0l-4.91-1.68h0l-4.87-1.76h0l-4.83-1.84h0l-4.79-1.92h0l-4.75-2h0l-4.71-2.09h0l-4.67-2.17h0l-4.63-2.25h0l-4.59-2.33h0l-4.55-2.41h0l-4.5-2.49h0l-4.46-2.57h0l-4.42-2.65h0l-4.37-2.73h0l-4.33-2.81h0l-4.28-2.89h0l-4.23-3h0l-4.19-3h0l-4.14-3.12h0L159.4,1876h0l-4-3.26h0l-4-3.33h0l-3.94-3.4h0l-3.89-3.48h0l-3.84-3.54h0l-3.78-3.61h0l-3.73-3.67-3.68-3.74h0l-3.62-3.79h0l-3.57-3.86h0l-3.51-3.91h0l-3.45-4h0l-3.39-4h0l-3.34-4.08h0l-3.27-4.13L101.1,1816h0l-3.15-4.22h0l-3.09-4.27h0l-3-4.31h0l-3-4.35h0l-2.9-4.39h0L83.1,1790h0l-2.78-4.47h0l-2.71-4.5h0L75,1776.46h0l-2.58-4.57h0l-2.51-4.6h0l-2.44-4.63h0L65.06,1758l-2.31-4.68h0l-2.24-4.71h0l-2.17-4.73h0l-2.1-4.75-2-4.78h0l-2-4.8-1.9-4.81h0l-1.83-4.83h0L46.75,1715l-1.69-4.87h0l-1.62-4.88h0l-1.55-4.9h0l-1.49-4.91h0L39,1690.56h0l-1.35-4.94-1.28-5h0l-1.22-5h0l-1.15-5h0l-1.08-5h0l-1-5-0.95-5h0l-0.88-5h0l-0.81-5h0l-0.75-5h0l-0.68-5h0l-0.62-5.06h0l-0.55-5.07-0.49-5.08-0.42-5.09h0l-0.36-5.09h0l-0.29-5.1h0L24.86,1600h0l-0.17-5.12h0l-0.1-5.13h0l0-5.14h0l0-5.14-0.43-373.09a14.35,14.35,0,0,1,18.34-13.8q37.37,10.8,75.57,18.37m-22.9-4.88,0.6-3.31a5.85,5.85,0,0,1,3.44-4.28l20.39-8.76a8.69,8.69,0,0,1,6.17-.26l11.33,3.76h0l0.16,0.06h0l0.16,0.06h0l0.16,0.07h0l0.15,0.07h0l0.15,0.07h0l0.15,0.08h0l0.14,0.08h0l0.14,0.09h0l0.14,0.09h0l0.14,0.09h0l0.14,0.09h0l0.13,0.1h0l0.13,0.1h0l0.13,0.1,0.13,0.1h0l0.12,0.1,0.12,0.1h0l0.12,0.1h0l0.12,0.11h0l0.12,0.1,0.12,0.11h0l0.11,0.11h0l0.11,0.11,0.11,0.11h0l0.1,0.11h0l0.1,0.11h0l0.1,0.11h0l0.1,0.12h0l0.18,0.23h0l0.08,0.12,0.08,0.12h0l0.07,0.12h0l0.07,0.12h0l0.07,0.13h0l0.06,0.13h0l0.05,0.13h0l0.05,0.13h0l0,0.13h0l0,0.13h0l0,0.14h0l0,0.13h0l0,0.14h0l0,0.14h0l0,0.14h0l0,0.14h0v0.14h0v0.14h0v0.28h0v0.14h0v0.14l-0.4,15.93q63.51,10.48,127.61,16.63m-22.51-2.3a0.18,0.18,0,0,1-.16-0.2l0.22-3.44a5.85,5.85,0,0,1,3-4.58l19.47-10.64a8.69,8.69,0,0,1,6.11-.84l11.64,2.68h0l0.12,0,0.13,0h0l0.13,0.05h0l0.13,0.05,0.13,0.05h0l0.13,0.06,0.13,0.05h0l0.14,0.06h0l0.14,0.06h0l0.14,0.07h0l0.14,0.07,0.14,0.07h0l0.14,0.07h0l0.14,0.08h0l0.14,0.08,0.14,0.08h0l0.14,0.09h0l0.14,0.09h0l0.14,0.1,0.14,0.1h0l0.14,0.1h0l0.14,0.11,0.14,0.11h0l0.13,0.11h0l0.13,0.11h0l0.13,0.12h0l0.12,0.12h0l0.12,0.12h0l0.12,0.12h0l0.11,0.12h0l0.1,0.13h0l0.1,0.13h0l0.09,0.13h0l0.09,0.13h0l0.08,0.13h0l0.07,0.13h0l0.07,0.13h0l0.06,0.13h0l0.06,0.13h0l0.05,0.13h0l0,0.13h0l0,0.13h0l0,0.13h0l0,0.13h0l0,0.13h0l0,0.12h0l0,0.12h0l0,0.12h0v0.12h0v0.12h0v0.12h0v0.12h0l1.11,16.08q59,5.15,118.2,7.14m227.43-9.41q64.07-6.14,127.61-16.63L766,1199.2v-0.14h0v-0.14h0v-0.28h0v-0.14h0v-0.14h0l0-.14h0l0-.14h0l0-.14h0l0-.14h0l0-.13h0l0-.14h0l0-.13h0l0-.13h0l0.05-.13h0l0.05-.13h0l0.06-.13h0l0.07-.13h0l0.07-.12h0l0.07-.12h0l0.08-.12,0.08-.12h0l0.18-.23h0l0.1-.12h0l0.1-.11h0l0.1-.11h0l0.1-.11h0l0.22-.22h0l0.11-.11h0l0.12-.11,0.12-.1h0l0.12-.11h0l0.12-.1h0l0.12-.1,0.12-.1h0l0.13-.1,0.13-.1h0l0.13-.1h0l0.13-.1h0l0.14-.09h0l0.14-.09h0l0.14-.09h0l0.14-.09h0l0.14-.08h0l0.15-.08h0l0.15-.07h0l0.15-.07h0l0.16-.07h0l0.16-.06h0l0.16-.06h0l11.33-3.76a8.69,8.69,0,0,1,6.17.26l20.39,8.76a5.85,5.85,0,0,1,3.44,4.28l0.6,3.31m-22.9,4.88q38.16-7.56,75.57-18.37a14.36,14.36,0,0,1,18.34,13.8l-0.15,128.54M661.61,1229.41l-0.34-3.6a5.85,5.85,0,0,0-3-4.58l-19.47-10.64a8.69,8.69,0,0,0-6.11-.84L621,1212.42h0l-0.12,0-0.13,0h0l-0.13.05h0l-0.13.05-0.13.05h0l-0.13.06-0.13.05h0l-0.14.06h0l-0.14.06h0l-0.14.07h0l-0.14.07-0.14.07h0l-0.14.07h0l-0.14.08h0l-0.14.08-0.14.08h0l-0.14.09h0l-0.14.09h0l-0.14.1-0.14.1h0l-0.14.1h0l-0.14.11-0.14.11h0l-0.13.11h0l-0.13.11h0l-0.13.12h0l-0.12.12h0l-0.12.12h0l-0.12.12h0l-0.11.12h0l-0.1.13h0l-0.1.13h0l-0.09.13h0l-0.09.13h0l-0.08.13h0l-0.07.13h0l-0.07.13h0l-0.06.13h0l-0.06.13h0l-0.05.13h0l0,0.13h0l0,0.13h0l0,0.13h0l0,0.13h0l0,0.13h0l0,0.12h0l0,0.12h0l0,0.12h0v0.12h0v0.12h0v0.12h0v0.12h0L614.64,1234q-59,5.15-118.19,7.14m-82.54,6.32v-6.24l-0.17,0-2.38-.33h0l-2.22-.34h0l-2.23-.37h0l-2.25-.41h0l-2.26-.44h0l-2.27-.47-2.28-.5-2.3-.54h0l-2.31-.57-2.32-.6-2.33-.63h0l-2.34-.67h0l-2.36-.7h0l-2.37-.73h0l-2.38-.77-2.39-.81h0l-2.4-.84h0l-2.41-.87h0l-2.42-.91h0l-2.43-.95h0l-2.44-1-2.45-1h0l-2.46-1.06-2.47-1.1-2.47-1.14h0l-2.47-1.18h0l-2.48-1.22-2.49-1.27h0l-2.49-1.31h0l-2.49-1.35h0l-2.49-1.4h0l-2.49-1.45h0l-2.49-1.49h0l-2.49-1.54h0l-2.48-1.59h0l-2.47-1.63h0l-2.47-1.68-2.46-1.73h0l-2.45-1.77h0L317.6,1201h0l-2.42-1.87h0l-2.4-1.92h0l-2.38-2h0l-2.37-2h0l-2.34-2.06h0l-2.32-2.09h0l-2.3-2.14h0l-2.27-2.19h0l-2.24-2.23h0l-2.21-2.27h0l-2.18-2.31h0l-2.15-2.35h0l-2.11-2.39h0l-2.08-2.43h0l-2-2.46-2-2.5h0l-2-2.53h0l-1.92-2.56h0l-1.88-2.6h0l-1.84-2.62-1.79-2.65h0l-1.75-2.68h0l-1.71-2.7h0l-1.66-2.73h0l-1.62-2.75h0l-1.57-2.77h0l-1.52-2.79h0l-1.48-2.8h0l-1.43-2.81h0l-1.39-2.83h0l-1.35-2.84h0l-1.3-2.85-1.26-2.86h0l-1.21-2.86h0l-1.17-2.87h0l-1.13-2.87h0l-1.08-2.87-1-2.87h0l-1-2.87h0l-1-2.86h0l-0.92-2.85-0.88-2.85h0l-0.84-2.84h0l-0.8-2.83-0.77-2.81h0l-0.73-2.8h0l-0.69-2.79h0l-0.66-2.77h0l-1.22-5.49h0l-1.09-5.41h0l-1-5.31h0l-0.86-5.21h0l-0.75-5.1h0l-0.66-5h0l-0.57-4.86h0l-0.48-4.73-0.41-4.59h0l-0.34-4.46h0l-0.27-4.31h0l-0.22-4.17-0.16-4h0l-0.12-3.87h0l-0.07-3.71,0-3.56h0v-3.42a5.57,5.57,0,0,1,3.33-4.54,18.32,18.32,0,0,1,5.31-1.4,8.69,8.69,0,0,1,6.77,2.21l0,0A311.63,311.63,0,0,0,381,1089.29h0a206.75,206.75,0,0,0,72.1,13h1.56a206.75,206.75,0,0,0,72.1-13h0A311.63,311.63,0,0,0,660.18,995.8l0,0a8.69,8.69,0,0,1,6.77-2.21,18.32,18.32,0,0,1,5.31,1.4,5.57,5.57,0,0,1,3.33,4.54v3.42h0l0,3.56-0.07,3.71h0l-0.12,3.87h0l-0.16,4-0.22,4.17h0l-0.27,4.31h0l-0.34,4.46h0l-0.41,4.59-0.48,4.73h0l-0.57,4.86h0l-0.66,5h0l-0.75,5.1h0l-0.86,5.21h0l-1,5.31h0l-1.09,5.41h0l-1.22,5.49h0l-0.66,2.77h0l-0.69,2.79h0l-0.73,2.8h0l-0.77,2.81-0.8,2.83h0l-0.84,2.84h0l-0.88,2.85-0.92,2.85h0l-1,2.86h0l-1,2.87h0l-1,2.87-1.08,2.87h0l-1.13,2.87h0l-1.17,2.87h0l-1.21,2.86h0l-1.26,2.86-1.3,2.85h0l-1.35,2.84h0l-1.39,2.83h0l-1.43,2.81h0l-1.48,2.8h0l-1.52,2.79h0l-1.57,2.77h0l-1.62,2.75h0l-1.66,2.73h0l-1.71,2.7h0l-1.75,2.68h0l-1.79,2.65-1.84,2.62h0l-1.88,2.6h0l-1.92,2.56h0l-2,2.53h0l-2,2.5-2,2.46h0L620,1173.2h0l-2.11,2.39h0l-2.15,2.35h0l-2.18,2.31h0l-2.21,2.27h0l-2.24,2.23h0l-2.27,2.19h0l-2.3,2.14h0l-2.32,2.09h0l-2.34,2.06h0l-2.37,2h0l-2.38,2h0l-2.4,1.92h0l-2.42,1.87h0l-2.43,1.82h0l-2.45,1.77h0l-2.46,1.73-2.47,1.68h0l-2.47,1.63h0l-2.48,1.59h0l-2.49,1.54h0l-2.49,1.49h0L568,1215.7h0l-2.49,1.4h0l-2.49,1.35h0l-2.49,1.31h0L558,1221l-2.48,1.22h0l-2.47,1.18h0l-2.47,1.14-2.47,1.1-2.46,1.06h0l-2.45,1-2.44,1h0l-2.43.95h0l-2.42.91h0l-2.41.87h0l-2.4.84h0l-2.39.81-2.38.77h0l-2.37.73h0l-2.36.7h0l-2.34.67h0l-2.33.63-2.32.6-2.31.57h0l-2.3.54-2.28.5-2.27.47h0l-2.26.44h0l-2.25.41h0l-2.23.37h0l-2.22.34h0l-2.21.31h0l-0.33,0v6.24" transform="translate(0 -53.98)"/><path id="path1319-4" data-name="path1319" class="cls-1" d="M355.61,1159.84l33.57,8.06a8.16,8.16,0,0,0,9.69-10.4l-15.53-49.15a8.34,8.34,0,0,0-6.28-5.66l-42.47-10.19a8.34,8.34,0,0,0-8.17,2.19l-36.14,36.75a8.16,8.16,0,0,0,3.91,13.66l33.57,8.06" transform="translate(0 -53.98)"/><path id="path1349-4" data-name="path1349" class="cls-1" d="M615,1234v0" transform="translate(0 -53.98)"/><path id="path1361-4" data-name="path1361" class="cls-1" d="M675.59,999.36h0" transform="translate(0 -53.98)"/><path id="path1373-4" data-name="path1373" class="cls-1" d="M232.57,999.36h0" transform="translate(0 -53.98)"/><path id="path1385-4" data-name="path1385" class="cls-1" d="M293.19,1234v0" transform="translate(0 -53.98)"/><path id="path1483-4" data-name="path1483" class="cls-1" d="M766.74,1215.12h0" transform="translate(0 -53.98)"/><path id="path1523-4" data-name="path1523" class="cls-1" d="M580.41,1153.16L614,1145.1a8.16,8.16,0,0,0,3.91-13.66l-36.14-36.75a8.34,8.34,0,0,0-8.17-2.19l-42.47,10.19a8.34,8.34,0,0,0-6.28,5.66L509.3,1157.5a8.16,8.16,0,0,0,9.69,10.4l33.57-8.06" transform="translate(0 -53.98)"/><path id="path1529-4" data-name="path1529" class="cls-1" d="M439.45,1214.52l-34.52-.18a8.5,8.5,0,0,1-7.36-12.68l27.25-48.31a8.5,8.5,0,0,1,7.45-4.33H475.9a8.5,8.5,0,0,1,7.45,4.33l27.25,48.31a8.5,8.5,0,0,1-7.36,12.68l-34.52.18" transform="translate(0 -53.98)"/></g><line class="cls-2" x1="74.25" y1="1284.28" x2="72.43" y2="1313.14"/><line class="cls-2" x1="833.92" y1="1284.28" x2="835.73" y2="1313.14"/><g id="layer1-5" data-name="layer1"><path id="path819-5" data-name="path819" class="cls-1" d="M1000.08,1396.29l4.74-75.38m149.6-155.29,36.07,32m-36.33-32.24,0.27,0.24m-49.79-142.81,7.34,48m324.49,126.79,36.33-32.24m42.24-94.92,7.28-47.66m-7.34,48,0.05-.36m107.09,250.44,4.74,75.38M883.69,1206.37a14.35,14.35,0,0,1,18.34-13.8q37.37,10.8,75.57,18.37m765.5,124-0.28,244.55,0,5.14h0l0,5.14h0l-0.1,5.13h0l-0.17,5.12h0l-0.23,5.11h0l-0.29,5.1h0l-0.36,5.09h0l-0.42,5.09-0.49,5.08-0.55,5.07h0l-0.62,5.06h0l-0.68,5h0l-0.75,5h0l-0.81,5h0l-0.88,5h0l-0.95,5-1,5h0l-1.08,5h0l-1.15,5h0l-1.22,5h0l-1.28,5-1.35,4.94h0l-1.42,4.92h0l-1.49,4.91h0l-1.55,4.9h0l-1.62,4.88h0l-1.69,4.87-1.76,4.85h0l-1.83,4.83h0l-1.9,4.81-2,4.8h0l-2,4.78-2.1,4.75h0l-2.17,4.73h0l-2.24,4.71h0l-2.31,4.68-2.38,4.66h0l-2.44,4.63h0l-2.51,4.6h0l-2.58,4.57h0l-2.64,4.54h0l-2.71,4.5h0l-2.78,4.47h0l-2.84,4.43h0l-2.9,4.39h0l-3,4.35h0l-3,4.31h0l-3.09,4.27h0l-3.15,4.22h0l-3.22,4.18-3.27,4.13h0l-3.34,4.08h0l-3.39,4h0l-3.45,4h0l-3.51,3.91h0l-3.57,3.86h0l-3.62,3.79h0l-3.68,3.74-3.73,3.67h0l-3.78,3.61h0l-3.84,3.54h0L1620,1866h0l-3.94,3.4h0l-4,3.33h0l-4,3.26h0l-4.09,3.19h0l-4.14,3.12h0l-4.19,3h0l-4.23,3h0l-4.28,2.89h0l-4.33,2.81h0l-4.37,2.73h0l-4.42,2.65h0l-4.46,2.57h0l-4.5,2.49h0l-4.55,2.41h0l-4.59,2.33h0l-4.63,2.25h0l-4.67,2.17h0l-4.71,2.09h0l-4.75,2h0l-4.79,1.92h0l-4.83,1.84h0l-4.87,1.76h0l-4.91,1.68h0l-4.95,1.6h0l-5,1.52h0l-5,1.43h0l-5.06,1.35h0l-5.1,1.28h0l-5.13,1.19h0l-5.17,1.11h0l-5.21,1h0l-5.24,1h0l-5.28.88h0l-5.31.8h0l-5.35.72h0l-5.38.64h0l-5.42.56h0l-5.45.48h0l-5.49.4h0l-5.52.33h0l-5.56.25h0l-5.6.17H1209.59l-5.6-.17h0l-5.56-.25h0l-5.52-.33h0l-5.49-.4h0L1182,1940h0l-5.42-.56h0l-5.38-.64h0l-5.35-.72h0l-5.31-.8h0l-5.28-.88h0l-5.24-1h0l-5.21-1h0l-5.17-1.11h0l-5.13-1.19h0l-5.1-1.28h0l-5.06-1.35h0l-5-1.43h0l-5-1.52h0l-4.95-1.6h0l-4.91-1.68h0l-4.87-1.76h0l-4.83-1.84h0l-4.79-1.92h0l-4.75-2h0l-4.71-2.09h0l-4.67-2.17h0l-4.63-2.25h0l-4.59-2.33h0l-4.55-2.41h0l-4.5-2.49h0l-4.46-2.57h0l-4.42-2.65h0l-4.37-2.73h0l-4.33-2.81h0l-4.28-2.89h0l-4.23-3h0l-4.19-3h0l-4.14-3.12h0l-4.09-3.19h0l-4-3.26h0l-4-3.33h0L1007,1866h0l-3.89-3.48h0l-3.84-3.54h0l-3.78-3.61h0l-3.73-3.67-3.68-3.74h0l-3.62-3.79h0l-3.57-3.86h0l-3.51-3.91h0l-3.45-4h0l-3.39-4h0l-3.34-4.08h0l-3.27-4.13-3.22-4.18h0l-3.15-4.22h0l-3.09-4.27h0l-3-4.31h0l-3-4.35h0l-2.9-4.39h0l-2.84-4.43h0l-2.78-4.47h0l-2.71-4.5h0l-2.64-4.54h0l-2.58-4.57h0l-2.51-4.6h0l-2.44-4.63h0l-2.38-4.66-2.31-4.68h0l-2.24-4.71h0l-2.17-4.73h0l-2.1-4.75-2-4.78h0l-2-4.8-1.9-4.81h0l-1.83-4.83h0L906.3,1715l-1.69-4.87h0L903,1705.3h0l-1.55-4.9h0l-1.49-4.91h0l-1.42-4.92h0l-1.35-4.94-1.28-5h0l-1.22-5h0l-1.15-5h0l-1.08-5h0l-1-5-0.95-5h0l-0.88-5h0l-0.81-5h0l-0.75-5h0l-0.68-5h0l-0.62-5.06h0l-0.55-5.07-0.49-5.08-0.42-5.09h0l-0.36-5.09h0l-0.29-5.1h0l-0.23-5.11h0l-0.39-5.12h0l-0.3-5.13h0l-0.26-5.14h0l-0.2-5.14m71.44-373.4,0.6-3.31a5.85,5.85,0,0,1,3.44-4.28l20.39-8.76a8.69,8.69,0,0,1,6.17-.26l11.33,3.76h0l0.16,0.06h0l0.16,0.06h0l0.16,0.07h0l0.15,0.07h0l0.15,0.07h0l0.15,0.08h0l0.14,0.08h0l0.14,0.09h0l0.14,0.09h0l0.14,0.09h0l0.14,0.09h0l0.13,0.1h0l0.13,0.1h0l0.13,0.1,0.13,0.1h0l0.12,0.1,0.12,0.1h0l0.12,0.1h0l0.12,0.11h0l0.12,0.1,0.12,0.11h0l0.11,0.11h0l0.11,0.11,0.11,0.11h0l0.1,0.11h0l0.1,0.11h0l0.1,0.11h0l0.1,0.12h0l0.18,0.23h0l0.08,0.12,0.08,0.12h0l0.07,0.12h0l0.07,0.12h0l0.07,0.13h0l0.06,0.13h0l0.05,0.13h0l0.05,0.13h0l0,0.13h0l0,0.13h0l0,0.14h0l0,0.13h0l0,0.14h0l0,0.14h0l0,0.14h0l0,0.14h0v0.14h0v0.14h0v0.28h0v0.14h0v0.14l-0.4,15.93q63.51,10.48,127.61,16.63m-22.51-2.3a0.18,0.18,0,0,1-.16-0.2l0.22-3.44a5.85,5.85,0,0,1,3-4.58l19.47-10.64a8.69,8.69,0,0,1,6.11-.84l11.64,2.68h0l0.12,0,0.13,0h0l0.13,0.05h0l0.13,0.05,0.13,0.05h0l0.13,0.06,0.13,0.05h0l0.14,0.06h0l0.14,0.06h0l0.14,0.07h0l0.14,0.07,0.14,0.07h0l0.14,0.07h0l0.14,0.08h0l0.14,0.08,0.14,0.08h0l0.14,0.09h0l0.14,0.09h0l0.14,0.1,0.14,0.1h0l0.14,0.1h0l0.14,0.11,0.14,0.11h0l0.13,0.11h0l0.13,0.11h0l0.13,0.12h0l0.12,0.12h0l0.12,0.12h0l0.12,0.12h0l0.11,0.12h0l0.1,0.13h0l0.1,0.13h0l0.09,0.13h0l0.09,0.13h0l0.08,0.13h0l0.07,0.13h0l0.07,0.13h0l0.06,0.13h0l0.06,0.13h0l0.05,0.13h0l0,0.13h0l0,0.13h0l0,0.13h0l0,0.13h0l0,0.13h0l0,0.12h0l0,0.12h0l0,0.12h0v0.12h0v0.12h0v0.12h0v0.12h0l1.11,16.08q59,5.15,118.2,7.14m227.43-9.41q64.07-6.14,127.61-16.63l-0.4-15.93v-0.14h0v-0.14h0v-0.28h0v-0.14h0v-0.14h0l0-.14h0l0-.14h0l0-.14h0l0-.14h0l0-.13h0l0-.14h0l0-.13h0l0-.13h0l0.05-.13h0l0.05-.13h0l0.06-.13h0l0.07-.13h0l0.07-.12h0l0.07-.12h0l0.08-.12,0.08-.12h0l0.18-.23h0l0.1-.12h0l0.1-.11h0l0.1-.11h0l0.1-.11h0l0.22-.22h0l0.11-.11h0l0.12-.11,0.12-.1h0l0.12-.11h0l0.12-.1h0l0.12-.1,0.12-.1h0l0.13-.1,0.13-.1h0l0.13-.1h0l0.13-.1h0l0.14-.09h0l0.14-.09h0l0.14-.09h0l0.14-.09h0l0.14-.08h0l0.15-.08h0l0.15-.07h0l0.15-.07h0l0.16-.07h0l0.16-.06h0l0.16-.06h0l11.33-3.76a8.69,8.69,0,0,1,6.17.26l20.39,8.76a5.85,5.85,0,0,1,3.44,4.28l0.6,3.31m-22.9,4.88q38.16-7.56,75.57-18.37a14.36,14.36,0,0,1,18.34,13.8l-0.15,128.54m-221.93-105.49-0.34-3.6a5.85,5.85,0,0,0-3-4.58l-19.47-10.64a8.69,8.69,0,0,0-6.11-.84l-11.64,2.68h0l-0.12,0-0.13,0h0l-0.13.05h0l-0.13.05-0.13.05h0l-0.13.06-0.13.05h0l-0.14.06h0l-0.14.06h0l-0.14.07h0l-0.14.07-0.14.07h0l-0.14.07h0l-0.14.08h0l-0.14.08-0.14.08h0l-0.14.09h0l-0.14.09h0l-0.14.1-0.14.1h0l-0.14.1h0l-0.14.11-0.14.11h0l-0.13.11h0l-0.13.11h0l-0.13.12h0l-0.12.12h0l-0.12.12h0l-0.12.12h0l-0.11.12h0l-0.1.13h0l-0.1.13h0l-0.09.13h0l-0.09.13h0l-0.08.13h0l-0.07.13h0l-0.07.13h0l-0.06.13h0l-0.06.13h0l-0.05.13h0l0,0.13h0l0,0.13h0l0,0.13h0l0,0.13h0l0,0.13h0l0,0.12h0l0,0.12h0l0,0.12h0v0.12h0v0.12h0v0.12h0v0.12h0l-1.11,16.08q-59,5.15-118.19,7.14m-82.54,6.32v-6.24l-0.17,0-2.38-.33h0l-2.22-.34h0l-2.23-.37h0l-2.25-.41h0l-2.26-.44h0l-2.27-.47-2.28-.5-2.3-.54h0l-2.31-.57-2.32-.6-2.33-.63h0l-2.34-.67h0l-2.36-.7h0l-2.37-.73h0l-2.38-.77-2.39-.81h0l-2.4-.84h0l-2.41-.87h0l-2.42-.91h0l-2.43-.95h0l-2.44-1-2.45-1h0l-2.46-1.06-2.47-1.1-2.47-1.14h0l-2.47-1.18h0l-2.48-1.22-2.49-1.27h0l-2.49-1.31h0l-2.49-1.35h0l-2.49-1.4h0l-2.49-1.45h0l-2.49-1.49h0l-2.49-1.54h0l-2.48-1.59h0L1187,1208h0l-2.47-1.68-2.46-1.73h0l-2.45-1.77h0l-2.43-1.82h0l-2.42-1.87h0l-2.4-1.92h0l-2.38-2h0l-2.37-2h0l-2.34-2.06h0l-2.32-2.09h0l-2.3-2.14h0l-2.27-2.19h0l-2.24-2.23h0l-2.21-2.27h0l-2.18-2.31h0l-2.15-2.35h0l-2.11-2.39h0l-2.08-2.43h0l-2-2.46-2-2.5h0l-2-2.53h0l-1.92-2.56h0l-1.88-2.6h0l-1.84-2.62-1.79-2.65h0l-1.75-2.68h0l-1.71-2.7h0l-1.66-2.73h0l-1.62-2.75h0l-1.57-2.77h0l-1.52-2.79h0l-1.48-2.8h0l-1.43-2.81h0l-1.39-2.83h0l-1.35-2.84h0l-1.3-2.85-1.26-2.86h0l-1.21-2.86h0l-1.17-2.87h0l-1.13-2.87h0l-1.08-2.87-1-2.87h0l-1-2.87h0l-1-2.86h0l-0.92-2.85-0.88-2.85h0l-0.84-2.84h0l-0.8-2.83-0.77-2.81h0l-0.73-2.8h0l-0.69-2.79h0l-0.66-2.77h0l-1.22-5.49h0l-1.09-5.41h0l-1-5.31h0l-0.86-5.21h0l-0.75-5.1h0l-0.66-5h0l-0.57-4.86h0l-0.48-4.73L1093,1031h0l-0.34-4.46h0l-0.27-4.31h0l-0.22-4.17-0.16-4h0l-0.12-3.87h0l-0.07-3.71,0-3.56h0v-3.42a5.57,5.57,0,0,1,3.33-4.54,18.32,18.32,0,0,1,5.31-1.4,8.69,8.69,0,0,1,6.77,2.21l0,0a311.63,311.63,0,0,0,133.38,93.49h0a206.75,206.75,0,0,0,72.1,13h1.56a206.75,206.75,0,0,0,72.1-13h0a311.63,311.63,0,0,0,133.38-93.49l0,0a8.69,8.69,0,0,1,6.77-2.21,18.32,18.32,0,0,1,5.31,1.4,5.57,5.57,0,0,1,3.33,4.54v3.42h0l0,3.56-0.07,3.71h0l-0.12,3.87h0l-0.16,4-0.22,4.17h0l-0.27,4.31h0L1534,1031h0l-0.41,4.59-0.48,4.73h0l-0.57,4.86h0l-0.66,5h0l-0.75,5.1h0l-0.86,5.21h0l-1,5.31h0l-1.09,5.41h0l-1.22,5.49h0l-0.66,2.77h0l-0.69,2.79h0l-0.73,2.8h0l-0.77,2.81-0.8,2.83h0l-0.84,2.84h0l-0.88,2.85-0.92,2.85h0l-1,2.86h0l-1,2.87h0l-1,2.87-1.08,2.87h0l-1.13,2.87h0l-1.17,2.87h0l-1.21,2.86h0l-1.26,2.86-1.3,2.85h0l-1.35,2.84h0l-1.39,2.83h0l-1.43,2.81h0l-1.48,2.8h0l-1.52,2.79h0l-1.57,2.77h0l-1.62,2.75h0l-1.66,2.73h0l-1.71,2.7h0l-1.75,2.68h0l-1.79,2.65-1.84,2.62h0l-1.88,2.6h0l-1.92,2.56h0l-2,2.53h0l-2,2.5-2,2.46h0l-2.08,2.43h0l-2.11,2.39h0l-2.15,2.35h0l-2.18,2.31h0l-2.21,2.27h0l-2.24,2.23h0l-2.27,2.19h0l-2.3,2.14h0l-2.32,2.09h0l-2.34,2.06h0l-2.37,2h0l-2.38,2h0l-2.4,1.92h0l-2.42,1.87h0l-2.43,1.82h0l-2.45,1.77h0l-2.46,1.73L1440,1208h0l-2.47,1.63h0l-2.48,1.59h0l-2.49,1.54h0l-2.49,1.49h0l-2.49,1.45h0l-2.49,1.4h0l-2.49,1.35h0l-2.49,1.31h0l-2.49,1.27-2.48,1.22h0l-2.47,1.18h0l-2.47,1.14-2.47,1.1-2.46,1.06h0l-2.45,1-2.44,1h0l-2.43.95h0l-2.42.91h0l-2.41.87h0l-2.4.84h0l-2.39.81-2.38.77h0l-2.37.73h0l-2.36.7h0l-2.34.67h0l-2.33.63-2.32.6-2.31.57h0l-2.3.54-2.28.5-2.27.47h0l-2.26.44h0l-2.25.41h0l-2.23.37h0l-2.22.34h0l-2.21.31h0l-0.33,0v6.24" transform="translate(0 -53.98)"/><path id="path1319-5" data-name="path1319" class="cls-1" d="M1215.16,1159.84l33.57,8.06a8.16,8.16,0,0,0,9.69-10.4l-15.53-49.15a8.34,8.34,0,0,0-6.28-5.66l-42.47-10.19a8.34,8.34,0,0,0-8.17,2.19l-36.14,36.75a8.16,8.16,0,0,0,3.91,13.66l33.57,8.06" transform="translate(0 -53.98)"/><path id="path1349-5" data-name="path1349" class="cls-1" d="M1474.53,1234v0" transform="translate(0 -53.98)"/><path id="path1361-5" data-name="path1361" class="cls-1" d="M1535.14,999.36h0" transform="translate(0 -53.98)"/><path id="path1373-5" data-name="path1373" class="cls-1" d="M1092.12,999.36h0" transform="translate(0 -53.98)"/><path id="path1385-5" data-name="path1385" class="cls-1" d="M1152.74,1234v0" transform="translate(0 -53.98)"/><path id="path1483-5" data-name="path1483" class="cls-1" d="M1626.29,1215.12h0" transform="translate(0 -53.98)"/><path id="path1523-5" data-name="path1523" class="cls-1" d="M1440,1153.16l33.57-8.06a8.16,8.16,0,0,0,3.91-13.66l-36.14-36.75a8.34,8.34,0,0,0-8.17-2.19l-42.47,10.19a8.34,8.34,0,0,0-6.28,5.66l-15.53,49.15a8.16,8.16,0,0,0,9.69,10.4l33.57-8.06" transform="translate(0 -53.98)"/><path id="path1529-5" data-name="path1529" class="cls-1" d="M1299,1214.52l-34.52-.18a8.5,8.5,0,0,1-7.36-12.68l27.25-48.31a8.5,8.5,0,0,1,7.45-4.33h43.64a8.5,8.5,0,0,1,7.45,4.33l27.25,48.31a8.5,8.5,0,0,1-7.36,12.68l-34.52.18" transform="translate(0 -53.98)"/></g><line class="cls-2" x1="933.8" y1="1284.28" x2="931.98" y2="1313.14"/><line class="cls-2" x1="1693.47" y1="1284.28" x2="1695.28" y2="1313.14"/><g id="layer1-6" data-name="layer1"><path id="path819-6" data-name="path819" class="cls-1" d="M1860.06,1396.29l4.74-75.38m149.6-155.29,36.07,32m-36.33-32.24,0.27,0.24m-49.79-142.81,7.34,48m324.49,126.79,36.33-32.24m42.24-94.92,7.28-47.66m-7.34,48,0.05-.36m107.09,250.44,4.74,75.38m-743.17-189.93a14.35,14.35,0,0,1,18.34-13.8q37.37,10.8,75.57,18.37m765.5,124-0.28,244.55,0,5.14h0l0,5.14h0l-0.1,5.13h0l-0.17,5.12h0l-0.23,5.11h0l-0.29,5.1h0l-0.36,5.09h0l-0.42,5.09-0.49,5.08-0.55,5.07h0l-0.62,5.06h0l-0.68,5h0l-0.75,5h0l-0.81,5h0l-0.88,5h0l-0.95,5-1,5h0l-1.08,5h0l-1.15,5h0l-1.22,5h0l-1.28,5-1.35,4.94h0l-1.42,4.92h0l-1.49,4.91h0l-1.55,4.9h0l-1.62,4.88h0l-1.69,4.87-1.76,4.85h0l-1.83,4.83h0l-1.9,4.81-2,4.8h0l-2,4.78-2.1,4.75h0l-2.17,4.73h0l-2.24,4.71h0l-2.31,4.68-2.38,4.66h0l-2.44,4.63h0l-2.51,4.6h0l-2.58,4.57h0l-2.64,4.54h0l-2.71,4.5h0l-2.78,4.47h0l-2.84,4.43h0l-2.9,4.39h0l-3,4.35h0l-3,4.31h0l-3.09,4.27h0l-3.15,4.22h0l-3.22,4.18-3.27,4.13h0l-3.34,4.08h0l-3.39,4h0l-3.45,4h0l-3.51,3.91h0l-3.57,3.86h0l-3.62,3.79h0l-3.68,3.74-3.73,3.67h0l-3.78,3.61h0l-3.84,3.54h0l-3.89,3.48h0l-3.94,3.4h0l-4,3.33h0l-4,3.26h0l-4.09,3.19h0l-4.14,3.12h0l-4.19,3h0l-4.23,3h0l-4.28,2.89h0l-4.33,2.81h0l-4.37,2.73h0l-4.42,2.65h0l-4.46,2.57h0l-4.5,2.49h0l-4.55,2.41h0l-4.59,2.33h0l-4.63,2.25h0l-4.67,2.17h0l-4.71,2.09h0l-4.75,2h0l-4.79,1.92h0l-4.83,1.84h0l-4.87,1.76h0l-4.91,1.68h0l-4.95,1.6h0l-5,1.52h0l-5,1.43h0l-5.06,1.35h0l-5.1,1.28h0l-5.13,1.19h0l-5.17,1.11h0l-5.21,1h0l-5.24,1h0l-5.28.88h0l-5.31.8h0l-5.35.72h0l-5.38.64h0l-5.42.56h0l-5.45.48h0l-5.49.4h0l-5.52.33h0l-5.56.25h0l-5.6.17H2069.58l-5.6-.17h0l-5.56-.25h0l-5.52-.33h0l-5.49-.4h0l-5.45-.48h0l-5.42-.56h0l-5.38-.64h0l-5.35-.72h0l-5.31-.8h0l-5.28-.88h0l-5.24-1h0l-5.21-1h0l-5.17-1.11h0l-5.13-1.19h0l-5.1-1.28h0l-5.06-1.35h0l-5-1.43h0l-5-1.52h0l-4.95-1.6h0l-4.91-1.68h0l-4.87-1.76h0l-4.83-1.84h0l-4.79-1.92h0l-4.75-2h0l-4.71-2.09h0l-4.67-2.17h0l-4.63-2.25h0l-4.59-2.33h0l-4.55-2.41h0l-4.5-2.49h0l-4.46-2.57h0l-4.42-2.65h0l-4.37-2.73h0l-4.33-2.81h0l-4.28-2.89h0l-4.23-3h0l-4.19-3h0l-4.14-3.12h0l-4.09-3.19h0l-4-3.26h0l-4-3.33h0L1867,1866h0l-3.89-3.48h0l-3.84-3.54h0l-3.78-3.61h0l-3.73-3.67-3.68-3.74h0l-3.62-3.79h0l-3.57-3.86h0l-3.51-3.91h0l-3.45-4h0l-3.39-4h0l-3.34-4.08h0l-3.27-4.13-3.22-4.18h0l-3.15-4.22h0l-3.09-4.27h0l-3-4.31h0l-3-4.35h0l-2.9-4.39h0l-2.84-4.43h0l-2.78-4.47h0l-2.71-4.5h0l-2.64-4.54h0l-2.58-4.57h0l-2.51-4.6h0l-2.44-4.63h0l-2.38-4.66-2.31-4.68h0l-2.24-4.71h0l-2.17-4.73h0l-2.1-4.75-2-4.78h0l-2-4.8-1.9-4.81h0l-1.83-4.83h0l-1.76-4.85-1.69-4.87h0l-1.62-4.88h0l-1.55-4.9h0l-1.49-4.91h0l-1.42-4.92h0l-1.35-4.94-1.28-5h0l-1.22-5h0l-1.15-5h0l-1.08-5h0l-1-5-0.95-5h0l-0.88-5h0l-0.81-5h0l-0.75-5h0l-0.68-5h0l-0.62-5.06h0l-0.55-5.07-0.49-5.08-0.42-5.09h0l-0.36-5.09h0l-0.29-5.1h0l-0.23-5.11h0l-0.39-5.12h0l-0.3-5.13h0l-0.26-5.14h0l-0.2-5.14m71.44-373.4,0.6-3.31a5.85,5.85,0,0,1,3.44-4.28l20.39-8.76a8.69,8.69,0,0,1,6.17-.26l11.33,3.76h0l0.16,0.06h0l0.16,0.06h0l0.16,0.07h0l0.15,0.07h0l0.15,0.07h0l0.15,0.08h0l0.14,0.08h0l0.14,0.09h0l0.14,0.09h0l0.14,0.09h0l0.14,0.09h0l0.13,0.1h0l0.13,0.1h0l0.13,0.1,0.13,0.1h0l0.12,0.1,0.12,0.1h0l0.12,0.1h0l0.12,0.11h0l0.12,0.1,0.12,0.11h0l0.11,0.11h0l0.11,0.11,0.11,0.11h0l0.1,0.11h0l0.1,0.11h0l0.1,0.11h0l0.1,0.12h0l0.18,0.23h0l0.08,0.12,0.08,0.12h0l0.07,0.12h0l0.07,0.12h0l0.07,0.13h0l0.06,0.13h0l0.05,0.13h0l0.05,0.13h0l0,0.13h0l0,0.13h0l0,0.14h0l0,0.13h0l0,0.14h0l0,0.14h0l0,0.14h0l0,0.14h0v0.14h0v0.14h0v0.28h0v0.14h0v0.14l-0.4,15.93q63.51,10.48,127.61,16.63m-22.51-2.3a0.18,0.18,0,0,1-.16-0.2l0.22-3.44a5.85,5.85,0,0,1,3-4.58l19.47-10.64a8.69,8.69,0,0,1,6.11-.84l11.64,2.68h0l0.12,0,0.13,0h0l0.13,0.05h0l0.13,0.05,0.13,0.05h0l0.13,0.06,0.13,0.05h0l0.14,0.06h0l0.14,0.06h0l0.14,0.07h0l0.14,0.07,0.14,0.07h0l0.14,0.07h0l0.14,0.08h0l0.14,0.08,0.14,0.08h0l0.14,0.09h0l0.14,0.09h0l0.14,0.1,0.14,0.1h0l0.14,0.1h0l0.14,0.11,0.14,0.11h0l0.13,0.11h0l0.13,0.11h0l0.13,0.12h0l0.12,0.12h0l0.12,0.12h0l0.12,0.12h0l0.11,0.12h0l0.1,0.13h0l0.1,0.13h0l0.09,0.13h0l0.09,0.13h0l0.08,0.13h0l0.07,0.13h0l0.07,0.13h0l0.06,0.13h0l0.06,0.13h0l0.05,0.13h0l0,0.13h0l0,0.13h0l0,0.13h0l0,0.13h0l0,0.13h0l0,0.12h0l0,0.12h0l0,0.12h0v0.12h0v0.12h0v0.12h0v0.12h0l1.11,16.08q59,5.15,118.2,7.14m227.43-9.41q64.07-6.14,127.61-16.63l-0.4-15.93v-0.14h0v-0.14h0v-0.28h0v-0.14h0v-0.14h0l0-.14h0l0-.14h0l0-.14h0l0-.14h0l0-.13h0l0-.14h0l0-.13h0l0-.13h0l0.05-.13h0l0.05-.13h0l0.06-.13h0l0.07-.13h0l0.07-.12h0l0.07-.12h0l0.08-.12,0.08-.12h0l0.18-.23h0l0.1-.12h0l0.1-.11h0l0.1-.11h0l0.1-.11h0l0.22-.22h0l0.11-.11h0l0.12-.11,0.12-.1h0l0.12-.11h0l0.12-.1h0l0.12-.1,0.12-.1h0l0.13-.1,0.13-.1h0l0.13-.1h0l0.13-.1h0l0.14-.09h0l0.14-.09h0l0.14-.09h0l0.14-.09h0l0.14-.08h0l0.15-.08h0l0.15-.07h0l0.15-.07h0l0.16-.07h0l0.16-.06h0l0.16-.06h0l11.33-3.76a8.69,8.69,0,0,1,6.17.26l20.39,8.76a5.85,5.85,0,0,1,3.44,4.28l0.6,3.31m-22.9,4.88q38.16-7.56,75.57-18.37a14.36,14.36,0,0,1,18.34,13.8l-0.15,128.54m-221.93-105.49-0.34-3.6a5.85,5.85,0,0,0-3-4.58l-19.47-10.64a8.69,8.69,0,0,0-6.11-.84l-11.64,2.68h0l-0.12,0-0.13,0h0l-0.13.05h0l-0.13.05-0.13.05h0l-0.13.06-0.13.05h0l-0.14.06h0l-0.14.06h0l-0.14.07h0l-0.14.07-0.14.07h0l-0.14.07h0l-0.14.08h0l-0.14.08-0.14.08h0l-0.14.09h0l-0.14.09h0l-0.14.1-0.14.1h0l-0.14.1h0l-0.14.11-0.14.11h0l-0.13.11h0l-0.13.11h0l-0.13.12h0l-0.12.12h0l-0.12.12h0l-0.12.12h0l-0.11.12h0l-0.1.13h0l-0.1.13h0l-0.09.13h0l-0.09.13h0l-0.08.13h0l-0.07.13h0l-0.07.13h0l-0.06.13h0l-0.06.13h0l-0.05.13h0l0,0.13h0l0,0.13h0l0,0.13h0l0,0.13h0l0,0.13h0l0,0.12h0l0,0.12h0l0,0.12h0v0.12h0v0.12h0v0.12h0v0.12h0l-1.11,16.08q-59,5.15-118.19,7.14m-82.54,6.32v-6.24l-0.17,0-2.38-.33h0l-2.22-.34h0l-2.23-.37h0l-2.25-.41h0l-2.26-.44h0l-2.27-.47-2.28-.5-2.3-.54h0l-2.31-.57-2.32-.6-2.33-.63h0l-2.34-.67h0l-2.36-.7h0l-2.37-.73h0l-2.38-.77-2.39-.81h0l-2.4-.84h0l-2.41-.87h0l-2.42-.91h0l-2.43-.95h0l-2.44-1-2.45-1h0l-2.46-1.06-2.47-1.1-2.47-1.14h0l-2.47-1.18h0l-2.48-1.22-2.49-1.27h0l-2.49-1.31h0l-2.49-1.35h0l-2.49-1.4h0l-2.49-1.45h0l-2.49-1.49h0l-2.49-1.54h0l-2.48-1.59h0L2047,1208h0l-2.47-1.68-2.46-1.73h0l-2.45-1.77h0l-2.43-1.82h0l-2.42-1.87h0l-2.4-1.92h0l-2.38-2h0l-2.37-2h0l-2.34-2.06h0l-2.32-2.09h0l-2.3-2.14h0l-2.27-2.19h0l-2.24-2.23h0l-2.21-2.27h0l-2.18-2.31h0l-2.15-2.35h0l-2.11-2.39h0l-2.08-2.43h0l-2-2.46-2-2.5h0l-2-2.53h0l-1.92-2.56h0l-1.88-2.6h0l-1.84-2.62-1.79-2.65h0l-1.75-2.68h0l-1.71-2.7h0l-1.66-2.73h0l-1.62-2.75h0l-1.57-2.77h0l-1.52-2.79h0l-1.48-2.8h0l-1.43-2.81h0l-1.39-2.83h0l-1.35-2.84h0l-1.3-2.85-1.26-2.86h0l-1.21-2.86h0l-1.17-2.87h0l-1.13-2.87h0l-1.08-2.87-1-2.87h0l-1-2.87h0l-1-2.86h0l-0.92-2.85-0.88-2.85h0l-0.84-2.84h0l-0.8-2.83-0.77-2.81h0l-0.73-2.8h0l-0.69-2.79h0l-0.66-2.77h0l-1.22-5.49h0l-1.09-5.41h0l-1-5.31h0l-0.86-5.21h0l-0.75-5.1h0l-0.66-5h0l-0.57-4.86h0l-0.48-4.73L1953,1031h0l-0.34-4.46h0l-0.27-4.31h0l-0.22-4.17-0.16-4h0l-0.12-3.87h0l-0.07-3.71,0-3.56h0v-3.42a5.57,5.57,0,0,1,3.33-4.54,18.32,18.32,0,0,1,5.31-1.4,8.69,8.69,0,0,1,6.77,2.21l0,0a311.63,311.63,0,0,0,133.38,93.49h0a206.75,206.75,0,0,0,72.1,13h1.56a206.75,206.75,0,0,0,72.1-13h0a311.63,311.63,0,0,0,133.38-93.49l0,0a8.69,8.69,0,0,1,6.77-2.21,18.32,18.32,0,0,1,5.31,1.4,5.57,5.57,0,0,1,3.33,4.54v3.42h0l0,3.56-0.07,3.71h0l-0.12,3.87h0l-0.16,4-0.22,4.17h0l-0.27,4.31h0l-0.34,4.46h0l-0.41,4.59-0.48,4.73h0l-0.57,4.86h0l-0.66,5h0l-0.75,5.1h0l-0.86,5.21h0l-1,5.31h0l-1.09,5.41h0l-1.22,5.49h0l-0.66,2.77h0l-0.69,2.79h0l-0.73,2.8h0l-0.77,2.81-0.8,2.83h0l-0.84,2.84h0l-0.88,2.85-0.92,2.85h0l-1,2.86h0l-1,2.87h0l-1,2.87-1.08,2.87h0l-1.13,2.87h0l-1.17,2.87h0l-1.21,2.86h0l-1.26,2.86-1.3,2.85h0l-1.35,2.84h0l-1.39,2.83h0l-1.43,2.81h0l-1.48,2.8h0l-1.52,2.79h0l-1.57,2.77h0l-1.62,2.75h0l-1.66,2.73h0l-1.71,2.7h0l-1.75,2.68h0l-1.79,2.65-1.84,2.62h0l-1.88,2.6h0l-1.92,2.56h0l-2,2.53h0l-2,2.5-2,2.46h0l-2.08,2.43h0l-2.11,2.39h0l-2.15,2.35h0l-2.18,2.31h0l-2.21,2.27h0l-2.24,2.23h0l-2.27,2.19h0l-2.3,2.14h0l-2.32,2.09h0l-2.34,2.06h0l-2.37,2h0l-2.38,2h0l-2.4,1.92h0l-2.42,1.87h0l-2.43,1.82h0l-2.45,1.77h0l-2.46,1.73L2300,1208h0l-2.47,1.63h0l-2.48,1.59h0l-2.49,1.54h0l-2.49,1.49h0l-2.49,1.45h0l-2.49,1.4h0l-2.49,1.35h0l-2.49,1.31h0l-2.49,1.27-2.48,1.22h0l-2.47,1.18h0l-2.47,1.14-2.47,1.1-2.46,1.06h0l-2.45,1-2.44,1h0l-2.43.95h0l-2.42.91h0l-2.41.87h0l-2.4.84h0l-2.39.81-2.38.77h0l-2.37.73h0l-2.36.7h0l-2.34.67h0l-2.33.63-2.32.6-2.31.57h0l-2.3.54-2.28.5-2.27.47h0l-2.26.44h0l-2.25.41h0l-2.23.37h0l-2.22.34h0l-2.21.31h0l-0.33,0v6.24" transform="translate(0 -53.98)"/><path id="path1319-6" data-name="path1319" class="cls-1" d="M2075.14,1159.84l33.57,8.06a8.16,8.16,0,0,0,9.69-10.4l-15.53-49.15a8.34,8.34,0,0,0-6.28-5.66l-42.47-10.19a8.34,8.34,0,0,0-8.17,2.19l-36.14,36.75a8.16,8.16,0,0,0,3.91,13.66l33.57,8.06" transform="translate(0 -53.98)"/><path id="path1349-6" data-name="path1349" class="cls-1" d="M2334.51,1234v0" transform="translate(0 -53.98)"/><path id="path1361-6" data-name="path1361" class="cls-1" d="M2395.13,999.36h0" transform="translate(0 -53.98)"/><path id="path1373-6" data-name="path1373" class="cls-1" d="M1952.11,999.36h0" transform="translate(0 -53.98)"/><path id="path1385-6" data-name="path1385" class="cls-1" d="M2012.72,1234v0" transform="translate(0 -53.98)"/><path id="path1483-6" data-name="path1483" class="cls-1" d="M2486.28,1215.12h0" transform="translate(0 -53.98)"/><path id="path1523-6" data-name="path1523" class="cls-1" d="M2299.95,1153.16l33.57-8.06a8.16,8.16,0,0,0,3.91-13.66l-36.14-36.75a8.34,8.34,0,0,0-8.17-2.19l-42.47,10.19a8.34,8.34,0,0,0-6.28,5.66l-15.53,49.15a8.16,8.16,0,0,0,9.69,10.4l33.57-8.06" transform="translate(0 -53.98)"/><path id="path1529-6" data-name="path1529" class="cls-1" d="M2159,1214.52l-34.52-.18a8.5,8.5,0,0,1-7.36-12.68l27.25-48.31a8.5,8.5,0,0,1,7.45-4.33h43.64a8.5,8.5,0,0,1,7.45,4.33l27.25,48.31a8.5,8.5,0,0,1-7.36,12.68l-34.52.18" transform="translate(0 -53.98)"/></g><line class="cls-2" x1="1793.78" y1="1284.28" x2="1791.97" y2="1313.14"/><line class="cls-2" x1="2553.45" y1="1284.28" x2="2555.27" y2="1313.14"/><g id="layer1-7" data-name="layer1"><path id="path1418-5" class="cls-1" d="M2278.27,1982.5a4.71,4.71,0,0,1-4.72,4.71h-5a8.4,8.4,0,0,1-8.4-8.4V1962a8.32,8.32,0,0,0-8.32-8.32H2234.5a8.32,8.32,0,0,0-8.32,8.32m18.08,20.53a4.71,4.71,0,0,1-4.72,4.71h-5a8.4,8.4,0,0,1-8.4-8.4V1962a8.32,8.32,0,0,0-8.32-8.32h-17.37a8.32,8.32,0,0,0-8.32,8.32m18.08,20.53a4.71,4.71,0,0,1-4.72,4.71h-5a8.4,8.4,0,0,1-8.4-8.4V1962a8.32,8.32,0,0,0-8.32-8.32h-17.37a8.32,8.32,0,0,0-8.32,8.32m18.08,20.53a4.71,4.71,0,0,1-4.72,4.71h-5a8.4,8.4,0,0,1-8.4-8.4V1962a8.32,8.32,0,0,0-8.32-8.32h-17.37a8.32,8.32,0,0,0-8.32,8.32m18.08,20.53a4.71,4.71,0,0,1-4.72,4.71h-5a8.4,8.4,0,0,1-8.4-8.4V1962a8.32,8.32,0,0,0-8.32-8.32h-17.37a8.32,8.32,0,0,0-8.32,8.32m18.08,20.53a4.71,4.71,0,0,1-4.72,4.71h-5a8.4,8.4,0,0,1-8.4-8.4V1962a8.32,8.32,0,0,0-8.32-8.32h-17.37a8.32,8.32,0,0,0-8.32,8.32m18.08,20.53a4.71,4.71,0,0,1-4.72,4.71h-5a8.4,8.4,0,0,1-8.4-8.4V1962c0-4.6-5.5-8.32-10.1-8.32h-15.59a8.33,8.33,0,0,0-8.33,8.32m18.08,20.53a4.71,4.71,0,0,1-4.72,4.71h-5a8.4,8.4,0,0,1-8.4-8.4V1962a8.32,8.32,0,0,0-8.32-8.32h-17.37a8.33,8.33,0,0,0-8.33,8.32m18.08,20.53a4.71,4.71,0,0,1-4.71,4.71h-5a8.4,8.4,0,0,1-8.4-8.4V1962c0-4.6-3.73-11.32-8.32-11.32H343.37a15.05,15.05,0,0,0-15.05,15.06v43.23c0,8.31,6.74,12.05,15.05,12.05h14.46a8.32,8.32,0,0,0,8.32-8.32" transform="translate(0 -53.98)"/><path id="path1973" class="cls-1" d="M1570.19,2001.45h74.37a0.75,0.75,0,0,1,.75.75v1.06a0.76,0.76,0,0,0,.81.76l4.24-.26,40.9-9.44a4.27,4.27,0,0,0,3.31-4.16v-5.66a4.27,4.27,0,0,0-3.31-4.16l-40.9-9.44-4.24-.26a0.76,0.76,0,0,0-.81.76v1.06a0.75,0.75,0,0,1-.75.75h-74.37m-514,.08v-0.08H981.78a0.75,0.75,0,0,1-.75-0.75v-1.06a0.76,0.76,0,0,0-.81-0.76l-4.24.26-40.9,9.44a4.27,4.27,0,0,0-3.31,4.16v5.66a4.27,4.27,0,0,0,3.31,4.16l40.9,9.44,4.24,0.26a0.76,0.76,0,0,0,.81-0.76v-1.06a0.75,0.75,0,0,1,.75-0.75h74.37" transform="translate(0 -53.98)"/><g id="global-translation-frame"><path id="path1418" class="cls-1" d="M348.08,1992.14a4.71,4.71,0,0,1,4.72-4.71h5a8.4,8.4,0,0,1,8.4,8.4v16.84a8.32,8.32,0,0,0,8.32,8.32h17.37a8.32,8.32,0,0,0,8.32-8.32m-18.08-20.53a4.71,4.71,0,0,1,4.72-4.71h5a8.4,8.4,0,0,1,8.4,8.4v16.84a8.32,8.32,0,0,0,8.32,8.32h17.37a8.32,8.32,0,0,0,8.32-8.32m-18.08-20.53a4.71,4.71,0,0,1,4.72-4.71h5a8.4,8.4,0,0,1,8.4,8.4v16.84a8.32,8.32,0,0,0,8.32,8.32h17.37a8.32,8.32,0,0,0,8.32-8.32m-18.08-20.53a4.71,4.71,0,0,1,4.72-4.71h5a8.4,8.4,0,0,1,8.4,8.4v16.84a8.32,8.32,0,0,0,8.32,8.32H493.9a8.32,8.32,0,0,0,8.32-8.32m-18.08-20.53a4.71,4.71,0,0,1,4.72-4.71h5a8.4,8.4,0,0,1,8.4,8.4v16.84a8.32,8.32,0,0,0,8.32,8.32h17.37a8.32,8.32,0,0,0,8.32-8.32m-18.08-20.53a4.71,4.71,0,0,1,4.72-4.71h5a8.4,8.4,0,0,1,8.4,8.4v16.84a8.32,8.32,0,0,0,8.32,8.32h17.37a8.32,8.32,0,0,0,8.32-8.32m-18.08-20.53a4.71,4.71,0,0,1,4.72-4.71h5a8.4,8.4,0,0,1,8.4,8.4v16.84c0,4.6,5.5,8.32,10.1,8.32h15.59a8.33,8.33,0,0,0,8.33-8.32m-18.08-20.53a4.71,4.71,0,0,1,4.72-4.71h5a8.4,8.4,0,0,1,8.4,8.4v16.84a8.32,8.32,0,0,0,8.32,8.32H630a8.33,8.33,0,0,0,8.33-8.32M2283,2024a15.05,15.05,0,0,0,15.05-15.05V1965.7c0-8.31-6.74-12.05-15.05-12.05h-14.46a8.32,8.32,0,0,0-8.32,8.32m-1640,30.17a4.71,4.71,0,0,1,4.71-4.71h5a8.4,8.4,0,0,1,8.4,8.4v16.84c0,4.6,3.73,11.32,8.32,11.32" transform="translate(0 -53.98)"/></g></g><g id="layer1-8" data-name="layer1"><path id="path1418-5-2" data-name="path1418-5" class="cls-1" d="M2278.27,2055.84a4.71,4.71,0,0,1-4.72,4.71h-5a8.4,8.4,0,0,1-8.4-8.4v-16.84a8.32,8.32,0,0,0-8.32-8.32H2234.5a8.32,8.32,0,0,0-8.32,8.32m18.08,20.53a4.71,4.71,0,0,1-4.72,4.71h-5a8.4,8.4,0,0,1-8.4-8.4v-16.84a8.32,8.32,0,0,0-8.32-8.32h-17.37a8.32,8.32,0,0,0-8.32,8.32m18.08,20.53a4.71,4.71,0,0,1-4.72,4.71h-5a8.4,8.4,0,0,1-8.4-8.4v-16.84a8.32,8.32,0,0,0-8.32-8.32h-17.37a8.32,8.32,0,0,0-8.32,8.32m18.08,20.53a4.71,4.71,0,0,1-4.72,4.71h-5a8.4,8.4,0,0,1-8.4-8.4v-16.84a8.32,8.32,0,0,0-8.32-8.32h-17.37a8.32,8.32,0,0,0-8.32,8.32m18.08,20.53a4.71,4.71,0,0,1-4.72,4.71h-5a8.4,8.4,0,0,1-8.4-8.4v-16.84a8.32,8.32,0,0,0-8.32-8.32h-17.37a8.32,8.32,0,0,0-8.32,8.32m18.08,20.53a4.71,4.71,0,0,1-4.72,4.71h-5a8.4,8.4,0,0,1-8.4-8.4v-16.84a8.32,8.32,0,0,0-8.32-8.32h-17.37a8.32,8.32,0,0,0-8.32,8.32m18.08,20.53a4.71,4.71,0,0,1-4.72,4.71h-5a8.4,8.4,0,0,1-8.4-8.4v-16.84c0-4.6-5.5-8.32-10.1-8.32h-15.59a8.33,8.33,0,0,0-8.33,8.32m18.08,20.53a4.71,4.71,0,0,1-4.72,4.71h-5a8.4,8.4,0,0,1-8.4-8.4v-16.84a8.32,8.32,0,0,0-8.32-8.32h-17.37a8.33,8.33,0,0,0-8.33,8.32m18.08,20.53a4.71,4.71,0,0,1-4.71,4.71h-5a8.4,8.4,0,0,1-8.4-8.4v-16.84c0-4.6-3.73-11.32-8.32-11.32H343.37A15.05,15.05,0,0,0,328.32,2039v43.23c0,8.31,6.74,12.05,15.05,12.05h14.46a8.32,8.32,0,0,0,8.32-8.32" transform="translate(0 -53.98)"/><path id="path1973-2" data-name="path1973" class="cls-1" d="M1570.19,2074.79h74.37a0.75,0.75,0,0,1,.75.75v1.06a0.76,0.76,0,0,0,.81.76l4.24-.26,40.9-9.44a4.27,4.27,0,0,0,3.31-4.16v-5.66a4.27,4.27,0,0,0-3.31-4.16l-40.9-9.44-4.24-.26a0.76,0.76,0,0,0-.81.76v1.06a0.75,0.75,0,0,1-.75.75h-74.37m-514,.08v-0.08H981.78a0.75,0.75,0,0,1-.75-0.75v-1.06a0.76,0.76,0,0,0-.81-0.76l-4.24.26-40.9,9.44a4.27,4.27,0,0,0-3.31,4.16v5.66a4.27,4.27,0,0,0,3.31,4.16l40.9,9.44,4.24,0.26a0.76,0.76,0,0,0,.81-0.76v-1.06a0.75,0.75,0,0,1,.75-0.75h74.37" transform="translate(0 -53.98)"/><g id="global-translation-frame-2" data-name="global-translation-frame"><path id="path1418-2" data-name="path1418" class="cls-1" d="M348.08,2065.48a4.71,4.71,0,0,1,4.72-4.71h5a8.4,8.4,0,0,1,8.4,8.4V2086a8.32,8.32,0,0,0,8.32,8.32h17.37a8.32,8.32,0,0,0,8.32-8.32m-18.08-20.53a4.71,4.71,0,0,1,4.72-4.71h5a8.4,8.4,0,0,1,8.4,8.4V2086a8.32,8.32,0,0,0,8.32,8.32h17.37a8.32,8.32,0,0,0,8.32-8.32m-18.08-20.53a4.71,4.71,0,0,1,4.72-4.71h5a8.4,8.4,0,0,1,8.4,8.4V2086a8.32,8.32,0,0,0,8.32,8.32h17.37a8.32,8.32,0,0,0,8.32-8.32m-18.08-20.53a4.71,4.71,0,0,1,4.72-4.71h5a8.4,8.4,0,0,1,8.4,8.4V2086a8.32,8.32,0,0,0,8.32,8.32H493.9a8.32,8.32,0,0,0,8.32-8.32m-18.08-20.53a4.71,4.71,0,0,1,4.72-4.71h5a8.4,8.4,0,0,1,8.4,8.4V2086a8.32,8.32,0,0,0,8.32,8.32h17.37a8.32,8.32,0,0,0,8.32-8.32m-18.08-20.53a4.71,4.71,0,0,1,4.72-4.71h5a8.4,8.4,0,0,1,8.4,8.4V2086a8.32,8.32,0,0,0,8.32,8.32h17.37a8.32,8.32,0,0,0,8.32-8.32m-18.08-20.53a4.71,4.71,0,0,1,4.72-4.71h5a8.4,8.4,0,0,1,8.4,8.4V2086c0,4.6,5.5,8.32,10.1,8.32h15.59a8.33,8.33,0,0,0,8.33-8.32m-18.08-20.53a4.71,4.71,0,0,1,4.72-4.71h5a8.4,8.4,0,0,1,8.4,8.4V2086a8.32,8.32,0,0,0,8.32,8.32H630a8.33,8.33,0,0,0,8.33-8.32M2283,2097.33a15.05,15.05,0,0,0,15.05-15.05V2039c0-8.31-6.74-12.05-15.05-12.05h-14.46a8.32,8.32,0,0,0-8.32,8.32m-1640,30.17a4.71,4.71,0,0,1,4.71-4.71h5a8.4,8.4,0,0,1,8.4,8.4V2086c0,4.6,3.73,11.32,8.32,11.32" transform="translate(0 -53.98)"/></g></g><g id="layer1-9" data-name="layer1"><path id="path1418-5-3" data-name="path1418-5" class="cls-1" d="M2278.27,2128.83a4.71,4.71,0,0,1-4.72,4.71h-5a8.4,8.4,0,0,1-8.4-8.4V2108.3a8.32,8.32,0,0,0-8.32-8.32H2234.5a8.32,8.32,0,0,0-8.32,8.32m18.08,20.53a4.71,4.71,0,0,1-4.72,4.71h-5a8.4,8.4,0,0,1-8.4-8.4V2108.3a8.32,8.32,0,0,0-8.32-8.32h-17.37a8.32,8.32,0,0,0-8.32,8.32m18.08,20.53a4.71,4.71,0,0,1-4.72,4.71h-5a8.4,8.4,0,0,1-8.4-8.4V2108.3a8.32,8.32,0,0,0-8.32-8.32h-17.37a8.32,8.32,0,0,0-8.32,8.32m18.08,20.53a4.71,4.71,0,0,1-4.72,4.71h-5a8.4,8.4,0,0,1-8.4-8.4V2108.3a8.32,8.32,0,0,0-8.32-8.32h-17.37a8.32,8.32,0,0,0-8.32,8.32m18.08,20.53a4.71,4.71,0,0,1-4.72,4.71h-5a8.4,8.4,0,0,1-8.4-8.4V2108.3a8.32,8.32,0,0,0-8.32-8.32h-17.37a8.32,8.32,0,0,0-8.32,8.32m18.08,20.53a4.71,4.71,0,0,1-4.72,4.71h-5a8.4,8.4,0,0,1-8.4-8.4V2108.3a8.32,8.32,0,0,0-8.32-8.32h-17.37a8.32,8.32,0,0,0-8.32,8.32m18.08,20.53a4.71,4.71,0,0,1-4.72,4.71h-5a8.4,8.4,0,0,1-8.4-8.4V2108.3c0-4.6-5.5-8.32-10.1-8.32h-15.59a8.33,8.33,0,0,0-8.33,8.32m18.08,20.53a4.71,4.71,0,0,1-4.72,4.71h-5a8.4,8.4,0,0,1-8.4-8.4V2108.3a8.32,8.32,0,0,0-8.32-8.32h-17.37a8.33,8.33,0,0,0-8.33,8.32m18.08,20.53a4.71,4.71,0,0,1-4.71,4.71h-5a8.4,8.4,0,0,1-8.4-8.4V2108.3c0-4.6-3.73-11.32-8.32-11.32H343.37A15.05,15.05,0,0,0,328.32,2112v43.23c0,8.31,6.74,12.05,15.05,12.05h14.46a8.32,8.32,0,0,0,8.32-8.32" transform="translate(0 -53.98)"/><path id="path1973-3" data-name="path1973" class="cls-1" d="M1570.19,2147.77h74.37a0.75,0.75,0,0,1,.75.75v1.06a0.76,0.76,0,0,0,.81.76l4.24-.26,40.9-9.44a4.27,4.27,0,0,0,3.31-4.16v-5.66a4.27,4.27,0,0,0-3.31-4.16l-40.9-9.44-4.24-.26a0.76,0.76,0,0,0-.81.76v1.06a0.75,0.75,0,0,1-.75.75h-74.37m-514,.08v-0.08H981.78a0.75,0.75,0,0,1-.75-0.75v-1.06a0.76,0.76,0,0,0-.81-0.76l-4.24.26-40.9,9.44a4.27,4.27,0,0,0-3.31,4.16v5.66a4.27,4.27,0,0,0,3.31,4.16l40.9,9.44,4.24,0.26a0.76,0.76,0,0,0,.81-0.76v-1.06a0.75,0.75,0,0,1,.75-0.75h74.37" transform="translate(0 -53.98)"/><g id="global-translation-frame-3" data-name="global-translation-frame"><path id="path1418-3" data-name="path1418" class="cls-1" d="M348.08,2138.47a4.71,4.71,0,0,1,4.72-4.71h5a8.4,8.4,0,0,1,8.4,8.4V2159a8.32,8.32,0,0,0,8.32,8.32h17.37a8.32,8.32,0,0,0,8.32-8.32m-18.08-20.53a4.71,4.71,0,0,1,4.72-4.71h5a8.4,8.4,0,0,1,8.4,8.4V2159a8.32,8.32,0,0,0,8.32,8.32h17.37a8.32,8.32,0,0,0,8.32-8.32m-18.08-20.53a4.71,4.71,0,0,1,4.72-4.71h5a8.4,8.4,0,0,1,8.4,8.4V2159a8.32,8.32,0,0,0,8.32,8.32h17.37a8.32,8.32,0,0,0,8.32-8.32m-18.08-20.53a4.71,4.71,0,0,1,4.72-4.71h5a8.4,8.4,0,0,1,8.4,8.4V2159a8.32,8.32,0,0,0,8.32,8.32H493.9a8.32,8.32,0,0,0,8.32-8.32m-18.08-20.53a4.71,4.71,0,0,1,4.72-4.71h5a8.4,8.4,0,0,1,8.4,8.4V2159a8.32,8.32,0,0,0,8.32,8.32h17.37a8.32,8.32,0,0,0,8.32-8.32m-18.08-20.53a4.71,4.71,0,0,1,4.72-4.71h5a8.4,8.4,0,0,1,8.4,8.4V2159a8.32,8.32,0,0,0,8.32,8.32h17.37a8.32,8.32,0,0,0,8.32-8.32m-18.08-20.53a4.71,4.71,0,0,1,4.72-4.71h5a8.4,8.4,0,0,1,8.4,8.4V2159c0,4.6,5.5,8.32,10.1,8.32h15.59a8.33,8.33,0,0,0,8.33-8.32m-18.08-20.53a4.71,4.71,0,0,1,4.72-4.71h5a8.4,8.4,0,0,1,8.4,8.4V2159a8.32,8.32,0,0,0,8.32,8.32H630a8.33,8.33,0,0,0,8.33-8.32m-18.08-20.53a4.71,4.71,0,0,1,4.71-4.71h5a8.4,8.4,0,0,1,8.4,8.4V2159c0,4.6,3.73,11.32,8.32,11.32H2283a15.05,15.05,0,0,0,15.05-15.05V2112c0-8.31-6.74-12.05-15.05-12.05h-14.46a8.32,8.32,0,0,0-8.32,8.32" transform="translate(0 -53.98)"/></g></g><line class="cls-1" x1="2282.98" y1="1970.01" x2="1979.74" y2="1970.01"/><line class="cls-1" x1="2282.98" y1="2043.35" x2="1979.74" y2="2043"/><g id="layer1-10" data-name="layer1"><path id="path1418-5-4" data-name="path1418-5" class="cls-1" d="M2639.93,81.55a4.71,4.71,0,0,1,4.71,4.72v5a8.4,8.4,0,0,1-8.4,8.4H2619.4a8.32,8.32,0,0,0-8.32,8.32v17.37a8.32,8.32,0,0,0,8.32,8.32m20.53-18.08a4.71,4.71,0,0,1,4.71,4.72v5a8.4,8.4,0,0,1-8.4,8.4H2619.4a8.32,8.32,0,0,0-8.32,8.32v17.37a8.32,8.32,0,0,0,8.32,8.32m20.53-18.08a4.71,4.71,0,0,1,4.71,4.72v5a8.4,8.4,0,0,1-8.4,8.4H2619.4a8.32,8.32,0,0,0-8.32,8.32v17.37a8.32,8.32,0,0,0,8.32,8.32m20.53-18.08a4.71,4.71,0,0,1,4.71,4.72v5a8.4,8.4,0,0,1-8.4,8.4H2619.4a8.32,8.32,0,0,0-8.32,8.32v17.37a8.32,8.32,0,0,0,8.32,8.32m20.53-18.08a4.71,4.71,0,0,1,4.71,4.72v5a8.4,8.4,0,0,1-8.4,8.4H2619.4a8.32,8.32,0,0,0-8.32,8.32v17.37a8.32,8.32,0,0,0,8.32,8.32m20.53-18.08a4.71,4.71,0,0,1,4.71,4.72v5a8.4,8.4,0,0,1-8.4,8.4H2619.4a8.32,8.32,0,0,0-8.32,8.32V295.4a8.32,8.32,0,0,0,8.32,8.32m20.53-18.08a4.71,4.71,0,0,1,4.71,4.72v5a8.4,8.4,0,0,1-8.4,8.4H2619.4c-4.6,0-8.32,5.5-8.32,10.1v15.59a8.33,8.33,0,0,0,8.32,8.33m20.53-18.08a4.71,4.71,0,0,1,4.71,4.72v5a8.4,8.4,0,0,1-8.4,8.4H2619.4a8.32,8.32,0,0,0-8.32,8.32v17.37a8.33,8.33,0,0,0,8.32,8.33m20.53-18.08a4.71,4.71,0,0,1,4.71,4.71v5a8.4,8.4,0,0,1-8.4,8.4H2619.4c-4.6,0-11.32,3.73-11.32,8.32V2016.45a15.05,15.05,0,0,0,15.06,15.05h43.23c8.31,0,12.05-6.74,12.05-15.05V2002a8.32,8.32,0,0,0-8.32-8.32" transform="translate(0 -53.98)"/><path id="path1973-4" data-name="path1973" class="cls-1" d="M2658.87,789.62V715.25a0.75,0.75,0,0,1,.75-0.75h1.06a0.76,0.76,0,0,0,.76-0.81l-0.26-4.24-9.44-40.9a4.27,4.27,0,0,0-4.16-3.31h-5.66a4.27,4.27,0,0,0-4.16,3.31l-9.44,40.9-0.26,4.24a0.76,0.76,0,0,0,.76.81h1.06a0.75,0.75,0,0,1,.75.75v74.37m0.08,514h-0.08V1378a0.75,0.75,0,0,1-.75.75h-1.06a0.76,0.76,0,0,0-.76.81l0.26,4.24,9.44,40.9a4.27,4.27,0,0,0,4.16,3.31h5.66a4.27,4.27,0,0,0,4.16-3.31l9.44-40.9,0.26-4.24a0.76,0.76,0,0,0-.76-0.81h-1.06a0.75,0.75,0,0,1-.75-0.75v-74.37" transform="translate(0 -53.98)"/><g id="global-translation-frame-4" data-name="global-translation-frame"><path id="path1418-4" data-name="path1418" class="cls-1" d="M2649.57,2011.74a4.71,4.71,0,0,1-4.71-4.72v-5a8.4,8.4,0,0,1,8.4-8.4h16.84a8.32,8.32,0,0,0,8.32-8.32V1968a8.32,8.32,0,0,0-8.32-8.32m-20.53,18.08a4.71,4.71,0,0,1-4.71-4.72v-5a8.4,8.4,0,0,1,8.4-8.4h16.84a8.32,8.32,0,0,0,8.32-8.32V1934a8.32,8.32,0,0,0-8.32-8.32m-20.53,18.08a4.71,4.71,0,0,1-4.71-4.72v-5a8.4,8.4,0,0,1,8.4-8.4h16.84a8.32,8.32,0,0,0,8.32-8.32v-17.37a8.32,8.32,0,0,0-8.32-8.32m-20.53,18.08a4.71,4.71,0,0,1-4.71-4.72v-5a8.4,8.4,0,0,1,8.4-8.4h16.84a8.32,8.32,0,0,0,8.32-8.32v-17.37a8.32,8.32,0,0,0-8.32-8.32m-20.53,18.08a4.71,4.71,0,0,1-4.71-4.72v-5a8.4,8.4,0,0,1,8.4-8.4h16.84a8.32,8.32,0,0,0,8.32-8.32v-17.37a8.32,8.32,0,0,0-8.32-8.32m-20.53,18.08a4.71,4.71,0,0,1-4.71-4.72v-5a8.4,8.4,0,0,1,8.4-8.4h16.84a8.32,8.32,0,0,0,8.32-8.32v-17.37a8.32,8.32,0,0,0-8.32-8.32m-20.53,18.08a4.71,4.71,0,0,1-4.71-4.72v-5a8.4,8.4,0,0,1,8.4-8.4h16.84c4.6,0,8.32-5.5,8.32-10.1v-15.59a8.33,8.33,0,0,0-8.32-8.33m-20.53,18.08a4.71,4.71,0,0,1-4.71-4.72v-5a8.4,8.4,0,0,1,8.4-8.4h16.84a8.32,8.32,0,0,0,8.32-8.32v-17.37a8.33,8.33,0,0,0-8.32-8.33m11.32-1644.7a15.05,15.05,0,0,0-15.05-15.05h-43.23c-8.31,0-12.05,6.74-12.05,15.05V91.3a8.32,8.32,0,0,0,8.32,8.32m30.17,1640a4.71,4.71,0,0,1-4.71-4.71v-5a8.4,8.4,0,0,1,8.4-8.4h16.84c4.6,0,11.32-3.73,11.32-8.32" transform="translate(0 -53.98)"/></g></g><g id="layer1-11" data-name="layer1"><path id="path1418-5-5" data-name="path1418-5" class="cls-1" d="M2713.27,81.55a4.71,4.71,0,0,1,4.71,4.72v5a8.4,8.4,0,0,1-8.4,8.4h-16.84a8.32,8.32,0,0,0-8.32,8.32v17.37a8.32,8.32,0,0,0,8.32,8.32m20.53-18.08a4.71,4.71,0,0,1,4.71,4.72v5a8.4,8.4,0,0,1-8.4,8.4h-16.84a8.32,8.32,0,0,0-8.32,8.32v17.37a8.32,8.32,0,0,0,8.32,8.32m20.53-18.08a4.71,4.71,0,0,1,4.71,4.72v5a8.4,8.4,0,0,1-8.4,8.4h-16.84a8.32,8.32,0,0,0-8.32,8.32v17.37a8.32,8.32,0,0,0,8.32,8.32m20.53-18.08a4.71,4.71,0,0,1,4.71,4.72v5a8.4,8.4,0,0,1-8.4,8.4h-16.84a8.32,8.32,0,0,0-8.32,8.32v17.37a8.32,8.32,0,0,0,8.32,8.32m20.53-18.08a4.71,4.71,0,0,1,4.71,4.72v5a8.4,8.4,0,0,1-8.4,8.4h-16.84a8.32,8.32,0,0,0-8.32,8.32v17.37a8.32,8.32,0,0,0,8.32,8.32m20.53-18.08a4.71,4.71,0,0,1,4.71,4.72v5a8.4,8.4,0,0,1-8.4,8.4h-16.84a8.32,8.32,0,0,0-8.32,8.32V295.4a8.32,8.32,0,0,0,8.32,8.32m20.53-18.08a4.71,4.71,0,0,1,4.71,4.72v5a8.4,8.4,0,0,1-8.4,8.4h-16.84c-4.6,0-8.32,5.5-8.32,10.1v15.59a8.33,8.33,0,0,0,8.32,8.33m20.53-18.08a4.71,4.71,0,0,1,4.71,4.72v5a8.4,8.4,0,0,1-8.4,8.4h-16.84a8.32,8.32,0,0,0-8.32,8.32v17.37a8.33,8.33,0,0,0,8.32,8.33m20.53-18.08a4.71,4.71,0,0,1,4.71,4.71v5a8.4,8.4,0,0,1-8.4,8.4h-16.84c-4.6,0-11.32,3.73-11.32,8.32V2016.45a15.05,15.05,0,0,0,15.06,15.05h43.23c8.31,0,12.05-6.74,12.05-15.05V2002a8.32,8.32,0,0,0-8.32-8.32" transform="translate(0 -53.98)"/><path id="path1973-5" data-name="path1973" class="cls-1" d="M2732.21,789.62V715.25a0.75,0.75,0,0,1,.75-0.75H2734a0.76,0.76,0,0,0,.76-0.81l-0.26-4.24-9.44-40.9a4.27,4.27,0,0,0-4.16-3.31h-5.66a4.27,4.27,0,0,0-4.16,3.31l-9.44,40.9-0.26,4.24a0.76,0.76,0,0,0,.76.81h1.06a0.75,0.75,0,0,1,.75.75v74.37m0.08,514H2704V1378a0.75,0.75,0,0,1-.75.75h-1.06a0.76,0.76,0,0,0-.76.81l0.26,4.24,9.44,40.9a4.27,4.27,0,0,0,4.16,3.31h5.66a4.27,4.27,0,0,0,4.16-3.31l9.44-40.9,0.26-4.24a0.76,0.76,0,0,0-.76-0.81H2733a0.75,0.75,0,0,1-.75-0.75v-74.37" transform="translate(0 -53.98)"/><g id="global-translation-frame-5" data-name="global-translation-frame"><path id="path1418-5-6" data-name="path1418" class="cls-1" d="M2722.91,2011.74a4.71,4.71,0,0,1-4.71-4.72v-5a8.4,8.4,0,0,1,8.4-8.4h16.84a8.32,8.32,0,0,0,8.32-8.32V1968a8.32,8.32,0,0,0-8.32-8.32m-20.53,18.08a4.71,4.71,0,0,1-4.71-4.72v-5a8.4,8.4,0,0,1,8.4-8.4h16.84a8.32,8.32,0,0,0,8.32-8.32V1934a8.32,8.32,0,0,0-8.32-8.32m-20.53,18.08a4.71,4.71,0,0,1-4.71-4.72v-5a8.4,8.4,0,0,1,8.4-8.4h16.84a8.32,8.32,0,0,0,8.32-8.32v-17.37a8.32,8.32,0,0,0-8.32-8.32m-20.53,18.08a4.71,4.71,0,0,1-4.71-4.72v-5a8.4,8.4,0,0,1,8.4-8.4h16.84a8.32,8.32,0,0,0,8.32-8.32v-17.37a8.32,8.32,0,0,0-8.32-8.32m-20.53,18.08a4.71,4.71,0,0,1-4.71-4.72v-5a8.4,8.4,0,0,1,8.4-8.4h16.84a8.32,8.32,0,0,0,8.32-8.32v-17.37a8.32,8.32,0,0,0-8.32-8.32m-20.53,18.08a4.71,4.71,0,0,1-4.71-4.72v-5a8.4,8.4,0,0,1,8.4-8.4h16.84a8.32,8.32,0,0,0,8.32-8.32v-17.37a8.32,8.32,0,0,0-8.32-8.32m-20.53,18.08a4.71,4.71,0,0,1-4.71-4.72v-5a8.4,8.4,0,0,1,8.4-8.4h16.84c4.6,0,8.32-5.5,8.32-10.1v-15.59a8.33,8.33,0,0,0-8.32-8.33m-20.53,18.08a4.71,4.71,0,0,1-4.71-4.72v-5a8.4,8.4,0,0,1,8.4-8.4h16.84a8.32,8.32,0,0,0,8.32-8.32v-17.37a8.33,8.33,0,0,0-8.32-8.33m11.32-1644.7a15.05,15.05,0,0,0-15.05-15.05h-43.23c-8.31,0-12.05,6.74-12.05,15.05V91.3a8.32,8.32,0,0,0,8.32,8.32m30.17,1640a4.71,4.71,0,0,1-4.71-4.71v-5a8.4,8.4,0,0,1,8.4-8.4h16.84c4.6,0,11.32-3.73,11.32-8.32" transform="translate(0 -53.98)"/></g></g><g id="layer1-12" data-name="layer1"><path id="path1418-5-7" data-name="path1418-5" class="cls-1" d="M2786.26,81.55a4.71,4.71,0,0,1,4.71,4.72v5a8.4,8.4,0,0,1-8.4,8.4h-16.84a8.32,8.32,0,0,0-8.32,8.32v17.37a8.32,8.32,0,0,0,8.32,8.32m20.53-18.08a4.71,4.71,0,0,1,4.71,4.72v5a8.4,8.4,0,0,1-8.4,8.4h-16.84a8.32,8.32,0,0,0-8.32,8.32v17.37a8.32,8.32,0,0,0,8.32,8.32m20.53-18.08a4.71,4.71,0,0,1,4.71,4.72v5a8.4,8.4,0,0,1-8.4,8.4h-16.84a8.32,8.32,0,0,0-8.32,8.32v17.37a8.32,8.32,0,0,0,8.32,8.32m20.53-18.08a4.71,4.71,0,0,1,4.71,4.72v5a8.4,8.4,0,0,1-8.4,8.4h-16.84a8.32,8.32,0,0,0-8.32,8.32v17.37a8.32,8.32,0,0,0,8.32,8.32m20.53-18.08a4.71,4.71,0,0,1,4.71,4.72v5a8.4,8.4,0,0,1-8.4,8.4h-16.84a8.32,8.32,0,0,0-8.32,8.32v17.37a8.32,8.32,0,0,0,8.32,8.32m20.53-18.08a4.71,4.71,0,0,1,4.71,4.72v5a8.4,8.4,0,0,1-8.4,8.4h-16.84a8.32,8.32,0,0,0-8.32,8.32V295.4a8.32,8.32,0,0,0,8.32,8.32m20.53-18.08a4.71,4.71,0,0,1,4.71,4.72v5a8.4,8.4,0,0,1-8.4,8.4h-16.84c-4.6,0-8.32,5.5-8.32,10.1v15.59a8.33,8.33,0,0,0,8.32,8.33m20.53-18.08a4.71,4.71,0,0,1,4.71,4.72v5a8.4,8.4,0,0,1-8.4,8.4h-16.84a8.32,8.32,0,0,0-8.32,8.32v17.37a8.33,8.33,0,0,0,8.32,8.33m20.53-18.08a4.71,4.71,0,0,1,4.71,4.71v5a8.4,8.4,0,0,1-8.4,8.4h-16.84c-4.6,0-11.32,3.73-11.32,8.32V2016.45a15.05,15.05,0,0,0,15.06,15.05h43.23c8.31,0,12.05-6.74,12.05-15.05V2002a8.32,8.32,0,0,0-8.32-8.32" transform="translate(0 -53.98)"/><path id="path1973-6" data-name="path1973" class="cls-1" d="M2805.2,789.62V715.25a0.75,0.75,0,0,1,.75-0.75H2807a0.76,0.76,0,0,0,.76-0.81l-0.26-4.24-9.44-40.9a4.27,4.27,0,0,0-4.16-3.31h-5.66a4.27,4.27,0,0,0-4.16,3.31l-9.44,40.9-0.26,4.24a0.76,0.76,0,0,0,.76.81h1.06a0.75,0.75,0,0,1,.75.75v74.37m0.08,514h-0.08V1378a0.75,0.75,0,0,1-.75.75h-1.06a0.76,0.76,0,0,0-.76.81l0.26,4.24,9.44,40.9a4.27,4.27,0,0,0,4.16,3.31h5.66a4.27,4.27,0,0,0,4.16-3.31l9.44-40.9,0.26-4.24a0.76,0.76,0,0,0-.76-0.81h-1.06a0.75,0.75,0,0,1-.75-0.75v-74.37" transform="translate(0 -53.98)"/><g id="global-translation-frame-6" data-name="global-translation-frame"><path id="path1418-6" data-name="path1418" class="cls-1" d="M2795.9,2011.74a4.71,4.71,0,0,1-4.71-4.72v-5a8.4,8.4,0,0,1,8.4-8.4h16.84a8.32,8.32,0,0,0,8.32-8.32V1968a8.32,8.32,0,0,0-8.32-8.32m-20.53,18.08a4.71,4.71,0,0,1-4.71-4.72v-5a8.4,8.4,0,0,1,8.4-8.4h16.84a8.32,8.32,0,0,0,8.32-8.32V1934a8.32,8.32,0,0,0-8.32-8.32m-20.53,18.08a4.71,4.71,0,0,1-4.71-4.72v-5a8.4,8.4,0,0,1,8.4-8.4h16.84a8.32,8.32,0,0,0,8.32-8.32v-17.37a8.32,8.32,0,0,0-8.32-8.32m-20.53,18.08a4.71,4.71,0,0,1-4.71-4.72v-5a8.4,8.4,0,0,1,8.4-8.4h16.84a8.32,8.32,0,0,0,8.32-8.32v-17.37a8.32,8.32,0,0,0-8.32-8.32m-20.53,18.08a4.71,4.71,0,0,1-4.71-4.72v-5a8.4,8.4,0,0,1,8.4-8.4h16.84a8.32,8.32,0,0,0,8.32-8.32v-17.37a8.32,8.32,0,0,0-8.32-8.32m-20.53,18.08a4.71,4.71,0,0,1-4.71-4.72v-5a8.4,8.4,0,0,1,8.4-8.4h16.84a8.32,8.32,0,0,0,8.32-8.32v-17.37a8.32,8.32,0,0,0-8.32-8.32m-20.53,18.08a4.71,4.71,0,0,1-4.71-4.72v-5a8.4,8.4,0,0,1,8.4-8.4h16.84c4.6,0,8.32-5.5,8.32-10.1v-15.59a8.33,8.33,0,0,0-8.32-8.33m-20.53,18.08a4.71,4.71,0,0,1-4.71-4.72v-5a8.4,8.4,0,0,1,8.4-8.4h16.84a8.32,8.32,0,0,0,8.32-8.32v-17.37a8.33,8.33,0,0,0-8.32-8.33m-20.53,18.08a4.71,4.71,0,0,1-4.71-4.71v-5a8.4,8.4,0,0,1,8.4-8.4h16.84c4.6,0,11.32-3.73,11.32-8.32V76.84a15.05,15.05,0,0,0-15.05-15.05h-43.23c-8.31,0-12.05,6.74-12.05,15.05V91.3a8.32,8.32,0,0,0,8.32,8.32" transform="translate(0 -53.98)"/></g></g><line class="cls-1" x1="2681.42" y1="22.87" x2="2681.42" y2="326.1"/><line class="cls-1" x1="2754.76" y1="22.87" x2="2754.41" y2="326.1"/><line class="cls-3" y1="0.5" x2="2888.03" y2="0.5"/></svg>