  0
SECTION
  2
HEADER
  9
$ACADVER
  1
AC1024
  9
$ACADMAINTVER
 70
     6
  9
$DWGCODEPAGE
  3
UNDEFINED
  9
$INSBASE
 10
0.0
 20
0.0
 30
0.0
  9
$EXTMIN
 10
1.000000000000000E+20
 20
1.000000000000000E+20
 30
1.000000000000000E+20
  9
$EXTMAX
 10
-1.000000000000000E+20
 20
-1.000000000000000E+20
 30
-1.000000000000000E+20
  9
$LIMMIN
 10
0.0
 20
0.0
  9
$LIMMAX
 10
12.0
 20
9.0
  9
$ORTHOMODE
 70
     0
  9
$REGENMODE
 70
     1
  9
$FILLMODE
 70
     1
  9
$QTEXTMODE
 70
     0
  9
$MIRRTEXT
 70
     1
  9
$LTSCALE
 40
1.0
  9
$ATTMODE
 70
     1
  9
$TEXTSIZE
 40
0.2
  9
$TRACEWID
 40
0.05
  9
$TEXTSTYLE
  7
Standard
  9
$CLAYER
  8
0
  9
$CELTYPE
  6
ByLayer
  9
$CECOLOR
 62
   256
  9
$CELTSCALE
 40
1.0
  9
$DISPSILH
 70
     0
  9
$DIMSCALE
 40
1.0
  9
$DIMASZ
 40
0.18
  9
$DIMEXO
 40
0.0625
  9
$DIMDLI
 40
0.38
  9
$DIMRND
 40
0.0
  9
$DIMDLE
 40
0.0
  9
$DIMEXE
 40
0.18
  9
$DIMTP
 40
0.0
  9
$DIMTM
 40
0.0
  9
$DIMTXT
 40
0.18
  9
$DIMCEN
 40
0.09
  9
$DIMTSZ
 40
0.0
  9
$DIMTOL
 70
     0
  9
$DIMLIM
 70
     0
  9
$DIMTIH
 70
     1
  9
$DIMTOH
 70
     1
  9
$DIMSE1
 70
     0
  9
$DIMSE2
 70
     0
  9
$DIMTAD
 70
     0
  9
$DIMZIN
 70
     0
  9
$DIMBLK
  1

  9
$DIMASO
 70
     1
  9
$DIMSHO
 70
     1
  9
$DIMPOST
  1

  9
$DIMAPOST
  1

  9
$DIMALT
 70
     0
  9
$DIMALTD
 70
     2
  9
$DIMALTF
 40
25.4
  9
$DIMLFAC
 40
1.0
  9
$DIMTOFL
 70
     0
  9
$DIMTVP
 40
0.0
  9
$DIMTIX
 70
     0
  9
$DIMSOXD
 70
     0
  9
$DIMSAH
 70
     0
  9
$DIMBLK1
  1

  9
$DIMBLK2
  1

  9
$DIMSTYLE
  2
Standard
  9
$DIMCLRD
 70
     0
  9
$DIMCLRE
 70
     0
  9
$DIMCLRT
 70
     0
  9
$DIMTFAC
 40
1.0
  9
$DIMGAP
 40
0.09
  9
$DIMJUST
 70
     0
  9
$DIMSD1
 70
     0
  9
$DIMSD2
 70
     0
  9
$DIMTOLJ
 70
     1
  9
$DIMTZIN
 70
     0
  9
$DIMALTZ
 70
     0
  9
$DIMALTTZ
 70
     0
  9
$DIMUPT
 70
     0
  9
$DIMDEC
 70
     4
  9
$DIMTDEC
 70
     4
  9
$DIMALTU
 70
     2
  9
$DIMALTTD
 70
     2
  9
$DIMTXSTY
  7
Standard
  9
$DIMAUNIT
 70
     0
  9
$DIMADEC
 70
     0
  9
$DIMALTRND
 40
0.0
  9
$DIMAZIN
 70
     0
  9
$DIMDSEP
 70
    46
  9
$DIMATFIT
 70
     3
  9
$DIMFRAC
 70
     0
  9
$DIMLDRBLK
  1

  9
$DIMLUNIT
 70
     2
  9
$DIMLWD
 70
    -2
  9
$DIMLWE
 70
    -2
  9
$DIMTMOVE
 70
     0
  9
$DIMFXL
 40
1.0
  9
$DIMFXLON
 70
     0
  9
$DIMJOGANG
 40
0.7853981633974483
  9
$DIMTFILL
 70
     0
  9
$DIMTFILLCLR
 70
     0
  9
$DIMARCSYM
 70
     0
  9
$DIMLTYPE
  6

  9
$DIMLTEX1
  6

  9
$DIMLTEX2
  6

  9
$DIMTXTDIRECTION
 70
     0
  9
$LUNITS
 70
     2
  9
$LUPREC
 70
     4
  9
$SKETCHINC
 40
0.1
  9
$FILLETRAD
 40
0.5
  9
$AUNITS
 70
     0
  9
$AUPREC
 70
     0
  9
$MENU
  1
.
  9
$ELEVATION
 40
0.0
  9
$PELEVATION
 40
0.0
  9
$THICKNESS
 40
0.0
  9
$LIMCHECK
 70
     0
  9
$CHAMFERA
 40
0.5
  9
$CHAMFERB
 40
0.5
  9
$CHAMFERC
 40
1.0
  9
$CHAMFERD
 40
0.0
  9
$SKPOLY
 70
     0
  9
$TDCREATE
 40
2458927.692650463
  9
$TDUCREATE
 40
2458928.025983796
  9
$TDUPDATE
 40
2458927.692650463
  9
$TDUUPDATE
 40
2458928.025983796
  9
$TDINDWG
 40
0.0000000116
  9
$TDUSRTIMER
 40
0.0000000116
  9
$USRTIMER
 70
     1
  9
$ANGBASE
 50
0.0
  9
$ANGDIR
 70
     0
  9
$PDMODE
 70
     0
  9
$PDSIZE
 40
0.0
  9
$PLINEWID
 40
0.0
  9
$SPLFRAME
 70
     0
  9
$SPLINETYPE
 70
     6
  9
$SPLINESEGS
 70
     8
  9
$HANDSEED
  5
E4
  9
$SURFTAB1
 70
     6
  9
$SURFTAB2
 70
     6
  9
$SURFTYPE
 70
     6
  9
$SURFU
 70
     6
  9
$SURFV
 70
     6
  9
$UCSBASE
  2

  9
$UCSNAME
  2

  9
$UCSORG
 10
0.0
 20
0.0
 30
0.0
  9
$UCSXDIR
 10
1.0
 20
0.0
 30
0.0
  9
$UCSYDIR
 10
0.0
 20
1.0
 30
0.0
  9
$UCSORTHOREF
  2

  9
$UCSORTHOVIEW
 70
     0
  9
$UCSORGTOP
 10
0.0
 20
0.0
 30
0.0
  9
$UCSORGBOTTOM
 10
0.0
 20
0.0
 30
0.0
  9
$UCSORGLEFT
 10
0.0
 20
0.0
 30
0.0
  9
$UCSORGRIGHT
 10
0.0
 20
0.0
 30
0.0
  9
$UCSORGFRONT
 10
0.0
 20
0.0
 30
0.0
  9
$UCSORGBACK
 10
0.0
 20
0.0
 30
0.0
  9
$PUCSBASE
  2

  9
$PUCSNAME
  2

  9
$PUCSORG
 10
0.0
 20
0.0
 30
0.0
  9
$PUCSXDIR
 10
1.0
 20
0.0
 30
0.0
  9
$PUCSYDIR
 10
0.0
 20
1.0
 30
0.0
  9
$PUCSORTHOREF
  2

  9
$PUCSORTHOVIEW
 70
     0
  9
$PUCSORGTOP
 10
0.0
 20
0.0
 30
0.0
  9
$PUCSORGBOTTOM
 10
0.0
 20
0.0
 30
0.0
  9
$PUCSORGLEFT
 10
0.0
 20
0.0
 30
0.0
  9
$PUCSORGRIGHT
 10
0.0
 20
0.0
 30
0.0
  9
$PUCSORGFRONT
 10
0.0
 20
0.0
 30
0.0
  9
$PUCSORGBACK
 10
0.0
 20
0.0
 30
0.0
  9
$USERI1
 70
     0
  9
$USERI2
 70
     0
  9
$USERI3
 70
     0
  9
$USERI4
 70
     0
  9
$USERI5
 70
     0
  9
$USERR1
 40
0.0
  9
$USERR2
 40
0.0
  9
$USERR3
 40
0.0
  9
$USERR4
 40
0.0
  9
$USERR5
 40
0.0
  9
$WORLDVIEW
 70
     1
  9
$SHADEDGE
 70
     3
  9
$SHADEDIF
 70
    70
  9
$TILEMODE
 70
     1
  9
$MAXACTVP
 70
    64
  9
$PINSBASE
 10
0.0
 20
0.0
 30
0.0
  9
$PLIMCHECK
 70
     0
  9
$PEXTMIN
 10
1.000000000000000E+20
 20
1.000000000000000E+20
 30
1.000000000000000E+20
  9
$PEXTMAX
 10
-1.000000000000000E+20
 20
-1.000000000000000E+20
 30
-1.000000000000000E+20
  9
$PLIMMIN
 10
0.0
 20
0.0
  9
$PLIMMAX
 10
12.0
 20
9.0
  9
$UNITMODE
 70
     0
  9
$VISRETAIN
 70
     1
  9
$PLINEGEN
 70
     0
  9
$PSLTSCALE
 70
     1
  9
$TREEDEPTH
 70
  3020
  9
$CMLSTYLE
  2
Standard
  9
$CMLJUST
 70
     0
  9
$CMLSCALE
 40
1.0
  9
$PROXYGRAPHICS
 70
     1
  9
$MEASUREMENT
 70
     0
  9
$CELWEIGHT
370
    -1
  9
$ENDCAPS
280
     0
  9
$JOINSTYLE
280
     0
  9
$LWDISPLAY
290
     1
  9
$INSUNITS
 70
     1
  9
$HYPERLINKBASE
  1

  9
$STYLESHEET
  1

  9
$XEDIT
290
     1
  9
$CEPSNTYPE
380
     0
  9
$PSTYLEMODE
290
     1
  9
$FINGERPRINTGUID
  2
{A7A2F7C4-2065-137F-DC6E-6B978BD121A3}
  9
$VERSIONGUID
  2
{FAEB1C32-E019-11D5-929B-00C0DF256EC4}
  9
$EXTNAMES
290
     1
  9
$PSVPSCALE
 40
0.0
  9
$OLESTARTUP
290
     0
  9
$SORTENTS
280
   127
  9
$INDEXCTL
280
     0
  9
$HIDETEXT
280
     1
  9
$XCLIPFRAME
280
     2
  9
$HALOGAP
280
     0
  9
$OBSCOLOR
 70
   257
  9
$OBSLTYPE
280
     0
  9
$INTERSECTIONDISPLAY
280
     0
  9
$INTERSECTIONCOLOR
 70
   257
  9
$DIMASSOC
280
     2
  9
$PROJECTNAME
  1

  9
$CAMERADISPLAY
290
     0
  9
$LENSLENGTH
 40
50.0
  9
$CAMERAHEIGHT
 40
0.0
  9
$STEPSPERSEC
 40
2.0
  9
$STEPSIZE
 40
6.0
  9
$3DDWFPREC
 40
2.0
  9
$PSOLWIDTH
 40
0.25
  9
$PSOLHEIGHT
 40
4.0
  9
$LOFTANG1
 40
1.570796326794897
  9
$LOFTANG2
 40
1.570796326794897
  9
$LOFTMAG1
 40
0.0
  9
$LOFTMAG2
 40
0.0
  9
$LOFTPARAM
 70
     7
  9
$LOFTNORMALS
280
     1
  9
$LATITUDE
 40
37.795
  9
$LONGITUDE
 40
-122.394
  9
$NORTHDIRECTION
 40
0.0
  9
$TIMEZONE
 70
 -8000
  9
$LIGHTGLYPHDISPLAY
280
     1
  9
$TILEMODELIGHTSYNCH
280
     1
  9
$CMATERIAL
347
3C
  9
$SOLIDHIST
280
     1
  9
$SHOWHIST
280
     1
  9
$DWFFRAME
280
     2
  9
$DGNFRAME
280
     2
  9
$REALWORLDSCALE
290
     1
  9
$INTERFERECOLOR
 62
   256
  9
$CSHADOW
280
     0
  9
$SHADOWPLANELOCATION
 40
0.0
  0
ENDSEC
  0
SECTION
  2
CLASSES
  0
CLASS
  1
ACDBDICTIONARYWDFLT
  2
AcDbDictionaryWithDefault
  3
ObjectDBX Classes
 90
        0
 91
        4
280
     0
281
     0
  0
CLASS
  1
VISUALSTYLE
  2
AcDbVisualStyle
  3
ObjectDBX Classes
 90
     4095
 91
        4
280
     0
281
     0
  0
CLASS
  1
MATERIAL
  2
AcDbMaterial
  3
ObjectDBX Classes
 90
     1153
 91
        4
280
     0
281
     0
  0
CLASS
  1
SUN
  2
AcDbSun
  3
SCENEOE
 90
     1024
 91
        4
280
     0
281
     0
  0
ENDSEC
  0
SECTION
  2
TABLES
  0
TABLE
  2
VPORT
  5
8
330
0
100
AcDbSymbolTable
 70
     1
  0
VPORT
  5
29
330
8
100
AcDbSymbolTableRecord
100
AcDbViewportTableRecord
  2
*Active
 70
     0
 10
0.0
 20
0.0
 11
1.0
 21
1.0
 12
0.0
 22
0.0
 13
0.0
 23
0.0
 14
0.5
 24
0.5
 15
0.5
 25
0.5
 16
0.0
 26
0.0
 36
1.0
 17
638.5277776181458
 27
-515.7611109821709
 37
0.0
 40
592.6666665185
 41
2.128571428571429
 42
50.0
 43
0.0
 44
0.0
 50
0.0
 51
0.0
 71
     0
 72
   100
 73
     1
 74
     3
 75
     0
 76
     0
 77
     0
 78
     0
281
     0
 65
     1
110
0.0
120
0.0
130
0.0
111
1.0
121
0.0
131
0.0
112
0.0
122
1.0
132
0.0
 79
     0
146
0.0
 60
     3
 61
     5
292
     1
282
     1
141
0.0
142
0.0
 63
   250
361
3F
  0
ENDTAB
  0
TABLE
  2
LTYPE
  5
5
330
0
100
AcDbSymbolTable
 70
     1
  0
LTYPE
  5
14
330
5
100
AcDbSymbolTableRecord
100
AcDbLinetypeTableRecord
  2
ByBlock
 70
     0
  3

 72
    65
 73
     0
 40
0.0
  0
LTYPE
  5
15
330
5
100
AcDbSymbolTableRecord
100
AcDbLinetypeTableRecord
  2
ByLayer
 70
     0
  3

 72
    65
 73
     0
 40
0.0
  0
LTYPE
  5
16
330
5
100
AcDbSymbolTableRecord
100
AcDbLinetypeTableRecord
  2
Continuous
 70
     0
  3
Solid line
 72
    65
 73
     0
 40
0.0
  0
ENDTAB
  0
TABLE
  2
LAYER
  5
2
330
0
100
AcDbSymbolTable
 70
     2
  0
LAYER
  5
10
330
2
100
AcDbSymbolTableRecord
100
AcDbLayerTableRecord
  2
0
 70
     0
 62
     7
  6
Continuous
370
    -3
390
F
347
3E
  0
LAYER
  5
40
330
2
100
AcDbSymbolTableRecord
100
AcDbLayerTableRecord
  2
Layer 1
 70
     0
 62
     7
  6
Continuous
370
    -3
390
F
347
3E
  0
ENDTAB
  0
TABLE
  2
STYLE
  5
3
330
0
100
AcDbSymbolTable
 70
     1
  0
STYLE
  5
11
330
3
100
AcDbSymbolTableRecord
100
AcDbTextStyleTableRecord
  2
Standard
 70
     0
 40
0.0
 41
1.0
 50
0.0
 71
     0
 42
0.2
  3
txt
  4

  0
ENDTAB
  0
TABLE
  2
VIEW
  5
6
330
0
100
AcDbSymbolTable
 70
     0
  0
ENDTAB
  0
TABLE
  2
UCS
  5
7
330
0
100
AcDbSymbolTable
 70
     0
  0
ENDTAB
  0
TABLE
  2
APPID
  5
9
330
0
100
AcDbSymbolTable
 70
     1
  0
APPID
  5
12
330
9
100
AcDbSymbolTableRecord
100
AcDbRegAppTableRecord
  2
ACAD
 70
     0
  0
ENDTAB
  0
TABLE
  2
DIMSTYLE
  5
A
330
0
100
AcDbSymbolTable
 70
     1
100
AcDbDimStyleTable
  0
DIMSTYLE
105
27
330
A
100
AcDbSymbolTableRecord
100
AcDbDimStyleTableRecord
  2
Standard
 70
     0
178
     0
340
11
  0
ENDTAB
  0
TABLE
  2
BLOCK_RECORD
  5
1
330
0
100
AcDbSymbolTable
 70
     1
  0
BLOCK_RECORD
  5
1F
330
1
100
AcDbSymbolTableRecord
100
AcDbBlockTableRecord
  2
*Model_Space
340
22
 70
     0
280
     1
281
     0
  0
BLOCK_RECORD
  5
1B
330
1
100
AcDbSymbolTableRecord
100
AcDbBlockTableRecord
  2
*Paper_Space
340
1E
 70
     0
280
     1
281
     0
  0
BLOCK_RECORD
  5
23
330
1
100
AcDbSymbolTableRecord
100
AcDbBlockTableRecord
  2
*Paper_Space0
340
26
 70
     0
280
     1
281
     0
  0
ENDTAB
  0
ENDSEC
  0
SECTION
  2
BLOCKS
  0
BLOCK
  5
20
330
1F
100
AcDbEntity
  8
0
100
AcDbBlockBegin
  2
*Model_Space
 70
     0
 10
0.0
 20
0.0
 30
0.0
  3
*Model_Space
  1

  0
ENDBLK
  5
21
330
1F
100
AcDbEntity
  8
0
100
AcDbBlockEnd
  0
BLOCK
  5
1C
330
1B
100
AcDbEntity
 67
     1
  8
0
100
AcDbBlockBegin
  2
*Paper_Space
 70
     0
 10
0.0
 20
0.0
 30
0.0
  3
*Paper_Space
  1

  0
ENDBLK
  5
1D
330
1B
100
AcDbEntity
 67
     1
  8
0
100
AcDbBlockEnd
  0
BLOCK
  5
24
330
23
100
AcDbEntity
  8
0
100
AcDbBlockBegin
  2
*Paper_Space0
 70
     0
 10
0.0
 20
0.0
 30
0.0
  3
*Paper_Space0
  1

  0
ENDBLK
  5
25
330
23
100
AcDbEntity
  8
0
100
AcDbBlockEnd
  0
ENDSEC
  0
SECTION
  2
ENTITIES
  0
POLYLINE
  5
41
330
1F
100
AcDbEntity
  8
Layer 1
 62
   179
420
  2301728
370
    35
100
AcDb2dPolyline
 66
     1
 10
0.0
 20
0.0
 30
0.0
  0
VERTEX
  5
42
330
41
100
AcDbEntity
  8
Layer 1
 62
   179
420
  2301728
370
    35
100
AcDbVertex
100
AcDb2dVertex
 10
342.3743278623072
 20
-575.0277776340208
 30
0.0
  0
VERTEX
  5
43
330
41
100
AcDbEntity
  8
Layer 1
 62
   179
420
  2301728
370
    35
100
AcDbVertex
100
AcDb2dVertex
 10
62.97432793215718
 20
-575.0277776340208
 30
0.0
  0
VERTEX
  5
44
330
41
100
AcDbEntity
  8
Layer 1
 62
   179
420
  2301728
370
    35
100
AcDbVertex
100
AcDb2dVertex
 10
62.97432793215718
 20
-359.1277776879958
 30
0.0
  0
VERTEX
  5
45
330
41
100
AcDbEntity
  8
Layer 1
 62
   179
420
  2301728
370
    35
100
AcDbVertex
100
AcDb2dVertex
 10
342.3743278623072
 20
-359.1277776879958
 30
0.0
  0
VERTEX
  5
46
330
41
100
AcDbEntity
  8
Layer 1
 62
   179
420
  2301728
370
    35
100
AcDbVertex
100
AcDb2dVertex
 10
342.3743278623072
 20
-575.0277776340208
 30
0.0
  0
SEQEND
  5
47
330
41
100
AcDbEntity
  8
Layer 1
 62
   179
420
  2301728
370
    35
  0
SPLINE
  5
48
330
1F
100
AcDbEntity
  8
Layer 1
 62
   179
420
  2301728
370
    35
100
AcDbSpline
210
0.0
220
0.0
230
1.0
 70
    11
 71
     3
 72
    29
 73
    25
 74
     0
 42
0.0000000001
 43
0.0000000001
 12
1.0
 22
0.0
 32
0.0
 13
1.0
 23
0.0
 33
0.0
 40
0.0
 40
0.0
 40
0.0
 40
0.0
 40
1.0
 40
1.0
 40
1.0
 40
2.0
 40
2.0
 40
2.0
 40
3.0
 40
3.0
 40
3.0
 40
4.0
 40
4.0
 40
4.0
 40
5.0
 40
5.0
 40
5.0
 40
6.0
 40
6.0
 40
6.0
 40
7.0
 40
7.0
 40
7.0
 40
8.0
 40
8.0
 40
8.0
 40
8.0
 10
624.9950099185587
 20
-359.1277776879958
 30
0.0
 10
628.3349291431123
 20
-359.1277776879958
 30
0.0
 10
631.0424686354222
 20
-361.9707695258575
 30
0.0
 10
631.0424686354222
 20
-365.4777776864083
 30
0.0
 10
631.0424686354222
 20
-365.4777776864083
 30
0.0
 10
631.0424686354222
 20
-499.9277776527956
 30
0.0
 10
631.0424686354222
 20
-499.9277776527956
 30
0.0
 10
631.0424686354254
 20
-570.0679408637698
 30
0.0
 10
594.4256054626397
 20
-621.9277776222945
 30
0.0
 10
527.6272209715331
 20
-621.9277776222945
 30
0.0
 10
527.6272209715331
 20
-621.9277776222945
 30
0.0
 10
455.0577163691646
 20
-621.9277776222945
 30
0.0
 10
455.0577163691646
 20
-621.9277776222945
 30
0.0
 10
388.2593318780578
 20
-621.9277776222945
 30
0.0
 10
351.6424687052741
 20
-570.067940863773
 30
0.0
 10
351.6424687052728
 20
-499.9277776527956
 30
0.0
 10
351.6424687052728
 20
-499.9277776527956
 30
0.0
 10
351.6424687052728
 20
-365.4777776864083
 30
0.0
 10
351.6424687052728
 20
-365.4777776864083
 30
0.0
 10
351.6424687052728
 20
-361.9708427371983
 30
0.0
 10
354.3500779208183
 20
-359.1277776879958
 30
0.0
 10
357.6899274221353
 20
-359.1277776879958
 30
0.0
 10
357.6899274221353
 20
-359.1277776879958
 30
0.0
 10
624.9950099185587
 20
-359.1277776879958
 30
0.0
 10
624.9950099185587
 20
-359.1277776879958
 30
0.0
  0
SPLINE
  5
49
330
1F
100
AcDbEntity
  8
Layer 1
 62
   179
420
  2301728
370
    35
100
AcDbSpline
210
0.0
220
0.0
230
1.0
 70
    11
 71
     3
 72
   164
 73
   160
 74
     0
 42
0.0000000001
 43
0.0000000001
 12
1.0
 22
0.0
 32
0.0
 13
1.0
 23
0.0
 33
0.0
 40
0.0
 40
0.0
 40
0.0
 40
0.0
 40
1.0
 40
1.0
 40
1.0
 40
2.0
 40
2.0
 40
2.0
 40
3.0
 40
3.0
 40
3.0
 40
4.0
 40
4.0
 40
4.0
 40
5.0
 40
5.0
 40
5.0
 40
6.0
 40
6.0
 40
6.0
 40
7.0
 40
7.0
 40
7.0
 40
8.0
 40
8.0
 40
8.0
 40
9.0
 40
9.0
 40
9.0
 40
10.0
 40
10.0
 40
10.0
 40
11.0
 40
11.0
 40
11.0
 40
12.0
 40
12.0
 40
12.0
 40
13.0
 40
13.0
 40
13.0
 40
14.0
 40
14.0
 40
14.0
 40
15.0
 40
15.0
 40
15.0
 40
16.0
 40
16.0
 40
16.0
 40
17.0
 40
17.0
 40
17.0
 40
18.0
 40
18.0
 40
18.0
 40
19.0
 40
19.0
 40
19.0
 40
20.0
 40
20.0
 40
20.0
 40
21.0
 40
21.0
 40
21.0
 40
22.0
 40
22.0
 40
22.0
 40
23.0
 40
23.0
 40
23.0
 40
24.0
 40
24.0
 40
24.0
 40
25.0
 40
25.0
 40
25.0
 40
26.0
 40
26.0
 40
26.0
 40
27.0
 40
27.0
 40
27.0
 40
28.0
 40
28.0
 40
28.0
 40
29.0
 40
29.0
 40
29.0
 40
30.0
 40
30.0
 40
30.0
 40
31.0
 40
31.0
 40
31.0
 40
32.0
 40
32.0
 40
32.0
 40
33.0
 40
33.0
 40
33.0
 40
34.0
 40
34.0
 40
34.0
 40
35.0
 40
35.0
 40
35.0
 40
36.0
 40
36.0
 40
36.0
 40
37.0
 40
37.0
 40
37.0
 40
38.0
 40
38.0
 40
38.0
 40
39.0
 40
39.0
 40
39.0
 40
40.0
 40
40.0
 40
40.0
 40
41.0
 40
41.0
 40
41.0
 40
42.0
 40
42.0
 40
42.0
 40
43.0
 40
43.0
 40
43.0
 40
44.0
 40
44.0
 40
44.0
 40
45.0
 40
45.0
 40
45.0
 40
46.0
 40
46.0
 40
46.0
 40
47.0
 40
47.0
 40
47.0
 40
48.0
 40
48.0
 40
48.0
 40
49.0
 40
49.0
 40
49.0
 40
50.0
 40
50.0
 40
50.0
 40
51.0
 40
51.0
 40
51.0
 40
52.0
 40
52.0
 40
52.0
 40
53.0
 40
53.0
 40
53.0
 40
53.0
 10
913.761451323209
 20
-359.1277776879958
 30
0.0
 10
913.761451323209
 20
-359.1277776879958
 30
0.0
 10
897.7011051900713
 20
-359.1277776879958
 30
0.0
 10
897.7011051900713
 20
-359.1277776879958
 30
0.0
 10
897.7011051900713
 20
-359.1277776879958
 30
0.0
 10
897.7011051900713
 20
-359.1227177040016
 30
0.0
 10
897.7011051900713
 20
-359.1227177040016
 30
0.0
 10
897.7011051900713
 20
-359.1227177040016
 30
0.0
 10
906.0130870673336
 20
-359.1227177040016
 30
0.0
 10
906.0130870673336
 20
-359.1227177040016
 30
0.0
 10
906.0130870673336
 20
-359.1227177040016
 30
0.0
 10
906.0130870673336
 20
-356.6525627092329
 30
0.0
 10
906.0130870673336
 20
-356.6525627092329
 30
0.0
 10
906.0130870673336
 20
-356.6525627092329
 30
0.0
 10
897.7011051900713
 20
-351.0342794600388
 30
0.0
 10
897.7011051900713
 20
-351.0342794600388
 30
0.0
 10
897.7011051900713
 20
-351.0342794600388
 30
0.0
 10
892.3954232663933
 20
-351.0342794600388
 30
0.0
 10
892.3954232663933
 20
-351.0342794600388
 30
0.0
 10
891.4029094569129
 20
-351.0342794600388
 30
0.0
 10
890.5605439157089
 20
-351.7621546903312
 30
0.0
 10
890.4165757940394
 20
-352.7441714121609
 30
0.0
 10
890.4165757940394
 20
-352.7441714121609
 30
0.0
 10
889.4814518718138
 20
-359.1227177040016
 30
0.0
 10
889.4814518718138
 20
-359.1227177040016
 30
0.0
 10
889.4814518718138
 20
-359.1227177040016
 30
0.0
 10
889.4814518718138
 20
-359.1277776879958
 30
0.0
 10
889.4814518718138
 20
-359.1277776879958
 30
0.0
 10
889.4814518718138
 20
-359.1277776879958
 30
0.0
 10
844.3165945697368
 20
-359.1277776879958
 30
0.0
 10
844.3165945697368
 20
-359.1277776879958
 30
0.0
 10
844.3165945697368
 20
-359.1277776879958
 30
0.0
 10
844.3165945697368
 20
-359.1227177040016
 30
0.0
 10
844.3165945697368
 20
-359.1227177040016
 30
0.0
 10
844.3165945697368
 20
-359.1227177040016
 30
0.0
 10
852.6285764469991
 20
-359.1227177040016
 30
0.0
 10
852.6285764469991
 20
-359.1227177040016
 30
0.0
 10
852.6285764469991
 20
-359.1227177040016
 30
0.0
 10
852.6285764469991
 20
-356.6525627092329
 30
0.0
 10
852.6285764469991
 20
-356.6525627092329
 30
0.0
 10
852.6285764469991
 20
-356.6525627092329
 30
0.0
 10
844.3165945697368
 20
-351.0342794600388
 30
0.0
 10
844.3165945697368
 20
-351.0342794600388
 30
0.0
 10
844.3165945697368
 20
-351.0342794600388
 30
0.0
 10
839.010912646059
 20
-351.0342794600388
 30
0.0
 10
839.010912646059
 20
-351.0342794600388
 30
0.0
 10
838.0183988365785
 20
-351.0342794600388
 30
0.0
 10
837.1760332953744
 20
-351.7621546903312
 30
0.0
 10
837.0320651737051
 20
-352.7441714121609
 30
0.0
 10
837.0320651737051
 20
-352.7441714121609
 30
0.0
 10
836.0969412514793
 20
-359.1227177040016
 30
0.0
 10
836.0969412514793
 20
-359.1227177040016
 30
0.0
 10
836.0969412514793
 20
-359.1227177040016
 30
0.0
 10
836.0969412514793
 20
-359.1277776879958
 30
0.0
 10
836.0969412514793
 20
-359.1277776879958
 30
0.0
 10
836.0969412514793
 20
-359.1277776879958
 30
0.0
 10
792.6096731959449
 20
-359.1277776879958
 30
0.0
 10
792.6096731959449
 20
-359.1277776879958
 30
0.0
 10
792.6096731959449
 20
-359.1277776879958
 30
0.0
 10
792.6096731959449
 20
-358.8711180743447
 30
0.0
 10
792.6096731959449
 20
-358.8711180743447
 30
0.0
 10
838.1999997904501
 20
-345.3765068038468
 30
0.0
 10
853.8999889358306
 20
-327.5453815912908
 30
0.0
 10
857.3726451849624
 20
-267.0438204627529
 30
0.0
 10
857.3962440890364
 20
-265.1386826594098
 30
0.0
 10
853.2299178639495
 20
-264.2774087880973
 30
0.0
 10
852.0441159979265
 20
-265.768790623662
 30
0.0
 10
841.9980453081637
 20
-278.4050563540098
 30
0.0
 10
813.9361922878354
 20
-301.2857441466838
 30
0.0
 10
780.1096609920386
 20
-301.2857441466838
 30
0.0
 10
745.3872326153025
 20
-301.2857441466838
 30
0.0
 10
718.0795109966955
 20
-278.6951333938679
 30
0.0
 10
708.1917424444799
 20
-265.9343274617282
 30
0.0
 10
707.0166203744611
 20
-264.4179686838955
 30
0.0
 10
702.738586928267
 20
-265.2729337241006
 30
0.0
 10
702.8485716016316
 20
-267.1883422183592
 30
0.0
 10
706.3212278507634
 20
-327.689903346897
 30
0.0
 10
723.0180553748011
 20
-345.3765068038468
 30
0.0
 10
767.6096487881323
 20
-358.8709458195705
 30
0.0
 10
767.6096487881323
 20
-358.8709458195705
 30
0.0
 10
767.6096487881323
 20
-359.1277776879958
 30
0.0
 10
767.6096487881323
 20
-359.1277776879958
 30
0.0
 10
767.6096487881323
 20
-359.1277776879958
 30
0.0
 10
724.1210026944038
 20
-359.1277776879958
 30
0.0
 10
724.1210026944038
 20
-359.1277776879958
 30
0.0
 10
724.1210026944038
 20
-359.1277776879958
 30
0.0
 10
724.1210026944038
 20
-359.1227177040016
 30
0.0
 10
724.1210026944038
 20
-359.1227177040016
 30
0.0
 10
724.1210026944038
 20
-359.1227177040016
 30
0.0
 10
723.1858787721781
 20
-352.7441714121609
 30
0.0
 10
723.1858787721781
 20
-352.7441714121609
 30
0.0
 10
723.0419106505086
 20
-351.7621546903312
 30
0.0
 10
722.1995451093046
 20
-351.0342794600388
 30
0.0
 10
721.2070312998242
 20
-351.0342794600388
 30
0.0
 10
721.2070312998242
 20
-351.0342794600388
 30
0.0
 10
715.9013493761462
 20
-351.0342794600388
 30
0.0
 10
715.9013493761462
 20
-351.0342794600388
 30
0.0
 10
715.9013493761462
 20
-351.0342794600388
 30
0.0
 10
707.5893674988839
 20
-356.6525627092329
 30
0.0
 10
707.5893674988839
 20
-356.6525627092329
 30
0.0
 10
707.5893674988839
 20
-356.6525627092329
 30
0.0
 10
707.5893674988839
 20
-359.1227177040016
 30
0.0
 10
707.5893674988839
 20
-359.1227177040016
 30
0.0
 10
707.5893674988839
 20
-359.1227177040016
 30
0.0
 10
715.9013493761462
 20
-359.1227177040016
 30
0.0
 10
715.9013493761462
 20
-359.1227177040016
 30
0.0
 10
715.9013493761462
 20
-359.1227177040016
 30
0.0
 10
715.9013493761462
 20
-359.1277776879958
 30
0.0
 10
715.9013493761462
 20
-359.1277776879958
 30
0.0
 10
715.9013493761462
 20
-359.1277776879958
 30
0.0
 10
670.7364059466842
 20
-359.1277776879958
 30
0.0
 10
670.7364059466842
 20
-359.1277776879958
 30
0.0
 10
670.7364059466842
 20
-359.1277776879958
 30
0.0
 10
670.7364059466842
 20
-359.1227177040016
 30
0.0
 10
670.7364059466842
 20
-359.1227177040016
 30
0.0
 10
670.7364059466842
 20
-359.1227177040016
 30
0.0
 10
669.8012820244552
 20
-352.7441714121609
 30
0.0
 10
669.8012820244552
 20
-352.7441714121609
 30
0.0
 10
669.6573139027884
 20
-351.7621546903312
 30
0.0
 10
668.8149483615811
 20
-351.0342794600388
 30
0.0
 10
667.8224345521006
 20
-351.0342794600388
 30
0.0
 10
667.8224345521006
 20
-351.0342794600388
 30
0.0
 10
662.5167526284266
 20
-351.0342794600388
 30
0.0
 10
662.5167526284266
 20
-351.0342794600388
 30
0.0
 10
662.5167526284266
 20
-351.0342794600388
 30
0.0
 10
654.2047707511643
 20
-356.6525627092329
 30
0.0
 10
654.2047707511643
 20
-356.6525627092329
 30
0.0
 10
654.2047707511643
 20
-356.6525627092329
 30
0.0
 10
654.2047707511643
 20
-359.1227177040016
 30
0.0
 10
654.2047707511643
 20
-359.1227177040016
 30
0.0
 10
654.2047707511643
 20
-359.1227177040016
 30
0.0
 10
662.5167526284266
 20
-359.1227177040016
 30
0.0
 10
662.5167526284266
 20
-359.1227177040016
 30
0.0
 10
662.5167526284266
 20
-359.1227177040016
 30
0.0
 10
662.5167526284266
 20
-359.1277776879958
 30
0.0
 10
662.5167526284266
 20
-359.1277776879958
 30
0.0
 10
662.5167526284266
 20
-359.1277776879958
 30
0.0
 10
646.4564064952889
 20
-359.1277776879958
 30
0.0
 10
646.4564064952889
 20
-359.1277776879958
 30
0.0
 10
643.1165586771134
 20
-359.1277776879958
 30
0.0
 10
640.4089289441736
 20
-361.9708427371983
 30
0.0
 10
640.4089289441736
 20
-365.4777776864083
 30
0.0
 10
640.4089289441736
 20
-365.4777776864083
 30
0.0
 10
640.4089289441736
 20
-499.9277966415111
 30
0.0
 10
640.4089289441736
 20
-499.9277966415111
 30
0.0
 10
640.4089289441736
 20
-570.0679597912957
 30
0.0
 10
677.0257722645563
 20
-621.9277572772438
 30
0.0
 10
743.8241927936447
 20
-621.9277572772438
 30
0.0
 10
743.8241927936447
 20
-621.9277572772438
 30
0.0
 10
816.3936650248532
 20
-621.9277572772438
 30
0.0
 10
816.3936650248532
 20
-621.9277572772438
 30
0.0
 10
883.1920855539416
 20
-621.9277572772438
 30
0.0
 10
919.8089719380165
 20
-570.0679597912957
 30
0.0
 10
919.8089719380165
 20
-499.9277966415111
 30
0.0
 10
919.8089719380165
 20
-499.9277966415111
 30
0.0
 10
919.8089719380165
 20
-365.4777776864083
 30
0.0
 10
919.8089719380165
 20
-365.4777776864083
 30
0.0
 10
919.8089719380165
 20
-361.9707566098131
 30
0.0
 10
917.1013852687735
 20
-359.1277776879958
 30
0.0
 10
913.761451323209
 20
-359.1277776879958
 30
0.0
  0
SPLINE
  5
4A
330
1F
100
AcDbEntity
  8
Layer 1
 62
   179
420
  2301728
370
    35
100
AcDbSpline
210
0.0
220
0.0
230
1.0
 70
    11
 71
     3
 72
    17
 73
    13
 74
     0
 42
0.0000000001
 43
0.0000000001
 12
1.0
 22
0.0
 32
0.0
 13
1.0
 23
0.0
 33
0.0
 40
0.0
 40
0.0
 40
0.0
 40
0.0
 40
1.0
 40
1.0
 40
1.0
 40
2.0
 40
2.0
 40
2.0
 40
3.0
 40
3.0
 40
3.0
 40
4.0
 40
4.0
 40
4.0
 40
4.0
 10
97.72432792346932
 20
-370.5062499073721
 30
0.0
 10
97.72432792346932
 20
-372.1631041563584
 30
0.0
 10
96.3811821732056
 20
-373.506249906624
 30
0.0
 10
94.72432792421968
 20
-373.506249906624
 30
0.0
 10
93.06747367523312
 20
-373.506249906624
 30
0.0
 10
91.7243279249694
 20
-372.1631041563584
 30
0.0
 10
91.7243279249694
 20
-370.5062499073721
 30
0.0
 10
91.7243279249694
 20
-368.8493956583859
 30
0.0
 10
93.06747367523312
 20
-367.5062499081234
 30
0.0
 10
94.72432792421968
 20
-367.5062499081234
 30
0.0
 10
96.3811821732056
 20
-367.5062499081234
 30
0.0
 10
97.72432792346932
 20
-368.8493956583859
 30
0.0
 10
97.72432792346932
 20
-370.5062499073721
 30
0.0
  0
SPLINE
  5
4B
330
1F
100
AcDbEntity
  8
Layer 1
 62
   179
420
  2301728
370
    35
100
AcDbSpline
210
0.0
220
0.0
230
1.0
 70
    11
 71
     3
 72
    17
 73
    13
 74
     0
 42
0.0000000001
 43
0.0000000001
 12
1.0
 22
0.0
 32
0.0
 13
1.0
 23
0.0
 33
0.0
 40
0.0
 40
0.0
 40
0.0
 40
0.0
 40
1.0
 40
1.0
 40
1.0
 40
2.0
 40
2.0
 40
2.0
 40
3.0
 40
3.0
 40
3.0
 40
4.0
 40
4.0
 40
4.0
 40
4.0
 10
205.6743278964818
 20
-370.5062499073721
 30
0.0
 10
205.6743278964818
 20
-372.1631041563584
 30
0.0
 10
204.3311821462184
 20
-373.506249906624
 30
0.0
 10
202.6743278972322
 20
-373.506249906624
 30
0.0
 10
201.0174736482463
 20
-373.506249906624
 30
0.0
 10
199.6743278979822
 20
-372.1631041563584
 30
0.0
 10
199.6743278979822
 20
-370.5062499073721
 30
0.0
 10
199.6743278979822
 20
-368.8493956583859
 30
0.0
 10
201.0174736482463
 20
-367.5062499081234
 30
0.0
 10
202.6743278972322
 20
-367.5062499081234
 30
0.0
 10
204.3311821462184
 20
-367.5062499081234
 30
0.0
 10
205.6743278964818
 20
-368.8493956583859
 30
0.0
 10
205.6743278964818
 20
-370.5062499073721
 30
0.0
  0
SPLINE
  5
4C
330
1F
100
AcDbEntity
  8
Layer 1
 62
   179
420
  2301728
370
    35
100
AcDbSpline
210
0.0
220
0.0
230
1.0
 70
    11
 71
     3
 72
    17
 73
    13
 74
     0
 42
0.0000000001
 43
0.0000000001
 12
1.0
 22
0.0
 32
0.0
 13
1.0
 23
0.0
 33
0.0
 40
0.0
 40
0.0
 40
0.0
 40
0.0
 40
1.0
 40
1.0
 40
1.0
 40
2.0
 40
2.0
 40
2.0
 40
3.0
 40
3.0
 40
3.0
 40
4.0
 40
4.0
 40
4.0
 40
4.0
 10
313.6243278694943
 20
-370.5062499073721
 30
0.0
 10
313.6243278694943
 20
-372.1631041563584
 30
0.0
 10
312.2811821192309
 20
-373.506249906624
 30
0.0
 10
310.6243278702447
 20
-373.506249906624
 30
0.0
 10
308.9674736212588
 20
-373.506249906624
 30
0.0
 10
307.6243278709948
 20
-372.1631041563584
 30
0.0
 10
307.6243278709948
 20
-370.5062499073721
 30
0.0
 10
307.6243278709948
 20
-368.8493956583859
 30
0.0
 10
308.9674736212588
 20
-367.5062499081234
 30
0.0
 10
310.6243278702447
 20
-367.5062499081234
 30
0.0
 10
312.2811821192309
 20
-367.5062499081234
 30
0.0
 10
313.6243278694943
 20
-368.8493956583859
 30
0.0
 10
313.6243278694943
 20
-370.5062499073721
 30
0.0
  0
POLYLINE
  5
4D
330
1F
100
AcDbEntity
  8
Layer 1
 62
   179
420
  2301728
370
    35
100
AcDb2dPolyline
 66
     1
 10
0.0
 20
0.0
 30
0.0
  0
VERTEX
  5
4E
330
4D
100
AcDbEntity
  8
Layer 1
 62
   179
420
  2301728
370
    35
100
AcDbVertex
100
AcDb2dVertex
 10
363.2497061163556
 20
-402.5580823106262
 30
0.0
  0
VERTEX
  5
4F
330
4D
100
AcDbEntity
  8
Layer 1
 62
   179
420
  2301728
370
    35
100
AcDbVertex
100
AcDb2dVertex
 10
363.2497061151493
 20
-417.7580823063363
 30
0.0
  0
SEQEND
  5
50
330
4D
100
AcDbEntity
  8
Layer 1
 62
   179
420
  2301728
370
    35
  0
POLYLINE
  5
51
330
1F
100
AcDbEntity
  8
Layer 1
 62
   179
420
  2301728
370
    35
100
AcDb2dPolyline
 66
     1
 10
0.0
 20
0.0
 30
0.0
  0
VERTEX
  5
52
330
51
100
AcDbEntity
  8
Layer 1
 62
   179
420
  2301728
370
    35
100
AcDbVertex
100
AcDb2dVertex
 10
368.9552616704824
 20
-403.1580823104745
 30
0.0
  0
VERTEX
  5
53
330
51
100
AcDbEntity
  8
Layer 1
 62
   179
420
  2301728
370
    35
100
AcDbVertex
100
AcDb2dVertex
 10
368.9552616692795
 20
-417.1580823064775
 30
0.0
  0
SEQEND
  5
54
330
51
100
AcDbEntity
  8
Layer 1
 62
   179
420
  2301728
370
    35
  0
POLYLINE
  5
55
330
1F
100
AcDbEntity
  8
Layer 1
 62
   179
420
  2301728
370
    35
100
AcDb2dPolyline
 66
     1
 10
0.0
 20
0.0
 30
0.0
  0
VERTEX
  5
56
330
55
100
AcDbEntity
  8
Layer 1
 62
   179
420
  2301728
370
    35
100
AcDbVertex
100
AcDb2dVertex
 10
619.4352312223735
 20
-402.5580823111129
 30
0.0
  0
VERTEX
  5
57
330
55
100
AcDbEntity
  8
Layer 1
 62
   179
420
  2301728
370
    35
100
AcDbVertex
100
AcDb2dVertex
 10
619.4352312229523
 20
-417.7580823068231
 30
0.0
  0
SEQEND
  5
58
330
55
100
AcDbEntity
  8
Layer 1
 62
   179
420
  2301728
370
    35
  0
POLYLINE
  5
59
330
1F
100
AcDbEntity
  8
Layer 1
 62
   179
420
  2301728
370
    35
100
AcDb2dPolyline
 66
     1
 10
0.0
 20
0.0
 30
0.0
  0
VERTEX
  5
5A
330
59
100
AcDbEntity
  8
Layer 1
 62
   179
420
  2301728
370
    35
100
AcDbVertex
100
AcDb2dVertex
 10
613.7296756682468
 20
-403.1580823109718
 30
0.0
  0
VERTEX
  5
5B
330
59
100
AcDbEntity
  8
Layer 1
 62
   179
420
  2301728
370
    35
100
AcDbVertex
100
AcDb2dVertex
 10
613.7296756688218
 20
-417.1580823069748
 30
0.0
  0
SEQEND
  5
5C
330
59
100
AcDbEntity
  8
Layer 1
 62
   179
420
  2301728
370
    35
  0
POLYLINE
  5
5D
330
1F
100
AcDbEntity
  8
Layer 1
 62
   179
420
  2301728
370
    35
100
AcDb2dPolyline
 66
     1
 10
0.0
 20
0.0
 30
0.0
  0
VERTEX
  5
5E
330
5D
100
AcDbEntity
  8
Layer 1
 62
   179
420
  2301728
370
    35
100
AcDbVertex
100
AcDb2dVertex
 10
844.1629474692262
 20
-340.0459376632214
 30
0.0
  0
VERTEX
  5
DE
330
5D
100
AcDbEntity
  8
0
100
AcDbVertex
100
AcDb2dVertex
 10
844.1629474692262
 20
-340.0459376632214
 30
0.0
  0
SEQEND
  5
5F
330
5D
100
AcDbEntity
  8
Layer 1
 62
   179
420
  2301728
370
    35
  0
POLYLINE
  5
60
330
1F
100
AcDbEntity
  8
Layer 1
 62
   179
420
  2301728
370
    35
100
AcDb2dPolyline
 66
     1
 10
0.0
 20
0.0
 30
0.0
  0
VERTEX
  5
61
330
60
100
AcDbEntity
  8
Layer 1
 62
   179
420
  2301728
370
    35
100
AcDbVertex
100
AcDb2dVertex
 10
652.0161650296246
 20
-402.5580823106262
 30
0.0
  0
VERTEX
  5
62
330
60
100
AcDbEntity
  8
Layer 1
 62
   179
420
  2301728
370
    35
100
AcDbVertex
100
AcDb2dVertex
 10
652.0161650284214
 20
-417.7580823063363
 30
0.0
  0
SEQEND
  5
63
330
60
100
AcDbEntity
  8
Layer 1
 62
   179
420
  2301728
370
    35
  0
POLYLINE
  5
64
330
1F
100
AcDbEntity
  8
Layer 1
 62
   179
420
  2301728
370
    35
100
AcDb2dPolyline
 66
     1
 10
0.0
 20
0.0
 30
0.0
  0
VERTEX
  5
65
330
64
100
AcDbEntity
  8
Layer 1
 62
   179
420
  2301728
370
    35
100
AcDbVertex
100
AcDb2dVertex
 10
657.7217205837545
 20
-403.1580823104745
 30
0.0
  0
VERTEX
  5
66
330
64
100
AcDbEntity
  8
Layer 1
 62
   179
420
  2301728
370
    35
100
AcDbVertex
100
AcDb2dVertex
 10
657.7217205825514
 20
-417.1580823064775
 30
0.0
  0
SEQEND
  5
67
330
64
100
AcDbEntity
  8
Layer 1
 62
   179
420
  2301728
370
    35
  0
POLYLINE
  5
68
330
1F
100
AcDbEntity
  8
Layer 1
 62
   179
420
  2301728
370
    35
100
AcDb2dPolyline
 66
     1
 10
0.0
 20
0.0
 30
0.0
  0
VERTEX
  5
69
330
68
100
AcDbEntity
  8
Layer 1
 62
   179
420
  2301728
370
    35
100
AcDbVertex
100
AcDb2dVertex
 10
908.201690135646
 20
-402.5580823111129
 30
0.0
  0
VERTEX
  5
6A
330
68
100
AcDbEntity
  8
Layer 1
 62
   179
420
  2301728
370
    35
100
AcDbVertex
100
AcDb2dVertex
 10
908.201690136221
 20
-417.7580823068231
 30
0.0
  0
SEQEND
  5
6B
330
68
100
AcDbEntity
  8
Layer 1
 62
   179
420
  2301728
370
    35
  0
POLYLINE
  5
6C
330
1F
100
AcDbEntity
  8
Layer 1
 62
   179
420
  2301728
370
    35
100
AcDb2dPolyline
 66
     1
 10
0.0
 20
0.0
 30
0.0
  0
VERTEX
  5
6D
330
6C
100
AcDbEntity
  8
Layer 1
 62
   179
420
  2301728
370
    35
100
AcDbVertex
100
AcDb2dVertex
 10
902.4961345815193
 20
-403.1580823109718
 30
0.0
  0
VERTEX
  5
6E
330
6C
100
AcDbEntity
  8
Layer 1
 62
   179
420
  2301728
370
    35
100
AcDbVertex
100
AcDb2dVertex
 10
902.4961345820942
 20
-417.1580823069748
 30
0.0
  0
SEQEND
  5
6F
330
6C
100
AcDbEntity
  8
Layer 1
 62
   179
420
  2301728
370
    35
  0
SPLINE
  5
70
330
1F
100
AcDbEntity
  8
Layer 1
 62
   179
420
  2301728
370
    35
100
AcDbSpline
210
0.0
220
0.0
230
1.0
 70
     8
 71
     3
 72
    17
 73
    13
 74
     0
 42
0.0000000001
 43
0.0000000001
 12
1.0
 22
0.0
 32
0.0
 13
1.0
 23
0.0
 33
0.0
 40
0.0
 40
0.0
 40
0.0
 40
0.0
 40
1.0
 40
1.0
 40
1.0
 40
2.0
 40
2.0
 40
2.0
 40
3.0
 40
3.0
 40
3.0
 40
4.0
 40
4.0
 40
4.0
 40
4.0
 10
726.8126131917927
 20
-307.4085014500544
 30
0.0
 10
730.1944050474991
 20
-306.6818016211352
 30
0.0
 10
732.7304259615768
 20
-303.6778936764651
 30
0.0
 10
732.7304259615806
 20
-300.079060805186
 30
0.0
 10
732.7304259615806
 20
-295.9369794395766
 30
0.0
 10
729.3725344558005
 20
-292.5790879337972
 30
0.0
 10
725.2304530901916
 20
-292.5790879337968
 30
0.0
 10
721.0883717245797
 20
-292.5790879337968
 30
0.0
 10
717.7304802188028
 20
-295.9369794395762
 30
0.0
 10
717.7304802188028
 20
-300.0790608051854
 30
0.0
 10
717.7304802187989
 20
-303.6778936764645
 30
0.0
 10
720.2665011328804
 20
-306.6818016211345
 30
0.0
 10
723.6480776701203
 20
-307.408501450055
 30
0.0
  0
SPLINE
  5
71
330
1F
100
AcDbEntity
  8
Layer 1
 62
   179
420
  2301728
370
    35
100
AcDbSpline
210
0.0
220
0.0
230
1.0
 70
     8
 71
     3
 72
    17
 73
    13
 74
     0
 42
0.0000000001
 43
0.0000000001
 12
1.0
 22
0.0
 32
0.0
 13
1.0
 23
0.0
 33
0.0
 40
0.0
 40
0.0
 40
0.0
 40
0.0
 40
1.0
 40
1.0
 40
1.0
 40
2.0
 40
2.0
 40
2.0
 40
3.0
 40
3.0
 40
3.0
 40
4.0
 40
4.0
 40
4.0
 40
4.0
 10
737.9387206152579
 20
-328.0741281912115
 30
0.0
 10
741.3205124709682
 20
-327.3474283622916
 30
0.0
 10
743.8565333850459
 20
-324.3435204176215
 30
0.0
 10
743.8565333850459
 20
-320.7446875463424
 30
0.0
 10
743.8565333850459
 20
-316.6026061807329
 30
0.0
 10
740.4986418792689
 20
-313.2447146749535
 30
0.0
 10
736.356560513657
 20
-313.2447146749535
 30
0.0
 10
732.2144791480481
 20
-313.2447146749535
 30
0.0
 10
728.8565876422681
 20
-316.6026061807329
 30
0.0
 10
728.8565876422681
 20
-320.7446875463424
 30
0.0
 10
728.8565876422681
 20
-324.3435204176215
 30
0.0
 10
731.3926085563495
 20
-327.3474283622916
 30
0.0
 10
734.7741850935888
 20
-328.0741281912115
 30
0.0
  0
SPLINE
  5
72
330
1F
100
AcDbEntity
  8
Layer 1
 62
   179
420
  2301728
370
    35
100
AcDbSpline
210
0.0
220
0.0
230
1.0
 70
     8
 71
     3
 72
    17
 73
    13
 74
     0
 42
0.0000000001
 43
0.0000000001
 12
1.0
 22
0.0
 32
0.0
 13
1.0
 23
0.0
 33
0.0
 40
0.0
 40
0.0
 40
0.0
 40
0.0
 40
1.0
 40
1.0
 40
1.0
 40
2.0
 40
2.0
 40
2.0
 40
3.0
 40
3.0
 40
3.0
 40
4.0
 40
4.0
 40
4.0
 40
4.0
 10
767.9827316965336
 20
-327.0741281915534
 30
0.0
 10
771.3645235522432
 20
-326.3474283626335
 30
0.0
 10
773.9005444663214
 20
-323.3435204179635
 30
0.0
 10
773.9005444663214
 20
-319.7446875466844
 30
0.0
 10
773.9005444663214
 20
-315.602606181075
 30
0.0
 10
770.5426529605407
 20
-312.2447146752955
 30
0.0
 10
766.4005715949326
 20
-312.2447146752955
 30
0.0
 10
762.2584902293206
 20
-312.2447146752955
 30
0.0
 10
758.9005987235437
 20
-315.602606181075
 30
0.0
 10
758.9005987235437
 20
-319.7446875466844
 30
0.0
 10
758.9005987235437
 20
-323.3435204179635
 30
0.0
 10
761.4366196376245
 20
-326.3474283626335
 30
0.0
 10
764.8181961748612
 20
-327.0741281915534
 30
0.0
  0
SPLINE
  5
73
330
1F
100
AcDbEntity
  8
Layer 1
 62
   179
420
  2301728
370
    35
100
AcDbSpline
210
0.0
220
0.0
230
1.0
 70
     8
 71
     3
 72
    17
 73
    13
 74
     0
 42
0.0000000001
 43
0.0000000001
 12
1.0
 22
0.0
 32
0.0
 13
1.0
 23
0.0
 33
0.0
 40
0.0
 40
0.0
 40
0.0
 40
0.0
 40
1.0
 40
1.0
 40
1.0
 40
2.0
 40
2.0
 40
2.0
 40
3.0
 40
3.0
 40
3.0
 40
4.0
 40
4.0
 40
4.0
 40
4.0
 10
755.5836324500588
 20
-348.1343833827345
 30
0.0
 10
758.9654243057684
 20
-347.4076835538156
 30
0.0
 10
761.5014452198467
 20
-344.4037756091445
 30
0.0
 10
761.5014452198467
 20
-340.8049427378654
 30
0.0
 10
761.5014452198467
 20
-336.662861372256
 30
0.0
 10
758.1435537140659
 20
-333.3049698664772
 30
0.0
 10
754.0014723484577
 20
-333.3049698664772
 30
0.0
 10
749.8593909828489
 20
-333.3049698664765
 30
0.0
 10
746.5014994770688
 20
-336.662861372256
 30
0.0
 10
746.5014994770688
 20
-340.8049427378654
 30
0.0
 10
746.5014994770688
 20
-344.4037756091445
 30
0.0
 10
749.0375203911497
 20
-347.4076835538146
 30
0.0
 10
752.4190969283895
 20
-348.1343833827351
 30
0.0
  0
SPLINE
  5
74
330
1F
100
AcDbEntity
  8
Layer 1
 62
   179
420
  2301728
370
    35
100
AcDbSpline
210
0.0
220
0.0
230
1.0
 70
     8
 71
     3
 72
    17
 73
    13
 74
     0
 42
0.0000000001
 43
0.0000000001
 12
1.0
 22
0.0
 32
0.0
 13
1.0
 23
0.0
 33
0.0
 40
0.0
 40
0.0
 40
0.0
 40
0.0
 40
1.0
 40
1.0
 40
1.0
 40
2.0
 40
2.0
 40
2.0
 40
3.0
 40
3.0
 40
3.0
 40
4.0
 40
4.0
 40
4.0
 40
4.0
 10
781.6910894693057
 20
-352.7912214064376
 30
0.0
 10
785.0728813250122
 20
-352.0645215775161
 30
0.0
 10
787.6089022390897
 20
-349.0606136328461
 30
0.0
 10
787.6089022390897
 20
-345.461780761567
 30
0.0
 10
787.6089022390936
 20
-341.3196993959575
 30
0.0
 10
784.2510107333135
 20
-337.9618078901787
 30
0.0
 10
780.1089293677047
 20
-337.9618078901781
 30
0.0
 10
775.9668480020927
 20
-337.9618078901781
 30
0.0
 10
772.6089564963158
 20
-341.3196993959575
 30
0.0
 10
772.608956496312
 20
-345.461780761567
 30
0.0
 10
772.6089564963158
 20
-349.0606136328461
 30
0.0
 10
775.1449774103935
 20
-352.0645215775161
 30
0.0
 10
778.5265539476334
 20
-352.7912214064376
 30
0.0
  0
SPLINE
  5
75
330
1F
100
AcDbEntity
  8
Layer 1
 62
   179
420
  2301728
370
    35
100
AcDbSpline
210
0.0
220
0.0
230
1.0
 70
     8
 71
     3
 72
    17
 73
    13
 74
     0
 42
0.0000000001
 43
0.0000000001
 12
1.0
 22
0.0
 32
0.0
 13
1.0
 23
0.0
 33
0.0
 40
0.0
 40
0.0
 40
0.0
 40
0.0
 40
1.0
 40
1.0
 40
1.0
 40
2.0
 40
2.0
 40
2.0
 40
3.0
 40
3.0
 40
3.0
 40
4.0
 40
4.0
 40
4.0
 40
4.0
 10
795.5104877660422
 20
-327.0059153009455
 30
0.0
 10
798.8922796217487
 20
-326.2792154720262
 30
0.0
 10
801.4283005358269
 20
-323.2753075273562
 30
0.0
 10
801.4283005358269
 20
-319.6764746560771
 30
0.0
 10
801.4283005358269
 20
-315.5343932904677
 30
0.0
 10
798.0704090300501
 20
-312.1765017846882
 30
0.0
 10
793.928327664438
 20
-312.1765017846876
 30
0.0
 10
789.7862462988293
 20
-312.1765017846876
 30
0.0
 10
786.4283547930492
 20
-315.534393290467
 30
0.0
 10
786.4283547930492
 20
-319.6764746560764
 30
0.0
 10
786.4283547930492
 20
-323.2753075273556
 30
0.0
 10
788.96437570713
 20
-326.2792154720256
 30
0.0
 10
792.3459522443737
 20
-327.0059153009461
 30
0.0
  0
SPLINE
  5
76
330
1F
100
AcDbEntity
  8
Layer 1
 62
   179
420
  2301728
370
    35
100
AcDbSpline
210
0.0
220
0.0
230
1.0
 70
     8
 71
     3
 72
    17
 73
    13
 74
     0
 42
0.0000000001
 43
0.0000000001
 12
1.0
 22
0.0
 32
0.0
 13
1.0
 23
0.0
 33
0.0
 40
0.0
 40
0.0
 40
0.0
 40
0.0
 40
1.0
 40
1.0
 40
1.0
 40
2.0
 40
2.0
 40
2.0
 40
3.0
 40
3.0
 40
3.0
 40
4.0
 40
4.0
 40
4.0
 40
4.0
 10
807.9096304152928
 20
-348.1343833827345
 30
0.0
 10
811.2914222710031
 20
-347.4076835538156
 30
0.0
 10
813.8274431850807
 20
-344.4037756091445
 30
0.0
 10
813.8274431850807
 20
-340.8049427378654
 30
0.0
 10
813.8274431850807
 20
-336.662861372256
 30
0.0
 10
810.4695516793006
 20
-333.3049698664772
 30
0.0
 10
806.3274703136917
 20
-333.3049698664772
 30
0.0
 10
802.1853889480836
 20
-333.3049698664765
 30
0.0
 10
798.8274974423028
 20
-336.662861372256
 30
0.0
 10
798.8274974423028
 20
-340.8049427378654
 30
0.0
 10
798.8274974423028
 20
-344.4037756091445
 30
0.0
 10
801.3635183563844
 20
-347.4076835538146
 30
0.0
 10
804.7450948936242
 20
-348.1343833827351
 30
0.0
  0
SPLINE
  5
77
330
1F
100
AcDbEntity
  8
Layer 1
 62
   179
420
  2301728
370
    35
100
AcDbSpline
210
0.0
220
0.0
230
1.0
 70
     8
 71
     3
 72
    17
 73
    13
 74
     0
 42
0.0000000001
 43
0.0000000001
 12
1.0
 22
0.0
 32
0.0
 13
1.0
 23
0.0
 33
0.0
 40
0.0
 40
0.0
 40
0.0
 40
0.0
 40
1.0
 40
1.0
 40
1.0
 40
2.0
 40
2.0
 40
2.0
 40
3.0
 40
3.0
 40
3.0
 40
4.0
 40
4.0
 40
4.0
 40
4.0
 10
825.4434745670875
 20
-328.0059139362833
 30
0.0
 10
828.8252664227946
 20
-327.2792141073628
 30
0.0
 10
831.3612873368754
 20
-324.2753061626927
 30
0.0
 10
831.3612873368754
 20
-320.6764732914136
 30
0.0
 10
831.3612873368754
 20
-316.5343919258042
 30
0.0
 10
828.0033958310953
 20
-313.1765004200248
 30
0.0
 10
823.8613144654864
 20
-313.1765004200254
 30
0.0
 10
819.7192330998745
 20
-313.1765004200248
 30
0.0
 10
816.3613415940976
 20
-316.5343919258042
 30
0.0
 10
816.3613415940976
 20
-320.6764732914136
 30
0.0
 10
816.3613415940976
 20
-324.2753061626927
 30
0.0
 10
818.8973625081759
 20
-327.2792141073628
 30
0.0
 10
822.278939045419
 20
-328.0059139362833
 30
0.0
  0
SPLINE
  5
78
330
1F
100
AcDbEntity
  8
Layer 1
 62
   179
420
  2301728
370
    35
100
AcDbSpline
210
0.0
220
0.0
230
1.0
 70
     8
 71
     3
 72
    17
 73
    13
 74
     0
 42
0.0000000001
 43
0.0000000001
 12
1.0
 22
0.0
 32
0.0
 13
1.0
 23
0.0
 33
0.0
 40
0.0
 40
0.0
 40
0.0
 40
0.0
 40
1.0
 40
1.0
 40
1.0
 40
2.0
 40
2.0
 40
2.0
 40
3.0
 40
3.0
 40
3.0
 40
4.0
 40
4.0
 40
4.0
 40
4.0
 10
836.5696078935995
 20
-307.4767402604921
 30
0.0
 10
839.9513997493098
 20
-306.7500404315722
 30
0.0
 10
842.4874206633874
 20
-303.7461324869028
 30
0.0
 10
842.4874206633874
 20
-300.1472996156237
 30
0.0
 10
842.4874206633874
 20
-296.0052182500143
 30
0.0
 10
839.1295291576073
 20
-292.6473267442342
 30
0.0
 10
834.9874477919984
 20
-292.6473267442342
 30
0.0
 10
830.8453664263903
 20
-292.6473267442348
 30
0.0
 10
827.4874749206095
 20
-296.0052182500143
 30
0.0
 10
827.4874749206095
 20
-300.1472996156237
 30
0.0
 10
827.4874749206095
 20
-303.7461324869028
 30
0.0
 10
830.0234958346911
 20
-306.7500404315729
 30
0.0
 10
833.4050723719309
 20
-307.4767402604921
 30
0.0
  0
POLYLINE
  5
79
330
1F
100
AcDbEntity
  8
Layer 1
 62
   179
420
  2301728
370
    35
100
AcDb2dPolyline
 66
     1
 10
0.0
 20
0.0
 30
0.0
  0
VERTEX
  5
7A
330
79
100
AcDbEntity
  8
Layer 1
 62
   179
420
  2301728
370
    35
100
AcDbVertex
100
AcDb2dVertex
 10
736.7216726663055
 20
-343.176918855224
 30
0.0
  0
VERTEX
  5
7B
330
79
100
AcDbEntity
  8
Layer 1
 62
   179
420
  2301728
370
    35
100
AcDbVertex
100
AcDb2dVertex
 10
723.809377346457
 20
-331.7201078258115
 30
0.0
  0
SEQEND
  5
7C
330
79
100
AcDbEntity
  8
Layer 1
 62
   179
420
  2301728
370
    35
  0
POLYLINE
  5
7D
330
1F
100
AcDbEntity
  8
Layer 1
 62
   179
420
  2301728
370
    35
100
AcDb2dPolyline
 66
     1
 10
0.0
 20
0.0
 30
0.0
  0
VERTEX
  5
7E
330
7D
100
AcDbEntity
  8
Layer 1
 62
   179
420
  2301728
370
    35
100
AcDbVertex
100
AcDb2dVertex
 10
709.3980595472099
 20
-298.9335986955998
 30
0.0
  0
VERTEX
  5
7F
330
7D
100
AcDbEntity
  8
Layer 1
 62
   179
420
  2301728
370
    35
100
AcDbVertex
100
AcDb2dVertex
 10
706.7902776010802
 20
-281.8694443739771
 30
0.0
  0
SEQEND
  5
80
330
7D
100
AcDbEntity
  8
Layer 1
 62
   179
420
  2301728
370
    35
  0
POLYLINE
  5
81
330
1F
100
AcDbEntity
  8
Layer 1
 62
   179
420
  2301728
370
    35
100
AcDb2dPolyline
 66
     1
 10
0.0
 20
0.0
 30
0.0
  0
VERTEX
  5
82
330
81
100
AcDbEntity
  8
Layer 1
 62
   179
420
  2301728
370
    35
100
AcDbVertex
100
AcDb2dVertex
 10
767.6096487881323
 20
-358.8709458195705
 30
0.0
  0
VERTEX
  5
DF
330
81
100
AcDbEntity
  8
0
100
AcDbVertex
100
AcDb2dVertex
 10
767.6096487881323
 20
-358.8709458195705
 30
0.0
  0
SEQEND
  5
83
330
81
100
AcDbEntity
  8
Layer 1
 62
   179
420
  2301728
370
    35
  0
POLYLINE
  5
84
330
1F
100
AcDbEntity
  8
Layer 1
 62
   179
420
  2301728
370
    35
100
AcDb2dPolyline
 66
     1
 10
0.0
 20
0.0
 30
0.0
  0
VERTEX
  5
85
330
84
100
AcDbEntity
  8
Layer 1
 62
   179
420
  2301728
370
    35
100
AcDbVertex
100
AcDb2dVertex
 10
823.4962282183931
 20
-343.1769188555259
 30
0.0
  0
VERTEX
  5
86
330
84
100
AcDbEntity
  8
Layer 1
 62
   179
420
  2301728
370
    35
100
AcDbVertex
100
AcDb2dVertex
 10
836.4085235387568
 20
-331.7201078266932
 30
0.0
  0
SEQEND
  5
87
330
84
100
AcDbEntity
  8
Layer 1
 62
   179
420
  2301728
370
    35
  0
POLYLINE
  5
88
330
1F
100
AcDbEntity
  8
Layer 1
 62
   179
420
  2301728
370
    35
100
AcDb2dPolyline
 66
     1
 10
0.0
 20
0.0
 30
0.0
  0
VERTEX
  5
89
330
88
100
AcDbEntity
  8
Layer 1
 62
   179
420
  2301728
370
    35
100
AcDbVertex
100
AcDb2dVertex
 10
850.8198413394755
 20
-298.9335986971279
 30
0.0
  0
VERTEX
  5
8A
330
88
100
AcDbEntity
  8
Layer 1
 62
   179
420
  2301728
370
    35
100
AcDbVertex
100
AcDb2dVertex
 10
853.4276232863738
 20
-281.8694443756231
 30
0.0
  0
SEQEND
  5
8B
330
88
100
AcDbEntity
  8
Layer 1
 62
   179
420
  2301728
370
    35
  0
SPLINE
  5
8C
330
1F
100
AcDbEntity
  8
Layer 1
 62
   179
420
  2301728
370
    35
100
AcDbSpline
210
0.0
220
0.0
230
1.0
 70
     8
 71
     3
 72
    17
 73
    13
 74
     0
 42
0.0000000001
 43
0.0000000001
 12
1.0
 22
0.0
 32
0.0
 13
1.0
 23
0.0
 33
0.0
 40
0.0
 40
0.0
 40
0.0
 40
0.0
 40
1.0
 40
1.0
 40
1.0
 40
2.0
 40
2.0
 40
2.0
 40
3.0
 40
3.0
 40
3.0
 40
4.0
 40
4.0
 40
4.0
 40
4.0
 10
600.2332158601433
 20
-371.9424563007871
 30
0.0
 10
601.4287931846031
 20
-371.5475191670958
 30
0.0
 10
602.2924786227553
 20
-370.4230400007102
 30
0.0
 10
602.2924786227553
 20
-369.0951279459207
 30
0.0
 10
602.2924786227553
 20
-367.4382953996789
 30
0.0
 10
600.9493220204448
 20
-366.0951387973651
 30
0.0
 10
599.2924464105067
 20
-366.0951387973651
 30
0.0
 10
597.6356138642649
 20
-366.0951387973651
 30
0.0
 10
596.2924572619512
 20
-367.4382953996789
 30
0.0
 10
596.2924572619512
 20
-369.0951279459207
 30
0.0
 10
596.2924572619512
 20
-370.4230400007102
 30
0.0
 10
597.1561427001034
 20
-371.5475191670958
 30
0.0
 10
598.3517200245664
 20
-371.9424563007871
 30
0.0
  0
SPLINE
  5
8D
330
1F
100
AcDbEntity
  8
Layer 1
 62
   179
420
  2301728
370
    35
100
AcDbSpline
210
0.0
220
0.0
230
1.0
 70
     8
 71
     3
 72
    17
 73
    13
 74
     0
 42
0.0000000001
 43
0.0000000001
 12
1.0
 22
0.0
 32
0.0
 13
1.0
 23
0.0
 33
0.0
 40
0.0
 40
0.0
 40
0.0
 40
0.0
 40
1.0
 40
1.0
 40
1.0
 40
2.0
 40
2.0
 40
2.0
 40
3.0
 40
3.0
 40
3.0
 40
4.0
 40
4.0
 40
4.0
 40
4.0
 10
492.2832165881354
 20
-371.9424563007871
 30
0.0
 10
493.4787939125987
 20
-371.5475191670958
 30
0.0
 10
494.3424793507508
 20
-370.4230400007102
 30
0.0
 10
494.3424793507508
 20
-369.0951279459207
 30
0.0
 10
494.3424793507508
 20
-367.4382953996789
 30
0.0
 10
492.9993227484371
 20
-366.0951387973651
 30
0.0
 10
491.3424471385023
 20
-366.0951387973651
 30
0.0
 10
489.685614592257
 20
-366.0951387973651
 30
0.0
 10
488.3424579899468
 20
-367.4382953996789
 30
0.0
 10
488.3424579899468
 20
-369.0951279459207
 30
0.0
 10
488.3424579899468
 20
-370.4230400007102
 30
0.0
 10
489.2061434280989
 20
-371.5475191670958
 30
0.0
 10
490.4017207525587
 20
-371.9424563007871
 30
0.0
  0
SPLINE
  5
8E
330
1F
100
AcDbEntity
  8
Layer 1
 62
   179
420
  2301728
370
    35
100
AcDbSpline
210
0.0
220
0.0
230
1.0
 70
     8
 71
     3
 72
    17
 73
    13
 74
     0
 42
0.0000000001
 43
0.0000000001
 12
1.0
 22
0.0
 32
0.0
 13
1.0
 23
0.0
 33
0.0
 40
0.0
 40
0.0
 40
0.0
 40
0.0
 40
1.0
 40
1.0
 40
1.0
 40
2.0
 40
2.0
 40
2.0
 40
3.0
 40
3.0
 40
3.0
 40
4.0
 40
4.0
 40
4.0
 40
4.0
 10
384.3332173161313
 20
-371.9424563007871
 30
0.0
 10
385.5287946405907
 20
-371.5475191670958
 30
0.0
 10
386.3924800787429
 20
-370.4230400007102
 30
0.0
 10
386.3924800787429
 20
-369.0951279459207
 30
0.0
 10
386.3924800787429
 20
-367.4382953996789
 30
0.0
 10
385.049323476433
 20
-366.0951387973651
 30
0.0
 10
383.3924478664947
 20
-366.0951387973651
 30
0.0
 10
381.7356153202529
 20
-366.0951387973651
 30
0.0
 10
380.3924587179391
 20
-367.4382953996789
 30
0.0
 10
380.3924587179391
 20
-369.0951279459207
 30
0.0
 10
380.3924587179391
 20
-370.4230400007102
 30
0.0
 10
381.2561441560913
 20
-371.5475191670958
 30
0.0
 10
382.4517214805546
 20
-371.9424563007871
 30
0.0
  0
POLYLINE
  5
8F
330
1F
100
AcDbEntity
  8
Layer 1
 62
   179
420
  2301728
370
    35
100
AcDb2dPolyline
 66
     1
 10
0.0
 20
0.0
 30
0.0
  0
VERTEX
  5
90
330
8F
100
AcDbEntity
  8
Layer 1
 62
   179
420
  2301728
370
    35
100
AcDbVertex
100
AcDb2dVertex
 10
1126.937097615897
 20
-340.0459376632214
 30
0.0
  0
VERTEX
  5
E0
330
8F
100
AcDbEntity
  8
0
100
AcDbVertex
100
AcDb2dVertex
 10
1126.937097615897
 20
-340.0459376632214
 30
0.0
  0
SEQEND
  5
91
330
8F
100
AcDbEntity
  8
Layer 1
 62
   179
420
  2301728
370
    35
  0
POLYLINE
  5
92
330
1F
100
AcDbEntity
  8
Layer 1
 62
   179
420
  2301728
370
    35
100
AcDb2dPolyline
 66
     1
 10
0.0
 20
0.0
 30
0.0
  0
VERTEX
  5
93
330
92
100
AcDbEntity
  8
Layer 1
 62
   179
420
  2301728
370
    35
100
AcDbVertex
100
AcDb2dVertex
 10
934.7903151762953
 20
-402.5580823106262
 30
0.0
  0
VERTEX
  5
94
330
92
100
AcDbEntity
  8
Layer 1
 62
   179
420
  2301728
370
    35
100
AcDbVertex
100
AcDb2dVertex
 10
934.7903151750921
 20
-417.7580823063363
 30
0.0
  0
SEQEND
  5
95
330
92
100
AcDbEntity
  8
Layer 1
 62
   179
420
  2301728
370
    35
  0
POLYLINE
  5
96
330
1F
100
AcDbEntity
  8
Layer 1
 62
   179
420
  2301728
370
    35
100
AcDb2dPolyline
 66
     1
 10
0.0
 20
0.0
 30
0.0
  0
VERTEX
  5
97
330
96
100
AcDbEntity
  8
Layer 1
 62
   179
420
  2301728
370
    35
100
AcDbVertex
100
AcDb2dVertex
 10
940.4958707304253
 20
-403.1580823104745
 30
0.0
  0
VERTEX
  5
98
330
96
100
AcDbEntity
  8
Layer 1
 62
   179
420
  2301728
370
    35
100
AcDbVertex
100
AcDb2dVertex
 10
940.4958707292227
 20
-417.1580823064775
 30
0.0
  0
SEQEND
  5
99
330
96
100
AcDbEntity
  8
Layer 1
 62
   179
420
  2301728
370
    35
  0
POLYLINE
  5
9A
330
1F
100
AcDbEntity
  8
Layer 1
 62
   179
420
  2301728
370
    35
100
AcDb2dPolyline
 66
     1
 10
0.0
 20
0.0
 30
0.0
  0
VERTEX
  5
9B
330
9A
100
AcDbEntity
  8
Layer 1
 62
   179
420
  2301728
370
    35
100
AcDbVertex
100
AcDb2dVertex
 10
1190.975840282317
 20
-402.5580823111129
 30
0.0
  0
VERTEX
  5
9C
330
9A
100
AcDbEntity
  8
Layer 1
 62
   179
420
  2301728
370
    35
100
AcDbVertex
100
AcDb2dVertex
 10
1190.975840282892
 20
-417.7580823068231
 30
0.0
  0
SEQEND
  5
9D
330
9A
100
AcDbEntity
  8
Layer 1
 62
   179
420
  2301728
370
    35
  0
POLYLINE
  5
9E
330
1F
100
AcDbEntity
  8
Layer 1
 62
   179
420
  2301728
370
    35
100
AcDb2dPolyline
 66
     1
 10
0.0
 20
0.0
 30
0.0
  0
VERTEX
  5
9F
330
9E
100
AcDbEntity
  8
Layer 1
 62
   179
420
  2301728
370
    35
100
AcDbVertex
100
AcDb2dVertex
 10
1185.270284728189
 20
-403.1580823109718
 30
0.0
  0
VERTEX
  5
A0
330
9E
100
AcDbEntity
  8
Layer 1
 62
   179
420
  2301728
370
    35
100
AcDbVertex
100
AcDb2dVertex
 10
1185.270284728765
 20
-417.1580823069748
 30
0.0
  0
SEQEND
  5
A1
330
9E
100
AcDbEntity
  8
Layer 1
 62
   179
420
  2301728
370
    35
  0
SPLINE
  5
A2
330
1F
100
AcDbEntity
  8
Layer 1
 62
   179
420
  2301728
370
    35
100
AcDbSpline
210
0.0
220
0.0
230
1.0
 70
     8
 71
     3
 72
    17
 73
    13
 74
     0
 42
0.0000000001
 43
0.0000000001
 12
1.0
 22
0.0
 32
0.0
 13
1.0
 23
0.0
 33
0.0
 40
0.0
 40
0.0
 40
0.0
 40
0.0
 40
1.0
 40
1.0
 40
1.0
 40
2.0
 40
2.0
 40
2.0
 40
3.0
 40
3.0
 40
3.0
 40
4.0
 40
4.0
 40
4.0
 40
4.0
 10
1009.586763338463
 20
-307.4085014500544
 30
0.0
 10
1012.96855519417
 20
-306.6818016211352
 30
0.0
 10
1015.504576108248
 20
-303.6778936764651
 30
0.0
 10
1015.504576108251
 20
-300.079060805186
 30
0.0
 10
1015.504576108251
 20
-295.9369794395766
 30
0.0
 10
1012.146684602471
 20
-292.5790879337972
 30
0.0
 10
1008.004603236862
 20
-292.5790879337968
 30
0.0
 10
1003.86252187125
 20
-292.5790879337968
 30
0.0
 10
1000.504630365474
 20
-295.9369794395762
 30
0.0
 10
1000.504630365474
 20
-300.0790608051854
 30
0.0
 10
1000.50463036547
 20
-303.6778936764645
 30
0.0
 10
1003.040651279551
 20
-306.6818016211345
 30
0.0
 10
1006.422227816791
 20
-307.408501450055
 30
0.0
  0
SPLINE
  5
A3
330
1F
100
AcDbEntity
  8
Layer 1
 62
   179
420
  2301728
370
    35
100
AcDbSpline
210
0.0
220
0.0
230
1.0
 70
     8
 71
     3
 72
    17
 73
    13
 74
     0
 42
0.0000000001
 43
0.0000000001
 12
1.0
 22
0.0
 32
0.0
 13
1.0
 23
0.0
 33
0.0
 40
0.0
 40
0.0
 40
0.0
 40
0.0
 40
1.0
 40
1.0
 40
1.0
 40
2.0
 40
2.0
 40
2.0
 40
3.0
 40
3.0
 40
3.0
 40
4.0
 40
4.0
 40
4.0
 40
4.0
 10
1020.712870761929
 20
-328.0741281912115
 30
0.0
 10
1024.094662617638
 20
-327.3474283622916
 30
0.0
 10
1026.630683531717
 20
-324.3435204176215
 30
0.0
 10
1026.630683531717
 20
-320.7446875463424
 30
0.0
 10
1026.630683531717
 20
-316.6026061807329
 30
0.0
 10
1023.27279202594
 20
-313.2447146749535
 30
0.0
 10
1019.130710660328
 20
-313.2447146749535
 30
0.0
 10
1014.988629294719
 20
-313.2447146749535
 30
0.0
 10
1011.630737788939
 20
-316.6026061807329
 30
0.0
 10
1011.630737788939
 20
-320.7446875463424
 30
0.0
 10
1011.630737788939
 20
-324.3435204176215
 30
0.0
 10
1014.16675870302
 20
-327.3474283622916
 30
0.0
 10
1017.548335240259
 20
-328.0741281912115
 30
0.0
  0
SPLINE
  5
A4
330
1F
100
AcDbEntity
  8
Layer 1
 62
   179
420
  2301728
370
    35
100
AcDbSpline
210
0.0
220
0.0
230
1.0
 70
     8
 71
     3
 72
    17
 73
    13
 74
     0
 42
0.0000000001
 43
0.0000000001
 12
1.0
 22
0.0
 32
0.0
 13
1.0
 23
0.0
 33
0.0
 40
0.0
 40
0.0
 40
0.0
 40
0.0
 40
1.0
 40
1.0
 40
1.0
 40
2.0
 40
2.0
 40
2.0
 40
3.0
 40
3.0
 40
3.0
 40
4.0
 40
4.0
 40
4.0
 40
4.0
 10
1050.756881843204
 20
-327.0741281915534
 30
0.0
 10
1054.138673698915
 20
-326.3474283626335
 30
0.0
 10
1056.674694612992
 20
-323.3435204179635
 30
0.0
 10
1056.674694612992
 20
-319.7446875466844
 30
0.0
 10
1056.674694612992
 20
-315.602606181075
 30
0.0
 10
1053.316803107211
 20
-312.2447146752955
 30
0.0
 10
1049.174721741603
 20
-312.2447146752955
 30
0.0
 10
1045.032640375991
 20
-312.2447146752955
 30
0.0
 10
1041.674748870214
 20
-315.602606181075
 30
0.0
 10
1041.674748870214
 20
-319.7446875466844
 30
0.0
 10
1041.674748870214
 20
-323.3435204179635
 30
0.0
 10
1044.210769784296
 20
-326.3474283626335
 30
0.0
 10
1047.592346321531
 20
-327.0741281915534
 30
0.0
  0
SPLINE
  5
A5
330
1F
100
AcDbEntity
  8
Layer 1
 62
   179
420
  2301728
370
    35
100
AcDbSpline
210
0.0
220
0.0
230
1.0
 70
     8
 71
     3
 72
    17
 73
    13
 74
     0
 42
0.0000000001
 43
0.0000000001
 12
1.0
 22
0.0
 32
0.0
 13
1.0
 23
0.0
 33
0.0
 40
0.0
 40
0.0
 40
0.0
 40
0.0
 40
1.0
 40
1.0
 40
1.0
 40
2.0
 40
2.0
 40
2.0
 40
3.0
 40
3.0
 40
3.0
 40
4.0
 40
4.0
 40
4.0
 40
4.0
 10
1038.35778259673
 20
-348.1343833827345
 30
0.0
 10
1041.73957445244
 20
-347.4076835538156
 30
0.0
 10
1044.275595366517
 20
-344.4037756091445
 30
0.0
 10
1044.275595366517
 20
-340.8049427378654
 30
0.0
 10
1044.275595366517
 20
-336.662861372256
 30
0.0
 10
1040.917703860737
 20
-333.3049698664772
 30
0.0
 10
1036.775622495129
 20
-333.3049698664772
 30
0.0
 10
1032.63354112952
 20
-333.3049698664765
 30
0.0
 10
1029.27564962374
 20
-336.662861372256
 30
0.0
 10
1029.27564962374
 20
-340.8049427378654
 30
0.0
 10
1029.27564962374
 20
-344.4037756091445
 30
0.0
 10
1031.811670537821
 20
-347.4076835538146
 30
0.0
 10
1035.19324707506
 20
-348.1343833827351
 30
0.0
  0
SPLINE
  5
A6
330
1F
100
AcDbEntity
  8
Layer 1
 62
   179
420
  2301728
370
    35
100
AcDbSpline
210
0.0
220
0.0
230
1.0
 70
     8
 71
     3
 72
    17
 73
    13
 74
     0
 42
0.0000000001
 43
0.0000000001
 12
1.0
 22
0.0
 32
0.0
 13
1.0
 23
0.0
 33
0.0
 40
0.0
 40
0.0
 40
0.0
 40
0.0
 40
1.0
 40
1.0
 40
1.0
 40
2.0
 40
2.0
 40
2.0
 40
3.0
 40
3.0
 40
3.0
 40
4.0
 40
4.0
 40
4.0
 40
4.0
 10
1064.465239615977
 20
-352.7912214064376
 30
0.0
 10
1067.847031471683
 20
-352.0645215775161
 30
0.0
 10
1070.383052385761
 20
-349.0606136328461
 30
0.0
 10
1070.383052385761
 20
-345.461780761567
 30
0.0
 10
1070.383052385764
 20
-341.3196993959575
 30
0.0
 10
1067.025160879984
 20
-337.9618078901787
 30
0.0
 10
1062.883079514375
 20
-337.9618078901781
 30
0.0
 10
1058.740998148764
 20
-337.9618078901781
 30
0.0
 10
1055.383106642987
 20
-341.3196993959575
 30
0.0
 10
1055.383106642983
 20
-345.461780761567
 30
0.0
 10
1055.383106642987
 20
-349.0606136328461
 30
0.0
 10
1057.919127557064
 20
-352.0645215775161
 30
0.0
 10
1061.300704094304
 20
-352.7912214064376
 30
0.0
  0
SPLINE
  5
A7
330
1F
100
AcDbEntity
  8
Layer 1
 62
   179
420
  2301728
370
    35
100
AcDbSpline
210
0.0
220
0.0
230
1.0
 70
     8
 71
     3
 72
    17
 73
    13
 74
     0
 42
0.0000000001
 43
0.0000000001
 12
1.0
 22
0.0
 32
0.0
 13
1.0
 23
0.0
 33
0.0
 40
0.0
 40
0.0
 40
0.0
 40
0.0
 40
1.0
 40
1.0
 40
1.0
 40
2.0
 40
2.0
 40
2.0
 40
3.0
 40
3.0
 40
3.0
 40
4.0
 40
4.0
 40
4.0
 40
4.0
 10
1078.284637912713
 20
-327.0059153009455
 30
0.0
 10
1081.66642976842
 20
-326.2792154720262
 30
0.0
 10
1084.202450682498
 20
-323.2753075273562
 30
0.0
 10
1084.202450682498
 20
-319.6764746560771
 30
0.0
 10
1084.202450682498
 20
-315.5343932904677
 30
0.0
 10
1080.844559176721
 20
-312.1765017846882
 30
0.0
 10
1076.702477811109
 20
-312.1765017846876
 30
0.0
 10
1072.5603964455
 20
-312.1765017846876
 30
0.0
 10
1069.20250493972
 20
-315.534393290467
 30
0.0
 10
1069.20250493972
 20
-319.6764746560764
 30
0.0
 10
1069.20250493972
 20
-323.2753075273556
 30
0.0
 10
1071.738525853801
 20
-326.2792154720256
 30
0.0
 10
1075.120102391044
 20
-327.0059153009461
 30
0.0
  0
SPLINE
  5
A8
330
1F
100
AcDbEntity
  8
Layer 1
 62
   179
420
  2301728
370
    35
100
AcDbSpline
210
0.0
220
0.0
230
1.0
 70
     8
 71
     3
 72
    17
 73
    13
 74
     0
 42
0.0000000001
 43
0.0000000001
 12
1.0
 22
0.0
 32
0.0
 13
1.0
 23
0.0
 33
0.0
 40
0.0
 40
0.0
 40
0.0
 40
0.0
 40
1.0
 40
1.0
 40
1.0
 40
2.0
 40
2.0
 40
2.0
 40
3.0
 40
3.0
 40
3.0
 40
4.0
 40
4.0
 40
4.0
 40
4.0
 10
1090.683780561963
 20
-348.1343833827345
 30
0.0
 10
1094.065572417674
 20
-347.4076835538156
 30
0.0
 10
1096.601593331751
 20
-344.4037756091445
 30
0.0
 10
1096.601593331751
 20
-340.8049427378654
 30
0.0
 10
1096.601593331751
 20
-336.662861372256
 30
0.0
 10
1093.243701825971
 20
-333.3049698664772
 30
0.0
 10
1089.101620460362
 20
-333.3049698664772
 30
0.0
 10
1084.959539094754
 20
-333.3049698664765
 30
0.0
 10
1081.601647588973
 20
-336.662861372256
 30
0.0
 10
1081.601647588973
 20
-340.8049427378654
 30
0.0
 10
1081.601647588973
 20
-344.4037756091445
 30
0.0
 10
1084.137668503055
 20
-347.4076835538146
 30
0.0
 10
1087.519245040294
 20
-348.1343833827351
 30
0.0
  0
SPLINE
  5
A9
330
1F
100
AcDbEntity
  8
Layer 1
 62
   179
420
  2301728
370
    35
100
AcDbSpline
210
0.0
220
0.0
230
1.0
 70
     8
 71
     3
 72
    17
 73
    13
 74
     0
 42
0.0000000001
 43
0.0000000001
 12
1.0
 22
0.0
 32
0.0
 13
1.0
 23
0.0
 33
0.0
 40
0.0
 40
0.0
 40
0.0
 40
0.0
 40
1.0
 40
1.0
 40
1.0
 40
2.0
 40
2.0
 40
2.0
 40
3.0
 40
3.0
 40
3.0
 40
4.0
 40
4.0
 40
4.0
 40
4.0
 10
1108.217624713758
 20
-328.0059139362833
 30
0.0
 10
1111.599416569465
 20
-327.2792141073628
 30
0.0
 10
1114.135437483546
 20
-324.2753061626927
 30
0.0
 10
1114.135437483546
 20
-320.6764732914136
 30
0.0
 10
1114.135437483546
 20
-316.5343919258042
 30
0.0
 10
1110.777545977766
 20
-313.1765004200248
 30
0.0
 10
1106.635464612157
 20
-313.1765004200254
 30
0.0
 10
1102.493383246545
 20
-313.1765004200248
 30
0.0
 10
1099.135491740768
 20
-316.5343919258042
 30
0.0
 10
1099.135491740768
 20
-320.6764732914136
 30
0.0
 10
1099.135491740768
 20
-324.2753061626927
 30
0.0
 10
1101.671512654846
 20
-327.2792141073628
 30
0.0
 10
1105.05308919209
 20
-328.0059139362833
 30
0.0
  0
SPLINE
  5
AA
330
1F
100
AcDbEntity
  8
Layer 1
 62
   179
420
  2301728
370
    35
100
AcDbSpline
210
0.0
220
0.0
230
1.0
 70
     8
 71
     3
 72
    17
 73
    13
 74
     0
 42
0.0000000001
 43
0.0000000001
 12
1.0
 22
0.0
 32
0.0
 13
1.0
 23
0.0
 33
0.0
 40
0.0
 40
0.0
 40
0.0
 40
0.0
 40
1.0
 40
1.0
 40
1.0
 40
2.0
 40
2.0
 40
2.0
 40
3.0
 40
3.0
 40
3.0
 40
4.0
 40
4.0
 40
4.0
 40
4.0
 10
1119.34375804027
 20
-307.4767402604921
 30
0.0
 10
1122.725549895981
 20
-306.7500404315722
 30
0.0
 10
1125.261570810058
 20
-303.7461324869028
 30
0.0
 10
1125.261570810058
 20
-300.1472996156237
 30
0.0
 10
1125.261570810058
 20
-296.0052182500143
 30
0.0
 10
1121.903679304278
 20
-292.6473267442342
 30
0.0
 10
1117.761597938669
 20
-292.6473267442342
 30
0.0
 10
1113.619516573061
 20
-292.6473267442348
 30
0.0
 10
1110.26162506728
 20
-296.0052182500143
 30
0.0
 10
1110.26162506728
 20
-300.1472996156237
 30
0.0
 10
1110.26162506728
 20
-303.7461324869028
 30
0.0
 10
1112.797645981362
 20
-306.7500404315729
 30
0.0
 10
1116.179222518602
 20
-307.4767402604921
 30
0.0
  0
POLYLINE
  5
AB
330
1F
100
AcDbEntity
  8
Layer 1
 62
   179
420
  2301728
370
    35
100
AcDb2dPolyline
 66
     1
 10
0.0
 20
0.0
 30
0.0
  0
VERTEX
  5
AC
330
AB
100
AcDbEntity
  8
Layer 1
 62
   179
420
  2301728
370
    35
100
AcDbVertex
100
AcDb2dVertex
 10
1019.495822812976
 20
-343.176918855224
 30
0.0
  0
VERTEX
  5
AD
330
AB
100
AcDbEntity
  8
Layer 1
 62
   179
420
  2301728
370
    35
100
AcDbVertex
100
AcDb2dVertex
 10
1006.583527493128
 20
-331.7201078258115
 30
0.0
  0
SEQEND
  5
AE
330
AB
100
AcDbEntity
  8
Layer 1
 62
   179
420
  2301728
370
    35
  0
POLYLINE
  5
AF
330
1F
100
AcDbEntity
  8
Layer 1
 62
   179
420
  2301728
370
    35
100
AcDb2dPolyline
 66
     1
 10
0.0
 20
0.0
 30
0.0
  0
VERTEX
  5
B0
330
AF
100
AcDbEntity
  8
Layer 1
 62
   179
420
  2301728
370
    35
100
AcDbVertex
100
AcDb2dVertex
 10
992.1722096938805
 20
-298.9335986955998
 30
0.0
  0
VERTEX
  5
B1
330
AF
100
AcDbEntity
  8
Layer 1
 62
   179
420
  2301728
370
    35
100
AcDbVertex
100
AcDb2dVertex
 10
989.564427747751
 20
-281.8694443739771
 30
0.0
  0
SEQEND
  5
B2
330
AF
100
AcDbEntity
  8
Layer 1
 62
   179
420
  2301728
370
    35
  0
POLYLINE
  5
B3
330
1F
100
AcDbEntity
  8
Layer 1
 62
   179
420
  2301728
370
    35
100
AcDb2dPolyline
 66
     1
 10
0.0
 20
0.0
 30
0.0
  0
VERTEX
  5
B4
330
B3
100
AcDbEntity
  8
Layer 1
 62
   179
420
  2301728
370
    35
100
AcDbVertex
100
AcDb2dVertex
 10
1050.383798934803
 20
-358.8709458195705
 30
0.0
  0
VERTEX
  5
E1
330
B3
100
AcDbEntity
  8
0
100
AcDbVertex
100
AcDb2dVertex
 10
1050.383798934803
 20
-358.8709458195705
 30
0.0
  0
SEQEND
  5
B5
330
B3
100
AcDbEntity
  8
Layer 1
 62
   179
420
  2301728
370
    35
  0
POLYLINE
  5
B6
330
1F
100
AcDbEntity
  8
Layer 1
 62
   179
420
  2301728
370
    35
100
AcDb2dPolyline
 66
     1
 10
0.0
 20
0.0
 30
0.0
  0
VERTEX
  5
B7
330
B6
100
AcDbEntity
  8
Layer 1
 62
   179
420
  2301728
370
    35
100
AcDbVertex
100
AcDb2dVertex
 10
1106.270378365064
 20
-343.1769188555259
 30
0.0
  0
VERTEX
  5
B8
330
B6
100
AcDbEntity
  8
Layer 1
 62
   179
420
  2301728
370
    35
100
AcDbVertex
100
AcDb2dVertex
 10
1119.182673685428
 20
-331.7201078266932
 30
0.0
  0
SEQEND
  5
B9
330
B6
100
AcDbEntity
  8
Layer 1
 62
   179
420
  2301728
370
    35
  0
POLYLINE
  5
BA
330
1F
100
AcDbEntity
  8
Layer 1
 62
   179
420
  2301728
370
    35
100
AcDb2dPolyline
 66
     1
 10
0.0
 20
0.0
 30
0.0
  0
VERTEX
  5
BB
330
BA
100
AcDbEntity
  8
Layer 1
 62
   179
420
  2301728
370
    35
100
AcDbVertex
100
AcDb2dVertex
 10
1133.593991486146
 20
-298.9335986971279
 30
0.0
  0
VERTEX
  5
BC
330
BA
100
AcDbEntity
  8
Layer 1
 62
   179
420
  2301728
370
    35
100
AcDbVertex
100
AcDb2dVertex
 10
1136.201773433045
 20
-281.8694443756231
 30
0.0
  0
SEQEND
  5
BD
330
BA
100
AcDbEntity
  8
Layer 1
 62
   179
420
  2301728
370
    35
  0
SPLINE
  5
BE
330
1F
100
AcDbEntity
  8
Layer 1
 62
   179
420
  2301728
370
    35
100
AcDbSpline
210
0.0
220
0.0
230
1.0
 70
    11
 71
     3
 72
    29
 73
    25
 74
     0
 42
0.0000000001
 43
0.0000000001
 12
1.0
 22
0.0
 32
0.0
 13
1.0
 23
0.0
 33
0.0
 40
0.0
 40
0.0
 40
0.0
 40
0.0
 40
1.0
 40
1.0
 40
1.0
 40
2.0
 40
2.0
 40
2.0
 40
3.0
 40
3.0
 40
3.0
 40
4.0
 40
4.0
 40
4.0
 40
5.0
 40
5.0
 40
5.0
 40
6.0
 40
6.0
 40
6.0
 40
7.0
 40
7.0
 40
7.0
 40
8.0
 40
8.0
 40
8.0
 40
8.0
 10
900.5466418306172
 20
-656.5827843577326
 30
0.0
 10
903.8317838763462
 20
-656.5827843582543
 30
0.0
 10
906.4949176910002
 20
-659.4257761968007
 30
0.0
 10
906.4949176902879
 20
-662.9327843575171
 30
0.0
 10
906.4949176902879
 20
-662.9327843575171
 30
0.0
 10
906.4949176875216
 20
-676.5822647561165
 30
0.0
 10
906.4949176875216
 20
-676.5822647561165
 30
0.0
 10
906.4949176868125
 20
-680.0892729164985
 30
0.0
 10
903.831783871495
 20
-682.9322647536754
 30
0.0
 10
900.5466418260771
 20
-682.9322647531532
 30
0.0
 10
900.5466418260771
 20
-682.9322647531532
 30
0.0
 10
222.443193722458
 20
-682.9322646452637
 30
0.0
 10
222.443193722458
 20
-682.9322646452637
 30
0.0
 10
219.1580516767293
 20
-682.9322646447413
 30
0.0
 10
216.4949178620772
 20
-680.0892728061949
 30
0.0
 10
216.4949178627879
 20
-676.5822646454785
 30
0.0
 10
216.4949178627879
 20
-676.5822646454785
 30
0.0
 10
216.4949178655559
 20
-662.9327842468792
 30
0.0
 10
216.4949178655559
 20
-662.9327842468792
 30
0.0
 10
216.4949178662675
 20
-659.4257760864978
 30
0.0
 10
219.1580516815844
 20
-656.582784249317
 30
0.0
 10
222.4431937270003
 20
-656.5827842498387
 30
0.0
 10
222.4431937270003
 20
-656.5827842498387
 30
0.0
 10
900.5466418306172
 20
-656.5827843577326
 30
0.0
 10
900.5466418306172
 20
-656.5827843577326
 30
0.0
  0
SPLINE
  5
BF
330
1F
100
AcDbEntity
  8
Layer 1
 62
   179
420
  2301728
370
    35
100
AcDbSpline
210
0.0
220
0.0
230
1.0
 70
     8
 71
     3
 72
    14
 73
    10
 74
     0
 42
0.0000000001
 43
0.0000000001
 12
1.0
 22
0.0
 32
0.0
 13
1.0
 23
0.0
 33
0.0
 40
0.0
 40
0.0
 40
0.0
 40
0.0
 40
1.0
 40
1.0
 40
1.0
 40
2.0
 40
2.0
 40
2.0
 40
3.0
 40
3.0
 40
3.0
 40
3.0
 10
889.6259730000115
 20
-656.2335978462665
 30
0.0
 10
889.6259730000115
 20
-656.2335978462665
 30
0.0
 10
895.6014882782191
 20
-669.1372991024097
 30
0.0
 10
895.6014882782191
 20
-669.1372991024097
 30
0.0
 10
895.7273452613426
 20
-669.4090783273981
 30
0.0
 10
895.4856030727959
 20
-669.7011100492573
 30
0.0
 10
895.1347688022042
 20
-669.701110049215
 30
0.0
 10
895.1347688022042
 20
-669.701110049215
 30
0.0
 10
890.6276102721616
 20
-669.7011100486785
 30
0.0
 10
890.6276102721616
 20
-669.7011100486785
 30
0.0
  0
SPLINE
  5
C0
330
1F
100
AcDbEntity
  8
Layer 1
 62
   179
420
  2301728
370
    35
100
AcDbSpline
210
0.0
220
0.0
230
1.0
 70
     8
 71
     3
 72
    14
 73
    10
 74
     0
 42
0.0000000001
 43
0.0000000001
 12
1.0
 22
0.0
 32
0.0
 13
1.0
 23
0.0
 33
0.0
 40
0.0
 40
0.0
 40
0.0
 40
0.0
 40
1.0
 40
1.0
 40
1.0
 40
2.0
 40
2.0
 40
2.0
 40
3.0
 40
3.0
 40
3.0
 40
3.0
 10
876.6259730032644
 20
-656.2335978452995
 30
0.0
 10
876.6259730032644
 20
-656.2335978452995
 30
0.0
 10
882.6014882814683
 20
-669.1372991014426
 30
0.0
 10
882.6014882814683
 20
-669.1372991014426
 30
0.0
 10
882.7273452645918
 20
-669.4090783264318
 30
0.0
 10
882.4856030760488
 20
-669.7011100482871
 30
0.0
 10
882.1347688054534
 20
-669.701110048248
 30
0.0
 10
882.1347688054534
 20
-669.701110048248
 30
0.0
 10
877.6276102754139
 20
-669.7011100477122
 30
0.0
 10
877.6276102754139
 20
-669.7011100477122
 30
0.0
  0
SPLINE
  5
C1
330
1F
100
AcDbEntity
  8
Layer 1
 62
   179
420
  2301728
370
    35
100
AcDbSpline
210
0.0
220
0.0
230
1.0
 70
     8
 71
     3
 72
    14
 73
    10
 74
     0
 42
0.0000000001
 43
0.0000000001
 12
1.0
 22
0.0
 32
0.0
 13
1.0
 23
0.0
 33
0.0
 40
0.0
 40
0.0
 40
0.0
 40
0.0
 40
1.0
 40
1.0
 40
1.0
 40
2.0
 40
2.0
 40
2.0
 40
3.0
 40
3.0
 40
3.0
 40
3.0
 10
863.6259730065136
 20
-656.2335978443292
 30
0.0
 10
863.6259730065136
 20
-656.2335978443292
 30
0.0
 10
869.6014882847173
 20
-669.137299100473
 30
0.0
 10
869.6014882847173
 20
-669.137299100473
 30
0.0
 10
869.7273452678409
 20
-669.4090783254615
 30
0.0
 10
869.485603079298
 20
-669.7011100473201
 30
0.0
 10
869.1347688087025
 20
-669.7011100472783
 30
0.0
 10
869.1347688087025
 20
-669.7011100472783
 30
0.0
 10
864.627610278663
 20
-669.7011100467419
 30
0.0
 10
864.627610278663
 20
-669.7011100467419
 30
0.0
  0
SPLINE
  5
C2
330
1F
100
AcDbEntity
  8
Layer 1
 62
   179
420
  2301728
370
    35
100
AcDbSpline
210
0.0
220
0.0
230
1.0
 70
     8
 71
     3
 72
    14
 73
    10
 74
     0
 42
0.0000000001
 43
0.0000000001
 12
1.0
 22
0.0
 32
0.0
 13
1.0
 23
0.0
 33
0.0
 40
0.0
 40
0.0
 40
0.0
 40
0.0
 40
1.0
 40
1.0
 40
1.0
 40
2.0
 40
2.0
 40
2.0
 40
3.0
 40
3.0
 40
3.0
 40
3.0
 10
850.6259730097627
 20
-656.2335978433629
 30
0.0
 10
850.6259730097627
 20
-656.2335978433629
 30
0.0
 10
856.6014882879704
 20
-669.1372990995028
 30
0.0
 10
856.6014882879704
 20
-669.1372990995028
 30
0.0
 10
856.7273452710932
 20
-669.4090783244912
 30
0.0
 10
856.4856030825471
 20
-669.7011100463504
 30
0.0
 10
856.1347688119554
 20
-669.7011100463081
 30
0.0
 10
856.1347688119554
 20
-669.7011100463081
 30
0.0
 10
851.6276102819121
 20
-669.7011100457755
 30
0.0
 10
851.6276102819121
 20
-669.7011100457755
 30
0.0
  0
SPLINE
  5
C3
330
1F
100
AcDbEntity
  8
Layer 1
 62
   179
420
  2301728
370
    35
100
AcDbSpline
210
0.0
220
0.0
230
1.0
 70
     8
 71
     3
 72
    14
 73
    10
 74
     0
 42
0.0000000001
 43
0.0000000001
 12
1.0
 22
0.0
 32
0.0
 13
1.0
 23
0.0
 33
0.0
 40
0.0
 40
0.0
 40
0.0
 40
0.0
 40
1.0
 40
1.0
 40
1.0
 40
2.0
 40
2.0
 40
2.0
 40
3.0
 40
3.0
 40
3.0
 40
3.0
 10
837.6259730130118
 20
-656.2335978423927
 30
0.0
 10
837.6259730130118
 20
-656.2335978423927
 30
0.0
 10
843.6014882912194
 20
-669.1372990985357
 30
0.0
 10
843.6014882912194
 20
-669.1372990985357
 30
0.0
 10
843.727345274343
 20
-669.4090783235249
 30
0.0
 10
843.4856030857961
 20
-669.7011100453834
 30
0.0
 10
843.1347688152046
 20
-669.701110045341
 30
0.0
 10
843.1347688152046
 20
-669.701110045341
 30
0.0
 10
838.627610285165
 20
-669.7011100448052
 30
0.0
 10
838.627610285165
 20
-669.7011100448052
 30
0.0
  0
SPLINE
  5
C4
330
1F
100
AcDbEntity
  8
Layer 1
 62
   179
420
  2301728
370
    35
100
AcDbSpline
210
0.0
220
0.0
230
1.0
 70
     8
 71
     3
 72
    14
 73
    10
 74
     0
 42
0.0000000001
 43
0.0000000001
 12
1.0
 22
0.0
 32
0.0
 13
1.0
 23
0.0
 33
0.0
 40
0.0
 40
0.0
 40
0.0
 40
0.0
 40
1.0
 40
1.0
 40
1.0
 40
2.0
 40
2.0
 40
2.0
 40
3.0
 40
3.0
 40
3.0
 40
3.0
 10
824.6259730162641
 20
-656.2335978414224
 30
0.0
 10
824.6259730162641
 20
-656.2335978414224
 30
0.0
 10
830.6014882944679
 20
-669.1372990975661
 30
0.0
 10
830.6014882944679
 20
-669.1372990975661
 30
0.0
 10
830.7273452775914
 20
-669.4090783225546
 30
0.0
 10
830.4856030890485
 20
-669.7011100444138
 30
0.0
 10
830.1347688184536
 20
-669.7011100443715
 30
0.0
 10
830.1347688184536
 20
-669.7011100443715
 30
0.0
 10
825.6276102884142
 20
-669.701110043835
 30
0.0
 10
825.6276102884142
 20
-669.701110043835
 30
0.0
  0
SPLINE
  5
C5
330
1F
100
AcDbEntity
  8
Layer 1
 62
   179
420
  2301728
370
    35
100
AcDbSpline
210
0.0
220
0.0
230
1.0
 70
     8
 71
     3
 72
    14
 73
    10
 74
     0
 42
0.0000000001
 43
0.0000000001
 12
1.0
 22
0.0
 32
0.0
 13
1.0
 23
0.0
 33
0.0
 40
0.0
 40
0.0
 40
0.0
 40
0.0
 40
1.0
 40
1.0
 40
1.0
 40
2.0
 40
2.0
 40
2.0
 40
3.0
 40
3.0
 40
3.0
 40
3.0
 10
811.6259730195133
 20
-656.233597840456
 30
0.0
 10
811.6259730195133
 20
-656.233597840456
 30
0.0
 10
817.6014882977177
 20
-669.1372990965991
 30
0.0
 10
817.6014882977177
 20
-669.1372990965991
 30
0.0
 10
817.7273452808405
 20
-669.4090783215844
 30
0.0
 10
817.4856030922975
 20
-669.7011100434436
 30
0.0
 10
817.1347688217028
 20
-669.7011100434012
 30
0.0
 10
817.1347688217028
 20
-669.7011100434012
 30
0.0
 10
812.6276102916632
 20
-669.7011100428685
 30
0.0
 10
812.6276102916632
 20
-669.7011100428685
 30
0.0
  0
SPLINE
  5
C6
330
1F
100
AcDbEntity
  8
Layer 1
 62
   179
420
  2301728
370
    35
100
AcDbSpline
210
0.0
220
0.0
230
1.0
 70
     8
 71
     3
 72
    14
 73
    10
 74
     0
 42
0.0000000001
 43
0.0000000001
 12
1.0
 22
0.0
 32
0.0
 13
1.0
 23
0.0
 33
0.0
 40
0.0
 40
0.0
 40
0.0
 40
0.0
 40
1.0
 40
1.0
 40
1.0
 40
2.0
 40
2.0
 40
2.0
 40
3.0
 40
3.0
 40
3.0
 40
3.0
 10
798.6259730227623
 20
-656.2335978394857
 30
0.0
 10
798.6259730227623
 20
-656.2335978394857
 30
0.0
 10
804.60148830097
 20
-669.1372990956288
 30
0.0
 10
804.60148830097
 20
-669.1372990956288
 30
0.0
 10
804.7273452840934
 20
-669.4090783206179
 30
0.0
 10
804.4856030955467
 20
-669.7011100424766
 30
0.0
 10
804.134768824955
 20
-669.7011100424342
 30
0.0
 10
804.134768824955
 20
-669.7011100424342
 30
0.0
 10
799.6276102949124
 20
-669.7011100418983
 30
0.0
 10
799.6276102949124
 20
-669.7011100418983
 30
0.0
  0
SPLINE
  5
C7
330
1F
100
AcDbEntity
  8
Layer 1
 62
   179
420
  2301728
370
    35
100
AcDbSpline
210
0.0
220
0.0
230
1.0
 70
     8
 71
     3
 72
    14
 73
    10
 74
     0
 42
0.0000000001
 43
0.0000000001
 12
1.0
 22
0.0
 32
0.0
 13
1.0
 23
0.0
 33
0.0
 40
0.0
 40
0.0
 40
0.0
 40
0.0
 40
1.0
 40
1.0
 40
1.0
 40
2.0
 40
2.0
 40
2.0
 40
3.0
 40
3.0
 40
3.0
 40
3.0
 10
785.6259730260147
 20
-656.2335978385155
 30
0.0
 10
785.6259730260147
 20
-656.2335978385155
 30
0.0
 10
791.6014883042191
 20
-669.1372990946592
 30
0.0
 10
791.6014883042191
 20
-669.1372990946592
 30
0.0
 10
791.7273452873426
 20
-669.4090783196477
 30
0.0
 10
791.4856030987991
 20
-669.7011100415069
 30
0.0
 10
791.1347688282042
 20
-669.7011100414645
 30
0.0
 10
791.1347688282042
 20
-669.7011100414645
 30
0.0
 10
786.6276102981647
 20
-669.7011100409281
 30
0.0
 10
786.6276102981647
 20
-669.7011100409281
 30
0.0
  0
SPLINE
  5
C8
330
1F
100
AcDbEntity
  8
Layer 1
 62
   179
420
  2301728
370
    35
100
AcDbSpline
210
0.0
220
0.0
230
1.0
 70
     8
 71
     3
 72
    14
 73
    10
 74
     0
 42
0.0000000001
 43
0.0000000001
 12
1.0
 22
0.0
 32
0.0
 13
1.0
 23
0.0
 33
0.0
 40
0.0
 40
0.0
 40
0.0
 40
0.0
 40
1.0
 40
1.0
 40
1.0
 40
2.0
 40
2.0
 40
2.0
 40
3.0
 40
3.0
 40
3.0
 40
3.0
 10
772.6259730292644
 20
-656.233597837549
 30
0.0
 10
772.6259730292644
 20
-656.233597837549
 30
0.0
 10
778.6014883074681
 20
-669.1372990936921
 30
0.0
 10
778.6014883074681
 20
-669.1372990936921
 30
0.0
 10
778.7273452905916
 20
-669.4090783186813
 30
0.0
 10
778.4856031020488
 20
-669.7011100405366
 30
0.0
 10
778.1347688314532
 20
-669.7011100404975
 30
0.0
 10
778.1347688314532
 20
-669.7011100404975
 30
0.0
 10
773.6276103014138
 20
-669.7011100399617
 30
0.0
 10
773.6276103014138
 20
-669.7011100399617
 30
0.0
  0
SPLINE
  5
C9
330
1F
100
AcDbEntity
  8
Layer 1
 62
   179
420
  2301728
370
    35
100
AcDbSpline
210
0.0
220
0.0
230
1.0
 70
     8
 71
     3
 72
    14
 73
    10
 74
     0
 42
0.0000000001
 43
0.0000000001
 12
1.0
 22
0.0
 32
0.0
 13
1.0
 23
0.0
 33
0.0
 40
0.0
 40
0.0
 40
0.0
 40
0.0
 40
1.0
 40
1.0
 40
1.0
 40
2.0
 40
2.0
 40
2.0
 40
3.0
 40
3.0
 40
3.0
 40
3.0
 10
759.6259730325129
 20
-656.2335978365788
 30
0.0
 10
759.6259730325129
 20
-656.2335978365788
 30
0.0
 10
765.6014883107205
 20
-669.137299092722
 30
0.0
 10
765.6014883107205
 20
-669.137299092722
 30
0.0
 10
765.727345293844
 20
-669.4090783177111
 30
0.0
 10
765.4856031052972
 20
-669.7011100395696
 30
0.0
 10
765.1347688347056
 20
-669.7011100395273
 30
0.0
 10
765.1347688347056
 20
-669.7011100395273
 30
0.0
 10
760.6276103046629
 20
-669.7011100389915
 30
0.0
 10
760.6276103046629
 20
-669.7011100389915
 30
0.0
  0
SPLINE
  5
CA
330
1F
100
AcDbEntity
  8
Layer 1
 62
   179
420
  2301728
370
    35
100
AcDbSpline
210
0.0
220
0.0
230
1.0
 70
     8
 71
     3
 72
    14
 73
    10
 74
     0
 42
0.0000000001
 43
0.0000000001
 12
1.0
 22
0.0
 32
0.0
 13
1.0
 23
0.0
 33
0.0
 40
0.0
 40
0.0
 40
0.0
 40
0.0
 40
1.0
 40
1.0
 40
1.0
 40
2.0
 40
2.0
 40
2.0
 40
3.0
 40
3.0
 40
3.0
 40
3.0
 10
746.6259730357626
 20
-656.2335978356124
 30
0.0
 10
746.6259730357626
 20
-656.2335978356124
 30
0.0
 10
752.6014883139695
 20
-669.1372990917555
 30
0.0
 10
752.6014883139695
 20
-669.1372990917555
 30
0.0
 10
752.727345297093
 20
-669.4090783167408
 30
0.0
 10
752.4856031085469
 20
-669.7011100386001
 30
0.0
 10
752.1347688379553
 20
-669.7011100385577
 30
0.0
 10
752.1347688379553
 20
-669.7011100385577
 30
0.0
 10
747.6276103079152
 20
-669.7011100380244
 30
0.0
 10
747.6276103079152
 20
-669.7011100380244
 30
0.0
  0
SPLINE
  5
CB
330
1F
100
AcDbEntity
  8
Layer 1
 62
   179
420
  2301728
370
    35
100
AcDbSpline
210
0.0
220
0.0
230
1.0
 70
     8
 71
     3
 72
    14
 73
    10
 74
     0
 42
0.0000000001
 43
0.0000000001
 12
1.0
 22
0.0
 32
0.0
 13
1.0
 23
0.0
 33
0.0
 40
0.0
 40
0.0
 40
0.0
 40
0.0
 40
1.0
 40
1.0
 40
1.0
 40
2.0
 40
2.0
 40
2.0
 40
3.0
 40
3.0
 40
3.0
 40
3.0
 10
733.6259730390149
 20
-656.2335978346422
 30
0.0
 10
733.6259730390149
 20
-656.2335978346422
 30
0.0
 10
739.6014883172187
 20
-669.1372990907853
 30
0.0
 10
739.6014883172187
 20
-669.1372990907853
 30
0.0
 10
739.7273453003422
 20
-669.4090783157744
 30
0.0
 10
739.4856031117993
 20
-669.7011100376329
 30
0.0
 10
739.1347688412038
 20
-669.7011100375906
 30
0.0
 10
739.1347688412038
 20
-669.7011100375906
 30
0.0
 10
734.627610311165
 20
-669.7011100370548
 30
0.0
 10
734.627610311165
 20
-669.7011100370548
 30
0.0
  0
SPLINE
  5
CC
330
1F
100
AcDbEntity
  8
Layer 1
 62
   179
420
  2301728
370
    35
100
AcDbSpline
210
0.0
220
0.0
230
1.0
 70
     8
 71
     3
 72
    14
 73
    10
 74
     0
 42
0.0000000001
 43
0.0000000001
 12
1.0
 22
0.0
 32
0.0
 13
1.0
 23
0.0
 33
0.0
 40
0.0
 40
0.0
 40
0.0
 40
0.0
 40
1.0
 40
1.0
 40
1.0
 40
2.0
 40
2.0
 40
2.0
 40
3.0
 40
3.0
 40
3.0
 40
3.0
 10
382.1975608706394
 20
-683.2335978278937
 30
0.0
 10
382.1975608706394
 20
-683.2335978278937
 30
0.0
 10
388.1730761516411
 20
-670.3298965726394
 30
0.0
 10
388.1730761516411
 20
-670.3298965726394
 30
0.0
 10
388.298933134821
 20
-670.0581173476721
 30
0.0
 10
388.0571909463416
 20
-669.7660856257744
 30
0.0
 10
387.7063566757465
 20
-669.7660856257635
 30
0.0
 10
387.7063566757465
 20
-669.7660856257635
 30
0.0
 10
383.1991981457035
 20
-669.7660856256293
 30
0.0
 10
383.1991981457035
 20
-669.7660856256293
 30
0.0
  0
SPLINE
  5
CD
330
1F
100
AcDbEntity
  8
Layer 1
 62
   179
420
  2301728
370
    35
100
AcDbSpline
210
0.0
220
0.0
230
1.0
 70
     8
 71
     3
 72
    14
 73
    10
 74
     0
 42
0.0000000001
 43
0.0000000001
 12
1.0
 22
0.0
 32
0.0
 13
1.0
 23
0.0
 33
0.0
 40
0.0
 40
0.0
 40
0.0
 40
0.0
 40
1.0
 40
1.0
 40
1.0
 40
2.0
 40
2.0
 40
2.0
 40
3.0
 40
3.0
 40
3.0
 40
3.0
 10
369.1975608738924
 20
-683.2335978269235
 30
0.0
 10
369.1975608738924
 20
-683.2335978269235
 30
0.0
 10
375.1730761548902
 20
-670.3298965716691
 30
0.0
 10
375.1730761548902
 20
-670.3298965716691
 30
0.0
 10
375.2989331380701
 20
-670.0581173467018
 30
0.0
 10
375.0571909495907
 20
-669.7660856248074
 30
0.0
 10
374.7063566789956
 20
-669.7660856247932
 30
0.0
 10
374.7063566789956
 20
-669.7660856247932
 30
0.0
 10
370.1991981489558
 20
-669.7660856246591
 30
0.0
 10
370.1991981489558
 20
-669.7660856246591
 30
0.0
  0
SPLINE
  5
CE
330
1F
100
AcDbEntity
  8
Layer 1
 62
   179
420
  2301728
370
    35
100
AcDbSpline
210
0.0
220
0.0
230
1.0
 70
     8
 71
     3
 72
    14
 73
    10
 74
     0
 42
0.0000000001
 43
0.0000000001
 12
1.0
 22
0.0
 32
0.0
 13
1.0
 23
0.0
 33
0.0
 40
0.0
 40
0.0
 40
0.0
 40
0.0
 40
1.0
 40
1.0
 40
1.0
 40
2.0
 40
2.0
 40
2.0
 40
3.0
 40
3.0
 40
3.0
 40
3.0
 10
356.1975608771412
 20
-683.2335978259571
 30
0.0
 10
356.1975608771412
 20
-683.2335978259571
 30
0.0
 10
362.1730761581392
 20
-670.3298965707028
 30
0.0
 10
362.1730761581392
 20
-670.3298965707028
 30
0.0
 10
362.2989331413192
 20
-670.0581173457355
 30
0.0
 10
362.0571909528395
 20
-669.7660856238377
 30
0.0
 10
361.7063566822443
 20
-669.7660856238268
 30
0.0
 10
361.7063566822443
 20
-669.7660856238268
 30
0.0
 10
357.1991981522049
 20
-669.7660856236927
 30
0.0
 10
357.1991981522049
 20
-669.7660856236927
 30
0.0
  0
SPLINE
  5
CF
330
1F
100
AcDbEntity
  8
Layer 1
 62
   179
420
  2301728
370
    35
100
AcDbSpline
210
0.0
220
0.0
230
1.0
 70
     8
 71
     3
 72
    14
 73
    10
 74
     0
 42
0.0000000001
 43
0.0000000001
 12
1.0
 22
0.0
 32
0.0
 13
1.0
 23
0.0
 33
0.0
 40
0.0
 40
0.0
 40
0.0
 40
0.0
 40
1.0
 40
1.0
 40
1.0
 40
2.0
 40
2.0
 40
2.0
 40
3.0
 40
3.0
 40
3.0
 40
3.0
 10
343.1975608803903
 20
-683.2335978249869
 30
0.0
 10
343.1975608803903
 20
-683.2335978249869
 30
0.0
 10
349.1730761613896
 20
-670.3298965697325
 30
0.0
 10
349.1730761613896
 20
-670.3298965697325
 30
0.0
 10
349.2989331445709
 20
-670.0581173447652
 30
0.0
 10
349.0571909560899
 20
-669.7660856228707
 30
0.0
 10
348.7063566854976
 20
-669.7660856228604
 30
0.0
 10
348.7063566854976
 20
-669.7660856228604
 30
0.0
 10
344.1991981554556
 20
-669.7660856227225
 30
0.0
 10
344.1991981554556
 20
-669.7660856227225
 30
0.0
  0
SPLINE
  5
D0
330
1F
100
AcDbEntity
  8
Layer 1
 62
   179
420
  2301728
370
    35
100
AcDbSpline
210
0.0
220
0.0
230
1.0
 70
     8
 71
     3
 72
    14
 73
    10
 74
     0
 42
0.0000000001
 43
0.0000000001
 12
1.0
 22
0.0
 32
0.0
 13
1.0
 23
0.0
 33
0.0
 40
0.0
 40
0.0
 40
0.0
 40
0.0
 40
1.0
 40
1.0
 40
1.0
 40
2.0
 40
2.0
 40
2.0
 40
3.0
 40
3.0
 40
3.0
 40
3.0
 10
330.1975608836401
 20
-683.2335978240166
 30
0.0
 10
330.1975608836401
 20
-683.2335978240166
 30
0.0
 10
336.17307616464
 20
-670.3298965687661
 30
0.0
 10
336.17307616464
 20
-670.3298965687661
 30
0.0
 10
336.2989331478213
 20
-670.058117343795
 30
0.0
 10
336.0571909593403
 20
-669.7660856219004
 30
0.0
 10
335.7063566887464
 20
-669.7660856218902
 30
0.0
 10
335.7063566887464
 20
-669.7660856218902
 30
0.0
 10
331.1991981587053
 20
-669.7660856217522
 30
0.0
 10
331.1991981587053
 20
-669.7660856217522
 30
0.0
  0
SPLINE
  5
D1
330
1F
100
AcDbEntity
  8
Layer 1
 62
   179
420
  2301728
370
    35
100
AcDbSpline
210
0.0
220
0.0
230
1.0
 70
     8
 71
     3
 72
    14
 73
    10
 74
     0
 42
0.0000000001
 43
0.0000000001
 12
1.0
 22
0.0
 32
0.0
 13
1.0
 23
0.0
 33
0.0
 40
0.0
 40
0.0
 40
0.0
 40
0.0
 40
1.0
 40
1.0
 40
1.0
 40
2.0
 40
2.0
 40
2.0
 40
3.0
 40
3.0
 40
3.0
 40
3.0
 10
317.1975608868911
 20
-683.2335978230502
 30
0.0
 10
317.1975608868911
 20
-683.2335978230502
 30
0.0
 10
323.1730761678904
 20
-670.3298965677958
 30
0.0
 10
323.1730761678904
 20
-670.3298965677958
 30
0.0
 10
323.298933151071
 20
-670.0581173428285
 30
0.0
 10
323.0571909625907
 20
-669.7660856209309
 30
0.0
 10
322.7063566919965
 20
-669.76608562092
 30
0.0
 10
322.7063566919965
 20
-669.76608562092
 30
0.0
 10
318.1991981619557
 20
-669.7660856207858
 30
0.0
 10
318.1991981619557
 20
-669.7660856207858
 30
0.0
  0
SPLINE
  5
D2
330
1F
100
AcDbEntity
  8
Layer 1
 62
   179
420
  2301728
370
    35
100
AcDbSpline
210
0.0
220
0.0
230
1.0
 70
     8
 71
     3
 72
    14
 73
    10
 74
     0
 42
0.0000000001
 43
0.0000000001
 12
1.0
 22
0.0
 32
0.0
 13
1.0
 23
0.0
 33
0.0
 40
0.0
 40
0.0
 40
0.0
 40
0.0
 40
1.0
 40
1.0
 40
1.0
 40
2.0
 40
2.0
 40
2.0
 40
3.0
 40
3.0
 40
3.0
 40
3.0
 10
304.1975608901408
 20
-683.2335978220799
 30
0.0
 10
304.1975608901408
 20
-683.2335978220799
 30
0.0
 10
310.1730761711402
 20
-670.3298965668295
 30
0.0
 10
310.1730761711402
 20
-670.3298965668295
 30
0.0
 10
310.2989331543208
 20
-670.0581173418583
 30
0.0
 10
310.0571909658404
 20
-669.7660856199637
 30
0.0
 10
309.7063566952462
 20
-669.7660856199535
 30
0.0
 10
309.7063566952462
 20
-669.7660856199535
 30
0.0
 10
305.1991981652058
 20
-669.7660856198156
 30
0.0
 10
305.1991981652058
 20
-669.7660856198156
 30
0.0
  0
SPLINE
  5
D3
330
1F
100
AcDbEntity
  8
Layer 1
 62
   179
420
  2301728
370
    35
100
AcDbSpline
210
0.0
220
0.0
230
1.0
 70
     8
 71
     3
 72
    14
 73
    10
 74
     0
 42
0.0000000001
 43
0.0000000001
 12
1.0
 22
0.0
 32
0.0
 13
1.0
 23
0.0
 33
0.0
 40
0.0
 40
0.0
 40
0.0
 40
0.0
 40
1.0
 40
1.0
 40
1.0
 40
2.0
 40
2.0
 40
2.0
 40
3.0
 40
3.0
 40
3.0
 40
3.0
 10
291.1975608933906
 20
-683.2335978211097
 30
0.0
 10
291.1975608933906
 20
-683.2335978211097
 30
0.0
 10
297.1730761743902
 20
-670.3298965658593
 30
0.0
 10
297.1730761743902
 20
-670.3298965658593
 30
0.0
 10
297.2989331575715
 20
-670.058117340888
 30
0.0
 10
297.0571909690908
 20
-669.7660856189935
 30
0.0
 10
296.7063566984966
 20
-669.7660856189833
 30
0.0
 10
296.7063566984966
 20
-669.7660856189833
 30
0.0
 10
292.1991981684558
 20
-669.7660856188492
 30
0.0
 10
292.1991981684558
 20
-669.7660856188492
 30
0.0
  0
SPLINE
  5
D4
330
1F
100
AcDbEntity
  8
Layer 1
 62
   179
420
  2301728
370
    35
100
AcDbSpline
210
0.0
220
0.0
230
1.0
 70
     8
 71
     3
 72
    14
 73
    10
 74
     0
 42
0.0000000001
 43
0.0000000001
 12
1.0
 22
0.0
 32
0.0
 13
1.0
 23
0.0
 33
0.0
 40
0.0
 40
0.0
 40
0.0
 40
0.0
 40
1.0
 40
1.0
 40
1.0
 40
2.0
 40
2.0
 40
2.0
 40
3.0
 40
3.0
 40
3.0
 40
3.0
 10
278.1975608966403
 20
-683.2335978201432
 30
0.0
 10
278.1975608966403
 20
-683.2335978201432
 30
0.0
 10
284.1730761776403
 20
-670.3298965648889
 30
0.0
 10
284.1730761776403
 20
-670.3298965648889
 30
0.0
 10
284.2989331608215
 20
-670.0581173399216
 30
0.0
 10
284.0571909723405
 20
-669.7660856180239
 30
0.0
 10
283.7063567017473
 20
-669.7660856180169
 30
0.0
 10
283.7063567017473
 20
-669.7660856180169
 30
0.0
 10
279.1991981717056
 20
-669.766085617879
 30
0.0
 10
279.1991981717056
 20
-669.766085617879
 30
0.0
  0
SPLINE
  5
D5
330
1F
100
AcDbEntity
  8
Layer 1
 62
   179
420
  2301728
370
    35
100
AcDbSpline
210
0.0
220
0.0
230
1.0
 70
     8
 71
     3
 72
    14
 73
    10
 74
     0
 42
0.0000000001
 43
0.0000000001
 12
1.0
 22
0.0
 32
0.0
 13
1.0
 23
0.0
 33
0.0
 40
0.0
 40
0.0
 40
0.0
 40
0.0
 40
1.0
 40
1.0
 40
1.0
 40
2.0
 40
2.0
 40
2.0
 40
3.0
 40
3.0
 40
3.0
 40
3.0
 10
265.1975608998914
 20
-683.233597819173
 30
0.0
 10
265.1975608998914
 20
-683.233597819173
 30
0.0
 10
271.1730761808907
 20
-670.3298965639187
 30
0.0
 10
271.1730761808907
 20
-670.3298965639187
 30
0.0
 10
271.2989331640713
 20
-670.0581173389514
 30
0.0
 10
271.057190975591
 20
-669.7660856170569
 30
0.0
 10
270.7063567049971
 20
-669.7660856170467
 30
0.0
 10
270.7063567049971
 20
-669.7660856170467
 30
0.0
 10
266.199198174956
 20
-669.7660856169086
 30
0.0
 10
266.199198174956
 20
-669.7660856169086
 30
0.0
  0
SPLINE
  5
D6
330
1F
100
AcDbEntity
  8
Layer 1
 62
   179
420
  2301728
370
    35
100
AcDbSpline
210
0.0
220
0.0
230
1.0
 70
     8
 71
     3
 72
    14
 73
    10
 74
     0
 42
0.0000000001
 43
0.0000000001
 12
1.0
 22
0.0
 32
0.0
 13
1.0
 23
0.0
 33
0.0
 40
0.0
 40
0.0
 40
0.0
 40
0.0
 40
1.0
 40
1.0
 40
1.0
 40
2.0
 40
2.0
 40
2.0
 40
3.0
 40
3.0
 40
3.0
 40
3.0
 10
252.1975609031414
 20
-683.233597818206
 30
0.0
 10
252.1975609031414
 20
-683.233597818206
 30
0.0
 10
258.1730761841404
 20
-670.3298965629523
 30
0.0
 10
258.1730761841404
 20
-670.3298965629523
 30
0.0
 10
258.298933167321
 20
-670.0581173379843
 30
0.0
 10
258.0571909788407
 20
-669.7660856160873
 30
0.0
 10
257.7063567082465
 20
-669.7660856160763
 30
0.0
 10
257.7063567082465
 20
-669.7660856160763
 30
0.0
 10
253.199198178207
 20
-669.7660856159423
 30
0.0
 10
253.199198178207
 20
-669.7660856159423
 30
0.0
  0
SPLINE
  5
D7
330
1F
100
AcDbEntity
  8
Layer 1
 62
   179
420
  2301728
370
    35
100
AcDbSpline
210
0.0
220
0.0
230
1.0
 70
     8
 71
     3
 72
    14
 73
    10
 74
     0
 42
0.0000000001
 43
0.0000000001
 12
1.0
 22
0.0
 32
0.0
 13
1.0
 23
0.0
 33
0.0
 40
0.0
 40
0.0
 40
0.0
 40
0.0
 40
1.0
 40
1.0
 40
1.0
 40
2.0
 40
2.0
 40
2.0
 40
3.0
 40
3.0
 40
3.0
 40
3.0
 10
239.1975609063912
 20
-683.2335978172364
 30
0.0
 10
239.1975609063912
 20
-683.2335978172364
 30
0.0
 10
245.1730761873902
 20
-670.3298965619821
 30
0.0
 10
245.1730761873902
 20
-670.3298965619821
 30
0.0
 10
245.2989331705714
 20
-670.0581173370148
 30
0.0
 10
245.0571909820904
 20
-669.7660856151202
 30
0.0
 10
244.7063567114969
 20
-669.76608561511
 30
0.0
 10
244.7063567114969
 20
-669.76608561511
 30
0.0
 10
240.1991981814564
 20
-669.766085614972
 30
0.0
 10
240.1991981814564
 20
-669.766085614972
 30
0.0
  0
SPLINE
  5
D8
330
1F
100
AcDbEntity
  8
Layer 1
 62
   179
420
  2301728
370
    35
100
AcDbSpline
210
0.0
220
0.0
230
1.0
 70
     8
 71
     3
 72
    14
 73
    10
 74
     0
 42
0.0000000001
 43
0.0000000001
 12
1.0
 22
0.0
 32
0.0
 13
1.0
 23
0.0
 33
0.0
 40
0.0
 40
0.0
 40
0.0
 40
0.0
 40
1.0
 40
1.0
 40
1.0
 40
2.0
 40
2.0
 40
2.0
 40
3.0
 40
3.0
 40
3.0
 40
3.0
 10
226.1975609096409
 20
-683.2335978162694
 30
0.0
 10
226.1975609096409
 20
-683.2335978162694
 30
0.0
 10
232.1730761906406
 20
-670.3298965610156
 30
0.0
 10
232.1730761906406
 20
-670.3298965610156
 30
0.0
 10
232.2989331738218
 20
-670.0581173360445
 30
0.0
 10
232.0571909853405
 20
-669.76608561415
 30
0.0
 10
231.7063567147473
 20
-669.7660856141397
 30
0.0
 10
231.7063567147473
 20
-669.7660856141397
 30
0.0
 10
227.1991981847059
 20
-669.7660856140018
 30
0.0
 10
227.1991981847059
 20
-669.7660856140018
 30
0.0
  0
SPLINE
  5
D9
330
1F
100
AcDbEntity
  8
Layer 1
 62
   179
420
  2301728
370
    35
100
AcDbSpline
210
0.0
220
0.0
230
1.0
 70
     8
 71
     3
 72
    32
 73
    28
 74
     0
 42
0.0000000001
 43
0.0000000001
 12
1.0
 22
0.0
 32
0.0
 13
1.0
 23
0.0
 33
0.0
 40
0.0
 40
0.0
 40
0.0
 40
0.0
 40
1.0
 40
1.0
 40
1.0
 40
2.0
 40
2.0
 40
2.0
 40
3.0
 40
3.0
 40
3.0
 40
4.0
 40
4.0
 40
4.0
 40
5.0
 40
5.0
 40
5.0
 40
6.0
 40
6.0
 40
6.0
 40
7.0
 40
7.0
 40
7.0
 40
8.0
 40
8.0
 40
8.0
 40
9.0
 40
9.0
 40
9.0
 40
9.0
 10
465.3562673503174
 20
-662.403362084232
 30
0.0
 10
465.3562673503174
 20
-662.403362084232
 30
0.0
 10
455.3921471985984
 20
-662.5079165704759
 30
0.0
 10
455.3921471985984
 20
-662.5079165704759
 30
0.0
 10
455.3921471985984
 20
-662.5079165704759
 30
0.0
 10
455.3921471989055
 20
-660.7449749959756
 30
0.0
 10
455.3921471989055
 20
-660.7449749959756
 30
0.0
 10
455.3921471989408
 20
-660.5313142903715
 30
0.0
 10
455.1770898679164
 20
-660.3853735127218
 30
0.0
 10
454.9795623097083
 20
-660.4668214154999
 30
0.0
 10
453.609393395267
 20
-661.031792630396
 30
0.0
 10
446.572702755918
 20
-665.5915250097589
 30
0.0
 10
446.572702755918
 20
-665.5915250097589
 30
0.0
 10
446.572702755918
 20
-665.5915250097589
 30
0.0
 10
446.5727027550113
 20
-673.091624371144
 30
0.0
 10
446.5727027550113
 20
-673.091624371144
 30
0.0
 10
446.5727027550113
 20
-673.091624371144
 30
0.0
 10
453.6093781398577
 20
-677.6514976175065
 30
0.0
 10
454.9795557091481
 20
-678.216511365119
 30
0.0
 10
455.1770841494205
 20
-678.2979652487606
 30
0.0
 10
455.392147196468
 20
-678.1520242535461
 30
0.0
 10
455.3921471965029
 20
-677.938360452504
 30
0.0
 10
455.3921471965029
 20
-677.938360452504
 30
0.0
 10
455.39214719681
 20
-676.1752328126115
 30
0.0
 10
455.39214719681
 20
-676.1752328126115
 30
0.0
 10
455.39214719681
 20
-676.1752328126115
 30
0.0
 10
465.3562673483984
 20
-676.2797873014512
 30
0.0
 10
465.3562673483984
 20
-676.2797873014512
 30
0.0
  0
SPLINE
  5
DA
330
1F
100
AcDbEntity
  8
Layer 1
 62
   179
420
  2301728
370
    35
100
AcDbSpline
210
0.0
220
0.0
230
1.0
 70
     8
 71
     3
 72
    32
 73
    28
 74
     0
 42
0.0000000001
 43
0.0000000001
 12
1.0
 22
0.0
 32
0.0
 13
1.0
 23
0.0
 33
0.0
 40
0.0
 40
0.0
 40
0.0
 40
0.0
 40
1.0
 40
1.0
 40
1.0
 40
2.0
 40
2.0
 40
2.0
 40
3.0
 40
3.0
 40
3.0
 40
4.0
 40
4.0
 40
4.0
 40
5.0
 40
5.0
 40
5.0
 40
6.0
 40
6.0
 40
6.0
 40
7.0
 40
7.0
 40
7.0
 40
8.0
 40
8.0
 40
8.0
 40
9.0
 40
9.0
 40
9.0
 40
9.0
 10
657.9182899948053
 20
-662.4033621185358
 30
0.0
 10
657.9182899948053
 20
-662.4033621185358
 30
0.0
 10
667.8824101463729
 20
-662.507916608537
 30
0.0
 10
667.8824101463729
 20
-662.507916608537
 30
0.0
 10
667.8824101463729
 20
-662.507916608537
 30
0.0
 10
667.8824101468881
 20
-660.7449750340335
 30
0.0
 10
667.8824101468881
 20
-660.7449750340335
 30
0.0
 10
667.8824101469407
 20
-660.5313143284326
 30
0.0
 10
668.0974674780219
 20
-660.3853735508676
 30
0.0
 10
668.2949950361982
 20
-660.4668214537265
 30
0.0
 10
669.6651639504065
 20
-661.0317926691771
 30
0.0
 10
676.7018545879496
 20
-665.591525051316
 30
0.0
 10
676.7018545879496
 20
-665.591525051316
 30
0.0
 10
676.7018545879496
 20
-665.591525051316
 30
0.0
 10
676.701854585762
 20
-673.091624412705
 30
0.0
 10
676.701854585762
 20
-673.091624412705
 30
0.0
 10
676.701854585762
 20
-673.091624412705
 30
0.0
 10
669.6651791991028
 20
-677.6514976562837
 30
0.0
 10
668.2950016295865
 20
-678.2165114033457
 30
0.0
 10
668.097473189282
 20
-678.2979652869064
 30
0.0
 10
667.882410142291
 20
-678.1520242916077
 30
0.0
 10
667.8824101423443
 20
-677.9383604905618
 30
0.0
 10
667.8824101423443
 20
-677.9383604905618
 30
0.0
 10
667.8824101428595
 20
-676.1752328506687
 30
0.0
 10
667.8824101428595
 20
-676.1752328506687
 30
0.0
 10
667.8824101428595
 20
-676.1752328506687
 30
0.0
 10
657.9182899911193
 20
-676.2797873357557
 30
0.0
 10
657.9182899911193
 20
-676.2797873357557
 30
0.0
  0
SPLINE
  5
DB
330
1F
100
AcDbEntity
  8
Layer 1
 62
   179
420
  2301728
370
    35
100
AcDbSpline
210
0.0
220
0.0
230
1.0
 70
     8
 71
     3
 72
   167
 73
   163
 74
     0
 42
0.0000000001
 43
0.0000000001
 12
1.0
 22
0.0
 32
0.0
 13
1.0
 23
0.0
 33
0.0
 40
0.0
 40
0.0
 40
0.0
 40
0.0
 40
1.0
 40
1.0
 40
1.0
 40
2.0
 40
2.0
 40
2.0
 40
3.0
 40
3.0
 40
3.0
 40
4.0
 40
4.0
 40
4.0
 40
5.0
 40
5.0
 40
5.0
 40
6.0
 40
6.0
 40
6.0
 40
7.0
 40
7.0
 40
7.0
 40
8.0
 40
8.0
 40
8.0
 40
9.0
 40
9.0
 40
9.0
 40
10.0
 40
10.0
 40
10.0
 40
11.0
 40
11.0
 40
11.0
 40
12.0
 40
12.0
 40
12.0
 40
13.0
 40
13.0
 40
13.0
 40
14.0
 40
14.0
 40
14.0
 40
15.0
 40
15.0
 40
15.0
 40
16.0
 40
16.0
 40
16.0
 40
17.0
 40
17.0
 40
17.0
 40
18.0
 40
18.0
 40
18.0
 40
19.0
 40
19.0
 40
19.0
 40
20.0
 40
20.0
 40
20.0
 40
21.0
 40
21.0
 40
21.0
 40
22.0
 40
22.0
 40
22.0
 40
23.0
 40
23.0
 40
23.0
 40
24.0
 40
24.0
 40
24.0
 40
25.0
 40
25.0
 40
25.0
 40
26.0
 40
26.0
 40
26.0
 40
27.0
 40
27.0
 40
27.0
 40
28.0
 40
28.0
 40
28.0
 40
29.0
 40
29.0
 40
29.0
 40
30.0
 40
30.0
 40
30.0
 40
31.0
 40
31.0
 40
31.0
 40
32.0
 40
32.0
 40
32.0
 40
33.0
 40
33.0
 40
33.0
 40
34.0
 40
34.0
 40
34.0
 40
35.0
 40
35.0
 40
35.0
 40
36.0
 40
36.0
 40
36.0
 40
37.0
 40
37.0
 40
37.0
 40
38.0
 40
38.0
 40
38.0
 40
39.0
 40
39.0
 40
39.0
 40
40.0
 40
40.0
 40
40.0
 40
41.0
 40
41.0
 40
41.0
 40
42.0
 40
42.0
 40
42.0
 40
43.0
 40
43.0
 40
43.0
 40
44.0
 40
44.0
 40
44.0
 40
45.0
 40
45.0
 40
45.0
 40
46.0
 40
46.0
 40
46.0
 40
47.0
 40
47.0
 40
47.0
 40
48.0
 40
48.0
 40
48.0
 40
49.0
 40
49.0
 40
49.0
 40
50.0
 40
50.0
 40
50.0
 40
51.0
 40
51.0
 40
51.0
 40
52.0
 40
52.0
 40
52.0
 40
53.0
 40
53.0
 40
53.0
 40
54.0
 40
54.0
 40
54.0
 40
54.0
 10
1063.124070643507
 20
-621.9277572772438
 30
0.0
 10
1063.124070643507
 20
-621.9277572772438
 30
0.0
 10
1099.167791473257
 20
-621.9277572772438
 30
0.0
 10
1099.167791473257
 20
-621.9277572772438
 30
0.0
 10
1165.966212002345
 20
-621.9277572772438
 30
0.0
 10
1202.58309838642
 20
-570.0679597912957
 30
0.0
 10
1202.58309838642
 20
-499.9277966415111
 30
0.0
 10
1202.58309838642
 20
-499.9277966415111
 30
0.0
 10
1202.58309838642
 20
-365.4777776864083
 30
0.0
 10
1202.58309838642
 20
-365.4777776864083
 30
0.0
 10
1202.58309838642
 20
-361.9707566098131
 30
0.0
 10
1199.875511717177
 20
-359.1277776879958
 30
0.0
 10
1196.535577771613
 20
-359.1277776879958
 30
0.0
 10
1196.535577771613
 20
-359.1277776879958
 30
0.0
 10
1180.475231638475
 20
-359.1277776879958
 30
0.0
 10
1180.475231638475
 20
-359.1277776879958
 30
0.0
 10
1180.475231638475
 20
-359.1277776879958
 30
0.0
 10
1180.475231638475
 20
-359.1227177040016
 30
0.0
 10
1180.475231638475
 20
-359.1227177040016
 30
0.0
 10
1180.475231638475
 20
-359.1227177040016
 30
0.0
 10
1188.787213515737
 20
-359.1227177040016
 30
0.0
 10
1188.787213515737
 20
-359.1227177040016
 30
0.0
 10
1188.787213515737
 20
-359.1227177040016
 30
0.0
 10
1188.787213515737
 20
-356.6525627092329
 30
0.0
 10
1188.787213515737
 20
-356.6525627092329
 30
0.0
 10
1188.787213515737
 20
-356.6525627092329
 30
0.0
 10
1180.475231638475
 20
-351.0342794600388
 30
0.0
 10
1180.475231638475
 20
-351.0342794600388
 30
0.0
 10
1180.475231638475
 20
-351.0342794600388
 30
0.0
 10
1175.169612336416
 20
-351.0342794600388
 30
0.0
 10
1175.169612336416
 20
-351.0342794600388
 30
0.0
 10
1174.177080327116
 20
-351.0342794600388
 30
0.0
 10
1173.334668353587
 20
-351.7621420086849
 30
0.0
 10
1173.190749489688
 20
-352.7441664767554
 30
0.0
 10
1173.190749489688
 20
-352.7441664767554
 30
0.0
 10
1172.255578320217
 20
-359.1227177040016
 30
0.0
 10
1172.255578320217
 20
-359.1227177040016
 30
0.0
 10
1172.255578320217
 20
-359.1227177040016
 30
0.0
 10
1172.255578320217
 20
-359.1277776879958
 30
0.0
 10
1172.255578320217
 20
-359.1277776879958
 30
0.0
 10
1172.255578320217
 20
-359.1277776879958
 30
0.0
 10
1127.090721018141
 20
-359.1277776879958
 30
0.0
 10
1127.090721018141
 20
-359.1277776879958
 30
0.0
 10
1127.090721018141
 20
-359.1277776879958
 30
0.0
 10
1127.090721018141
 20
-359.1227177040016
 30
0.0
 10
1127.090721018141
 20
-359.1227177040016
 30
0.0
 10
1127.090721018141
 20
-359.1227177040016
 30
0.0
 10
1135.402702895403
 20
-359.1227177040016
 30
0.0
 10
1135.402702895403
 20
-359.1227177040016
 30
0.0
 10
1135.402702895403
 20
-359.1227177040016
 30
0.0
 10
1135.402702895403
 20
-356.6525627092329
 30
0.0
 10
1135.402702895403
 20
-356.6525627092329
 30
0.0
 10
1135.402702895403
 20
-356.6525627092329
 30
0.0
 10
1127.090721018141
 20
-351.0342794600388
 30
0.0
 10
1127.090721018141
 20
-351.0342794600388
 30
0.0
 10
1127.090721018141
 20
-351.0342794600388
 30
0.0
 10
1121.785101716081
 20
-351.0342794600388
 30
0.0
 10
1121.785101716081
 20
-351.0342794600388
 30
0.0
 10
1120.792569706781
 20
-351.0342794600388
 30
0.0
 10
1119.950157733252
 20
-351.7621420086849
 30
0.0
 10
1119.806238869354
 20
-352.7441664767554
 30
0.0
 10
1119.806238869354
 20
-352.7441664767554
 30
0.0
 10
1118.871067699883
 20
-359.1227177040016
 30
0.0
 10
1118.871067699883
 20
-359.1227177040016
 30
0.0
 10
1118.871067699883
 20
-359.1227177040016
 30
0.0
 10
1118.871067699883
 20
-359.1277776879958
 30
0.0
 10
1118.871067699883
 20
-359.1277776879958
 30
0.0
 10
1118.871067699883
 20
-359.1277776879958
 30
0.0
 10
1075.383799644349
 20
-359.1277776879958
 30
0.0
 10
1075.383799644349
 20
-359.1277776879958
 30
0.0
 10
1075.383799644349
 20
-359.1277776879958
 30
0.0
 10
1075.383799644349
 20
-358.8711180743447
 30
0.0
 10
1075.383799644349
 20
-358.8711180743447
 30
0.0
 10
1120.974126238854
 20
-345.3765068038468
 30
0.0
 10
1136.674115384234
 20
-327.5453815912908
 30
0.0
 10
1140.146771633366
 20
-267.0438204627529
 30
0.0
 10
1140.17037053744
 20
-265.1386826594098
 30
0.0
 10
1136.004044312353
 20
-264.2774087880973
 30
0.0
 10
1134.81824244633
 20
-265.768790623662
 30
0.0
 10
1124.772171756567
 20
-278.4050563540098
 30
0.0
 10
1096.710318736239
 20
-301.2857441466838
 30
0.0
 10
1062.883787440442
 20
-301.2857441466838
 30
0.0
 10
1028.161359063706
 20
-301.2857441466838
 30
0.0
 10
1000.853637445099
 20
-278.6951333938679
 30
0.0
 10
990.9658688928836
 20
-265.9343274617282
 30
0.0
 10
989.7907468228649
 20
-264.4179686838955
 30
0.0
 10
985.5127133766707
 20
-265.2729337241006
 30
0.0
 10
985.6226980500353
 20
-267.1883422183592
 30
0.0
 10
989.0953542991672
 20
-327.689903346897
 30
0.0
 10
1005.792181823205
 20
-345.3765068038468
 30
0.0
 10
1050.383775236536
 20
-358.8709458195705
 30
0.0
 10
1050.383775236536
 20
-358.8709458195705
 30
0.0
 10
1050.383775236536
 20
-359.1277776879958
 30
0.0
 10
1050.383775236536
 20
-359.1277776879958
 30
0.0
 10
1050.383775236536
 20
-359.1277776879958
 30
0.0
 10
1006.895129142807
 20
-359.1277776879958
 30
0.0
 10
1006.895129142807
 20
-359.1277776879958
 30
0.0
 10
1006.895129142807
 20
-359.1277776879958
 30
0.0
 10
1006.895129142807
 20
-359.1227177040016
 30
0.0
 10
1006.895129142807
 20
-359.1227177040016
 30
0.0
 10
1006.895129142807
 20
-359.1227177040016
 30
0.0
 10
1005.960044100726
 20
-352.7441664767554
 30
0.0
 10
1005.960044100726
 20
-352.7441664767554
 30
0.0
 10
1005.816039109442
 20
-351.7621420086849
 30
0.0
 10
1004.973713263298
 20
-351.0342794600388
 30
0.0
 10
1003.981181253998
 20
-351.0342794600388
 30
0.0
 10
1003.981181253998
 20
-351.0342794600388
 30
0.0
 10
998.67547582455
 20
-351.0342794600388
 30
0.0
 10
998.67547582455
 20
-351.0342794600388
 30
0.0
 10
998.67547582455
 20
-351.0342794600388
 30
0.0
 10
990.3634939472877
 20
-356.6525627092329
 30
0.0
 10
990.3634939472877
 20
-356.6525627092329
 30
0.0
 10
990.3634939472877
 20
-356.6525627092329
 30
0.0
 10
990.3634939472877
 20
-359.1227177040016
 30
0.0
 10
990.3634939472877
 20
-359.1227177040016
 30
0.0
 10
990.3634939472877
 20
-359.1227177040016
 30
0.0
 10
998.67547582455
 20
-359.1227177040016
 30
0.0
 10
998.67547582455
 20
-359.1227177040016
 30
0.0
 10
998.67547582455
 20
-359.1227177040016
 30
0.0
 10
998.67547582455
 20
-359.1277776879958
 30
0.0
 10
998.67547582455
 20
-359.1277776879958
 30
0.0
 10
998.67547582455
 20
-359.1277776879958
 30
0.0
 10
953.5105323950879
 20
-359.1277776879958
 30
0.0
 10
953.5105323950879
 20
-359.1277776879958
 30
0.0
 10
953.5105323950879
 20
-359.1277776879958
 30
0.0
 10
953.5105323950879
 20
-359.1227177040016
 30
0.0
 10
953.5105323950879
 20
-359.1227177040016
 30
0.0
 10
953.5105323950879
 20
-359.1227177040016
 30
0.0
 10
952.575447353002
 20
-352.7441664767554
 30
0.0
 10
952.575447353002
 20
-352.7441664767554
 30
0.0
 10
952.4314423617186
 20
-351.7621420086849
 30
0.0
 10
951.589116515575
 20
-351.0342794600388
 30
0.0
 10
950.5965845062746
 20
-351.0342794600388
 30
0.0
 10
950.5965845062746
 20
-351.0342794600388
 30
0.0
 10
945.2908790768303
 20
-351.0342794600388
 30
0.0
 10
945.2908790768303
 20
-351.0342794600388
 30
0.0
 10
945.2908790768303
 20
-351.0342794600388
 30
0.0
 10
936.978897199568
 20
-356.6525627092329
 30
0.0
 10
936.978897199568
 20
-356.6525627092329
 30
0.0
 10
936.978897199568
 20
-356.6525627092329
 30
0.0
 10
936.978897199568
 20
-359.1227177040016
 30
0.0
 10
936.978897199568
 20
-359.1227177040016
 30
0.0
 10
936.978897199568
 20
-359.1227177040016
 30
0.0
 10
945.2908790768303
 20
-359.1227177040016
 30
0.0
 10
945.2908790768303
 20
-359.1227177040016
 30
0.0
 10
945.2908790768303
 20
-359.1227177040016
 30
0.0
 10
945.2908790768303
 20
-359.1277776879958
 30
0.0
 10
945.2908790768303
 20
-359.1277776879958
 30
0.0
 10
945.2908790768303
 20
-359.1277776879958
 30
0.0
 10
929.2305329436927
 20
-359.1277776879958
 30
0.0
 10
929.2305329436927
 20
-359.1277776879958
 30
0.0
 10
925.8906851255172
 20
-359.1277776879958
 30
0.0
 10
923.1830984562703
 20
-361.9708427371983
 30
0.0
 10
923.1830984562703
 20
-365.4777776864083
 30
0.0
 10
923.1830984562703
 20
-365.4777776864083
 30
0.0
 10
923.1830984562703
 20
-499.9277966415111
 30
0.0
 10
923.1830984562703
 20
-499.9277966415111
 30
0.0
 10
923.1830984562703
 20
-570.0679597912957
 30
0.0
 10
959.7998987129599
 20
-621.9277572772438
 30
0.0
 10
1026.598319242048
 20
-621.9277572772438
 30
0.0
 10
1026.598319242048
 20
-621.9277572772438
 30
0.0
 10
1062.642126199184
 20
-621.9277572772438
 30
0.0
 10
1062.642126199184
 20
-621.9277572772438
 30
0.0
  0
MTEXT
  5
DC
330
1F
100
AcDbEntity
  8
Layer 1
 62
   179
420
  2301728
100
AcDbMText
 10
1058.546762117023
 20
-636.948411273665
 30
0.0
 40
10.30287499742428
 41
0.0
 46
0.0
 71
     7
 72
     1
  1
\fMyriad Pro|b0|i0|c0|p34;\W1;^ 
 73
     1
 44
1.0
  0
MTEXT
  5
DD
330
1F
100
AcDbEntity
  8
Layer 1
 62
   179
420
  2301728
100
AcDbMText
 10
1005.970815407077
 20
-654.4109112692993
 30
0.0
 40
10.30287499742428
 41
0.0
 46
0.0
 71
     7
 72
     1
  1
\fMyriad Pro|b0|i0|c0|p34;\W1;with hanging chad
 73
     1
 44
1.0
  0
ENDSEC
  0
SECTION
  2
OBJECTS
  0
DICTIONARY
  5
C
330
0
100
AcDbDictionary
281
     1
  3
ACAD_GROUP
350
D
  3
ACAD_LAYOUT
350
1A
  3
ACAD_MATERIAL
350
3B
  3
ACAD_MLEADERSTYLE
350
E3
  3
ACAD_MLINESTYLE
350
17
  3
ACAD_PLOTSETTINGS
350
19
  3
ACAD_PLOTSTYLENAME
350
E
  3
ACAD_TABLESTYLE
350
E2
  3
ACAD_VISUALSTYLE
350
2A
  0
SUN
  5
3F
330
29
100
AcDbSun
 90
        1
290
     0
 63
     7
421
 16777215
 40
1.0
291
     1
 91
  2455826
 92
 54000000
292
     0
 70
     2
 71
   256
280
     1
  0
DICTIONARY
  5
D
102
{ACAD_REACTORS
330
C
102
}
330
C
100
AcDbDictionary
281
     1
  0
DICTIONARY
  5
1A
102
{ACAD_REACTORS
330
C
102
}
330
C
100
AcDbDictionary
281
     1
  3
Layout1
350
1E
  3
Layout2
350
26
  3
Model
350
22
  0
DICTIONARY
  5
3B
102
{ACAD_REACTORS
330
C
102
}
330
C
100
AcDbDictionary
281
     1
  3
ByBlock
350
3D
  3
ByLayer
350
3C
  3
Global
350
3E
  0
DICTIONARY
  5
E3
102
{ACAD_REACTORS
330
C
102
}
330
C
100
AcDbDictionary
281
     1
  0
DICTIONARY
  5
17
102
{ACAD_REACTORS
330
C
102
}
330
C
100
AcDbDictionary
281
     1
  3
Standard
350
18
  0
DICTIONARY
  5
19
102
{ACAD_REACTORS
330
C
102
}
330
C
100
AcDbDictionary
281
     1
  0
ACDBDICTIONARYWDFLT
  5
E
102
{ACAD_REACTORS
330
C
102
}
330
C
100
AcDbDictionary
281
     1
  3
Normal
350
F
100
AcDbDictionaryWithDefault
340
F
  0
DICTIONARY
  5
E2
102
{ACAD_REACTORS
330
C
102
}
330
C
100
AcDbDictionary
281
     1
  0
DICTIONARY
  5
2A
102
{ACAD_REACTORS
330
C
102
}
330
C
100
AcDbDictionary
281
     1
  3
2dWireframe
350
2F
  3
3D Hidden
350
31
  3
3dWireframe
350
30
  3
Basic
350
32
  3
Brighten
350
36
  3
ColorChange
350
3A
  3
Conceptual
350
34
  3
Dim
350
35
  3
Facepattern
350
39
  3
Flat
350
2B
  3
FlatWithEdges
350
2C
  3
Gouraud
350
2D
  3
GouraudWithEdges
350
2E
  3
Linepattern
350
38
  3
Realistic
350
33
  3
Thicken
350
37
  0
LAYOUT
  5
1E
102
{ACAD_REACTORS
330
1A
102
}
330
1A
100
AcDbPlotSettings
  1

  2
none_device
  4

  6

 40
0.0
 41
0.0
 42
0.0
 43
0.0
 44
0.0
 45
0.0
 46
0.0
 47
0.0
 48
0.0
 49
0.0
140
0.0
141
0.0
142
1.0
143
1.0
 70
   688
 72
     0
 73
     0
 74
     5
  7

 75
    16
 76
     0
 77
     2
 78
   300
147
1.0
148
0.0
149
0.0
100
AcDbLayout
  1
Layout1
 70
     1
 71
     1
 10
0.0
 20
0.0
 11
12.0
 21
9.0
 12
0.0
 22
0.0
 32
0.0
 14
1.000000000000000E+20
 24
1.000000000000000E+20
 34
1.000000000000000E+20
 15
-1.000000000000000E+20
 25
-1.000000000000000E+20
 35
-1.000000000000000E+20
146
0.0
 13
0.0
 23
0.0
 33
0.0
 16
1.0
 26
0.0
 36
0.0
 17
0.0
 27
1.0
 37
0.0
 76
     0
330
1B
  0
LAYOUT
  5
26
102
{ACAD_REACTORS
330
1A
102
}
330
1A
100
AcDbPlotSettings
  1

  2
none_device
  4

  6

 40
0.0
 41
0.0
 42
0.0
 43
0.0
 44
0.0
 45
0.0
 46
0.0
 47
0.0
 48
0.0
 49
0.0
140
0.0
141
0.0
142
1.0
143
1.0
 70
   688
 72
     0
 73
     0
 74
     5
  7

 75
    16
 76
     0
 77
     2
 78
   300
147
1.0
148
0.0
149
0.0
100
AcDbLayout
  1
Layout2
 70
     1
 71
     2
 10
0.0
 20
0.0
 11
0.0
 21
0.0
 12
0.0
 22
0.0
 32
0.0
 14
0.0
 24
0.0
 34
0.0
 15
0.0
 25
0.0
 35
0.0
146
0.0
 13
0.0
 23
0.0
 33
0.0
 16
1.0
 26
0.0
 36
0.0
 17
0.0
 27
1.0
 37
0.0
 76
     0
330
23
  0
LAYOUT
  5
22
102
{ACAD_REACTORS
330
1A
102
}
330
1A
100
AcDbPlotSettings
  1

  2
none_device
  4

  6

 40
0.0
 41
0.0
 42
0.0
 43
0.0
 44
0.0
 45
0.0
 46
0.0
 47
0.0
 48
0.0
 49
0.0
140
0.0
141
0.0
142
1.0
143
1.0
 70
  1712
 72
     0
 73
     0
 74
     0
  7

 75
     0
 76
     0
 77
     2
 78
   300
147
1.0
148
0.0
149
0.0
100
AcDbLayout
  1
Model
 70
     1
 71
     0
 10
0.0
 20
0.0
 11
12.0
 21
9.0
 12
0.0
 22
0.0
 32
0.0
 14
1.000000000000000E+20
 24
1.000000000000000E+20
 34
1.000000000000000E+20
 15
-1.000000000000000E+20
 25
-1.000000000000000E+20
 35
-1.000000000000000E+20
146
0.0
 13
0.0
 23
0.0
 33
0.0
 16
1.0
 26
0.0
 36
0.0
 17
0.0
 27
1.0
 37
0.0
 76
     0
330
1F
331
29
  0
MATERIAL
  5
3D
102
{ACAD_REACTORS
330
3B
102
}
330
3B
100
AcDbMaterial
  1
ByBlock
 72
     1
 94
      127
  0
MATERIAL
  5
3C
102
{ACAD_REACTORS
330
3B
102
}
330
3B
100
AcDbMaterial
  1
ByLayer
 72
     1
 94
      127
  0
MATERIAL
  5
3E
102
{ACAD_REACTORS
330
3B
102
}
330
3B
100
AcDbMaterial
  1
Global
 72
     1
 94
      127
  0
MLINESTYLE
  5
18
102
{ACAD_REACTORS
330
17
102
}
330
17
100
AcDbMlineStyle
  2
Standard
 70
     0
  3

 62
   256
 51
90.0
 52
90.0
 71
     2
 49
0.5
 62
   256
  6
BYLAYER
 49
-0.5
 62
   256
  6
BYLAYER
  0
ACDBPLACEHOLDER
  5
F
102
{ACAD_REACTORS
330
E
102
}
330
E
  0
VISUALSTYLE
  5
2F
102
{ACAD_REACTORS
330
2A
102
}
330
2A
100
AcDbVisualStyle
  2
2dWireframe
 70
     4
177
     2
291
     0
 71
     0
176
     1
 72
     2
176
     1
 73
     0
176
     1
 90
        0
176
     1
 40
-0.6
176
     1
 41
-30.0
176
     1
 62
     5
 63
     7
421
 16777215
176
     1
 74
     1
176
     1
 91
        4
176
     1
 64
     7
176
     1
 65
   257
176
     1
 75
     1
176
     1
175
     1
176
     1
 42
1.0
176
     1
 92
        0
176
     1
 66
   257
176
     1
 43
1.0
176
     1
 76
     1
176
     1
 77
     6
176
     1
 78
     2
176
     1
 67
     7
176
     1
 79
     5
176
     1
170
     0
176
     1
171
     0
176
     1
290
     0
176
     1
 93
        1
176
     1
 44
0.0
176
     1
173
     0
176
     1
  0
VISUALSTYLE
  5
31
102
{ACAD_REACTORS
330
2A
102
}
330
2A
100
AcDbVisualStyle
  2
3D Hidden
 70
     6
177
     2
291
     0
 71
     1
176
     1
 72
     2
176
     1
 73
     2
176
     1
 90
        0
176
     1
 40
-0.6
176
     1
 41
-30.0
176
     1
 62
     5
 63
     7
421
 16777215
176
     1
 74
     2
176
     1
 91
        2
176
     1
 64
     7
176
     1
 65
   257
176
     1
 75
     2
176
     1
175
     1
176
     1
 42
40.0
176
     1
 92
        0
176
     1
 66
   257
176
     1
 43
1.0
176
     1
 76
     1
176
     1
 77
     6
176
     1
 78
     2
176
     1
 67
     7
176
     1
 79
     3
176
     1
170
     0
176
     1
171
     0
176
     1
290
     0
176
     1
 93
        1
176
     1
 44
0.0
176
     1
173
     0
176
     1
  0
VISUALSTYLE
  5
30
102
{ACAD_REACTORS
330
2A
102
}
330
2A
100
AcDbVisualStyle
  2
3dWireframe
 70
     5
177
     2
291
     0
 71
     0
176
     1
 72
     2
176
     1
 73
     0
176
     1
 90
        0
176
     1
 40
-0.6
176
     1
 41
-30.0
176
     1
 62
     5
 63
     7
421
 16777215
176
     1
 74
     1
176
     1
 91
        4
176
     1
 64
     7
176
     1
 65
   257
176
     1
 75
     1
176
     1
175
     1
176
     1
 42
1.0
176
     1
 92
        0
176
     1
 66
   257
176
     1
 43
1.0
176
     1
 76
     1
176
     1
 77
     6
176
     1
 78
     2
176
     1
 67
     7
176
     1
 79
     5
176
     1
170
     0
176
     1
171
     0
176
     1
290
     0
176
     1
 93
        1
176
     1
 44
0.0
176
     1
173
     0
176
     1
  0
VISUALSTYLE
  5
32
102
{ACAD_REACTORS
330
2A
102
}
330
2A
100
AcDbVisualStyle
  2
Basic
 70
     7
177
     2
291
     1
 71
     1
176
     1
 72
     0
176
     1
 73
     1
176
     1
 90
        0
176
     1
 40
-0.6
176
     1
 41
-30.0
176
     1
 62
     5
 63
     7
421
 16777215
176
     1
 74
     0
176
     1
 91
        4
176
     1
 64
     7
176
     1
 65
   257
176
     1
 75
     1
176
     1
175
     1
176
     1
 42
1.0
176
     1
 92
        8
176
     1
 66
     7
176
     1
 43
1.0
176
     1
 76
     1
176
     1
 77
     6
176
     1
 78
     2
176
     1
 67
     7
176
     1
 79
     5
176
     1
170
     0
176
     1
171
     0
176
     1
290
     0
176
     1
 93
        1
176
     1
 44
0.0
176
     1
173
     0
176
     1
  0
VISUALSTYLE
  5
36
102
{ACAD_REACTORS
330
2A
102
}
330
2A
100
AcDbVisualStyle
  2
Brighten
 70
    12
177
     2
291
     1
 71
     2
176
     1
 72
     2
176
     1
 73
     0
176
     1
 90
        0
176
     1
 40
-0.6
176
     1
 41
-30.0
176
     1
 62
     5
 63
     7
421
 16777215
176
     1
 74
     1
176
     1
 91
        4
176
     1
 64
     7
176
     1
 65
   257
176
     1
 75
     1
176
     1
175
     1
176
     1
 42
1.0
176
     1
 92
        8
176
     1
 66
     7
176
     1
 43
1.0
176
     1
 76
     1
176
     1
 77
     6
176
     1
 78
     2
176
     1
 67
     7
176
     1
 79
     5
176
     1
170
     0
176
     1
171
     0
176
     1
290
     0
176
     1
 93
        1
176
     1
 44
50.0
176
     1
173
     0
176
     1
  0
VISUALSTYLE
  5
3A
102
{ACAD_REACTORS
330
2A
102
}
330
2A
100
AcDbVisualStyle
  2
ColorChange
 70
    16
177
     2
291
     1
 71
     2
176
     1
 72
     2
176
     1
 73
     3
176
     1
 90
        0
176
     1
 40
-0.6
176
     1
 41
-30.0
176
     1
 62
     5
 63
     8
421
  8421504
176
     1
 74
     1
176
     1
 91
        4
176
     1
 64
     7
176
     1
 65
   257
176
     1
 75
     1
176
     1
175
     1
176
     1
 42
1.0
176
     1
 92
        8
176
     1
 66
     8
424
  8421504
176
     1
 43
1.0
176
     1
 76
     1
176
     1
 77
     6
176
     1
 78
     2
176
     1
 67
     7
176
     1
 79
     5
176
     1
170
     0
176
     1
171
     0
176
     1
290
     0
176
     1
 93
        1
176
     1
 44
0.0
176
     1
173
     0
176
     1
  0
VISUALSTYLE
  5
34
102
{ACAD_REACTORS
330
2A
102
}
330
2A
100
AcDbVisualStyle
  2
Conceptual
 70
     9
177
     2
291
     0
 71
     3
176
     1
 72
     2
176
     1
 73
     0
176
     1
 90
        0
176
     1
 40
-0.6
176
     1
 41
-30.0
176
     1
 62
     5
 63
     7
421
 16777215
176
     1
 74
     2
176
     1
 91
        2
176
     1
 64
     7
176
     1
 65
   257
176
     1
 75
     1
176
     1
175
     1
176
     1
 42
40.0
176
     1
 92
        8
176
     1
 66
     7
176
     1
 43
1.0
176
     1
 76
     1
176
     1
 77
     6
176
     1
 78
     2
176
     1
 67
     7
176
     1
 79
     3
176
     1
170
     0
176
     1
171
     0
176
     1
290
     0
176
     1
 93
        1
176
     1
 44
0.0
176
     1
173
     0
176
     1
  0
VISUALSTYLE
  5
35
102
{ACAD_REACTORS
330
2A
102
}
330
2A
100
AcDbVisualStyle
  2
Dim
 70
    11
177
     2
291
     1
 71
     2
176
     1
 72
     2
176
     1
 73
     0
176
     1
 90
        0
176
     1
 40
-0.6
176
     1
 41
-30.0
176
     1
 62
     5
 63
     7
421
 16777215
176
     1
 74
     1
176
     1
 91
        4
176
     1
 64
     7
176
     1
 65
   257
176
     1
 75
     1
176
     1
175
     1
176
     1
 42
1.0
176
     1
 92
        8
176
     1
 66
     7
176
     1
 43
1.0
176
     1
 76
     1
176
     1
 77
     6
176
     1
 78
     2
176
     1
 67
     7
176
     1
 79
     5
176
     1
170
     0
176
     1
171
     0
176
     1
290
     0
176
     1
 93
        1
176
     1
 44
-50.0
176
     1
173
     0
176
     1
  0
VISUALSTYLE
  5
39
102
{ACAD_REACTORS
330
2A
102
}
330
2A
100
AcDbVisualStyle
  2
Facepattern
 70
    15
177
     2
291
     1
 71
     2
176
     1
 72
     2
176
     1
 73
     0
176
     1
 90
        0
176
     1
 40
-0.6
176
     1
 41
-30.0
176
     1
 62
     5
 63
     7
421
 16777215
176
     1
 74
     1
176
     1
 91
        4
176
     1
 64
     7
176
     1
 65
   257
176
     1
 75
     1
176
     1
175
     1
176
     1
 42
1.0
176
     1
 92
        8
176
     1
 66
     7
176
     1
 43
1.0
176
     1
 76
     1
176
     1
 77
     6
176
     1
 78
     2
176
     1
 67
     7
176
     1
 79
     5
176
     1
170
     0
176
     1
171
     0
176
     1
290
     0
176
     1
 93
        1
176
     1
 44
0.0
176
     1
173
     0
176
     1
  0
VISUALSTYLE
  5
2B
102
{ACAD_REACTORS
330
2A
102
}
330
2A
100
AcDbVisualStyle
  2
Flat
 70
     0
177
     2
291
     1
 71
     2
176
     1
 72
     1
176
     1
 73
     1
176
     1
 90
        2
176
     1
 40
-0.6
176
     1
 41
30.0
176
     1
 62
     5
 63
     7
421
 16777215
176
     1
 74
     0
176
     1
 91
        4
176
     1
 64
     7
176
     1
 65
   257
176
     1
 75
     1
176
     1
175
     1
176
     1
 42
1.0
176
     1
 92
        8
176
     1
 66
     7
176
     1
 43
1.0
176
     1
 76
     1
176
     1
 77
     6
176
     1
 78
     2
176
     1
 67
     7
176
     1
 79
     5
176
     1
170
     0
176
     1
171
     0
176
     1
290
     0
176
     1
 93
       13
176
     1
 44
0.0
176
     1
173
     0
176
     1
  0
VISUALSTYLE
  5
2C
102
{ACAD_REACTORS
330
2A
102
}
330
2A
100
AcDbVisualStyle
  2
FlatWithEdges
 70
     1
177
     2
291
     1
 71
     2
176
     1
 72
     1
176
     1
 73
     1
176
     1
 90
        2
176
     1
 40
-0.6
176
     1
 41
30.0
176
     1
 62
     5
 63
     7
421
 16777215
176
     1
 74
     1
176
     1
 91
        4
176
     1
 64
     7
176
     1
 65
   257
176
     1
 75
     1
176
     1
175
     1
176
     1
 42
1.0
176
     1
 92
        0
176
     1
 66
   257
176
     1
 43
1.0
176
     1
 76
     1
176
     1
 77
     6
176
     1
 78
     2
176
     1
 67
     7
176
     1
 79
     5
176
     1
170
     0
176
     1
171
     0
176
     1
290
     0
176
     1
 93
       13
176
     1
 44
0.0
176
     1
173
     0
176
     1
  0
VISUALSTYLE
  5
2D
102
{ACAD_REACTORS
330
2A
102
}
330
2A
100
AcDbVisualStyle
  2
Gouraud
 70
     2
177
     2
291
     1
 71
     2
176
     1
 72
     2
176
     1
 73
     1
176
     1
 90
        2
176
     1
 40
-0.6
176
     1
 41
30.0
176
     1
 62
     5
 63
     7
421
 16777215
176
     1
 74
     0
176
     1
 91
        4
176
     1
 64
     7
176
     1
 65
   257
176
     1
 75
     1
176
     1
175
     1
176
     1
 42
1.0
176
     1
 92
        0
176
     1
 66
     7
176
     1
 43
1.0
176
     1
 76
     1
176
     1
 77
     6
176
     1
 78
     2
176
     1
 67
     7
176
     1
 79
     5
176
     1
170
     0
176
     1
171
     0
176
     1
290
     0
176
     1
 93
       13
176
     1
 44
0.0
176
     1
173
     0
176
     1
  0
VISUALSTYLE
  5
2E
102
{ACAD_REACTORS
330
2A
102
}
330
2A
100
AcDbVisualStyle
  2
GouraudWithEdges
 70
     3
177
     2
291
     1
 71
     2
176
     1
 72
     2
176
     1
 73
     1
176
     1
 90
        2
176
     1
 40
-0.6
176
     1
 41
30.0
176
     1
 62
     5
 63
     7
421
 16777215
176
     1
 74
     1
176
     1
 91
        4
176
     1
 64
     7
176
     1
 65
   257
176
     1
 75
     1
176
     1
175
     1
176
     1
 42
1.0
176
     1
 92
        0
176
     1
 66
   257
176
     1
 43
1.0
176
     1
 76
     1
176
     1
 77
     6
176
     1
 78
     2
176
     1
 67
     7
176
     1
 79
     5
176
     1
170
     0
176
     1
171
     0
176
     1
290
     0
176
     1
 93
       13
176
     1
 44
0.0
176
     1
173
     0
176
     1
  0
VISUALSTYLE
  5
38
102
{ACAD_REACTORS
330
2A
102
}
330
2A
100
AcDbVisualStyle
  2
Linepattern
 70
    14
177
     2
291
     1
 71
     2
176
     1
 72
     2
176
     1
 73
     0
176
     1
 90
        0
176
     1
 40
-0.6
176
     1
 41
-30.0
176
     1
 62
     5
 63
     7
421
 16777215
176
     1
 74
     1
176
     1
 91
        4
176
     1
 64
     7
176
     1
 65
   257
176
     1
 75
     7
176
     1
175
     7
176
     1
 42
1.0
176
     1
 92
        8
176
     1
 66
     7
176
     1
 43
1.0
176
     1
 76
     1
176
     1
 77
     6
176
     1
 78
     2
176
     1
 67
     7
176
     1
 79
     5
176
     1
170
     0
176
     1
171
     0
176
     1
290
     0
176
     1
 93
        1
176
     1
 44
0.0
176
     1
173
     0
176
     1
  0
VISUALSTYLE
  5
33
102
{ACAD_REACTORS
330
2A
102
}
330
2A
100
AcDbVisualStyle
  2
Realistic
 70
     8
177
     2
291
     0
 71
     2
176
     1
 72
     2
176
     1
 73
     0
176
     1
 90
        0
176
     1
 40
-0.6
176
     1
 41
-30.0
176
     1
 62
     5
 63
     7
421
 16777215
176
     1
 74
     1
176
     1
 91
        0
176
     1
 64
     7
176
     1
 65
   257
176
     1
 75
     1
176
     1
175
     1
176
     1
 42
1.0
176
     1
 92
        8
176
     1
 66
     8
424
  7895160
176
     1
 43
1.0
176
     1
 76
     1
176
     1
 77
     6
176
     1
 78
     2
176
     1
 67
     7
176
     1
 79
     5
176
     1
170
     0
176
     1
171
     0
176
     1
290
     0
176
     1
 93
       13
176
     1
 44
0.0
176
     1
173
     0
176
     1
  0
VISUALSTYLE
  5
37
102
{ACAD_REACTORS
330
2A
102
}
330
2A
100
AcDbVisualStyle
  2
Thicken
 70
    13
177
     2
291
     1
 71
     2
176
     1
 72
     2
176
     1
 73
     0
176
     1
 90
        0
176
     1
 40
-0.6
176
     1
 41
-30.0
176
     1
 62
     5
 63
     7
421
 16777215
176
     1
 74
     1
176
     1
 91
        4
176
     1
 64
     7
176
     1
 65
   257
176
     1
 75
     1
176
     1
175
     1
176
     1
 42
1.0
176
     1
 92
       12
176
     1
 66
     7
176
     1
 43
1.0
176
     1
 76
     1
176
     1
 77
     6
176
     1
 78
     2
176
     1
 67
     7
176
     1
 79
     5
176
     1
170
     0
176
     1
171
     0
176
     1
290
     0
176
     1
 93
        1
176
     1
 44
0.0
176
     1
173
     0
176
     1
  0
ENDSEC
  0
EOF
